; NON-PLATED HOLES START AT T1
; THROUGH (PLATED) HOLES START AT T100
M48
INCH
T1C0.125984
T100C0.038000
T101C0.040278
T102C0.035000
T103C0.040000
T104C0.039370
T105C0.015748
T106C0.038779
T107C0.051180
%
T1
X001985Y002309
X027985Y002309
X001985Y028309
X020985Y028309
T100
X011285Y003309
X003985Y003309
X003985Y006509
X011291Y006509
X011291Y007509
X003985Y002309
X003985Y007509
X011285Y002309
X011985Y021309
T101
X022981Y003330
X022981Y006309
X020985Y006309
X021984Y003330
X021984Y006309
X020985Y003330
T102
X015985Y026309
X013985Y023309
X018985Y023309
X012985Y007309
X006985Y026309
X002985Y023309
X019985Y026309
X016985Y023309
X017985Y023309
X010985Y026309
X009985Y023309
X014985Y023309
X009985Y026309
X003985Y026309
X008985Y023309
X016544Y005309
X012985Y026309
X004985Y026309
X002985Y026309
X005985Y023309
X018985Y026309
X020985Y023309
X016544Y003538
X005985Y026309
X006985Y023309
X017985Y007309
X019985Y023309
X016985Y026309
X013985Y003538
X012985Y023309
X010985Y023309
X008985Y026309
X013985Y005309
X020985Y026309
X003985Y023309
X014985Y026309
X013985Y026309
X007985Y023309
X017985Y026309
X015985Y023309
X007985Y026309
X004985Y023309
T103
X021985Y031309
X002985Y010309
X027985Y031309
X025985Y031309
X003985Y031309
X015985Y031309
X002985Y012309
X009985Y031309
X023985Y031309
X013985Y031309
X011985Y031309
X001985Y031309
T104
X017985Y031309
X019985Y031309
X007985Y031309
X005985Y031309
T105
X024985Y023309
T106
X007980Y020172
X020976Y020172
X024970Y020172
X018979Y010316
X011984Y010316
X017975Y010316
X016982Y020172
X015978Y010316
X025974Y010316
X010981Y010316
X015978Y020172
X024970Y010316
X018979Y020172
X021980Y010316
X009987Y010316
X013981Y020172
X012978Y020172
X019972Y020172
X025974Y020172
X011984Y020172
X019972Y010316
X014975Y020172
X008983Y020172
X017975Y020172
X021980Y020172
X009987Y020172
X022973Y010316
X007980Y010316
X014975Y010316
X010981Y020172
X016982Y010316
X023977Y010316
X020976Y010316
X008983Y010316
X022973Y020172
X013981Y010316
X023977Y020172
X012978Y010316
T107
X022985Y027309
X027710Y027309
X025347Y028102
X022978Y022506
X027759Y022506
T00
M30
