G04 MADE WITH FRITZING*
G04 WWW.FRITZING.ORG*
G04 DOUBLE SIDED*
G04 HOLES PLATED*
G04 CONTOUR ON CENTER OF CONTOUR VECTOR*
%ASAXBY*%
%FSLAX23Y23*%
%MOIN*%
%OFA0B0*%
%SFA1.0B1.0*%
%ADD10C,0.075000*%
%ADD11C,0.091180*%
%ADD12C,0.039370*%
%ADD13C,0.071828*%
%ADD14C,0.080000*%
%ADD15C,0.079370*%
%ADD16C,0.078000*%
%ADD17C,0.070277*%
%ADD18R,0.091000X0.091000*%
%ADD19R,0.075000X0.075000*%
%ADD20R,0.080000X0.080000*%
%ADD21R,0.079370X0.079370*%
%ADD22R,0.078000X0.078000*%
%ADD23C,0.024000*%
%ADD24C,0.048000*%
%LNCOPPER1*%
G90*
G70*
G54D10*
X834Y2182D03*
X123Y3349D03*
G54D11*
X2299Y2731D03*
X2298Y2251D03*
X2776Y2251D03*
X2771Y2731D03*
X2535Y2810D03*
G54D12*
X2499Y2331D03*
G54D13*
X2597Y2017D03*
X2497Y2017D03*
X2398Y2017D03*
X2297Y2017D03*
X2198Y2017D03*
X2098Y2017D03*
X1997Y2017D03*
X1898Y2017D03*
X1798Y2017D03*
X1698Y2017D03*
X1598Y2017D03*
X1498Y2017D03*
X1398Y2017D03*
X1298Y2017D03*
X1198Y2017D03*
X1098Y2017D03*
X999Y2017D03*
X898Y2017D03*
X798Y2017D03*
X798Y1032D03*
X898Y1032D03*
X999Y1032D03*
X1098Y1032D03*
X1198Y1032D03*
X1298Y1032D03*
X1398Y1032D03*
X1498Y1032D03*
X1598Y1032D03*
X1698Y1032D03*
X1798Y1032D03*
X1898Y1032D03*
X1997Y1032D03*
X2098Y1032D03*
X2198Y1032D03*
X2297Y1032D03*
X2398Y1032D03*
X2497Y1032D03*
X2597Y1032D03*
G54D10*
X299Y2331D03*
X299Y2631D03*
X399Y2331D03*
X399Y2631D03*
X499Y2331D03*
X499Y2631D03*
X599Y2331D03*
X599Y2631D03*
X699Y2331D03*
X699Y2631D03*
X799Y2331D03*
X799Y2631D03*
X899Y2331D03*
X899Y2631D03*
X999Y2331D03*
X999Y2631D03*
X1099Y2331D03*
X1099Y2631D03*
X1299Y2331D03*
X1299Y2631D03*
X1399Y2331D03*
X1399Y2631D03*
X1499Y2331D03*
X1499Y2631D03*
X1599Y2331D03*
X1599Y2631D03*
X1699Y2331D03*
X1699Y2631D03*
X1799Y2331D03*
X1799Y2631D03*
X1899Y2331D03*
X1899Y2631D03*
X1999Y2331D03*
X1999Y2631D03*
X2099Y2331D03*
X2099Y2631D03*
G54D14*
X199Y3131D03*
X399Y3131D03*
X1399Y3131D03*
X1599Y3131D03*
G54D15*
X599Y3131D03*
X799Y3131D03*
X1799Y3131D03*
X1999Y3131D03*
G54D14*
X2599Y3131D03*
X2799Y3131D03*
X999Y3131D03*
X1199Y3131D03*
X2199Y3131D03*
X2399Y3131D03*
G54D16*
X1199Y2131D03*
G54D17*
X2099Y333D03*
X2099Y631D03*
X2198Y333D03*
X2198Y631D03*
X2298Y333D03*
X2298Y631D03*
G54D16*
X399Y751D03*
X399Y331D03*
X1129Y751D03*
X1129Y651D03*
X1129Y331D03*
X399Y651D03*
X399Y231D03*
X1129Y231D03*
G54D14*
X299Y1231D03*
X299Y1031D03*
G54D10*
X1654Y354D03*
X1399Y354D03*
X1654Y531D03*
X1399Y531D03*
X1299Y731D03*
X1799Y731D03*
G54D18*
X2298Y2731D03*
G54D19*
X299Y2331D03*
X1299Y2331D03*
G54D20*
X199Y3131D03*
X1399Y3131D03*
G54D21*
X599Y3131D03*
X1799Y3131D03*
G54D20*
X2599Y3131D03*
X999Y3131D03*
X2199Y3131D03*
G54D22*
X1130Y651D03*
X399Y651D03*
X399Y231D03*
X1130Y231D03*
G54D20*
X299Y1231D03*
G54D23*
X397Y1331D02*
X299Y1432D01*
D02*
X397Y1532D02*
X399Y2302D01*
D02*
X299Y1432D02*
X299Y2302D01*
D02*
X1399Y1331D02*
X397Y1331D01*
D02*
X1498Y1062D02*
X1500Y1230D01*
D02*
X1500Y1230D02*
X1399Y1331D01*
D02*
X498Y1432D02*
X397Y1532D01*
D02*
X599Y1532D02*
X498Y1630D01*
D02*
X700Y1630D02*
X599Y1731D01*
D02*
X1500Y1431D02*
X498Y1432D01*
D02*
X1600Y1331D02*
X1500Y1431D01*
D02*
X1600Y1532D02*
X599Y1532D01*
D02*
X1697Y1431D02*
X1600Y1532D01*
D02*
X1697Y1632D02*
X700Y1630D01*
D02*
X1797Y1532D02*
X1697Y1632D01*
D02*
X1898Y1632D02*
X1797Y1733D01*
D02*
X1797Y1733D02*
X797Y1731D01*
D02*
X797Y1731D02*
X700Y1832D01*
D02*
X1898Y1062D02*
X1898Y1632D01*
D02*
X700Y1832D02*
X699Y2302D01*
D02*
X1798Y1062D02*
X1797Y1532D01*
D02*
X599Y1731D02*
X599Y2302D01*
D02*
X1698Y1062D02*
X1697Y1431D01*
D02*
X498Y1630D02*
X499Y2302D01*
D02*
X1598Y1062D02*
X1600Y1331D01*
G54D24*
D02*
X2598Y2430D02*
X1799Y2430D01*
D02*
X1799Y2430D02*
X1699Y2532D01*
D02*
X2747Y2689D02*
X2598Y2430D01*
D02*
X1699Y2532D02*
X1699Y2591D01*
D02*
X1998Y2131D02*
X2098Y2231D01*
D02*
X2098Y2231D02*
X2098Y2291D01*
D02*
X1898Y2131D02*
X1998Y2131D01*
D02*
X1799Y2231D02*
X1898Y2131D01*
D02*
X1197Y2230D02*
X1799Y2231D01*
D02*
X1126Y2303D02*
X1197Y2230D01*
G36*
X2182Y2757D02*
X2182Y2755D01*
X2180Y2755D01*
X2180Y2753D01*
X2178Y2753D01*
X2178Y2751D01*
X2176Y2751D01*
X2176Y2749D01*
X2174Y2749D01*
X2174Y2747D01*
X2172Y2747D01*
X2172Y2745D01*
X2170Y2745D01*
X2170Y2743D01*
X2168Y2743D01*
X2168Y2741D01*
X2164Y2741D01*
X2164Y2739D01*
X2162Y2739D01*
X2162Y2737D01*
X2158Y2737D01*
X2158Y2735D01*
X2156Y2735D01*
X2156Y2733D01*
X2152Y2733D01*
X2152Y2731D01*
X2148Y2731D01*
X2148Y2729D01*
X2144Y2729D01*
X2144Y2727D01*
X2140Y2727D01*
X2140Y2707D01*
X2144Y2707D01*
X2144Y2705D01*
X2148Y2705D01*
X2148Y2703D01*
X2150Y2703D01*
X2150Y2701D01*
X2152Y2701D01*
X2152Y2699D01*
X2156Y2699D01*
X2156Y2697D01*
X2158Y2697D01*
X2158Y2695D01*
X2160Y2695D01*
X2160Y2693D01*
X2162Y2693D01*
X2162Y2691D01*
X2164Y2691D01*
X2164Y2689D01*
X2166Y2689D01*
X2166Y2685D01*
X2168Y2685D01*
X2168Y2683D01*
X2170Y2683D01*
X2170Y2681D01*
X2172Y2681D01*
X2172Y2677D01*
X2174Y2677D01*
X2174Y2673D01*
X2176Y2673D01*
X2176Y2669D01*
X2178Y2669D01*
X2178Y2665D01*
X2180Y2665D01*
X2180Y2661D01*
X2182Y2661D01*
X2182Y2653D01*
X2202Y2653D01*
X2202Y2757D01*
X2182Y2757D01*
G37*
D02*
G36*
X2464Y2357D02*
X2464Y2353D01*
X2462Y2353D01*
X2462Y2351D01*
X2460Y2351D01*
X2460Y2345D01*
X2458Y2345D01*
X2458Y2317D01*
X2496Y2317D01*
X2496Y2319D01*
X2492Y2319D01*
X2492Y2321D01*
X2488Y2321D01*
X2488Y2325D01*
X2486Y2325D01*
X2486Y2329D01*
X2484Y2329D01*
X2484Y2333D01*
X2486Y2333D01*
X2486Y2357D01*
X2464Y2357D01*
G37*
D02*
G36*
X2510Y2357D02*
X2510Y2337D01*
X2512Y2337D01*
X2512Y2325D01*
X2510Y2325D01*
X2510Y2323D01*
X2508Y2323D01*
X2508Y2321D01*
X2506Y2321D01*
X2506Y2319D01*
X2502Y2319D01*
X2502Y2317D01*
X2538Y2317D01*
X2538Y2321D01*
X2540Y2321D01*
X2540Y2343D01*
X2538Y2343D01*
X2538Y2349D01*
X2536Y2349D01*
X2536Y2353D01*
X2534Y2353D01*
X2534Y2355D01*
X2532Y2355D01*
X2532Y2357D01*
X2510Y2357D01*
G37*
D02*
G36*
X2460Y2317D02*
X2460Y2315D01*
X2538Y2315D01*
X2538Y2317D01*
X2460Y2317D01*
G37*
D02*
G36*
X2460Y2317D02*
X2460Y2315D01*
X2538Y2315D01*
X2538Y2317D01*
X2460Y2317D01*
G37*
D02*
G36*
X2460Y2315D02*
X2460Y2313D01*
X2462Y2313D01*
X2462Y2309D01*
X2464Y2309D01*
X2464Y2307D01*
X2466Y2307D01*
X2466Y2303D01*
X2468Y2303D01*
X2468Y2301D01*
X2470Y2301D01*
X2470Y2299D01*
X2474Y2299D01*
X2474Y2297D01*
X2476Y2297D01*
X2476Y2295D01*
X2480Y2295D01*
X2480Y2293D01*
X2484Y2293D01*
X2484Y2291D01*
X2512Y2291D01*
X2512Y2293D01*
X2518Y2293D01*
X2518Y2295D01*
X2522Y2295D01*
X2522Y2297D01*
X2524Y2297D01*
X2524Y2299D01*
X2526Y2299D01*
X2526Y2301D01*
X2528Y2301D01*
X2528Y2303D01*
X2530Y2303D01*
X2530Y2305D01*
X2532Y2305D01*
X2532Y2307D01*
X2534Y2307D01*
X2534Y2311D01*
X2536Y2311D01*
X2536Y2315D01*
X2460Y2315D01*
G37*
D02*
G36*
X1936Y2253D02*
X1936Y2251D01*
X1930Y2251D01*
X1930Y2249D01*
X1924Y2249D01*
X1924Y2247D01*
X1918Y2247D01*
X1918Y2245D01*
X1908Y2245D01*
X1908Y2225D01*
X1910Y2225D01*
X1910Y2223D01*
X1912Y2223D01*
X1912Y2221D01*
X1914Y2221D01*
X1914Y2219D01*
X1916Y2219D01*
X1916Y2217D01*
X1918Y2217D01*
X1918Y2215D01*
X1920Y2215D01*
X1920Y2213D01*
X1922Y2213D01*
X1922Y2211D01*
X1924Y2211D01*
X1924Y2209D01*
X1926Y2209D01*
X1926Y2207D01*
X1928Y2207D01*
X1928Y2205D01*
X1968Y2205D01*
X1968Y2207D01*
X1970Y2207D01*
X1970Y2209D01*
X1972Y2209D01*
X1972Y2211D01*
X1974Y2211D01*
X1974Y2213D01*
X1976Y2213D01*
X1976Y2215D01*
X1978Y2215D01*
X1978Y2217D01*
X1980Y2217D01*
X1980Y2219D01*
X1982Y2219D01*
X1982Y2221D01*
X1984Y2221D01*
X1984Y2223D01*
X1986Y2223D01*
X1986Y2225D01*
X1988Y2225D01*
X1988Y2245D01*
X1980Y2245D01*
X1980Y2247D01*
X1972Y2247D01*
X1972Y2249D01*
X1966Y2249D01*
X1966Y2251D01*
X1962Y2251D01*
X1962Y2253D01*
X1936Y2253D01*
G37*
D02*
G36*
X836Y2253D02*
X836Y2251D01*
X830Y2251D01*
X830Y2249D01*
X824Y2249D01*
X824Y2247D01*
X818Y2247D01*
X818Y2245D01*
X800Y2245D01*
X800Y2243D01*
X896Y2243D01*
X896Y2245D01*
X880Y2245D01*
X880Y2247D01*
X872Y2247D01*
X872Y2249D01*
X866Y2249D01*
X866Y2251D01*
X862Y2251D01*
X862Y2253D01*
X836Y2253D01*
G37*
D02*
G36*
X936Y2253D02*
X936Y2251D01*
X930Y2251D01*
X930Y2249D01*
X924Y2249D01*
X924Y2247D01*
X918Y2247D01*
X918Y2245D01*
X900Y2245D01*
X900Y2243D01*
X996Y2243D01*
X996Y2245D01*
X980Y2245D01*
X980Y2247D01*
X972Y2247D01*
X972Y2249D01*
X966Y2249D01*
X966Y2251D01*
X962Y2251D01*
X962Y2253D01*
X936Y2253D01*
G37*
D02*
G36*
X1036Y2253D02*
X1036Y2251D01*
X1030Y2251D01*
X1030Y2249D01*
X1024Y2249D01*
X1024Y2247D01*
X1018Y2247D01*
X1018Y2245D01*
X1000Y2245D01*
X1000Y2243D01*
X1080Y2243D01*
X1080Y2245D01*
X1078Y2245D01*
X1078Y2247D01*
X1072Y2247D01*
X1072Y2249D01*
X1066Y2249D01*
X1066Y2251D01*
X1062Y2251D01*
X1062Y2253D01*
X1036Y2253D01*
G37*
D02*
G36*
X760Y2247D02*
X760Y2243D01*
X796Y2243D01*
X796Y2245D01*
X780Y2245D01*
X780Y2247D01*
X760Y2247D01*
G37*
D02*
G36*
X760Y2243D02*
X760Y2241D01*
X1082Y2241D01*
X1082Y2243D01*
X760Y2243D01*
G37*
D02*
G36*
X760Y2243D02*
X760Y2241D01*
X1082Y2241D01*
X1082Y2243D01*
X760Y2243D01*
G37*
D02*
G36*
X760Y2243D02*
X760Y2241D01*
X1082Y2241D01*
X1082Y2243D01*
X760Y2243D01*
G37*
D02*
G36*
X760Y2243D02*
X760Y2241D01*
X1082Y2241D01*
X1082Y2243D01*
X760Y2243D01*
G37*
D02*
G36*
X760Y2241D02*
X760Y2111D01*
X1016Y2111D01*
X1016Y2109D01*
X1022Y2109D01*
X1022Y2107D01*
X1028Y2107D01*
X1028Y2105D01*
X1034Y2105D01*
X1034Y2103D01*
X1036Y2103D01*
X1036Y2101D01*
X1060Y2101D01*
X1060Y2103D01*
X1064Y2103D01*
X1064Y2105D01*
X1068Y2105D01*
X1068Y2107D01*
X1074Y2107D01*
X1074Y2109D01*
X1080Y2109D01*
X1080Y2111D01*
X1110Y2111D01*
X1110Y2147D01*
X1112Y2147D01*
X1112Y2155D01*
X1114Y2155D01*
X1114Y2161D01*
X1116Y2161D01*
X1116Y2167D01*
X1118Y2167D01*
X1118Y2171D01*
X1120Y2171D01*
X1120Y2175D01*
X1122Y2175D01*
X1122Y2179D01*
X1124Y2179D01*
X1124Y2201D01*
X1122Y2201D01*
X1122Y2203D01*
X1120Y2203D01*
X1120Y2205D01*
X1118Y2205D01*
X1118Y2207D01*
X1116Y2207D01*
X1116Y2209D01*
X1114Y2209D01*
X1114Y2211D01*
X1112Y2211D01*
X1112Y2213D01*
X1110Y2213D01*
X1110Y2215D01*
X1108Y2215D01*
X1108Y2217D01*
X1106Y2217D01*
X1106Y2219D01*
X1104Y2219D01*
X1104Y2221D01*
X1102Y2221D01*
X1102Y2223D01*
X1100Y2223D01*
X1100Y2225D01*
X1098Y2225D01*
X1098Y2227D01*
X1096Y2227D01*
X1096Y2229D01*
X1094Y2229D01*
X1094Y2231D01*
X1092Y2231D01*
X1092Y2233D01*
X1090Y2233D01*
X1090Y2235D01*
X1088Y2235D01*
X1088Y2237D01*
X1086Y2237D01*
X1086Y2239D01*
X1084Y2239D01*
X1084Y2241D01*
X760Y2241D01*
G37*
D02*
G36*
X760Y2111D02*
X760Y2109D01*
X780Y2109D01*
X780Y2111D01*
X760Y2111D01*
G37*
D02*
G36*
X816Y2111D02*
X816Y2109D01*
X822Y2109D01*
X822Y2107D01*
X828Y2107D01*
X828Y2105D01*
X832Y2105D01*
X832Y2103D01*
X836Y2103D01*
X836Y2101D01*
X860Y2101D01*
X860Y2103D01*
X864Y2103D01*
X864Y2105D01*
X868Y2105D01*
X868Y2107D01*
X874Y2107D01*
X874Y2109D01*
X882Y2109D01*
X882Y2111D01*
X816Y2111D01*
G37*
D02*
G36*
X916Y2111D02*
X916Y2109D01*
X922Y2109D01*
X922Y2107D01*
X928Y2107D01*
X928Y2105D01*
X932Y2105D01*
X932Y2103D01*
X936Y2103D01*
X936Y2101D01*
X960Y2101D01*
X960Y2103D01*
X964Y2103D01*
X964Y2105D01*
X970Y2105D01*
X970Y2107D01*
X974Y2107D01*
X974Y2109D01*
X982Y2109D01*
X982Y2111D01*
X916Y2111D01*
G37*
D02*
G36*
X1288Y2157D02*
X1288Y2111D01*
X1716Y2111D01*
X1716Y2109D01*
X1722Y2109D01*
X1722Y2107D01*
X1728Y2107D01*
X1728Y2105D01*
X1732Y2105D01*
X1732Y2103D01*
X1736Y2103D01*
X1736Y2101D01*
X1760Y2101D01*
X1760Y2103D01*
X1764Y2103D01*
X1764Y2105D01*
X1768Y2105D01*
X1768Y2107D01*
X1774Y2107D01*
X1774Y2109D01*
X1780Y2109D01*
X1780Y2111D01*
X1796Y2111D01*
X1796Y2131D01*
X1794Y2131D01*
X1794Y2133D01*
X1792Y2133D01*
X1792Y2135D01*
X1790Y2135D01*
X1790Y2137D01*
X1788Y2137D01*
X1788Y2139D01*
X1786Y2139D01*
X1786Y2141D01*
X1784Y2141D01*
X1784Y2143D01*
X1782Y2143D01*
X1782Y2145D01*
X1780Y2145D01*
X1780Y2147D01*
X1778Y2147D01*
X1778Y2149D01*
X1776Y2149D01*
X1776Y2151D01*
X1774Y2151D01*
X1774Y2153D01*
X1772Y2153D01*
X1772Y2155D01*
X1770Y2155D01*
X1770Y2157D01*
X1288Y2157D01*
G37*
D02*
G36*
X1314Y2111D02*
X1314Y2109D01*
X1322Y2109D01*
X1322Y2107D01*
X1328Y2107D01*
X1328Y2105D01*
X1332Y2105D01*
X1332Y2103D01*
X1336Y2103D01*
X1336Y2101D01*
X1360Y2101D01*
X1360Y2103D01*
X1364Y2103D01*
X1364Y2105D01*
X1368Y2105D01*
X1368Y2107D01*
X1374Y2107D01*
X1374Y2109D01*
X1382Y2109D01*
X1382Y2111D01*
X1314Y2111D01*
G37*
D02*
G36*
X1416Y2111D02*
X1416Y2109D01*
X1422Y2109D01*
X1422Y2107D01*
X1428Y2107D01*
X1428Y2105D01*
X1432Y2105D01*
X1432Y2103D01*
X1436Y2103D01*
X1436Y2101D01*
X1460Y2101D01*
X1460Y2103D01*
X1464Y2103D01*
X1464Y2105D01*
X1468Y2105D01*
X1468Y2107D01*
X1474Y2107D01*
X1474Y2109D01*
X1480Y2109D01*
X1480Y2111D01*
X1416Y2111D01*
G37*
D02*
G36*
X1514Y2111D02*
X1514Y2109D01*
X1522Y2109D01*
X1522Y2107D01*
X1528Y2107D01*
X1528Y2105D01*
X1532Y2105D01*
X1532Y2103D01*
X1536Y2103D01*
X1536Y2101D01*
X1560Y2101D01*
X1560Y2103D01*
X1564Y2103D01*
X1564Y2105D01*
X1568Y2105D01*
X1568Y2107D01*
X1574Y2107D01*
X1574Y2109D01*
X1580Y2109D01*
X1580Y2111D01*
X1514Y2111D01*
G37*
D02*
G36*
X1616Y2111D02*
X1616Y2109D01*
X1622Y2109D01*
X1622Y2107D01*
X1628Y2107D01*
X1628Y2105D01*
X1632Y2105D01*
X1632Y2103D01*
X1636Y2103D01*
X1636Y2101D01*
X1660Y2101D01*
X1660Y2103D01*
X1664Y2103D01*
X1664Y2105D01*
X1668Y2105D01*
X1668Y2107D01*
X1674Y2107D01*
X1674Y2109D01*
X1682Y2109D01*
X1682Y2111D01*
X1616Y2111D01*
G37*
D02*
G36*
X660Y1765D02*
X660Y1757D01*
X662Y1757D01*
X662Y1755D01*
X664Y1755D01*
X664Y1753D01*
X666Y1753D01*
X666Y1751D01*
X668Y1751D01*
X668Y1749D01*
X670Y1749D01*
X670Y1747D01*
X672Y1747D01*
X672Y1745D01*
X674Y1745D01*
X674Y1743D01*
X676Y1743D01*
X676Y1741D01*
X678Y1741D01*
X678Y1739D01*
X680Y1739D01*
X680Y1737D01*
X682Y1737D01*
X682Y1735D01*
X684Y1735D01*
X684Y1733D01*
X686Y1733D01*
X686Y1731D01*
X688Y1731D01*
X688Y1729D01*
X690Y1729D01*
X690Y1727D01*
X692Y1727D01*
X692Y1725D01*
X694Y1725D01*
X694Y1723D01*
X696Y1723D01*
X696Y1721D01*
X698Y1721D01*
X698Y1719D01*
X700Y1719D01*
X700Y1717D01*
X702Y1717D01*
X702Y1715D01*
X704Y1715D01*
X704Y1713D01*
X706Y1713D01*
X706Y1711D01*
X708Y1711D01*
X708Y1709D01*
X710Y1709D01*
X710Y1707D01*
X730Y1707D01*
X730Y1713D01*
X728Y1713D01*
X728Y1715D01*
X726Y1715D01*
X726Y1717D01*
X724Y1717D01*
X724Y1719D01*
X722Y1719D01*
X722Y1721D01*
X720Y1721D01*
X720Y1723D01*
X718Y1723D01*
X718Y1725D01*
X716Y1725D01*
X716Y1727D01*
X714Y1727D01*
X714Y1729D01*
X712Y1729D01*
X712Y1731D01*
X710Y1731D01*
X710Y1733D01*
X708Y1733D01*
X708Y1735D01*
X706Y1735D01*
X706Y1737D01*
X704Y1737D01*
X704Y1739D01*
X702Y1739D01*
X702Y1741D01*
X700Y1741D01*
X700Y1743D01*
X698Y1743D01*
X698Y1745D01*
X696Y1745D01*
X696Y1747D01*
X694Y1747D01*
X694Y1749D01*
X692Y1749D01*
X692Y1751D01*
X690Y1751D01*
X690Y1753D01*
X688Y1753D01*
X688Y1755D01*
X686Y1755D01*
X686Y1759D01*
X684Y1759D01*
X684Y1761D01*
X682Y1761D01*
X682Y1763D01*
X680Y1763D01*
X680Y1765D01*
X660Y1765D01*
G37*
D02*
G36*
X560Y1663D02*
X560Y1655D01*
X562Y1655D01*
X562Y1653D01*
X564Y1653D01*
X564Y1651D01*
X566Y1651D01*
X566Y1649D01*
X570Y1649D01*
X570Y1647D01*
X572Y1647D01*
X572Y1645D01*
X574Y1645D01*
X574Y1643D01*
X576Y1643D01*
X576Y1641D01*
X578Y1641D01*
X578Y1639D01*
X580Y1639D01*
X580Y1637D01*
X582Y1637D01*
X582Y1635D01*
X584Y1635D01*
X584Y1633D01*
X586Y1633D01*
X586Y1631D01*
X588Y1631D01*
X588Y1629D01*
X590Y1629D01*
X590Y1627D01*
X592Y1627D01*
X592Y1625D01*
X594Y1625D01*
X594Y1623D01*
X596Y1623D01*
X596Y1621D01*
X598Y1621D01*
X598Y1619D01*
X600Y1619D01*
X600Y1617D01*
X602Y1617D01*
X602Y1615D01*
X604Y1615D01*
X604Y1613D01*
X606Y1613D01*
X606Y1611D01*
X608Y1611D01*
X608Y1609D01*
X628Y1609D01*
X628Y1615D01*
X626Y1615D01*
X626Y1617D01*
X624Y1617D01*
X624Y1619D01*
X622Y1619D01*
X622Y1621D01*
X620Y1621D01*
X620Y1623D01*
X618Y1623D01*
X618Y1625D01*
X616Y1625D01*
X616Y1627D01*
X614Y1627D01*
X614Y1629D01*
X612Y1629D01*
X612Y1631D01*
X610Y1631D01*
X610Y1633D01*
X608Y1633D01*
X608Y1635D01*
X606Y1635D01*
X606Y1637D01*
X604Y1637D01*
X604Y1639D01*
X602Y1639D01*
X602Y1641D01*
X600Y1641D01*
X600Y1643D01*
X598Y1643D01*
X598Y1645D01*
X596Y1645D01*
X596Y1647D01*
X594Y1647D01*
X594Y1649D01*
X592Y1649D01*
X592Y1651D01*
X590Y1651D01*
X590Y1653D01*
X588Y1653D01*
X588Y1655D01*
X586Y1655D01*
X586Y1657D01*
X584Y1657D01*
X584Y1659D01*
X582Y1659D01*
X582Y1661D01*
X580Y1661D01*
X580Y1663D01*
X560Y1663D01*
G37*
D02*
G36*
X1766Y1657D02*
X1766Y1651D01*
X1768Y1651D01*
X1768Y1649D01*
X1770Y1649D01*
X1770Y1647D01*
X1772Y1647D01*
X1772Y1645D01*
X1774Y1645D01*
X1774Y1643D01*
X1776Y1643D01*
X1776Y1641D01*
X1778Y1641D01*
X1778Y1639D01*
X1780Y1639D01*
X1780Y1637D01*
X1782Y1637D01*
X1782Y1635D01*
X1784Y1635D01*
X1784Y1633D01*
X1786Y1633D01*
X1786Y1631D01*
X1788Y1631D01*
X1788Y1629D01*
X1790Y1629D01*
X1790Y1627D01*
X1792Y1627D01*
X1792Y1625D01*
X1794Y1625D01*
X1794Y1623D01*
X1796Y1623D01*
X1796Y1621D01*
X1798Y1621D01*
X1798Y1619D01*
X1800Y1619D01*
X1800Y1617D01*
X1802Y1617D01*
X1802Y1615D01*
X1804Y1615D01*
X1804Y1613D01*
X1806Y1613D01*
X1806Y1611D01*
X1808Y1611D01*
X1808Y1609D01*
X1810Y1609D01*
X1810Y1607D01*
X1812Y1607D01*
X1812Y1605D01*
X1814Y1605D01*
X1814Y1603D01*
X1816Y1603D01*
X1816Y1601D01*
X1836Y1601D01*
X1836Y1607D01*
X1834Y1607D01*
X1834Y1609D01*
X1832Y1609D01*
X1832Y1611D01*
X1830Y1611D01*
X1830Y1613D01*
X1828Y1613D01*
X1828Y1615D01*
X1826Y1615D01*
X1826Y1617D01*
X1824Y1617D01*
X1824Y1619D01*
X1822Y1619D01*
X1822Y1621D01*
X1820Y1621D01*
X1820Y1623D01*
X1818Y1623D01*
X1818Y1625D01*
X1816Y1625D01*
X1816Y1627D01*
X1814Y1627D01*
X1814Y1629D01*
X1812Y1629D01*
X1812Y1631D01*
X1810Y1631D01*
X1810Y1633D01*
X1808Y1633D01*
X1808Y1635D01*
X1806Y1635D01*
X1806Y1637D01*
X1804Y1637D01*
X1804Y1639D01*
X1802Y1639D01*
X1802Y1641D01*
X1800Y1641D01*
X1800Y1643D01*
X1798Y1643D01*
X1798Y1645D01*
X1796Y1645D01*
X1796Y1647D01*
X1794Y1647D01*
X1794Y1649D01*
X1792Y1649D01*
X1792Y1651D01*
X1790Y1651D01*
X1790Y1653D01*
X1788Y1653D01*
X1788Y1655D01*
X1786Y1655D01*
X1786Y1657D01*
X1766Y1657D01*
G37*
D02*
G36*
X460Y1563D02*
X460Y1557D01*
X462Y1557D01*
X462Y1555D01*
X464Y1555D01*
X464Y1553D01*
X466Y1553D01*
X466Y1551D01*
X468Y1551D01*
X468Y1549D01*
X470Y1549D01*
X470Y1547D01*
X472Y1547D01*
X472Y1545D01*
X474Y1545D01*
X474Y1543D01*
X476Y1543D01*
X476Y1541D01*
X478Y1541D01*
X478Y1539D01*
X480Y1539D01*
X480Y1537D01*
X482Y1537D01*
X482Y1535D01*
X484Y1535D01*
X484Y1533D01*
X486Y1533D01*
X486Y1531D01*
X488Y1531D01*
X488Y1529D01*
X490Y1529D01*
X490Y1527D01*
X492Y1527D01*
X492Y1525D01*
X494Y1525D01*
X494Y1523D01*
X496Y1523D01*
X496Y1521D01*
X498Y1521D01*
X498Y1519D01*
X500Y1519D01*
X500Y1517D01*
X502Y1517D01*
X502Y1515D01*
X504Y1515D01*
X504Y1513D01*
X506Y1513D01*
X506Y1511D01*
X508Y1511D01*
X508Y1509D01*
X510Y1509D01*
X510Y1507D01*
X512Y1507D01*
X512Y1505D01*
X532Y1505D01*
X532Y1513D01*
X530Y1513D01*
X530Y1515D01*
X528Y1515D01*
X528Y1517D01*
X524Y1517D01*
X524Y1519D01*
X522Y1519D01*
X522Y1521D01*
X520Y1521D01*
X520Y1523D01*
X518Y1523D01*
X518Y1525D01*
X516Y1525D01*
X516Y1527D01*
X514Y1527D01*
X514Y1529D01*
X512Y1529D01*
X512Y1531D01*
X510Y1531D01*
X510Y1533D01*
X508Y1533D01*
X508Y1535D01*
X506Y1535D01*
X506Y1537D01*
X504Y1537D01*
X504Y1539D01*
X502Y1539D01*
X502Y1541D01*
X500Y1541D01*
X500Y1543D01*
X498Y1543D01*
X498Y1545D01*
X496Y1545D01*
X496Y1547D01*
X494Y1547D01*
X494Y1549D01*
X492Y1549D01*
X492Y1551D01*
X490Y1551D01*
X490Y1553D01*
X488Y1553D01*
X488Y1555D01*
X486Y1555D01*
X486Y1557D01*
X484Y1557D01*
X484Y1559D01*
X482Y1559D01*
X482Y1561D01*
X480Y1561D01*
X480Y1563D01*
X460Y1563D01*
G37*
D02*
G36*
X1668Y1555D02*
X1668Y1549D01*
X1670Y1549D01*
X1670Y1547D01*
X1672Y1547D01*
X1672Y1545D01*
X1674Y1545D01*
X1674Y1543D01*
X1676Y1543D01*
X1676Y1541D01*
X1678Y1541D01*
X1678Y1539D01*
X1680Y1539D01*
X1680Y1537D01*
X1682Y1537D01*
X1682Y1535D01*
X1684Y1535D01*
X1684Y1533D01*
X1686Y1533D01*
X1686Y1531D01*
X1688Y1531D01*
X1688Y1529D01*
X1690Y1529D01*
X1690Y1527D01*
X1692Y1527D01*
X1692Y1525D01*
X1694Y1525D01*
X1694Y1523D01*
X1696Y1523D01*
X1696Y1521D01*
X1698Y1521D01*
X1698Y1519D01*
X1700Y1519D01*
X1700Y1517D01*
X1702Y1517D01*
X1702Y1515D01*
X1704Y1515D01*
X1704Y1513D01*
X1706Y1513D01*
X1706Y1511D01*
X1708Y1511D01*
X1708Y1509D01*
X1710Y1509D01*
X1710Y1507D01*
X1712Y1507D01*
X1712Y1505D01*
X1714Y1505D01*
X1714Y1503D01*
X1716Y1503D01*
X1716Y1499D01*
X1736Y1499D01*
X1736Y1507D01*
X1734Y1507D01*
X1734Y1509D01*
X1732Y1509D01*
X1732Y1511D01*
X1730Y1511D01*
X1730Y1513D01*
X1728Y1513D01*
X1728Y1515D01*
X1726Y1515D01*
X1726Y1517D01*
X1724Y1517D01*
X1724Y1519D01*
X1722Y1519D01*
X1722Y1521D01*
X1720Y1521D01*
X1720Y1523D01*
X1718Y1523D01*
X1718Y1525D01*
X1716Y1525D01*
X1716Y1527D01*
X1714Y1527D01*
X1714Y1529D01*
X1712Y1529D01*
X1712Y1531D01*
X1710Y1531D01*
X1710Y1533D01*
X1708Y1533D01*
X1708Y1535D01*
X1706Y1535D01*
X1706Y1537D01*
X1704Y1537D01*
X1704Y1539D01*
X1702Y1539D01*
X1702Y1541D01*
X1700Y1541D01*
X1700Y1543D01*
X1698Y1543D01*
X1698Y1545D01*
X1696Y1545D01*
X1696Y1547D01*
X1694Y1547D01*
X1694Y1549D01*
X1692Y1549D01*
X1692Y1551D01*
X1690Y1551D01*
X1690Y1553D01*
X1688Y1553D01*
X1688Y1555D01*
X1668Y1555D01*
G37*
D02*
G36*
X362Y1461D02*
X362Y1455D01*
X364Y1455D01*
X364Y1453D01*
X366Y1453D01*
X366Y1451D01*
X368Y1451D01*
X368Y1449D01*
X370Y1449D01*
X370Y1447D01*
X372Y1447D01*
X372Y1445D01*
X374Y1445D01*
X374Y1443D01*
X376Y1443D01*
X376Y1441D01*
X378Y1441D01*
X378Y1439D01*
X380Y1439D01*
X380Y1437D01*
X382Y1437D01*
X382Y1435D01*
X384Y1435D01*
X384Y1433D01*
X386Y1433D01*
X386Y1431D01*
X388Y1431D01*
X388Y1429D01*
X390Y1429D01*
X390Y1427D01*
X392Y1427D01*
X392Y1425D01*
X394Y1425D01*
X394Y1423D01*
X396Y1423D01*
X396Y1421D01*
X398Y1421D01*
X398Y1419D01*
X400Y1419D01*
X400Y1417D01*
X402Y1417D01*
X402Y1415D01*
X404Y1415D01*
X404Y1413D01*
X406Y1413D01*
X406Y1411D01*
X408Y1411D01*
X408Y1409D01*
X410Y1409D01*
X410Y1407D01*
X430Y1407D01*
X430Y1413D01*
X428Y1413D01*
X428Y1415D01*
X426Y1415D01*
X426Y1417D01*
X424Y1417D01*
X424Y1419D01*
X422Y1419D01*
X422Y1421D01*
X420Y1421D01*
X420Y1423D01*
X418Y1423D01*
X418Y1425D01*
X416Y1425D01*
X416Y1427D01*
X414Y1427D01*
X414Y1429D01*
X412Y1429D01*
X412Y1431D01*
X410Y1431D01*
X410Y1433D01*
X408Y1433D01*
X408Y1435D01*
X406Y1435D01*
X406Y1437D01*
X404Y1437D01*
X404Y1439D01*
X402Y1439D01*
X402Y1441D01*
X400Y1441D01*
X400Y1443D01*
X398Y1443D01*
X398Y1445D01*
X396Y1445D01*
X396Y1447D01*
X394Y1447D01*
X394Y1449D01*
X392Y1449D01*
X392Y1451D01*
X390Y1451D01*
X390Y1453D01*
X388Y1453D01*
X388Y1455D01*
X386Y1455D01*
X386Y1457D01*
X384Y1457D01*
X384Y1459D01*
X382Y1459D01*
X382Y1461D01*
X362Y1461D01*
G37*
D02*
G36*
X1566Y1459D02*
X1566Y1451D01*
X1568Y1451D01*
X1568Y1449D01*
X1570Y1449D01*
X1570Y1447D01*
X1572Y1447D01*
X1572Y1445D01*
X1574Y1445D01*
X1574Y1443D01*
X1576Y1443D01*
X1576Y1441D01*
X1578Y1441D01*
X1578Y1439D01*
X1580Y1439D01*
X1580Y1437D01*
X1582Y1437D01*
X1582Y1435D01*
X1584Y1435D01*
X1584Y1433D01*
X1586Y1433D01*
X1586Y1431D01*
X1588Y1431D01*
X1588Y1429D01*
X1590Y1429D01*
X1590Y1427D01*
X1592Y1427D01*
X1592Y1425D01*
X1594Y1425D01*
X1594Y1423D01*
X1596Y1423D01*
X1596Y1421D01*
X1598Y1421D01*
X1598Y1419D01*
X1600Y1419D01*
X1600Y1417D01*
X1602Y1417D01*
X1602Y1415D01*
X1604Y1415D01*
X1604Y1413D01*
X1606Y1413D01*
X1606Y1411D01*
X1608Y1411D01*
X1608Y1409D01*
X1610Y1409D01*
X1610Y1407D01*
X1612Y1407D01*
X1612Y1405D01*
X1614Y1405D01*
X1614Y1403D01*
X1634Y1403D01*
X1634Y1409D01*
X1632Y1409D01*
X1632Y1411D01*
X1630Y1411D01*
X1630Y1413D01*
X1628Y1413D01*
X1628Y1415D01*
X1626Y1415D01*
X1626Y1417D01*
X1624Y1417D01*
X1624Y1419D01*
X1622Y1419D01*
X1622Y1421D01*
X1620Y1421D01*
X1620Y1423D01*
X1618Y1423D01*
X1618Y1425D01*
X1616Y1425D01*
X1616Y1427D01*
X1614Y1427D01*
X1614Y1429D01*
X1612Y1429D01*
X1612Y1431D01*
X1610Y1431D01*
X1610Y1433D01*
X1608Y1433D01*
X1608Y1435D01*
X1606Y1435D01*
X1606Y1437D01*
X1604Y1437D01*
X1604Y1439D01*
X1602Y1439D01*
X1602Y1441D01*
X1600Y1441D01*
X1600Y1443D01*
X1598Y1443D01*
X1598Y1445D01*
X1596Y1445D01*
X1596Y1447D01*
X1594Y1447D01*
X1594Y1451D01*
X1592Y1451D01*
X1592Y1453D01*
X1590Y1453D01*
X1590Y1455D01*
X1588Y1455D01*
X1588Y1457D01*
X1586Y1457D01*
X1586Y1459D01*
X1566Y1459D01*
G37*
D02*
G36*
X1468Y1357D02*
X1468Y1349D01*
X1470Y1349D01*
X1470Y1347D01*
X1472Y1347D01*
X1472Y1345D01*
X1474Y1345D01*
X1474Y1343D01*
X1476Y1343D01*
X1476Y1341D01*
X1478Y1341D01*
X1478Y1339D01*
X1480Y1339D01*
X1480Y1337D01*
X1482Y1337D01*
X1482Y1335D01*
X1484Y1335D01*
X1484Y1333D01*
X1486Y1333D01*
X1486Y1331D01*
X1488Y1331D01*
X1488Y1329D01*
X1490Y1329D01*
X1490Y1327D01*
X1492Y1327D01*
X1492Y1325D01*
X1494Y1325D01*
X1494Y1323D01*
X1496Y1323D01*
X1496Y1321D01*
X1498Y1321D01*
X1498Y1319D01*
X1500Y1319D01*
X1500Y1317D01*
X1502Y1317D01*
X1502Y1315D01*
X1504Y1315D01*
X1504Y1313D01*
X1506Y1313D01*
X1506Y1311D01*
X1508Y1311D01*
X1508Y1309D01*
X1510Y1309D01*
X1510Y1307D01*
X1512Y1307D01*
X1512Y1305D01*
X1514Y1305D01*
X1514Y1303D01*
X1516Y1303D01*
X1516Y1301D01*
X1518Y1301D01*
X1518Y1299D01*
X1538Y1299D01*
X1538Y1307D01*
X1536Y1307D01*
X1536Y1309D01*
X1534Y1309D01*
X1534Y1311D01*
X1532Y1311D01*
X1532Y1313D01*
X1530Y1313D01*
X1530Y1315D01*
X1528Y1315D01*
X1528Y1317D01*
X1526Y1317D01*
X1526Y1319D01*
X1524Y1319D01*
X1524Y1321D01*
X1522Y1321D01*
X1522Y1323D01*
X1520Y1323D01*
X1520Y1325D01*
X1518Y1325D01*
X1518Y1327D01*
X1516Y1327D01*
X1516Y1329D01*
X1514Y1329D01*
X1514Y1331D01*
X1512Y1331D01*
X1512Y1333D01*
X1510Y1333D01*
X1510Y1335D01*
X1508Y1335D01*
X1508Y1337D01*
X1506Y1337D01*
X1506Y1339D01*
X1504Y1339D01*
X1504Y1341D01*
X1502Y1341D01*
X1502Y1343D01*
X1500Y1343D01*
X1500Y1345D01*
X1498Y1345D01*
X1498Y1347D01*
X1496Y1347D01*
X1496Y1349D01*
X1494Y1349D01*
X1494Y1351D01*
X1492Y1351D01*
X1492Y1353D01*
X1490Y1353D01*
X1490Y1355D01*
X1488Y1355D01*
X1488Y1357D01*
X1468Y1357D01*
G37*
D02*
G36*
X40Y3425D02*
X40Y3221D01*
X2814Y3221D01*
X2814Y3219D01*
X2822Y3219D01*
X2822Y3217D01*
X2828Y3217D01*
X2828Y3215D01*
X2834Y3215D01*
X2834Y3213D01*
X2838Y3213D01*
X2838Y3211D01*
X2842Y3211D01*
X2842Y3209D01*
X2846Y3209D01*
X2846Y3207D01*
X2848Y3207D01*
X2848Y3205D01*
X2852Y3205D01*
X2852Y3203D01*
X2854Y3203D01*
X2854Y3201D01*
X2856Y3201D01*
X2856Y3199D01*
X2858Y3199D01*
X2858Y3197D01*
X2862Y3197D01*
X2862Y3195D01*
X2864Y3195D01*
X2864Y3191D01*
X2866Y3191D01*
X2866Y3189D01*
X2868Y3189D01*
X2868Y3187D01*
X2870Y3187D01*
X2870Y3185D01*
X2872Y3185D01*
X2872Y3181D01*
X2874Y3181D01*
X2874Y3179D01*
X2876Y3179D01*
X2876Y3175D01*
X2878Y3175D01*
X2878Y3171D01*
X2880Y3171D01*
X2880Y3167D01*
X2882Y3167D01*
X2882Y3163D01*
X2884Y3163D01*
X2884Y3157D01*
X2886Y3157D01*
X2886Y3147D01*
X2888Y3147D01*
X2888Y3115D01*
X2886Y3115D01*
X2886Y3107D01*
X2884Y3107D01*
X2884Y3101D01*
X2882Y3101D01*
X2882Y3095D01*
X2880Y3095D01*
X2880Y3091D01*
X2878Y3091D01*
X2878Y3087D01*
X2876Y3087D01*
X2876Y3085D01*
X2874Y3085D01*
X2874Y3081D01*
X2872Y3081D01*
X2872Y3079D01*
X2870Y3079D01*
X2870Y3075D01*
X2868Y3075D01*
X2868Y3073D01*
X2866Y3073D01*
X2866Y3071D01*
X2864Y3071D01*
X2864Y3069D01*
X2862Y3069D01*
X2862Y3067D01*
X2860Y3067D01*
X2860Y3065D01*
X2858Y3065D01*
X2858Y3063D01*
X2856Y3063D01*
X2856Y3061D01*
X2854Y3061D01*
X2854Y3059D01*
X2850Y3059D01*
X2850Y3057D01*
X2848Y3057D01*
X2848Y3055D01*
X2844Y3055D01*
X2844Y3053D01*
X2840Y3053D01*
X2840Y3051D01*
X2836Y3051D01*
X2836Y3049D01*
X2832Y3049D01*
X2832Y3047D01*
X2826Y3047D01*
X2826Y3045D01*
X2820Y3045D01*
X2820Y3043D01*
X2808Y3043D01*
X2808Y3041D01*
X2952Y3041D01*
X2952Y3425D01*
X40Y3425D01*
G37*
D02*
G36*
X40Y3221D02*
X40Y3041D01*
X108Y3041D01*
X108Y3221D01*
X40Y3221D01*
G37*
D02*
G36*
X288Y3221D02*
X288Y3041D01*
X388Y3041D01*
X388Y3043D01*
X378Y3043D01*
X378Y3045D01*
X370Y3045D01*
X370Y3047D01*
X364Y3047D01*
X364Y3049D01*
X360Y3049D01*
X360Y3051D01*
X356Y3051D01*
X356Y3053D01*
X352Y3053D01*
X352Y3055D01*
X350Y3055D01*
X350Y3057D01*
X346Y3057D01*
X346Y3059D01*
X344Y3059D01*
X344Y3061D01*
X342Y3061D01*
X342Y3063D01*
X340Y3063D01*
X340Y3065D01*
X336Y3065D01*
X336Y3067D01*
X334Y3067D01*
X334Y3069D01*
X332Y3069D01*
X332Y3073D01*
X330Y3073D01*
X330Y3075D01*
X328Y3075D01*
X328Y3077D01*
X326Y3077D01*
X326Y3079D01*
X324Y3079D01*
X324Y3083D01*
X322Y3083D01*
X322Y3087D01*
X320Y3087D01*
X320Y3089D01*
X318Y3089D01*
X318Y3093D01*
X316Y3093D01*
X316Y3099D01*
X314Y3099D01*
X314Y3103D01*
X312Y3103D01*
X312Y3111D01*
X310Y3111D01*
X310Y3125D01*
X308Y3125D01*
X308Y3139D01*
X310Y3139D01*
X310Y3151D01*
X312Y3151D01*
X312Y3159D01*
X314Y3159D01*
X314Y3165D01*
X316Y3165D01*
X316Y3169D01*
X318Y3169D01*
X318Y3173D01*
X320Y3173D01*
X320Y3177D01*
X322Y3177D01*
X322Y3181D01*
X324Y3181D01*
X324Y3183D01*
X326Y3183D01*
X326Y3185D01*
X328Y3185D01*
X328Y3189D01*
X330Y3189D01*
X330Y3191D01*
X332Y3191D01*
X332Y3193D01*
X334Y3193D01*
X334Y3195D01*
X336Y3195D01*
X336Y3197D01*
X338Y3197D01*
X338Y3199D01*
X340Y3199D01*
X340Y3201D01*
X342Y3201D01*
X342Y3203D01*
X346Y3203D01*
X346Y3205D01*
X348Y3205D01*
X348Y3207D01*
X352Y3207D01*
X352Y3209D01*
X354Y3209D01*
X354Y3211D01*
X358Y3211D01*
X358Y3213D01*
X362Y3213D01*
X362Y3215D01*
X368Y3215D01*
X368Y3217D01*
X374Y3217D01*
X374Y3219D01*
X384Y3219D01*
X384Y3221D01*
X288Y3221D01*
G37*
D02*
G36*
X414Y3221D02*
X414Y3219D01*
X422Y3219D01*
X422Y3217D01*
X428Y3217D01*
X428Y3215D01*
X434Y3215D01*
X434Y3213D01*
X438Y3213D01*
X438Y3211D01*
X442Y3211D01*
X442Y3209D01*
X446Y3209D01*
X446Y3207D01*
X448Y3207D01*
X448Y3205D01*
X452Y3205D01*
X452Y3203D01*
X454Y3203D01*
X454Y3201D01*
X456Y3201D01*
X456Y3199D01*
X458Y3199D01*
X458Y3197D01*
X462Y3197D01*
X462Y3195D01*
X464Y3195D01*
X464Y3191D01*
X466Y3191D01*
X466Y3189D01*
X468Y3189D01*
X468Y3187D01*
X470Y3187D01*
X470Y3185D01*
X472Y3185D01*
X472Y3181D01*
X474Y3181D01*
X474Y3179D01*
X476Y3179D01*
X476Y3175D01*
X478Y3175D01*
X478Y3171D01*
X480Y3171D01*
X480Y3167D01*
X482Y3167D01*
X482Y3163D01*
X484Y3163D01*
X484Y3157D01*
X486Y3157D01*
X486Y3147D01*
X488Y3147D01*
X488Y3115D01*
X486Y3115D01*
X486Y3107D01*
X484Y3107D01*
X484Y3101D01*
X482Y3101D01*
X482Y3095D01*
X480Y3095D01*
X480Y3091D01*
X478Y3091D01*
X478Y3087D01*
X476Y3087D01*
X476Y3085D01*
X474Y3085D01*
X474Y3081D01*
X472Y3081D01*
X472Y3079D01*
X470Y3079D01*
X470Y3075D01*
X468Y3075D01*
X468Y3073D01*
X466Y3073D01*
X466Y3071D01*
X464Y3071D01*
X464Y3069D01*
X462Y3069D01*
X462Y3067D01*
X460Y3067D01*
X460Y3065D01*
X458Y3065D01*
X458Y3063D01*
X456Y3063D01*
X456Y3061D01*
X454Y3061D01*
X454Y3059D01*
X450Y3059D01*
X450Y3057D01*
X448Y3057D01*
X448Y3055D01*
X444Y3055D01*
X444Y3053D01*
X440Y3053D01*
X440Y3051D01*
X436Y3051D01*
X436Y3049D01*
X432Y3049D01*
X432Y3047D01*
X426Y3047D01*
X426Y3045D01*
X420Y3045D01*
X420Y3043D01*
X408Y3043D01*
X408Y3041D01*
X510Y3041D01*
X510Y3043D01*
X508Y3043D01*
X508Y3221D01*
X414Y3221D01*
G37*
D02*
G36*
X688Y3221D02*
X688Y3041D01*
X794Y3041D01*
X794Y3043D01*
X778Y3043D01*
X778Y3045D01*
X772Y3045D01*
X772Y3047D01*
X766Y3047D01*
X766Y3049D01*
X762Y3049D01*
X762Y3051D01*
X758Y3051D01*
X758Y3053D01*
X754Y3053D01*
X754Y3055D01*
X750Y3055D01*
X750Y3057D01*
X748Y3057D01*
X748Y3059D01*
X744Y3059D01*
X744Y3061D01*
X742Y3061D01*
X742Y3063D01*
X740Y3063D01*
X740Y3065D01*
X738Y3065D01*
X738Y3067D01*
X736Y3067D01*
X736Y3069D01*
X734Y3069D01*
X734Y3071D01*
X732Y3071D01*
X732Y3073D01*
X730Y3073D01*
X730Y3075D01*
X728Y3075D01*
X728Y3077D01*
X726Y3077D01*
X726Y3081D01*
X724Y3081D01*
X724Y3083D01*
X722Y3083D01*
X722Y3087D01*
X720Y3087D01*
X720Y3091D01*
X718Y3091D01*
X718Y3095D01*
X716Y3095D01*
X716Y3099D01*
X714Y3099D01*
X714Y3105D01*
X712Y3105D01*
X712Y3113D01*
X710Y3113D01*
X710Y3129D01*
X708Y3129D01*
X708Y3133D01*
X710Y3133D01*
X710Y3151D01*
X712Y3151D01*
X712Y3157D01*
X714Y3157D01*
X714Y3163D01*
X716Y3163D01*
X716Y3169D01*
X718Y3169D01*
X718Y3173D01*
X720Y3173D01*
X720Y3177D01*
X722Y3177D01*
X722Y3179D01*
X724Y3179D01*
X724Y3183D01*
X726Y3183D01*
X726Y3185D01*
X728Y3185D01*
X728Y3187D01*
X730Y3187D01*
X730Y3191D01*
X732Y3191D01*
X732Y3193D01*
X734Y3193D01*
X734Y3195D01*
X736Y3195D01*
X736Y3197D01*
X738Y3197D01*
X738Y3199D01*
X740Y3199D01*
X740Y3201D01*
X744Y3201D01*
X744Y3203D01*
X746Y3203D01*
X746Y3205D01*
X748Y3205D01*
X748Y3207D01*
X752Y3207D01*
X752Y3209D01*
X756Y3209D01*
X756Y3211D01*
X760Y3211D01*
X760Y3213D01*
X764Y3213D01*
X764Y3215D01*
X770Y3215D01*
X770Y3217D01*
X776Y3217D01*
X776Y3219D01*
X786Y3219D01*
X786Y3221D01*
X688Y3221D01*
G37*
D02*
G36*
X812Y3221D02*
X812Y3219D01*
X822Y3219D01*
X822Y3217D01*
X828Y3217D01*
X828Y3215D01*
X834Y3215D01*
X834Y3213D01*
X838Y3213D01*
X838Y3211D01*
X842Y3211D01*
X842Y3209D01*
X844Y3209D01*
X844Y3207D01*
X848Y3207D01*
X848Y3205D01*
X852Y3205D01*
X852Y3203D01*
X854Y3203D01*
X854Y3201D01*
X856Y3201D01*
X856Y3199D01*
X858Y3199D01*
X858Y3197D01*
X860Y3197D01*
X860Y3195D01*
X862Y3195D01*
X862Y3193D01*
X864Y3193D01*
X864Y3191D01*
X866Y3191D01*
X866Y3189D01*
X868Y3189D01*
X868Y3187D01*
X870Y3187D01*
X870Y3185D01*
X872Y3185D01*
X872Y3181D01*
X874Y3181D01*
X874Y3179D01*
X876Y3179D01*
X876Y3175D01*
X878Y3175D01*
X878Y3171D01*
X880Y3171D01*
X880Y3167D01*
X882Y3167D01*
X882Y3161D01*
X884Y3161D01*
X884Y3155D01*
X886Y3155D01*
X886Y3145D01*
X888Y3145D01*
X888Y3117D01*
X886Y3117D01*
X886Y3107D01*
X884Y3107D01*
X884Y3101D01*
X882Y3101D01*
X882Y3097D01*
X880Y3097D01*
X880Y3093D01*
X878Y3093D01*
X878Y3089D01*
X876Y3089D01*
X876Y3085D01*
X874Y3085D01*
X874Y3081D01*
X872Y3081D01*
X872Y3079D01*
X870Y3079D01*
X870Y3077D01*
X868Y3077D01*
X868Y3073D01*
X866Y3073D01*
X866Y3071D01*
X864Y3071D01*
X864Y3069D01*
X862Y3069D01*
X862Y3067D01*
X860Y3067D01*
X860Y3065D01*
X858Y3065D01*
X858Y3063D01*
X856Y3063D01*
X856Y3061D01*
X852Y3061D01*
X852Y3059D01*
X850Y3059D01*
X850Y3057D01*
X846Y3057D01*
X846Y3055D01*
X844Y3055D01*
X844Y3053D01*
X840Y3053D01*
X840Y3051D01*
X836Y3051D01*
X836Y3049D01*
X832Y3049D01*
X832Y3047D01*
X826Y3047D01*
X826Y3045D01*
X818Y3045D01*
X818Y3043D01*
X804Y3043D01*
X804Y3041D01*
X908Y3041D01*
X908Y3221D01*
X812Y3221D01*
G37*
D02*
G36*
X1088Y3221D02*
X1088Y3041D01*
X1188Y3041D01*
X1188Y3043D01*
X1178Y3043D01*
X1178Y3045D01*
X1170Y3045D01*
X1170Y3047D01*
X1164Y3047D01*
X1164Y3049D01*
X1160Y3049D01*
X1160Y3051D01*
X1156Y3051D01*
X1156Y3053D01*
X1152Y3053D01*
X1152Y3055D01*
X1150Y3055D01*
X1150Y3057D01*
X1146Y3057D01*
X1146Y3059D01*
X1144Y3059D01*
X1144Y3061D01*
X1142Y3061D01*
X1142Y3063D01*
X1140Y3063D01*
X1140Y3065D01*
X1136Y3065D01*
X1136Y3067D01*
X1134Y3067D01*
X1134Y3069D01*
X1132Y3069D01*
X1132Y3073D01*
X1130Y3073D01*
X1130Y3075D01*
X1128Y3075D01*
X1128Y3077D01*
X1126Y3077D01*
X1126Y3079D01*
X1124Y3079D01*
X1124Y3083D01*
X1122Y3083D01*
X1122Y3087D01*
X1120Y3087D01*
X1120Y3089D01*
X1118Y3089D01*
X1118Y3093D01*
X1116Y3093D01*
X1116Y3099D01*
X1114Y3099D01*
X1114Y3103D01*
X1112Y3103D01*
X1112Y3111D01*
X1110Y3111D01*
X1110Y3125D01*
X1108Y3125D01*
X1108Y3139D01*
X1110Y3139D01*
X1110Y3151D01*
X1112Y3151D01*
X1112Y3159D01*
X1114Y3159D01*
X1114Y3165D01*
X1116Y3165D01*
X1116Y3169D01*
X1118Y3169D01*
X1118Y3173D01*
X1120Y3173D01*
X1120Y3177D01*
X1122Y3177D01*
X1122Y3181D01*
X1124Y3181D01*
X1124Y3183D01*
X1126Y3183D01*
X1126Y3185D01*
X1128Y3185D01*
X1128Y3189D01*
X1130Y3189D01*
X1130Y3191D01*
X1132Y3191D01*
X1132Y3193D01*
X1134Y3193D01*
X1134Y3195D01*
X1136Y3195D01*
X1136Y3197D01*
X1138Y3197D01*
X1138Y3199D01*
X1140Y3199D01*
X1140Y3201D01*
X1142Y3201D01*
X1142Y3203D01*
X1146Y3203D01*
X1146Y3205D01*
X1148Y3205D01*
X1148Y3207D01*
X1152Y3207D01*
X1152Y3209D01*
X1154Y3209D01*
X1154Y3211D01*
X1158Y3211D01*
X1158Y3213D01*
X1162Y3213D01*
X1162Y3215D01*
X1168Y3215D01*
X1168Y3217D01*
X1174Y3217D01*
X1174Y3219D01*
X1184Y3219D01*
X1184Y3221D01*
X1088Y3221D01*
G37*
D02*
G36*
X1214Y3221D02*
X1214Y3219D01*
X1222Y3219D01*
X1222Y3217D01*
X1228Y3217D01*
X1228Y3215D01*
X1234Y3215D01*
X1234Y3213D01*
X1238Y3213D01*
X1238Y3211D01*
X1242Y3211D01*
X1242Y3209D01*
X1246Y3209D01*
X1246Y3207D01*
X1248Y3207D01*
X1248Y3205D01*
X1252Y3205D01*
X1252Y3203D01*
X1254Y3203D01*
X1254Y3201D01*
X1256Y3201D01*
X1256Y3199D01*
X1258Y3199D01*
X1258Y3197D01*
X1262Y3197D01*
X1262Y3195D01*
X1264Y3195D01*
X1264Y3191D01*
X1266Y3191D01*
X1266Y3189D01*
X1268Y3189D01*
X1268Y3187D01*
X1270Y3187D01*
X1270Y3185D01*
X1272Y3185D01*
X1272Y3181D01*
X1274Y3181D01*
X1274Y3179D01*
X1276Y3179D01*
X1276Y3175D01*
X1278Y3175D01*
X1278Y3171D01*
X1280Y3171D01*
X1280Y3167D01*
X1282Y3167D01*
X1282Y3163D01*
X1284Y3163D01*
X1284Y3157D01*
X1286Y3157D01*
X1286Y3147D01*
X1288Y3147D01*
X1288Y3115D01*
X1286Y3115D01*
X1286Y3107D01*
X1284Y3107D01*
X1284Y3101D01*
X1282Y3101D01*
X1282Y3095D01*
X1280Y3095D01*
X1280Y3091D01*
X1278Y3091D01*
X1278Y3087D01*
X1276Y3087D01*
X1276Y3085D01*
X1274Y3085D01*
X1274Y3081D01*
X1272Y3081D01*
X1272Y3079D01*
X1270Y3079D01*
X1270Y3075D01*
X1268Y3075D01*
X1268Y3073D01*
X1266Y3073D01*
X1266Y3071D01*
X1264Y3071D01*
X1264Y3069D01*
X1262Y3069D01*
X1262Y3067D01*
X1260Y3067D01*
X1260Y3065D01*
X1258Y3065D01*
X1258Y3063D01*
X1256Y3063D01*
X1256Y3061D01*
X1254Y3061D01*
X1254Y3059D01*
X1250Y3059D01*
X1250Y3057D01*
X1248Y3057D01*
X1248Y3055D01*
X1244Y3055D01*
X1244Y3053D01*
X1240Y3053D01*
X1240Y3051D01*
X1236Y3051D01*
X1236Y3049D01*
X1232Y3049D01*
X1232Y3047D01*
X1226Y3047D01*
X1226Y3045D01*
X1220Y3045D01*
X1220Y3043D01*
X1208Y3043D01*
X1208Y3041D01*
X1308Y3041D01*
X1308Y3221D01*
X1214Y3221D01*
G37*
D02*
G36*
X1488Y3221D02*
X1488Y3041D01*
X1588Y3041D01*
X1588Y3043D01*
X1578Y3043D01*
X1578Y3045D01*
X1570Y3045D01*
X1570Y3047D01*
X1564Y3047D01*
X1564Y3049D01*
X1560Y3049D01*
X1560Y3051D01*
X1556Y3051D01*
X1556Y3053D01*
X1552Y3053D01*
X1552Y3055D01*
X1550Y3055D01*
X1550Y3057D01*
X1546Y3057D01*
X1546Y3059D01*
X1544Y3059D01*
X1544Y3061D01*
X1542Y3061D01*
X1542Y3063D01*
X1540Y3063D01*
X1540Y3065D01*
X1536Y3065D01*
X1536Y3067D01*
X1534Y3067D01*
X1534Y3069D01*
X1532Y3069D01*
X1532Y3073D01*
X1530Y3073D01*
X1530Y3075D01*
X1528Y3075D01*
X1528Y3077D01*
X1526Y3077D01*
X1526Y3079D01*
X1524Y3079D01*
X1524Y3083D01*
X1522Y3083D01*
X1522Y3087D01*
X1520Y3087D01*
X1520Y3089D01*
X1518Y3089D01*
X1518Y3093D01*
X1516Y3093D01*
X1516Y3099D01*
X1514Y3099D01*
X1514Y3103D01*
X1512Y3103D01*
X1512Y3111D01*
X1510Y3111D01*
X1510Y3125D01*
X1508Y3125D01*
X1508Y3139D01*
X1510Y3139D01*
X1510Y3151D01*
X1512Y3151D01*
X1512Y3159D01*
X1514Y3159D01*
X1514Y3165D01*
X1516Y3165D01*
X1516Y3169D01*
X1518Y3169D01*
X1518Y3173D01*
X1520Y3173D01*
X1520Y3177D01*
X1522Y3177D01*
X1522Y3181D01*
X1524Y3181D01*
X1524Y3183D01*
X1526Y3183D01*
X1526Y3185D01*
X1528Y3185D01*
X1528Y3189D01*
X1530Y3189D01*
X1530Y3191D01*
X1532Y3191D01*
X1532Y3193D01*
X1534Y3193D01*
X1534Y3195D01*
X1536Y3195D01*
X1536Y3197D01*
X1538Y3197D01*
X1538Y3199D01*
X1540Y3199D01*
X1540Y3201D01*
X1542Y3201D01*
X1542Y3203D01*
X1546Y3203D01*
X1546Y3205D01*
X1548Y3205D01*
X1548Y3207D01*
X1552Y3207D01*
X1552Y3209D01*
X1554Y3209D01*
X1554Y3211D01*
X1558Y3211D01*
X1558Y3213D01*
X1562Y3213D01*
X1562Y3215D01*
X1568Y3215D01*
X1568Y3217D01*
X1574Y3217D01*
X1574Y3219D01*
X1584Y3219D01*
X1584Y3221D01*
X1488Y3221D01*
G37*
D02*
G36*
X1614Y3221D02*
X1614Y3219D01*
X1622Y3219D01*
X1622Y3217D01*
X1628Y3217D01*
X1628Y3215D01*
X1634Y3215D01*
X1634Y3213D01*
X1638Y3213D01*
X1638Y3211D01*
X1642Y3211D01*
X1642Y3209D01*
X1646Y3209D01*
X1646Y3207D01*
X1648Y3207D01*
X1648Y3205D01*
X1652Y3205D01*
X1652Y3203D01*
X1654Y3203D01*
X1654Y3201D01*
X1656Y3201D01*
X1656Y3199D01*
X1658Y3199D01*
X1658Y3197D01*
X1662Y3197D01*
X1662Y3195D01*
X1664Y3195D01*
X1664Y3191D01*
X1666Y3191D01*
X1666Y3189D01*
X1668Y3189D01*
X1668Y3187D01*
X1670Y3187D01*
X1670Y3185D01*
X1672Y3185D01*
X1672Y3181D01*
X1674Y3181D01*
X1674Y3179D01*
X1676Y3179D01*
X1676Y3175D01*
X1678Y3175D01*
X1678Y3171D01*
X1680Y3171D01*
X1680Y3167D01*
X1682Y3167D01*
X1682Y3163D01*
X1684Y3163D01*
X1684Y3157D01*
X1686Y3157D01*
X1686Y3147D01*
X1688Y3147D01*
X1688Y3115D01*
X1686Y3115D01*
X1686Y3107D01*
X1684Y3107D01*
X1684Y3101D01*
X1682Y3101D01*
X1682Y3095D01*
X1680Y3095D01*
X1680Y3091D01*
X1678Y3091D01*
X1678Y3087D01*
X1676Y3087D01*
X1676Y3085D01*
X1674Y3085D01*
X1674Y3081D01*
X1672Y3081D01*
X1672Y3079D01*
X1670Y3079D01*
X1670Y3075D01*
X1668Y3075D01*
X1668Y3073D01*
X1666Y3073D01*
X1666Y3071D01*
X1664Y3071D01*
X1664Y3069D01*
X1662Y3069D01*
X1662Y3067D01*
X1660Y3067D01*
X1660Y3065D01*
X1658Y3065D01*
X1658Y3063D01*
X1656Y3063D01*
X1656Y3061D01*
X1654Y3061D01*
X1654Y3059D01*
X1650Y3059D01*
X1650Y3057D01*
X1648Y3057D01*
X1648Y3055D01*
X1644Y3055D01*
X1644Y3053D01*
X1640Y3053D01*
X1640Y3051D01*
X1636Y3051D01*
X1636Y3049D01*
X1632Y3049D01*
X1632Y3047D01*
X1626Y3047D01*
X1626Y3045D01*
X1620Y3045D01*
X1620Y3043D01*
X1608Y3043D01*
X1608Y3041D01*
X1710Y3041D01*
X1710Y3043D01*
X1708Y3043D01*
X1708Y3221D01*
X1614Y3221D01*
G37*
D02*
G36*
X1888Y3221D02*
X1888Y3041D01*
X1994Y3041D01*
X1994Y3043D01*
X1978Y3043D01*
X1978Y3045D01*
X1972Y3045D01*
X1972Y3047D01*
X1966Y3047D01*
X1966Y3049D01*
X1962Y3049D01*
X1962Y3051D01*
X1958Y3051D01*
X1958Y3053D01*
X1954Y3053D01*
X1954Y3055D01*
X1950Y3055D01*
X1950Y3057D01*
X1948Y3057D01*
X1948Y3059D01*
X1944Y3059D01*
X1944Y3061D01*
X1942Y3061D01*
X1942Y3063D01*
X1940Y3063D01*
X1940Y3065D01*
X1938Y3065D01*
X1938Y3067D01*
X1936Y3067D01*
X1936Y3069D01*
X1934Y3069D01*
X1934Y3071D01*
X1932Y3071D01*
X1932Y3073D01*
X1930Y3073D01*
X1930Y3075D01*
X1928Y3075D01*
X1928Y3077D01*
X1926Y3077D01*
X1926Y3081D01*
X1924Y3081D01*
X1924Y3083D01*
X1922Y3083D01*
X1922Y3087D01*
X1920Y3087D01*
X1920Y3091D01*
X1918Y3091D01*
X1918Y3095D01*
X1916Y3095D01*
X1916Y3099D01*
X1914Y3099D01*
X1914Y3105D01*
X1912Y3105D01*
X1912Y3113D01*
X1910Y3113D01*
X1910Y3129D01*
X1908Y3129D01*
X1908Y3133D01*
X1910Y3133D01*
X1910Y3151D01*
X1912Y3151D01*
X1912Y3157D01*
X1914Y3157D01*
X1914Y3163D01*
X1916Y3163D01*
X1916Y3169D01*
X1918Y3169D01*
X1918Y3173D01*
X1920Y3173D01*
X1920Y3177D01*
X1922Y3177D01*
X1922Y3179D01*
X1924Y3179D01*
X1924Y3183D01*
X1926Y3183D01*
X1926Y3185D01*
X1928Y3185D01*
X1928Y3187D01*
X1930Y3187D01*
X1930Y3191D01*
X1932Y3191D01*
X1932Y3193D01*
X1934Y3193D01*
X1934Y3195D01*
X1936Y3195D01*
X1936Y3197D01*
X1938Y3197D01*
X1938Y3199D01*
X1940Y3199D01*
X1940Y3201D01*
X1944Y3201D01*
X1944Y3203D01*
X1946Y3203D01*
X1946Y3205D01*
X1948Y3205D01*
X1948Y3207D01*
X1952Y3207D01*
X1952Y3209D01*
X1956Y3209D01*
X1956Y3211D01*
X1960Y3211D01*
X1960Y3213D01*
X1964Y3213D01*
X1964Y3215D01*
X1970Y3215D01*
X1970Y3217D01*
X1976Y3217D01*
X1976Y3219D01*
X1986Y3219D01*
X1986Y3221D01*
X1888Y3221D01*
G37*
D02*
G36*
X2012Y3221D02*
X2012Y3219D01*
X2022Y3219D01*
X2022Y3217D01*
X2028Y3217D01*
X2028Y3215D01*
X2034Y3215D01*
X2034Y3213D01*
X2038Y3213D01*
X2038Y3211D01*
X2042Y3211D01*
X2042Y3209D01*
X2044Y3209D01*
X2044Y3207D01*
X2048Y3207D01*
X2048Y3205D01*
X2052Y3205D01*
X2052Y3203D01*
X2054Y3203D01*
X2054Y3201D01*
X2056Y3201D01*
X2056Y3199D01*
X2058Y3199D01*
X2058Y3197D01*
X2060Y3197D01*
X2060Y3195D01*
X2062Y3195D01*
X2062Y3193D01*
X2064Y3193D01*
X2064Y3191D01*
X2066Y3191D01*
X2066Y3189D01*
X2068Y3189D01*
X2068Y3187D01*
X2070Y3187D01*
X2070Y3185D01*
X2072Y3185D01*
X2072Y3181D01*
X2074Y3181D01*
X2074Y3179D01*
X2076Y3179D01*
X2076Y3175D01*
X2078Y3175D01*
X2078Y3171D01*
X2080Y3171D01*
X2080Y3167D01*
X2082Y3167D01*
X2082Y3161D01*
X2084Y3161D01*
X2084Y3155D01*
X2086Y3155D01*
X2086Y3145D01*
X2088Y3145D01*
X2088Y3117D01*
X2086Y3117D01*
X2086Y3107D01*
X2084Y3107D01*
X2084Y3101D01*
X2082Y3101D01*
X2082Y3097D01*
X2080Y3097D01*
X2080Y3093D01*
X2078Y3093D01*
X2078Y3089D01*
X2076Y3089D01*
X2076Y3085D01*
X2074Y3085D01*
X2074Y3081D01*
X2072Y3081D01*
X2072Y3079D01*
X2070Y3079D01*
X2070Y3077D01*
X2068Y3077D01*
X2068Y3073D01*
X2066Y3073D01*
X2066Y3071D01*
X2064Y3071D01*
X2064Y3069D01*
X2062Y3069D01*
X2062Y3067D01*
X2060Y3067D01*
X2060Y3065D01*
X2058Y3065D01*
X2058Y3063D01*
X2056Y3063D01*
X2056Y3061D01*
X2052Y3061D01*
X2052Y3059D01*
X2050Y3059D01*
X2050Y3057D01*
X2046Y3057D01*
X2046Y3055D01*
X2044Y3055D01*
X2044Y3053D01*
X2040Y3053D01*
X2040Y3051D01*
X2036Y3051D01*
X2036Y3049D01*
X2032Y3049D01*
X2032Y3047D01*
X2026Y3047D01*
X2026Y3045D01*
X2018Y3045D01*
X2018Y3043D01*
X2004Y3043D01*
X2004Y3041D01*
X2108Y3041D01*
X2108Y3221D01*
X2012Y3221D01*
G37*
D02*
G36*
X2288Y3221D02*
X2288Y3041D01*
X2388Y3041D01*
X2388Y3043D01*
X2378Y3043D01*
X2378Y3045D01*
X2370Y3045D01*
X2370Y3047D01*
X2364Y3047D01*
X2364Y3049D01*
X2360Y3049D01*
X2360Y3051D01*
X2356Y3051D01*
X2356Y3053D01*
X2352Y3053D01*
X2352Y3055D01*
X2350Y3055D01*
X2350Y3057D01*
X2346Y3057D01*
X2346Y3059D01*
X2344Y3059D01*
X2344Y3061D01*
X2342Y3061D01*
X2342Y3063D01*
X2340Y3063D01*
X2340Y3065D01*
X2336Y3065D01*
X2336Y3067D01*
X2334Y3067D01*
X2334Y3069D01*
X2332Y3069D01*
X2332Y3073D01*
X2330Y3073D01*
X2330Y3075D01*
X2328Y3075D01*
X2328Y3077D01*
X2326Y3077D01*
X2326Y3079D01*
X2324Y3079D01*
X2324Y3083D01*
X2322Y3083D01*
X2322Y3087D01*
X2320Y3087D01*
X2320Y3089D01*
X2318Y3089D01*
X2318Y3093D01*
X2316Y3093D01*
X2316Y3099D01*
X2314Y3099D01*
X2314Y3103D01*
X2312Y3103D01*
X2312Y3111D01*
X2310Y3111D01*
X2310Y3125D01*
X2308Y3125D01*
X2308Y3139D01*
X2310Y3139D01*
X2310Y3151D01*
X2312Y3151D01*
X2312Y3159D01*
X2314Y3159D01*
X2314Y3165D01*
X2316Y3165D01*
X2316Y3169D01*
X2318Y3169D01*
X2318Y3173D01*
X2320Y3173D01*
X2320Y3177D01*
X2322Y3177D01*
X2322Y3181D01*
X2324Y3181D01*
X2324Y3183D01*
X2326Y3183D01*
X2326Y3185D01*
X2328Y3185D01*
X2328Y3189D01*
X2330Y3189D01*
X2330Y3191D01*
X2332Y3191D01*
X2332Y3193D01*
X2334Y3193D01*
X2334Y3195D01*
X2336Y3195D01*
X2336Y3197D01*
X2338Y3197D01*
X2338Y3199D01*
X2340Y3199D01*
X2340Y3201D01*
X2342Y3201D01*
X2342Y3203D01*
X2346Y3203D01*
X2346Y3205D01*
X2348Y3205D01*
X2348Y3207D01*
X2352Y3207D01*
X2352Y3209D01*
X2354Y3209D01*
X2354Y3211D01*
X2358Y3211D01*
X2358Y3213D01*
X2362Y3213D01*
X2362Y3215D01*
X2368Y3215D01*
X2368Y3217D01*
X2374Y3217D01*
X2374Y3219D01*
X2384Y3219D01*
X2384Y3221D01*
X2288Y3221D01*
G37*
D02*
G36*
X2414Y3221D02*
X2414Y3219D01*
X2422Y3219D01*
X2422Y3217D01*
X2428Y3217D01*
X2428Y3215D01*
X2434Y3215D01*
X2434Y3213D01*
X2438Y3213D01*
X2438Y3211D01*
X2442Y3211D01*
X2442Y3209D01*
X2446Y3209D01*
X2446Y3207D01*
X2448Y3207D01*
X2448Y3205D01*
X2452Y3205D01*
X2452Y3203D01*
X2454Y3203D01*
X2454Y3201D01*
X2456Y3201D01*
X2456Y3199D01*
X2458Y3199D01*
X2458Y3197D01*
X2462Y3197D01*
X2462Y3195D01*
X2464Y3195D01*
X2464Y3191D01*
X2466Y3191D01*
X2466Y3189D01*
X2468Y3189D01*
X2468Y3187D01*
X2470Y3187D01*
X2470Y3185D01*
X2472Y3185D01*
X2472Y3181D01*
X2474Y3181D01*
X2474Y3179D01*
X2476Y3179D01*
X2476Y3175D01*
X2478Y3175D01*
X2478Y3171D01*
X2480Y3171D01*
X2480Y3167D01*
X2482Y3167D01*
X2482Y3163D01*
X2484Y3163D01*
X2484Y3157D01*
X2486Y3157D01*
X2486Y3147D01*
X2488Y3147D01*
X2488Y3115D01*
X2486Y3115D01*
X2486Y3107D01*
X2484Y3107D01*
X2484Y3101D01*
X2482Y3101D01*
X2482Y3095D01*
X2480Y3095D01*
X2480Y3091D01*
X2478Y3091D01*
X2478Y3087D01*
X2476Y3087D01*
X2476Y3085D01*
X2474Y3085D01*
X2474Y3081D01*
X2472Y3081D01*
X2472Y3079D01*
X2470Y3079D01*
X2470Y3075D01*
X2468Y3075D01*
X2468Y3073D01*
X2466Y3073D01*
X2466Y3071D01*
X2464Y3071D01*
X2464Y3069D01*
X2462Y3069D01*
X2462Y3067D01*
X2460Y3067D01*
X2460Y3065D01*
X2458Y3065D01*
X2458Y3063D01*
X2456Y3063D01*
X2456Y3061D01*
X2454Y3061D01*
X2454Y3059D01*
X2450Y3059D01*
X2450Y3057D01*
X2448Y3057D01*
X2448Y3055D01*
X2444Y3055D01*
X2444Y3053D01*
X2440Y3053D01*
X2440Y3051D01*
X2436Y3051D01*
X2436Y3049D01*
X2432Y3049D01*
X2432Y3047D01*
X2426Y3047D01*
X2426Y3045D01*
X2420Y3045D01*
X2420Y3043D01*
X2408Y3043D01*
X2408Y3041D01*
X2508Y3041D01*
X2508Y3221D01*
X2414Y3221D01*
G37*
D02*
G36*
X2688Y3221D02*
X2688Y3041D01*
X2788Y3041D01*
X2788Y3043D01*
X2778Y3043D01*
X2778Y3045D01*
X2770Y3045D01*
X2770Y3047D01*
X2764Y3047D01*
X2764Y3049D01*
X2760Y3049D01*
X2760Y3051D01*
X2756Y3051D01*
X2756Y3053D01*
X2752Y3053D01*
X2752Y3055D01*
X2750Y3055D01*
X2750Y3057D01*
X2746Y3057D01*
X2746Y3059D01*
X2744Y3059D01*
X2744Y3061D01*
X2742Y3061D01*
X2742Y3063D01*
X2740Y3063D01*
X2740Y3065D01*
X2736Y3065D01*
X2736Y3067D01*
X2734Y3067D01*
X2734Y3069D01*
X2732Y3069D01*
X2732Y3073D01*
X2730Y3073D01*
X2730Y3075D01*
X2728Y3075D01*
X2728Y3077D01*
X2726Y3077D01*
X2726Y3079D01*
X2724Y3079D01*
X2724Y3083D01*
X2722Y3083D01*
X2722Y3087D01*
X2720Y3087D01*
X2720Y3089D01*
X2718Y3089D01*
X2718Y3093D01*
X2716Y3093D01*
X2716Y3099D01*
X2714Y3099D01*
X2714Y3103D01*
X2712Y3103D01*
X2712Y3111D01*
X2710Y3111D01*
X2710Y3125D01*
X2708Y3125D01*
X2708Y3139D01*
X2710Y3139D01*
X2710Y3151D01*
X2712Y3151D01*
X2712Y3159D01*
X2714Y3159D01*
X2714Y3165D01*
X2716Y3165D01*
X2716Y3169D01*
X2718Y3169D01*
X2718Y3173D01*
X2720Y3173D01*
X2720Y3177D01*
X2722Y3177D01*
X2722Y3181D01*
X2724Y3181D01*
X2724Y3183D01*
X2726Y3183D01*
X2726Y3185D01*
X2728Y3185D01*
X2728Y3189D01*
X2730Y3189D01*
X2730Y3191D01*
X2732Y3191D01*
X2732Y3193D01*
X2734Y3193D01*
X2734Y3195D01*
X2736Y3195D01*
X2736Y3197D01*
X2738Y3197D01*
X2738Y3199D01*
X2740Y3199D01*
X2740Y3201D01*
X2742Y3201D01*
X2742Y3203D01*
X2746Y3203D01*
X2746Y3205D01*
X2748Y3205D01*
X2748Y3207D01*
X2752Y3207D01*
X2752Y3209D01*
X2754Y3209D01*
X2754Y3211D01*
X2758Y3211D01*
X2758Y3213D01*
X2762Y3213D01*
X2762Y3215D01*
X2768Y3215D01*
X2768Y3217D01*
X2774Y3217D01*
X2774Y3219D01*
X2784Y3219D01*
X2784Y3221D01*
X2688Y3221D01*
G37*
D02*
G36*
X40Y3041D02*
X40Y3039D01*
X2952Y3039D01*
X2952Y3041D01*
X40Y3041D01*
G37*
D02*
G36*
X40Y3041D02*
X40Y3039D01*
X2952Y3039D01*
X2952Y3041D01*
X40Y3041D01*
G37*
D02*
G36*
X40Y3041D02*
X40Y3039D01*
X2952Y3039D01*
X2952Y3041D01*
X40Y3041D01*
G37*
D02*
G36*
X40Y3041D02*
X40Y3039D01*
X2952Y3039D01*
X2952Y3041D01*
X40Y3041D01*
G37*
D02*
G36*
X40Y3041D02*
X40Y3039D01*
X2952Y3039D01*
X2952Y3041D01*
X40Y3041D01*
G37*
D02*
G36*
X40Y3041D02*
X40Y3039D01*
X2952Y3039D01*
X2952Y3041D01*
X40Y3041D01*
G37*
D02*
G36*
X40Y3041D02*
X40Y3039D01*
X2952Y3039D01*
X2952Y3041D01*
X40Y3041D01*
G37*
D02*
G36*
X40Y3041D02*
X40Y3039D01*
X2952Y3039D01*
X2952Y3041D01*
X40Y3041D01*
G37*
D02*
G36*
X40Y3041D02*
X40Y3039D01*
X2952Y3039D01*
X2952Y3041D01*
X40Y3041D01*
G37*
D02*
G36*
X40Y3041D02*
X40Y3039D01*
X2952Y3039D01*
X2952Y3041D01*
X40Y3041D01*
G37*
D02*
G36*
X40Y3041D02*
X40Y3039D01*
X2952Y3039D01*
X2952Y3041D01*
X40Y3041D01*
G37*
D02*
G36*
X40Y3041D02*
X40Y3039D01*
X2952Y3039D01*
X2952Y3041D01*
X40Y3041D01*
G37*
D02*
G36*
X40Y3041D02*
X40Y3039D01*
X2952Y3039D01*
X2952Y3041D01*
X40Y3041D01*
G37*
D02*
G36*
X40Y3041D02*
X40Y3039D01*
X2952Y3039D01*
X2952Y3041D01*
X40Y3041D01*
G37*
D02*
G36*
X40Y3041D02*
X40Y3039D01*
X2952Y3039D01*
X2952Y3041D01*
X40Y3041D01*
G37*
D02*
G36*
X40Y3039D02*
X40Y2945D01*
X2106Y2945D01*
X2106Y2943D01*
X2122Y2943D01*
X2122Y2941D01*
X2130Y2941D01*
X2130Y2939D01*
X2136Y2939D01*
X2136Y2937D01*
X2142Y2937D01*
X2142Y2935D01*
X2146Y2935D01*
X2146Y2933D01*
X2150Y2933D01*
X2150Y2931D01*
X2154Y2931D01*
X2154Y2929D01*
X2156Y2929D01*
X2156Y2927D01*
X2160Y2927D01*
X2160Y2925D01*
X2164Y2925D01*
X2164Y2923D01*
X2166Y2923D01*
X2166Y2921D01*
X2168Y2921D01*
X2168Y2919D01*
X2172Y2919D01*
X2172Y2917D01*
X2174Y2917D01*
X2174Y2915D01*
X2176Y2915D01*
X2176Y2913D01*
X2178Y2913D01*
X2178Y2911D01*
X2180Y2911D01*
X2180Y2909D01*
X2182Y2909D01*
X2182Y2907D01*
X2540Y2907D01*
X2540Y2905D01*
X2556Y2905D01*
X2556Y2903D01*
X2562Y2903D01*
X2562Y2901D01*
X2568Y2901D01*
X2568Y2899D01*
X2574Y2899D01*
X2574Y2897D01*
X2578Y2897D01*
X2578Y2895D01*
X2582Y2895D01*
X2582Y2893D01*
X2584Y2893D01*
X2584Y2891D01*
X2588Y2891D01*
X2588Y2889D01*
X2590Y2889D01*
X2590Y2887D01*
X2594Y2887D01*
X2594Y2885D01*
X2596Y2885D01*
X2596Y2883D01*
X2598Y2883D01*
X2598Y2881D01*
X2600Y2881D01*
X2600Y2879D01*
X2602Y2879D01*
X2602Y2877D01*
X2604Y2877D01*
X2604Y2875D01*
X2606Y2875D01*
X2606Y2873D01*
X2608Y2873D01*
X2608Y2871D01*
X2610Y2871D01*
X2610Y2869D01*
X2612Y2869D01*
X2612Y2865D01*
X2614Y2865D01*
X2614Y2863D01*
X2616Y2863D01*
X2616Y2859D01*
X2618Y2859D01*
X2618Y2855D01*
X2620Y2855D01*
X2620Y2851D01*
X2622Y2851D01*
X2622Y2847D01*
X2624Y2847D01*
X2624Y2841D01*
X2626Y2841D01*
X2626Y2835D01*
X2628Y2835D01*
X2628Y2827D01*
X2784Y2827D01*
X2784Y2825D01*
X2794Y2825D01*
X2794Y2823D01*
X2802Y2823D01*
X2802Y2821D01*
X2806Y2821D01*
X2806Y2819D01*
X2812Y2819D01*
X2812Y2817D01*
X2816Y2817D01*
X2816Y2815D01*
X2818Y2815D01*
X2818Y2813D01*
X2822Y2813D01*
X2822Y2811D01*
X2826Y2811D01*
X2826Y2809D01*
X2828Y2809D01*
X2828Y2807D01*
X2830Y2807D01*
X2830Y2805D01*
X2834Y2805D01*
X2834Y2803D01*
X2836Y2803D01*
X2836Y2801D01*
X2838Y2801D01*
X2838Y2799D01*
X2840Y2799D01*
X2840Y2797D01*
X2842Y2797D01*
X2842Y2795D01*
X2844Y2795D01*
X2844Y2791D01*
X2846Y2791D01*
X2846Y2789D01*
X2848Y2789D01*
X2848Y2787D01*
X2850Y2787D01*
X2850Y2783D01*
X2852Y2783D01*
X2852Y2781D01*
X2854Y2781D01*
X2854Y2777D01*
X2856Y2777D01*
X2856Y2773D01*
X2858Y2773D01*
X2858Y2769D01*
X2860Y2769D01*
X2860Y2763D01*
X2862Y2763D01*
X2862Y2757D01*
X2864Y2757D01*
X2864Y2749D01*
X2866Y2749D01*
X2866Y2715D01*
X2864Y2715D01*
X2864Y2705D01*
X2862Y2705D01*
X2862Y2699D01*
X2860Y2699D01*
X2860Y2695D01*
X2858Y2695D01*
X2858Y2689D01*
X2856Y2689D01*
X2856Y2685D01*
X2854Y2685D01*
X2854Y2683D01*
X2852Y2683D01*
X2852Y2679D01*
X2850Y2679D01*
X2850Y2677D01*
X2848Y2677D01*
X2848Y2673D01*
X2846Y2673D01*
X2846Y2671D01*
X2844Y2671D01*
X2844Y2669D01*
X2842Y2669D01*
X2842Y2667D01*
X2840Y2667D01*
X2840Y2665D01*
X2838Y2665D01*
X2838Y2663D01*
X2836Y2663D01*
X2836Y2661D01*
X2834Y2661D01*
X2834Y2659D01*
X2832Y2659D01*
X2832Y2657D01*
X2830Y2657D01*
X2830Y2655D01*
X2826Y2655D01*
X2826Y2653D01*
X2824Y2653D01*
X2824Y2651D01*
X2820Y2651D01*
X2820Y2649D01*
X2818Y2649D01*
X2818Y2647D01*
X2814Y2647D01*
X2814Y2645D01*
X2810Y2645D01*
X2810Y2643D01*
X2806Y2643D01*
X2806Y2641D01*
X2804Y2641D01*
X2804Y2639D01*
X2802Y2639D01*
X2802Y2635D01*
X2800Y2635D01*
X2800Y2631D01*
X2798Y2631D01*
X2798Y2627D01*
X2796Y2627D01*
X2796Y2625D01*
X2794Y2625D01*
X2794Y2621D01*
X2792Y2621D01*
X2792Y2617D01*
X2790Y2617D01*
X2790Y2613D01*
X2788Y2613D01*
X2788Y2611D01*
X2786Y2611D01*
X2786Y2607D01*
X2784Y2607D01*
X2784Y2603D01*
X2782Y2603D01*
X2782Y2599D01*
X2780Y2599D01*
X2780Y2597D01*
X2778Y2597D01*
X2778Y2593D01*
X2776Y2593D01*
X2776Y2589D01*
X2774Y2589D01*
X2774Y2585D01*
X2772Y2585D01*
X2772Y2583D01*
X2770Y2583D01*
X2770Y2579D01*
X2768Y2579D01*
X2768Y2575D01*
X2766Y2575D01*
X2766Y2573D01*
X2764Y2573D01*
X2764Y2569D01*
X2762Y2569D01*
X2762Y2565D01*
X2760Y2565D01*
X2760Y2561D01*
X2758Y2561D01*
X2758Y2559D01*
X2756Y2559D01*
X2756Y2555D01*
X2754Y2555D01*
X2754Y2551D01*
X2752Y2551D01*
X2752Y2547D01*
X2750Y2547D01*
X2750Y2545D01*
X2748Y2545D01*
X2748Y2541D01*
X2746Y2541D01*
X2746Y2537D01*
X2744Y2537D01*
X2744Y2533D01*
X2742Y2533D01*
X2742Y2531D01*
X2740Y2531D01*
X2740Y2527D01*
X2738Y2527D01*
X2738Y2523D01*
X2736Y2523D01*
X2736Y2519D01*
X2734Y2519D01*
X2734Y2517D01*
X2732Y2517D01*
X2732Y2513D01*
X2730Y2513D01*
X2730Y2509D01*
X2728Y2509D01*
X2728Y2505D01*
X2726Y2505D01*
X2726Y2503D01*
X2724Y2503D01*
X2724Y2499D01*
X2722Y2499D01*
X2722Y2495D01*
X2720Y2495D01*
X2720Y2491D01*
X2718Y2491D01*
X2718Y2489D01*
X2716Y2489D01*
X2716Y2485D01*
X2714Y2485D01*
X2714Y2481D01*
X2712Y2481D01*
X2712Y2477D01*
X2710Y2477D01*
X2710Y2475D01*
X2708Y2475D01*
X2708Y2471D01*
X2706Y2471D01*
X2706Y2467D01*
X2704Y2467D01*
X2704Y2463D01*
X2702Y2463D01*
X2702Y2461D01*
X2700Y2461D01*
X2700Y2457D01*
X2698Y2457D01*
X2698Y2453D01*
X2696Y2453D01*
X2696Y2449D01*
X2694Y2449D01*
X2694Y2447D01*
X2692Y2447D01*
X2692Y2443D01*
X2690Y2443D01*
X2690Y2439D01*
X2688Y2439D01*
X2688Y2435D01*
X2686Y2435D01*
X2686Y2433D01*
X2684Y2433D01*
X2684Y2429D01*
X2682Y2429D01*
X2682Y2425D01*
X2680Y2425D01*
X2680Y2421D01*
X2678Y2421D01*
X2678Y2419D01*
X2676Y2419D01*
X2676Y2415D01*
X2674Y2415D01*
X2674Y2411D01*
X2672Y2411D01*
X2672Y2407D01*
X2670Y2407D01*
X2670Y2405D01*
X2668Y2405D01*
X2668Y2401D01*
X2666Y2401D01*
X2666Y2397D01*
X2664Y2397D01*
X2664Y2395D01*
X2662Y2395D01*
X2662Y2391D01*
X2660Y2391D01*
X2660Y2387D01*
X2658Y2387D01*
X2658Y2385D01*
X2656Y2385D01*
X2656Y2383D01*
X2654Y2383D01*
X2654Y2381D01*
X2652Y2381D01*
X2652Y2379D01*
X2650Y2379D01*
X2650Y2377D01*
X2648Y2377D01*
X2648Y2375D01*
X2646Y2375D01*
X2646Y2373D01*
X2644Y2373D01*
X2644Y2371D01*
X2642Y2371D01*
X2642Y2369D01*
X2638Y2369D01*
X2638Y2367D01*
X2636Y2367D01*
X2636Y2365D01*
X2632Y2365D01*
X2632Y2363D01*
X2628Y2363D01*
X2628Y2361D01*
X2622Y2361D01*
X2622Y2359D01*
X2616Y2359D01*
X2616Y2357D01*
X2568Y2357D01*
X2568Y2347D01*
X2786Y2347D01*
X2786Y2345D01*
X2798Y2345D01*
X2798Y2343D01*
X2806Y2343D01*
X2806Y2341D01*
X2810Y2341D01*
X2810Y2339D01*
X2816Y2339D01*
X2816Y2337D01*
X2820Y2337D01*
X2820Y2335D01*
X2824Y2335D01*
X2824Y2333D01*
X2826Y2333D01*
X2826Y2331D01*
X2830Y2331D01*
X2830Y2329D01*
X2832Y2329D01*
X2832Y2327D01*
X2836Y2327D01*
X2836Y2325D01*
X2838Y2325D01*
X2838Y2323D01*
X2840Y2323D01*
X2840Y2321D01*
X2842Y2321D01*
X2842Y2319D01*
X2844Y2319D01*
X2844Y2317D01*
X2846Y2317D01*
X2846Y2315D01*
X2848Y2315D01*
X2848Y2313D01*
X2850Y2313D01*
X2850Y2311D01*
X2852Y2311D01*
X2852Y2307D01*
X2854Y2307D01*
X2854Y2305D01*
X2856Y2305D01*
X2856Y2301D01*
X2858Y2301D01*
X2858Y2299D01*
X2860Y2299D01*
X2860Y2295D01*
X2862Y2295D01*
X2862Y2291D01*
X2864Y2291D01*
X2864Y2285D01*
X2866Y2285D01*
X2866Y2279D01*
X2868Y2279D01*
X2868Y2273D01*
X2870Y2273D01*
X2870Y2261D01*
X2872Y2261D01*
X2872Y2241D01*
X2870Y2241D01*
X2870Y2229D01*
X2868Y2229D01*
X2868Y2223D01*
X2866Y2223D01*
X2866Y2217D01*
X2864Y2217D01*
X2864Y2211D01*
X2862Y2211D01*
X2862Y2207D01*
X2860Y2207D01*
X2860Y2203D01*
X2858Y2203D01*
X2858Y2201D01*
X2856Y2201D01*
X2856Y2197D01*
X2854Y2197D01*
X2854Y2195D01*
X2852Y2195D01*
X2852Y2193D01*
X2850Y2193D01*
X2850Y2189D01*
X2848Y2189D01*
X2848Y2187D01*
X2846Y2187D01*
X2846Y2185D01*
X2844Y2185D01*
X2844Y2183D01*
X2842Y2183D01*
X2842Y2181D01*
X2840Y2181D01*
X2840Y2179D01*
X2838Y2179D01*
X2838Y2177D01*
X2834Y2177D01*
X2834Y2175D01*
X2832Y2175D01*
X2832Y2173D01*
X2830Y2173D01*
X2830Y2171D01*
X2826Y2171D01*
X2826Y2169D01*
X2824Y2169D01*
X2824Y2167D01*
X2820Y2167D01*
X2820Y2165D01*
X2816Y2165D01*
X2816Y2163D01*
X2810Y2163D01*
X2810Y2161D01*
X2804Y2161D01*
X2804Y2159D01*
X2798Y2159D01*
X2798Y2157D01*
X2784Y2157D01*
X2784Y2155D01*
X2952Y2155D01*
X2952Y3039D01*
X40Y3039D01*
G37*
D02*
G36*
X40Y2945D02*
X40Y2719D01*
X180Y2719D01*
X180Y2721D01*
X170Y2721D01*
X170Y2723D01*
X164Y2723D01*
X164Y2725D01*
X158Y2725D01*
X158Y2727D01*
X154Y2727D01*
X154Y2729D01*
X150Y2729D01*
X150Y2731D01*
X144Y2731D01*
X144Y2733D01*
X142Y2733D01*
X142Y2735D01*
X138Y2735D01*
X138Y2737D01*
X136Y2737D01*
X136Y2739D01*
X132Y2739D01*
X132Y2741D01*
X130Y2741D01*
X130Y2743D01*
X128Y2743D01*
X128Y2745D01*
X124Y2745D01*
X124Y2747D01*
X122Y2747D01*
X122Y2749D01*
X120Y2749D01*
X120Y2751D01*
X118Y2751D01*
X118Y2753D01*
X116Y2753D01*
X116Y2755D01*
X114Y2755D01*
X114Y2757D01*
X112Y2757D01*
X112Y2761D01*
X110Y2761D01*
X110Y2763D01*
X108Y2763D01*
X108Y2765D01*
X106Y2765D01*
X106Y2769D01*
X104Y2769D01*
X104Y2771D01*
X102Y2771D01*
X102Y2775D01*
X100Y2775D01*
X100Y2779D01*
X98Y2779D01*
X98Y2783D01*
X96Y2783D01*
X96Y2787D01*
X94Y2787D01*
X94Y2791D01*
X92Y2791D01*
X92Y2797D01*
X90Y2797D01*
X90Y2805D01*
X88Y2805D01*
X88Y2815D01*
X86Y2815D01*
X86Y2849D01*
X88Y2849D01*
X88Y2859D01*
X90Y2859D01*
X90Y2865D01*
X92Y2865D01*
X92Y2871D01*
X94Y2871D01*
X94Y2877D01*
X96Y2877D01*
X96Y2881D01*
X98Y2881D01*
X98Y2885D01*
X100Y2885D01*
X100Y2889D01*
X102Y2889D01*
X102Y2891D01*
X104Y2891D01*
X104Y2895D01*
X106Y2895D01*
X106Y2897D01*
X108Y2897D01*
X108Y2901D01*
X110Y2901D01*
X110Y2903D01*
X112Y2903D01*
X112Y2905D01*
X114Y2905D01*
X114Y2907D01*
X116Y2907D01*
X116Y2909D01*
X118Y2909D01*
X118Y2911D01*
X120Y2911D01*
X120Y2913D01*
X122Y2913D01*
X122Y2915D01*
X124Y2915D01*
X124Y2917D01*
X126Y2917D01*
X126Y2919D01*
X128Y2919D01*
X128Y2921D01*
X132Y2921D01*
X132Y2923D01*
X134Y2923D01*
X134Y2925D01*
X136Y2925D01*
X136Y2927D01*
X140Y2927D01*
X140Y2929D01*
X144Y2929D01*
X144Y2931D01*
X148Y2931D01*
X148Y2933D01*
X152Y2933D01*
X152Y2935D01*
X156Y2935D01*
X156Y2937D01*
X162Y2937D01*
X162Y2939D01*
X168Y2939D01*
X168Y2941D01*
X176Y2941D01*
X176Y2943D01*
X192Y2943D01*
X192Y2945D01*
X40Y2945D01*
G37*
D02*
G36*
X206Y2945D02*
X206Y2943D01*
X222Y2943D01*
X222Y2941D01*
X230Y2941D01*
X230Y2939D01*
X236Y2939D01*
X236Y2937D01*
X242Y2937D01*
X242Y2935D01*
X246Y2935D01*
X246Y2933D01*
X250Y2933D01*
X250Y2931D01*
X254Y2931D01*
X254Y2929D01*
X256Y2929D01*
X256Y2927D01*
X260Y2927D01*
X260Y2925D01*
X264Y2925D01*
X264Y2923D01*
X266Y2923D01*
X266Y2921D01*
X268Y2921D01*
X268Y2919D01*
X272Y2919D01*
X272Y2917D01*
X274Y2917D01*
X274Y2915D01*
X276Y2915D01*
X276Y2913D01*
X278Y2913D01*
X278Y2911D01*
X280Y2911D01*
X280Y2909D01*
X282Y2909D01*
X282Y2907D01*
X284Y2907D01*
X284Y2905D01*
X286Y2905D01*
X286Y2901D01*
X288Y2901D01*
X288Y2899D01*
X290Y2899D01*
X290Y2897D01*
X292Y2897D01*
X292Y2893D01*
X294Y2893D01*
X294Y2891D01*
X296Y2891D01*
X296Y2887D01*
X298Y2887D01*
X298Y2883D01*
X300Y2883D01*
X300Y2879D01*
X302Y2879D01*
X302Y2875D01*
X304Y2875D01*
X304Y2869D01*
X306Y2869D01*
X306Y2863D01*
X308Y2863D01*
X308Y2855D01*
X310Y2855D01*
X310Y2841D01*
X312Y2841D01*
X312Y2821D01*
X310Y2821D01*
X310Y2807D01*
X308Y2807D01*
X308Y2801D01*
X306Y2801D01*
X306Y2793D01*
X304Y2793D01*
X304Y2789D01*
X302Y2789D01*
X302Y2785D01*
X300Y2785D01*
X300Y2779D01*
X298Y2779D01*
X298Y2777D01*
X296Y2777D01*
X296Y2773D01*
X294Y2773D01*
X294Y2769D01*
X292Y2769D01*
X292Y2767D01*
X290Y2767D01*
X290Y2763D01*
X288Y2763D01*
X288Y2761D01*
X286Y2761D01*
X286Y2759D01*
X284Y2759D01*
X284Y2757D01*
X282Y2757D01*
X282Y2755D01*
X280Y2755D01*
X280Y2753D01*
X278Y2753D01*
X278Y2751D01*
X276Y2751D01*
X276Y2749D01*
X274Y2749D01*
X274Y2747D01*
X272Y2747D01*
X272Y2745D01*
X270Y2745D01*
X270Y2743D01*
X268Y2743D01*
X268Y2741D01*
X264Y2741D01*
X264Y2739D01*
X262Y2739D01*
X262Y2737D01*
X258Y2737D01*
X258Y2735D01*
X256Y2735D01*
X256Y2733D01*
X252Y2733D01*
X252Y2731D01*
X248Y2731D01*
X248Y2729D01*
X244Y2729D01*
X244Y2727D01*
X238Y2727D01*
X238Y2725D01*
X234Y2725D01*
X234Y2723D01*
X226Y2723D01*
X226Y2721D01*
X216Y2721D01*
X216Y2719D01*
X2010Y2719D01*
X2010Y2717D01*
X2020Y2717D01*
X2020Y2715D01*
X2028Y2715D01*
X2028Y2713D01*
X2032Y2713D01*
X2032Y2711D01*
X2036Y2711D01*
X2036Y2709D01*
X2056Y2709D01*
X2056Y2727D01*
X2054Y2727D01*
X2054Y2729D01*
X2050Y2729D01*
X2050Y2731D01*
X2044Y2731D01*
X2044Y2733D01*
X2042Y2733D01*
X2042Y2735D01*
X2038Y2735D01*
X2038Y2737D01*
X2036Y2737D01*
X2036Y2739D01*
X2032Y2739D01*
X2032Y2741D01*
X2030Y2741D01*
X2030Y2743D01*
X2028Y2743D01*
X2028Y2745D01*
X2024Y2745D01*
X2024Y2747D01*
X2022Y2747D01*
X2022Y2749D01*
X2020Y2749D01*
X2020Y2751D01*
X2018Y2751D01*
X2018Y2753D01*
X2016Y2753D01*
X2016Y2755D01*
X2014Y2755D01*
X2014Y2757D01*
X2012Y2757D01*
X2012Y2761D01*
X2010Y2761D01*
X2010Y2763D01*
X2008Y2763D01*
X2008Y2765D01*
X2006Y2765D01*
X2006Y2769D01*
X2004Y2769D01*
X2004Y2771D01*
X2002Y2771D01*
X2002Y2775D01*
X2000Y2775D01*
X2000Y2779D01*
X1998Y2779D01*
X1998Y2783D01*
X1996Y2783D01*
X1996Y2787D01*
X1994Y2787D01*
X1994Y2791D01*
X1992Y2791D01*
X1992Y2797D01*
X1990Y2797D01*
X1990Y2805D01*
X1988Y2805D01*
X1988Y2815D01*
X1986Y2815D01*
X1986Y2849D01*
X1988Y2849D01*
X1988Y2859D01*
X1990Y2859D01*
X1990Y2865D01*
X1992Y2865D01*
X1992Y2871D01*
X1994Y2871D01*
X1994Y2877D01*
X1996Y2877D01*
X1996Y2881D01*
X1998Y2881D01*
X1998Y2885D01*
X2000Y2885D01*
X2000Y2889D01*
X2002Y2889D01*
X2002Y2891D01*
X2004Y2891D01*
X2004Y2895D01*
X2006Y2895D01*
X2006Y2897D01*
X2008Y2897D01*
X2008Y2901D01*
X2010Y2901D01*
X2010Y2903D01*
X2012Y2903D01*
X2012Y2905D01*
X2014Y2905D01*
X2014Y2907D01*
X2016Y2907D01*
X2016Y2909D01*
X2018Y2909D01*
X2018Y2911D01*
X2020Y2911D01*
X2020Y2913D01*
X2022Y2913D01*
X2022Y2915D01*
X2024Y2915D01*
X2024Y2917D01*
X2026Y2917D01*
X2026Y2919D01*
X2028Y2919D01*
X2028Y2921D01*
X2032Y2921D01*
X2032Y2923D01*
X2034Y2923D01*
X2034Y2925D01*
X2036Y2925D01*
X2036Y2927D01*
X2040Y2927D01*
X2040Y2929D01*
X2044Y2929D01*
X2044Y2931D01*
X2048Y2931D01*
X2048Y2933D01*
X2052Y2933D01*
X2052Y2935D01*
X2056Y2935D01*
X2056Y2937D01*
X2062Y2937D01*
X2062Y2939D01*
X2068Y2939D01*
X2068Y2941D01*
X2076Y2941D01*
X2076Y2943D01*
X2092Y2943D01*
X2092Y2945D01*
X206Y2945D01*
G37*
D02*
G36*
X2184Y2907D02*
X2184Y2905D01*
X2186Y2905D01*
X2186Y2901D01*
X2188Y2901D01*
X2188Y2899D01*
X2190Y2899D01*
X2190Y2897D01*
X2192Y2897D01*
X2192Y2893D01*
X2194Y2893D01*
X2194Y2891D01*
X2196Y2891D01*
X2196Y2887D01*
X2198Y2887D01*
X2198Y2883D01*
X2200Y2883D01*
X2200Y2879D01*
X2202Y2879D01*
X2202Y2875D01*
X2204Y2875D01*
X2204Y2869D01*
X2206Y2869D01*
X2206Y2863D01*
X2208Y2863D01*
X2208Y2855D01*
X2210Y2855D01*
X2210Y2841D01*
X2212Y2841D01*
X2212Y2827D01*
X2394Y2827D01*
X2394Y2715D01*
X2522Y2715D01*
X2522Y2717D01*
X2512Y2717D01*
X2512Y2719D01*
X2504Y2719D01*
X2504Y2721D01*
X2500Y2721D01*
X2500Y2723D01*
X2494Y2723D01*
X2494Y2725D01*
X2490Y2725D01*
X2490Y2727D01*
X2486Y2727D01*
X2486Y2729D01*
X2484Y2729D01*
X2484Y2731D01*
X2480Y2731D01*
X2480Y2733D01*
X2478Y2733D01*
X2478Y2735D01*
X2476Y2735D01*
X2476Y2737D01*
X2472Y2737D01*
X2472Y2739D01*
X2470Y2739D01*
X2470Y2741D01*
X2468Y2741D01*
X2468Y2743D01*
X2466Y2743D01*
X2466Y2745D01*
X2464Y2745D01*
X2464Y2747D01*
X2462Y2747D01*
X2462Y2749D01*
X2460Y2749D01*
X2460Y2753D01*
X2458Y2753D01*
X2458Y2755D01*
X2456Y2755D01*
X2456Y2759D01*
X2454Y2759D01*
X2454Y2761D01*
X2452Y2761D01*
X2452Y2765D01*
X2450Y2765D01*
X2450Y2769D01*
X2448Y2769D01*
X2448Y2773D01*
X2446Y2773D01*
X2446Y2779D01*
X2444Y2779D01*
X2444Y2785D01*
X2442Y2785D01*
X2442Y2791D01*
X2440Y2791D01*
X2440Y2829D01*
X2442Y2829D01*
X2442Y2837D01*
X2444Y2837D01*
X2444Y2843D01*
X2446Y2843D01*
X2446Y2849D01*
X2448Y2849D01*
X2448Y2853D01*
X2450Y2853D01*
X2450Y2857D01*
X2452Y2857D01*
X2452Y2861D01*
X2454Y2861D01*
X2454Y2863D01*
X2456Y2863D01*
X2456Y2867D01*
X2458Y2867D01*
X2458Y2869D01*
X2460Y2869D01*
X2460Y2871D01*
X2462Y2871D01*
X2462Y2873D01*
X2464Y2873D01*
X2464Y2875D01*
X2466Y2875D01*
X2466Y2879D01*
X2470Y2879D01*
X2470Y2881D01*
X2472Y2881D01*
X2472Y2883D01*
X2474Y2883D01*
X2474Y2885D01*
X2476Y2885D01*
X2476Y2887D01*
X2478Y2887D01*
X2478Y2889D01*
X2482Y2889D01*
X2482Y2891D01*
X2484Y2891D01*
X2484Y2893D01*
X2488Y2893D01*
X2488Y2895D01*
X2492Y2895D01*
X2492Y2897D01*
X2496Y2897D01*
X2496Y2899D01*
X2502Y2899D01*
X2502Y2901D01*
X2506Y2901D01*
X2506Y2903D01*
X2514Y2903D01*
X2514Y2905D01*
X2530Y2905D01*
X2530Y2907D01*
X2184Y2907D01*
G37*
D02*
G36*
X2628Y2827D02*
X2628Y2825D01*
X2630Y2825D01*
X2630Y2795D01*
X2628Y2795D01*
X2628Y2787D01*
X2626Y2787D01*
X2626Y2779D01*
X2624Y2779D01*
X2624Y2775D01*
X2622Y2775D01*
X2622Y2769D01*
X2620Y2769D01*
X2620Y2765D01*
X2618Y2765D01*
X2618Y2763D01*
X2616Y2763D01*
X2616Y2759D01*
X2614Y2759D01*
X2614Y2755D01*
X2612Y2755D01*
X2612Y2753D01*
X2610Y2753D01*
X2610Y2751D01*
X2608Y2751D01*
X2608Y2749D01*
X2606Y2749D01*
X2606Y2747D01*
X2604Y2747D01*
X2604Y2743D01*
X2602Y2743D01*
X2602Y2741D01*
X2598Y2741D01*
X2598Y2739D01*
X2596Y2739D01*
X2596Y2737D01*
X2594Y2737D01*
X2594Y2735D01*
X2592Y2735D01*
X2592Y2733D01*
X2588Y2733D01*
X2588Y2731D01*
X2586Y2731D01*
X2586Y2729D01*
X2582Y2729D01*
X2582Y2727D01*
X2578Y2727D01*
X2578Y2725D01*
X2574Y2725D01*
X2574Y2723D01*
X2570Y2723D01*
X2570Y2721D01*
X2564Y2721D01*
X2564Y2719D01*
X2558Y2719D01*
X2558Y2717D01*
X2546Y2717D01*
X2546Y2715D01*
X2676Y2715D01*
X2676Y2749D01*
X2678Y2749D01*
X2678Y2757D01*
X2680Y2757D01*
X2680Y2763D01*
X2682Y2763D01*
X2682Y2769D01*
X2684Y2769D01*
X2684Y2773D01*
X2686Y2773D01*
X2686Y2777D01*
X2688Y2777D01*
X2688Y2781D01*
X2690Y2781D01*
X2690Y2783D01*
X2692Y2783D01*
X2692Y2787D01*
X2694Y2787D01*
X2694Y2789D01*
X2696Y2789D01*
X2696Y2791D01*
X2698Y2791D01*
X2698Y2795D01*
X2700Y2795D01*
X2700Y2797D01*
X2702Y2797D01*
X2702Y2799D01*
X2704Y2799D01*
X2704Y2801D01*
X2706Y2801D01*
X2706Y2803D01*
X2708Y2803D01*
X2708Y2805D01*
X2712Y2805D01*
X2712Y2807D01*
X2714Y2807D01*
X2714Y2809D01*
X2716Y2809D01*
X2716Y2811D01*
X2720Y2811D01*
X2720Y2813D01*
X2724Y2813D01*
X2724Y2815D01*
X2726Y2815D01*
X2726Y2817D01*
X2730Y2817D01*
X2730Y2819D01*
X2736Y2819D01*
X2736Y2821D01*
X2740Y2821D01*
X2740Y2823D01*
X2748Y2823D01*
X2748Y2825D01*
X2758Y2825D01*
X2758Y2827D01*
X2628Y2827D01*
G37*
D02*
G36*
X40Y2719D02*
X40Y2717D01*
X288Y2717D01*
X288Y2719D01*
X40Y2719D01*
G37*
D02*
G36*
X40Y2719D02*
X40Y2717D01*
X288Y2717D01*
X288Y2719D01*
X40Y2719D01*
G37*
D02*
G36*
X310Y2719D02*
X310Y2717D01*
X320Y2717D01*
X320Y2715D01*
X328Y2715D01*
X328Y2713D01*
X332Y2713D01*
X332Y2711D01*
X336Y2711D01*
X336Y2709D01*
X360Y2709D01*
X360Y2711D01*
X364Y2711D01*
X364Y2713D01*
X370Y2713D01*
X370Y2715D01*
X376Y2715D01*
X376Y2717D01*
X388Y2717D01*
X388Y2719D01*
X310Y2719D01*
G37*
D02*
G36*
X410Y2719D02*
X410Y2717D01*
X420Y2717D01*
X420Y2715D01*
X428Y2715D01*
X428Y2713D01*
X432Y2713D01*
X432Y2711D01*
X436Y2711D01*
X436Y2709D01*
X460Y2709D01*
X460Y2711D01*
X464Y2711D01*
X464Y2713D01*
X470Y2713D01*
X470Y2715D01*
X476Y2715D01*
X476Y2717D01*
X488Y2717D01*
X488Y2719D01*
X410Y2719D01*
G37*
D02*
G36*
X510Y2719D02*
X510Y2717D01*
X520Y2717D01*
X520Y2715D01*
X528Y2715D01*
X528Y2713D01*
X532Y2713D01*
X532Y2711D01*
X536Y2711D01*
X536Y2709D01*
X560Y2709D01*
X560Y2711D01*
X564Y2711D01*
X564Y2713D01*
X570Y2713D01*
X570Y2715D01*
X576Y2715D01*
X576Y2717D01*
X588Y2717D01*
X588Y2719D01*
X510Y2719D01*
G37*
D02*
G36*
X610Y2719D02*
X610Y2717D01*
X620Y2717D01*
X620Y2715D01*
X628Y2715D01*
X628Y2713D01*
X632Y2713D01*
X632Y2711D01*
X636Y2711D01*
X636Y2709D01*
X660Y2709D01*
X660Y2711D01*
X664Y2711D01*
X664Y2713D01*
X670Y2713D01*
X670Y2715D01*
X676Y2715D01*
X676Y2717D01*
X688Y2717D01*
X688Y2719D01*
X610Y2719D01*
G37*
D02*
G36*
X710Y2719D02*
X710Y2717D01*
X720Y2717D01*
X720Y2715D01*
X728Y2715D01*
X728Y2713D01*
X732Y2713D01*
X732Y2711D01*
X736Y2711D01*
X736Y2709D01*
X760Y2709D01*
X760Y2711D01*
X764Y2711D01*
X764Y2713D01*
X770Y2713D01*
X770Y2715D01*
X776Y2715D01*
X776Y2717D01*
X788Y2717D01*
X788Y2719D01*
X710Y2719D01*
G37*
D02*
G36*
X810Y2719D02*
X810Y2717D01*
X820Y2717D01*
X820Y2715D01*
X828Y2715D01*
X828Y2713D01*
X832Y2713D01*
X832Y2711D01*
X836Y2711D01*
X836Y2709D01*
X860Y2709D01*
X860Y2711D01*
X864Y2711D01*
X864Y2713D01*
X870Y2713D01*
X870Y2715D01*
X876Y2715D01*
X876Y2717D01*
X888Y2717D01*
X888Y2719D01*
X810Y2719D01*
G37*
D02*
G36*
X910Y2719D02*
X910Y2717D01*
X920Y2717D01*
X920Y2715D01*
X928Y2715D01*
X928Y2713D01*
X932Y2713D01*
X932Y2711D01*
X936Y2711D01*
X936Y2709D01*
X960Y2709D01*
X960Y2711D01*
X964Y2711D01*
X964Y2713D01*
X970Y2713D01*
X970Y2715D01*
X976Y2715D01*
X976Y2717D01*
X988Y2717D01*
X988Y2719D01*
X910Y2719D01*
G37*
D02*
G36*
X1010Y2719D02*
X1010Y2717D01*
X1020Y2717D01*
X1020Y2715D01*
X1028Y2715D01*
X1028Y2713D01*
X1032Y2713D01*
X1032Y2711D01*
X1036Y2711D01*
X1036Y2709D01*
X1060Y2709D01*
X1060Y2711D01*
X1064Y2711D01*
X1064Y2713D01*
X1070Y2713D01*
X1070Y2715D01*
X1076Y2715D01*
X1076Y2717D01*
X1088Y2717D01*
X1088Y2719D01*
X1010Y2719D01*
G37*
D02*
G36*
X1110Y2719D02*
X1110Y2717D01*
X1120Y2717D01*
X1120Y2715D01*
X1128Y2715D01*
X1128Y2713D01*
X1132Y2713D01*
X1132Y2711D01*
X1136Y2711D01*
X1136Y2709D01*
X1140Y2709D01*
X1140Y2707D01*
X1144Y2707D01*
X1144Y2705D01*
X1148Y2705D01*
X1148Y2703D01*
X1150Y2703D01*
X1150Y2701D01*
X1152Y2701D01*
X1152Y2699D01*
X1156Y2699D01*
X1156Y2697D01*
X1158Y2697D01*
X1158Y2695D01*
X1160Y2695D01*
X1160Y2693D01*
X1162Y2693D01*
X1162Y2691D01*
X1164Y2691D01*
X1164Y2689D01*
X1166Y2689D01*
X1166Y2685D01*
X1168Y2685D01*
X1168Y2683D01*
X1170Y2683D01*
X1170Y2681D01*
X1172Y2681D01*
X1172Y2677D01*
X1174Y2677D01*
X1174Y2673D01*
X1176Y2673D01*
X1176Y2669D01*
X1178Y2669D01*
X1178Y2665D01*
X1180Y2665D01*
X1180Y2661D01*
X1182Y2661D01*
X1182Y2653D01*
X1184Y2653D01*
X1184Y2645D01*
X1186Y2645D01*
X1186Y2619D01*
X1184Y2619D01*
X1184Y2609D01*
X1182Y2609D01*
X1182Y2603D01*
X1180Y2603D01*
X1180Y2597D01*
X1178Y2597D01*
X1178Y2593D01*
X1176Y2593D01*
X1176Y2589D01*
X1174Y2589D01*
X1174Y2585D01*
X1172Y2585D01*
X1172Y2583D01*
X1170Y2583D01*
X1170Y2579D01*
X1168Y2579D01*
X1168Y2577D01*
X1166Y2577D01*
X1166Y2575D01*
X1164Y2575D01*
X1164Y2573D01*
X1162Y2573D01*
X1162Y2571D01*
X1160Y2571D01*
X1160Y2569D01*
X1158Y2569D01*
X1158Y2567D01*
X1156Y2567D01*
X1156Y2565D01*
X1154Y2565D01*
X1154Y2563D01*
X1152Y2563D01*
X1152Y2561D01*
X1150Y2561D01*
X1150Y2559D01*
X1146Y2559D01*
X1146Y2557D01*
X1142Y2557D01*
X1142Y2555D01*
X1140Y2555D01*
X1140Y2553D01*
X1136Y2553D01*
X1136Y2551D01*
X1130Y2551D01*
X1130Y2549D01*
X1124Y2549D01*
X1124Y2547D01*
X1118Y2547D01*
X1118Y2545D01*
X1100Y2545D01*
X1100Y2543D01*
X1296Y2543D01*
X1296Y2545D01*
X1280Y2545D01*
X1280Y2547D01*
X1272Y2547D01*
X1272Y2549D01*
X1266Y2549D01*
X1266Y2551D01*
X1262Y2551D01*
X1262Y2553D01*
X1258Y2553D01*
X1258Y2555D01*
X1254Y2555D01*
X1254Y2557D01*
X1252Y2557D01*
X1252Y2559D01*
X1248Y2559D01*
X1248Y2561D01*
X1246Y2561D01*
X1246Y2563D01*
X1242Y2563D01*
X1242Y2565D01*
X1240Y2565D01*
X1240Y2567D01*
X1238Y2567D01*
X1238Y2569D01*
X1236Y2569D01*
X1236Y2571D01*
X1234Y2571D01*
X1234Y2573D01*
X1232Y2573D01*
X1232Y2575D01*
X1230Y2575D01*
X1230Y2579D01*
X1228Y2579D01*
X1228Y2581D01*
X1226Y2581D01*
X1226Y2585D01*
X1224Y2585D01*
X1224Y2587D01*
X1222Y2587D01*
X1222Y2591D01*
X1220Y2591D01*
X1220Y2595D01*
X1218Y2595D01*
X1218Y2601D01*
X1216Y2601D01*
X1216Y2605D01*
X1214Y2605D01*
X1214Y2613D01*
X1212Y2613D01*
X1212Y2649D01*
X1214Y2649D01*
X1214Y2657D01*
X1216Y2657D01*
X1216Y2663D01*
X1218Y2663D01*
X1218Y2667D01*
X1220Y2667D01*
X1220Y2671D01*
X1222Y2671D01*
X1222Y2675D01*
X1224Y2675D01*
X1224Y2679D01*
X1226Y2679D01*
X1226Y2681D01*
X1228Y2681D01*
X1228Y2685D01*
X1230Y2685D01*
X1230Y2687D01*
X1232Y2687D01*
X1232Y2689D01*
X1234Y2689D01*
X1234Y2691D01*
X1236Y2691D01*
X1236Y2693D01*
X1238Y2693D01*
X1238Y2695D01*
X1240Y2695D01*
X1240Y2697D01*
X1242Y2697D01*
X1242Y2699D01*
X1244Y2699D01*
X1244Y2701D01*
X1248Y2701D01*
X1248Y2703D01*
X1250Y2703D01*
X1250Y2705D01*
X1254Y2705D01*
X1254Y2707D01*
X1256Y2707D01*
X1256Y2709D01*
X1260Y2709D01*
X1260Y2711D01*
X1264Y2711D01*
X1264Y2713D01*
X1270Y2713D01*
X1270Y2715D01*
X1276Y2715D01*
X1276Y2717D01*
X1288Y2717D01*
X1288Y2719D01*
X1110Y2719D01*
G37*
D02*
G36*
X1310Y2719D02*
X1310Y2717D01*
X1320Y2717D01*
X1320Y2715D01*
X1328Y2715D01*
X1328Y2713D01*
X1332Y2713D01*
X1332Y2711D01*
X1336Y2711D01*
X1336Y2709D01*
X1360Y2709D01*
X1360Y2711D01*
X1364Y2711D01*
X1364Y2713D01*
X1370Y2713D01*
X1370Y2715D01*
X1376Y2715D01*
X1376Y2717D01*
X1388Y2717D01*
X1388Y2719D01*
X1310Y2719D01*
G37*
D02*
G36*
X1410Y2719D02*
X1410Y2717D01*
X1420Y2717D01*
X1420Y2715D01*
X1428Y2715D01*
X1428Y2713D01*
X1432Y2713D01*
X1432Y2711D01*
X1436Y2711D01*
X1436Y2709D01*
X1460Y2709D01*
X1460Y2711D01*
X1464Y2711D01*
X1464Y2713D01*
X1470Y2713D01*
X1470Y2715D01*
X1476Y2715D01*
X1476Y2717D01*
X1488Y2717D01*
X1488Y2719D01*
X1410Y2719D01*
G37*
D02*
G36*
X1510Y2719D02*
X1510Y2717D01*
X1520Y2717D01*
X1520Y2715D01*
X1528Y2715D01*
X1528Y2713D01*
X1532Y2713D01*
X1532Y2711D01*
X1536Y2711D01*
X1536Y2709D01*
X1560Y2709D01*
X1560Y2711D01*
X1564Y2711D01*
X1564Y2713D01*
X1570Y2713D01*
X1570Y2715D01*
X1576Y2715D01*
X1576Y2717D01*
X1588Y2717D01*
X1588Y2719D01*
X1510Y2719D01*
G37*
D02*
G36*
X1610Y2719D02*
X1610Y2717D01*
X1620Y2717D01*
X1620Y2715D01*
X1628Y2715D01*
X1628Y2713D01*
X1632Y2713D01*
X1632Y2711D01*
X1636Y2711D01*
X1636Y2709D01*
X1660Y2709D01*
X1660Y2711D01*
X1664Y2711D01*
X1664Y2713D01*
X1670Y2713D01*
X1670Y2715D01*
X1676Y2715D01*
X1676Y2717D01*
X1688Y2717D01*
X1688Y2719D01*
X1610Y2719D01*
G37*
D02*
G36*
X1710Y2719D02*
X1710Y2717D01*
X1720Y2717D01*
X1720Y2715D01*
X1728Y2715D01*
X1728Y2713D01*
X1732Y2713D01*
X1732Y2711D01*
X1736Y2711D01*
X1736Y2709D01*
X1760Y2709D01*
X1760Y2711D01*
X1764Y2711D01*
X1764Y2713D01*
X1770Y2713D01*
X1770Y2715D01*
X1776Y2715D01*
X1776Y2717D01*
X1788Y2717D01*
X1788Y2719D01*
X1710Y2719D01*
G37*
D02*
G36*
X1810Y2719D02*
X1810Y2717D01*
X1820Y2717D01*
X1820Y2715D01*
X1828Y2715D01*
X1828Y2713D01*
X1832Y2713D01*
X1832Y2711D01*
X1836Y2711D01*
X1836Y2709D01*
X1860Y2709D01*
X1860Y2711D01*
X1864Y2711D01*
X1864Y2713D01*
X1870Y2713D01*
X1870Y2715D01*
X1876Y2715D01*
X1876Y2717D01*
X1888Y2717D01*
X1888Y2719D01*
X1810Y2719D01*
G37*
D02*
G36*
X1910Y2719D02*
X1910Y2717D01*
X1920Y2717D01*
X1920Y2715D01*
X1928Y2715D01*
X1928Y2713D01*
X1932Y2713D01*
X1932Y2711D01*
X1936Y2711D01*
X1936Y2709D01*
X1960Y2709D01*
X1960Y2711D01*
X1964Y2711D01*
X1964Y2713D01*
X1970Y2713D01*
X1970Y2715D01*
X1976Y2715D01*
X1976Y2717D01*
X1988Y2717D01*
X1988Y2719D01*
X1910Y2719D01*
G37*
D02*
G36*
X40Y2717D02*
X40Y2543D01*
X296Y2543D01*
X296Y2545D01*
X280Y2545D01*
X280Y2547D01*
X272Y2547D01*
X272Y2549D01*
X266Y2549D01*
X266Y2551D01*
X262Y2551D01*
X262Y2553D01*
X258Y2553D01*
X258Y2555D01*
X254Y2555D01*
X254Y2557D01*
X252Y2557D01*
X252Y2559D01*
X248Y2559D01*
X248Y2561D01*
X246Y2561D01*
X246Y2563D01*
X242Y2563D01*
X242Y2565D01*
X240Y2565D01*
X240Y2567D01*
X238Y2567D01*
X238Y2569D01*
X236Y2569D01*
X236Y2571D01*
X234Y2571D01*
X234Y2573D01*
X232Y2573D01*
X232Y2575D01*
X230Y2575D01*
X230Y2579D01*
X228Y2579D01*
X228Y2581D01*
X226Y2581D01*
X226Y2585D01*
X224Y2585D01*
X224Y2587D01*
X222Y2587D01*
X222Y2591D01*
X220Y2591D01*
X220Y2595D01*
X218Y2595D01*
X218Y2601D01*
X216Y2601D01*
X216Y2605D01*
X214Y2605D01*
X214Y2613D01*
X212Y2613D01*
X212Y2649D01*
X214Y2649D01*
X214Y2657D01*
X216Y2657D01*
X216Y2663D01*
X218Y2663D01*
X218Y2667D01*
X220Y2667D01*
X220Y2671D01*
X222Y2671D01*
X222Y2675D01*
X224Y2675D01*
X224Y2679D01*
X226Y2679D01*
X226Y2681D01*
X228Y2681D01*
X228Y2685D01*
X230Y2685D01*
X230Y2687D01*
X232Y2687D01*
X232Y2689D01*
X234Y2689D01*
X234Y2691D01*
X236Y2691D01*
X236Y2693D01*
X238Y2693D01*
X238Y2695D01*
X240Y2695D01*
X240Y2697D01*
X242Y2697D01*
X242Y2699D01*
X244Y2699D01*
X244Y2701D01*
X248Y2701D01*
X248Y2703D01*
X250Y2703D01*
X250Y2705D01*
X254Y2705D01*
X254Y2707D01*
X256Y2707D01*
X256Y2709D01*
X260Y2709D01*
X260Y2711D01*
X264Y2711D01*
X264Y2713D01*
X270Y2713D01*
X270Y2715D01*
X276Y2715D01*
X276Y2717D01*
X40Y2717D01*
G37*
D02*
G36*
X2394Y2715D02*
X2394Y2713D01*
X2676Y2713D01*
X2676Y2715D01*
X2394Y2715D01*
G37*
D02*
G36*
X2394Y2715D02*
X2394Y2713D01*
X2676Y2713D01*
X2676Y2715D01*
X2394Y2715D01*
G37*
D02*
G36*
X2394Y2713D02*
X2394Y2635D01*
X2186Y2635D01*
X2186Y2619D01*
X2184Y2619D01*
X2184Y2609D01*
X2182Y2609D01*
X2182Y2603D01*
X2180Y2603D01*
X2180Y2597D01*
X2178Y2597D01*
X2178Y2593D01*
X2176Y2593D01*
X2176Y2589D01*
X2174Y2589D01*
X2174Y2585D01*
X2172Y2585D01*
X2172Y2583D01*
X2170Y2583D01*
X2170Y2579D01*
X2168Y2579D01*
X2168Y2577D01*
X2166Y2577D01*
X2166Y2575D01*
X2164Y2575D01*
X2164Y2573D01*
X2162Y2573D01*
X2162Y2571D01*
X2160Y2571D01*
X2160Y2569D01*
X2158Y2569D01*
X2158Y2567D01*
X2156Y2567D01*
X2156Y2565D01*
X2154Y2565D01*
X2154Y2563D01*
X2152Y2563D01*
X2152Y2561D01*
X2150Y2561D01*
X2150Y2559D01*
X2146Y2559D01*
X2146Y2557D01*
X2142Y2557D01*
X2142Y2555D01*
X2140Y2555D01*
X2140Y2553D01*
X2136Y2553D01*
X2136Y2551D01*
X2130Y2551D01*
X2130Y2549D01*
X2124Y2549D01*
X2124Y2547D01*
X2118Y2547D01*
X2118Y2545D01*
X2100Y2545D01*
X2100Y2543D01*
X2578Y2543D01*
X2578Y2545D01*
X2580Y2545D01*
X2580Y2549D01*
X2582Y2549D01*
X2582Y2553D01*
X2584Y2553D01*
X2584Y2555D01*
X2586Y2555D01*
X2586Y2559D01*
X2588Y2559D01*
X2588Y2563D01*
X2590Y2563D01*
X2590Y2567D01*
X2592Y2567D01*
X2592Y2569D01*
X2594Y2569D01*
X2594Y2573D01*
X2596Y2573D01*
X2596Y2577D01*
X2598Y2577D01*
X2598Y2581D01*
X2600Y2581D01*
X2600Y2583D01*
X2602Y2583D01*
X2602Y2587D01*
X2604Y2587D01*
X2604Y2591D01*
X2606Y2591D01*
X2606Y2593D01*
X2608Y2593D01*
X2608Y2597D01*
X2610Y2597D01*
X2610Y2601D01*
X2612Y2601D01*
X2612Y2605D01*
X2614Y2605D01*
X2614Y2607D01*
X2616Y2607D01*
X2616Y2611D01*
X2618Y2611D01*
X2618Y2615D01*
X2620Y2615D01*
X2620Y2619D01*
X2622Y2619D01*
X2622Y2621D01*
X2624Y2621D01*
X2624Y2625D01*
X2626Y2625D01*
X2626Y2629D01*
X2628Y2629D01*
X2628Y2633D01*
X2630Y2633D01*
X2630Y2635D01*
X2632Y2635D01*
X2632Y2639D01*
X2634Y2639D01*
X2634Y2643D01*
X2636Y2643D01*
X2636Y2647D01*
X2638Y2647D01*
X2638Y2649D01*
X2640Y2649D01*
X2640Y2653D01*
X2642Y2653D01*
X2642Y2657D01*
X2644Y2657D01*
X2644Y2661D01*
X2646Y2661D01*
X2646Y2663D01*
X2648Y2663D01*
X2648Y2667D01*
X2650Y2667D01*
X2650Y2671D01*
X2652Y2671D01*
X2652Y2675D01*
X2654Y2675D01*
X2654Y2677D01*
X2656Y2677D01*
X2656Y2681D01*
X2658Y2681D01*
X2658Y2685D01*
X2660Y2685D01*
X2660Y2689D01*
X2662Y2689D01*
X2662Y2691D01*
X2664Y2691D01*
X2664Y2695D01*
X2666Y2695D01*
X2666Y2699D01*
X2668Y2699D01*
X2668Y2703D01*
X2670Y2703D01*
X2670Y2705D01*
X2672Y2705D01*
X2672Y2709D01*
X2674Y2709D01*
X2674Y2713D01*
X2394Y2713D01*
G37*
D02*
G36*
X336Y2553D02*
X336Y2551D01*
X330Y2551D01*
X330Y2549D01*
X324Y2549D01*
X324Y2547D01*
X318Y2547D01*
X318Y2545D01*
X300Y2545D01*
X300Y2543D01*
X396Y2543D01*
X396Y2545D01*
X380Y2545D01*
X380Y2547D01*
X372Y2547D01*
X372Y2549D01*
X366Y2549D01*
X366Y2551D01*
X362Y2551D01*
X362Y2553D01*
X336Y2553D01*
G37*
D02*
G36*
X436Y2553D02*
X436Y2551D01*
X430Y2551D01*
X430Y2549D01*
X424Y2549D01*
X424Y2547D01*
X418Y2547D01*
X418Y2545D01*
X400Y2545D01*
X400Y2543D01*
X496Y2543D01*
X496Y2545D01*
X480Y2545D01*
X480Y2547D01*
X472Y2547D01*
X472Y2549D01*
X466Y2549D01*
X466Y2551D01*
X462Y2551D01*
X462Y2553D01*
X436Y2553D01*
G37*
D02*
G36*
X536Y2553D02*
X536Y2551D01*
X530Y2551D01*
X530Y2549D01*
X524Y2549D01*
X524Y2547D01*
X518Y2547D01*
X518Y2545D01*
X500Y2545D01*
X500Y2543D01*
X596Y2543D01*
X596Y2545D01*
X580Y2545D01*
X580Y2547D01*
X572Y2547D01*
X572Y2549D01*
X566Y2549D01*
X566Y2551D01*
X562Y2551D01*
X562Y2553D01*
X536Y2553D01*
G37*
D02*
G36*
X636Y2553D02*
X636Y2551D01*
X630Y2551D01*
X630Y2549D01*
X624Y2549D01*
X624Y2547D01*
X618Y2547D01*
X618Y2545D01*
X600Y2545D01*
X600Y2543D01*
X696Y2543D01*
X696Y2545D01*
X680Y2545D01*
X680Y2547D01*
X672Y2547D01*
X672Y2549D01*
X666Y2549D01*
X666Y2551D01*
X662Y2551D01*
X662Y2553D01*
X636Y2553D01*
G37*
D02*
G36*
X736Y2553D02*
X736Y2551D01*
X730Y2551D01*
X730Y2549D01*
X724Y2549D01*
X724Y2547D01*
X718Y2547D01*
X718Y2545D01*
X700Y2545D01*
X700Y2543D01*
X796Y2543D01*
X796Y2545D01*
X780Y2545D01*
X780Y2547D01*
X772Y2547D01*
X772Y2549D01*
X766Y2549D01*
X766Y2551D01*
X762Y2551D01*
X762Y2553D01*
X736Y2553D01*
G37*
D02*
G36*
X836Y2553D02*
X836Y2551D01*
X830Y2551D01*
X830Y2549D01*
X824Y2549D01*
X824Y2547D01*
X818Y2547D01*
X818Y2545D01*
X800Y2545D01*
X800Y2543D01*
X896Y2543D01*
X896Y2545D01*
X880Y2545D01*
X880Y2547D01*
X872Y2547D01*
X872Y2549D01*
X866Y2549D01*
X866Y2551D01*
X862Y2551D01*
X862Y2553D01*
X836Y2553D01*
G37*
D02*
G36*
X936Y2553D02*
X936Y2551D01*
X930Y2551D01*
X930Y2549D01*
X924Y2549D01*
X924Y2547D01*
X918Y2547D01*
X918Y2545D01*
X900Y2545D01*
X900Y2543D01*
X996Y2543D01*
X996Y2545D01*
X980Y2545D01*
X980Y2547D01*
X972Y2547D01*
X972Y2549D01*
X966Y2549D01*
X966Y2551D01*
X962Y2551D01*
X962Y2553D01*
X936Y2553D01*
G37*
D02*
G36*
X1036Y2553D02*
X1036Y2551D01*
X1030Y2551D01*
X1030Y2549D01*
X1024Y2549D01*
X1024Y2547D01*
X1018Y2547D01*
X1018Y2545D01*
X1000Y2545D01*
X1000Y2543D01*
X1096Y2543D01*
X1096Y2545D01*
X1080Y2545D01*
X1080Y2547D01*
X1072Y2547D01*
X1072Y2549D01*
X1066Y2549D01*
X1066Y2551D01*
X1062Y2551D01*
X1062Y2553D01*
X1036Y2553D01*
G37*
D02*
G36*
X1336Y2553D02*
X1336Y2551D01*
X1330Y2551D01*
X1330Y2549D01*
X1324Y2549D01*
X1324Y2547D01*
X1318Y2547D01*
X1318Y2545D01*
X1300Y2545D01*
X1300Y2543D01*
X1396Y2543D01*
X1396Y2545D01*
X1380Y2545D01*
X1380Y2547D01*
X1372Y2547D01*
X1372Y2549D01*
X1366Y2549D01*
X1366Y2551D01*
X1362Y2551D01*
X1362Y2553D01*
X1336Y2553D01*
G37*
D02*
G36*
X1436Y2553D02*
X1436Y2551D01*
X1430Y2551D01*
X1430Y2549D01*
X1424Y2549D01*
X1424Y2547D01*
X1418Y2547D01*
X1418Y2545D01*
X1400Y2545D01*
X1400Y2543D01*
X1496Y2543D01*
X1496Y2545D01*
X1480Y2545D01*
X1480Y2547D01*
X1472Y2547D01*
X1472Y2549D01*
X1466Y2549D01*
X1466Y2551D01*
X1462Y2551D01*
X1462Y2553D01*
X1436Y2553D01*
G37*
D02*
G36*
X1536Y2553D02*
X1536Y2551D01*
X1530Y2551D01*
X1530Y2549D01*
X1524Y2549D01*
X1524Y2547D01*
X1518Y2547D01*
X1518Y2545D01*
X1500Y2545D01*
X1500Y2543D01*
X1596Y2543D01*
X1596Y2545D01*
X1580Y2545D01*
X1580Y2547D01*
X1572Y2547D01*
X1572Y2549D01*
X1566Y2549D01*
X1566Y2551D01*
X1562Y2551D01*
X1562Y2553D01*
X1536Y2553D01*
G37*
D02*
G36*
X1836Y2553D02*
X1836Y2551D01*
X1830Y2551D01*
X1830Y2549D01*
X1824Y2549D01*
X1824Y2547D01*
X1818Y2547D01*
X1818Y2545D01*
X1808Y2545D01*
X1808Y2543D01*
X1896Y2543D01*
X1896Y2545D01*
X1880Y2545D01*
X1880Y2547D01*
X1872Y2547D01*
X1872Y2549D01*
X1866Y2549D01*
X1866Y2551D01*
X1862Y2551D01*
X1862Y2553D01*
X1836Y2553D01*
G37*
D02*
G36*
X1936Y2553D02*
X1936Y2551D01*
X1930Y2551D01*
X1930Y2549D01*
X1924Y2549D01*
X1924Y2547D01*
X1918Y2547D01*
X1918Y2545D01*
X1900Y2545D01*
X1900Y2543D01*
X1996Y2543D01*
X1996Y2545D01*
X1980Y2545D01*
X1980Y2547D01*
X1972Y2547D01*
X1972Y2549D01*
X1966Y2549D01*
X1966Y2551D01*
X1962Y2551D01*
X1962Y2553D01*
X1936Y2553D01*
G37*
D02*
G36*
X2036Y2553D02*
X2036Y2551D01*
X2030Y2551D01*
X2030Y2549D01*
X2024Y2549D01*
X2024Y2547D01*
X2018Y2547D01*
X2018Y2545D01*
X2000Y2545D01*
X2000Y2543D01*
X2096Y2543D01*
X2096Y2545D01*
X2080Y2545D01*
X2080Y2547D01*
X2072Y2547D01*
X2072Y2549D01*
X2066Y2549D01*
X2066Y2551D01*
X2062Y2551D01*
X2062Y2553D01*
X2036Y2553D01*
G37*
D02*
G36*
X1600Y2545D02*
X1600Y2543D01*
X1626Y2543D01*
X1626Y2545D01*
X1600Y2545D01*
G37*
D02*
G36*
X40Y2543D02*
X40Y2541D01*
X1626Y2541D01*
X1626Y2543D01*
X40Y2543D01*
G37*
D02*
G36*
X40Y2543D02*
X40Y2541D01*
X1626Y2541D01*
X1626Y2543D01*
X40Y2543D01*
G37*
D02*
G36*
X40Y2543D02*
X40Y2541D01*
X1626Y2541D01*
X1626Y2543D01*
X40Y2543D01*
G37*
D02*
G36*
X40Y2543D02*
X40Y2541D01*
X1626Y2541D01*
X1626Y2543D01*
X40Y2543D01*
G37*
D02*
G36*
X40Y2543D02*
X40Y2541D01*
X1626Y2541D01*
X1626Y2543D01*
X40Y2543D01*
G37*
D02*
G36*
X40Y2543D02*
X40Y2541D01*
X1626Y2541D01*
X1626Y2543D01*
X40Y2543D01*
G37*
D02*
G36*
X40Y2543D02*
X40Y2541D01*
X1626Y2541D01*
X1626Y2543D01*
X40Y2543D01*
G37*
D02*
G36*
X40Y2543D02*
X40Y2541D01*
X1626Y2541D01*
X1626Y2543D01*
X40Y2543D01*
G37*
D02*
G36*
X40Y2543D02*
X40Y2541D01*
X1626Y2541D01*
X1626Y2543D01*
X40Y2543D01*
G37*
D02*
G36*
X40Y2543D02*
X40Y2541D01*
X1626Y2541D01*
X1626Y2543D01*
X40Y2543D01*
G37*
D02*
G36*
X40Y2543D02*
X40Y2541D01*
X1626Y2541D01*
X1626Y2543D01*
X40Y2543D01*
G37*
D02*
G36*
X40Y2543D02*
X40Y2541D01*
X1626Y2541D01*
X1626Y2543D01*
X40Y2543D01*
G37*
D02*
G36*
X40Y2543D02*
X40Y2541D01*
X1626Y2541D01*
X1626Y2543D01*
X40Y2543D01*
G37*
D02*
G36*
X40Y2543D02*
X40Y2541D01*
X1626Y2541D01*
X1626Y2543D01*
X40Y2543D01*
G37*
D02*
G36*
X1808Y2543D02*
X1808Y2541D01*
X2578Y2541D01*
X2578Y2543D01*
X1808Y2543D01*
G37*
D02*
G36*
X1808Y2543D02*
X1808Y2541D01*
X2578Y2541D01*
X2578Y2543D01*
X1808Y2543D01*
G37*
D02*
G36*
X1808Y2543D02*
X1808Y2541D01*
X2578Y2541D01*
X2578Y2543D01*
X1808Y2543D01*
G37*
D02*
G36*
X1808Y2543D02*
X1808Y2541D01*
X2578Y2541D01*
X2578Y2543D01*
X1808Y2543D01*
G37*
D02*
G36*
X40Y2541D02*
X40Y2419D01*
X1610Y2419D01*
X1610Y2417D01*
X1620Y2417D01*
X1620Y2415D01*
X1628Y2415D01*
X1628Y2413D01*
X1632Y2413D01*
X1632Y2411D01*
X1636Y2411D01*
X1636Y2409D01*
X1660Y2409D01*
X1660Y2411D01*
X1664Y2411D01*
X1664Y2413D01*
X1670Y2413D01*
X1670Y2415D01*
X1676Y2415D01*
X1676Y2417D01*
X1688Y2417D01*
X1688Y2439D01*
X1686Y2439D01*
X1686Y2441D01*
X1684Y2441D01*
X1684Y2443D01*
X1682Y2443D01*
X1682Y2445D01*
X1680Y2445D01*
X1680Y2447D01*
X1678Y2447D01*
X1678Y2449D01*
X1676Y2449D01*
X1676Y2451D01*
X1674Y2451D01*
X1674Y2453D01*
X1672Y2453D01*
X1672Y2455D01*
X1670Y2455D01*
X1670Y2457D01*
X1668Y2457D01*
X1668Y2459D01*
X1666Y2459D01*
X1666Y2461D01*
X1664Y2461D01*
X1664Y2463D01*
X1662Y2463D01*
X1662Y2465D01*
X1660Y2465D01*
X1660Y2467D01*
X1658Y2467D01*
X1658Y2471D01*
X1656Y2471D01*
X1656Y2473D01*
X1654Y2473D01*
X1654Y2475D01*
X1652Y2475D01*
X1652Y2477D01*
X1650Y2477D01*
X1650Y2479D01*
X1648Y2479D01*
X1648Y2481D01*
X1646Y2481D01*
X1646Y2483D01*
X1644Y2483D01*
X1644Y2485D01*
X1642Y2485D01*
X1642Y2487D01*
X1640Y2487D01*
X1640Y2489D01*
X1638Y2489D01*
X1638Y2493D01*
X1636Y2493D01*
X1636Y2497D01*
X1634Y2497D01*
X1634Y2499D01*
X1632Y2499D01*
X1632Y2505D01*
X1630Y2505D01*
X1630Y2509D01*
X1628Y2509D01*
X1628Y2517D01*
X1626Y2517D01*
X1626Y2541D01*
X40Y2541D01*
G37*
D02*
G36*
X1808Y2541D02*
X1808Y2525D01*
X1810Y2525D01*
X1810Y2523D01*
X1812Y2523D01*
X1812Y2521D01*
X1814Y2521D01*
X1814Y2519D01*
X1816Y2519D01*
X1816Y2517D01*
X1818Y2517D01*
X1818Y2515D01*
X1820Y2515D01*
X1820Y2513D01*
X1822Y2513D01*
X1822Y2511D01*
X1824Y2511D01*
X1824Y2509D01*
X1826Y2509D01*
X1826Y2507D01*
X1828Y2507D01*
X1828Y2505D01*
X2556Y2505D01*
X2556Y2507D01*
X2558Y2507D01*
X2558Y2511D01*
X2560Y2511D01*
X2560Y2513D01*
X2562Y2513D01*
X2562Y2517D01*
X2564Y2517D01*
X2564Y2521D01*
X2566Y2521D01*
X2566Y2525D01*
X2568Y2525D01*
X2568Y2527D01*
X2570Y2527D01*
X2570Y2531D01*
X2572Y2531D01*
X2572Y2535D01*
X2574Y2535D01*
X2574Y2539D01*
X2576Y2539D01*
X2576Y2541D01*
X1808Y2541D01*
G37*
D02*
G36*
X40Y2419D02*
X40Y1141D01*
X208Y1141D01*
X208Y1321D01*
X302Y1321D01*
X302Y1341D01*
X300Y1341D01*
X300Y1343D01*
X298Y1343D01*
X298Y1345D01*
X296Y1345D01*
X296Y1347D01*
X294Y1347D01*
X294Y1349D01*
X292Y1349D01*
X292Y1351D01*
X290Y1351D01*
X290Y1353D01*
X288Y1353D01*
X288Y1355D01*
X286Y1355D01*
X286Y1357D01*
X284Y1357D01*
X284Y1359D01*
X282Y1359D01*
X282Y1361D01*
X280Y1361D01*
X280Y1365D01*
X278Y1365D01*
X278Y1367D01*
X276Y1367D01*
X276Y1369D01*
X274Y1369D01*
X274Y1371D01*
X272Y1371D01*
X272Y1373D01*
X270Y1373D01*
X270Y1375D01*
X268Y1375D01*
X268Y1377D01*
X266Y1377D01*
X266Y1379D01*
X264Y1379D01*
X264Y1381D01*
X262Y1381D01*
X262Y1383D01*
X260Y1383D01*
X260Y1385D01*
X258Y1385D01*
X258Y1387D01*
X256Y1387D01*
X256Y1389D01*
X254Y1389D01*
X254Y1391D01*
X252Y1391D01*
X252Y1393D01*
X250Y1393D01*
X250Y1397D01*
X248Y1397D01*
X248Y1399D01*
X246Y1399D01*
X246Y1403D01*
X244Y1403D01*
X244Y1407D01*
X242Y1407D01*
X242Y1411D01*
X240Y1411D01*
X240Y1419D01*
X238Y1419D01*
X238Y1875D01*
X236Y1875D01*
X236Y2243D01*
X212Y2243D01*
X212Y2419D01*
X40Y2419D01*
G37*
D02*
G36*
X410Y2419D02*
X410Y2417D01*
X420Y2417D01*
X420Y2415D01*
X428Y2415D01*
X428Y2413D01*
X432Y2413D01*
X432Y2411D01*
X436Y2411D01*
X436Y2409D01*
X460Y2409D01*
X460Y2411D01*
X464Y2411D01*
X464Y2413D01*
X470Y2413D01*
X470Y2415D01*
X476Y2415D01*
X476Y2417D01*
X488Y2417D01*
X488Y2419D01*
X410Y2419D01*
G37*
D02*
G36*
X510Y2419D02*
X510Y2417D01*
X520Y2417D01*
X520Y2415D01*
X528Y2415D01*
X528Y2413D01*
X532Y2413D01*
X532Y2411D01*
X536Y2411D01*
X536Y2409D01*
X560Y2409D01*
X560Y2411D01*
X564Y2411D01*
X564Y2413D01*
X570Y2413D01*
X570Y2415D01*
X576Y2415D01*
X576Y2417D01*
X588Y2417D01*
X588Y2419D01*
X510Y2419D01*
G37*
D02*
G36*
X610Y2419D02*
X610Y2417D01*
X620Y2417D01*
X620Y2415D01*
X628Y2415D01*
X628Y2413D01*
X632Y2413D01*
X632Y2411D01*
X636Y2411D01*
X636Y2409D01*
X660Y2409D01*
X660Y2411D01*
X664Y2411D01*
X664Y2413D01*
X670Y2413D01*
X670Y2415D01*
X676Y2415D01*
X676Y2417D01*
X688Y2417D01*
X688Y2419D01*
X610Y2419D01*
G37*
D02*
G36*
X710Y2419D02*
X710Y2417D01*
X720Y2417D01*
X720Y2415D01*
X728Y2415D01*
X728Y2413D01*
X732Y2413D01*
X732Y2411D01*
X736Y2411D01*
X736Y2409D01*
X760Y2409D01*
X760Y2411D01*
X764Y2411D01*
X764Y2413D01*
X770Y2413D01*
X770Y2415D01*
X776Y2415D01*
X776Y2417D01*
X788Y2417D01*
X788Y2419D01*
X710Y2419D01*
G37*
D02*
G36*
X810Y2419D02*
X810Y2417D01*
X820Y2417D01*
X820Y2415D01*
X828Y2415D01*
X828Y2413D01*
X832Y2413D01*
X832Y2411D01*
X836Y2411D01*
X836Y2409D01*
X860Y2409D01*
X860Y2411D01*
X864Y2411D01*
X864Y2413D01*
X870Y2413D01*
X870Y2415D01*
X876Y2415D01*
X876Y2417D01*
X888Y2417D01*
X888Y2419D01*
X810Y2419D01*
G37*
D02*
G36*
X910Y2419D02*
X910Y2417D01*
X920Y2417D01*
X920Y2415D01*
X928Y2415D01*
X928Y2413D01*
X932Y2413D01*
X932Y2411D01*
X936Y2411D01*
X936Y2409D01*
X960Y2409D01*
X960Y2411D01*
X964Y2411D01*
X964Y2413D01*
X970Y2413D01*
X970Y2415D01*
X976Y2415D01*
X976Y2417D01*
X988Y2417D01*
X988Y2419D01*
X910Y2419D01*
G37*
D02*
G36*
X1010Y2419D02*
X1010Y2417D01*
X1020Y2417D01*
X1020Y2415D01*
X1028Y2415D01*
X1028Y2413D01*
X1032Y2413D01*
X1032Y2411D01*
X1036Y2411D01*
X1036Y2409D01*
X1060Y2409D01*
X1060Y2411D01*
X1064Y2411D01*
X1064Y2413D01*
X1070Y2413D01*
X1070Y2415D01*
X1076Y2415D01*
X1076Y2417D01*
X1088Y2417D01*
X1088Y2419D01*
X1010Y2419D01*
G37*
D02*
G36*
X1110Y2419D02*
X1110Y2417D01*
X1120Y2417D01*
X1120Y2415D01*
X1128Y2415D01*
X1128Y2413D01*
X1132Y2413D01*
X1132Y2411D01*
X1136Y2411D01*
X1136Y2409D01*
X1140Y2409D01*
X1140Y2407D01*
X1144Y2407D01*
X1144Y2405D01*
X1148Y2405D01*
X1148Y2403D01*
X1150Y2403D01*
X1150Y2401D01*
X1152Y2401D01*
X1152Y2399D01*
X1156Y2399D01*
X1156Y2397D01*
X1158Y2397D01*
X1158Y2395D01*
X1160Y2395D01*
X1160Y2393D01*
X1162Y2393D01*
X1162Y2391D01*
X1164Y2391D01*
X1164Y2389D01*
X1166Y2389D01*
X1166Y2385D01*
X1168Y2385D01*
X1168Y2383D01*
X1170Y2383D01*
X1170Y2381D01*
X1172Y2381D01*
X1172Y2377D01*
X1174Y2377D01*
X1174Y2373D01*
X1176Y2373D01*
X1176Y2369D01*
X1178Y2369D01*
X1178Y2365D01*
X1180Y2365D01*
X1180Y2361D01*
X1182Y2361D01*
X1182Y2353D01*
X1184Y2353D01*
X1184Y2349D01*
X1186Y2349D01*
X1186Y2347D01*
X1188Y2347D01*
X1188Y2345D01*
X1190Y2345D01*
X1190Y2343D01*
X1192Y2343D01*
X1192Y2341D01*
X1212Y2341D01*
X1212Y2419D01*
X1110Y2419D01*
G37*
D02*
G36*
X1410Y2419D02*
X1410Y2417D01*
X1420Y2417D01*
X1420Y2415D01*
X1428Y2415D01*
X1428Y2413D01*
X1432Y2413D01*
X1432Y2411D01*
X1436Y2411D01*
X1436Y2409D01*
X1460Y2409D01*
X1460Y2411D01*
X1464Y2411D01*
X1464Y2413D01*
X1470Y2413D01*
X1470Y2415D01*
X1476Y2415D01*
X1476Y2417D01*
X1488Y2417D01*
X1488Y2419D01*
X1410Y2419D01*
G37*
D02*
G36*
X1510Y2419D02*
X1510Y2417D01*
X1520Y2417D01*
X1520Y2415D01*
X1528Y2415D01*
X1528Y2413D01*
X1532Y2413D01*
X1532Y2411D01*
X1536Y2411D01*
X1536Y2409D01*
X1560Y2409D01*
X1560Y2411D01*
X1564Y2411D01*
X1564Y2413D01*
X1570Y2413D01*
X1570Y2415D01*
X1576Y2415D01*
X1576Y2417D01*
X1588Y2417D01*
X1588Y2419D01*
X1510Y2419D01*
G37*
D02*
G36*
X2186Y2357D02*
X2186Y2319D01*
X2184Y2319D01*
X2184Y2309D01*
X2182Y2309D01*
X2182Y2303D01*
X2180Y2303D01*
X2180Y2297D01*
X2178Y2297D01*
X2178Y2293D01*
X2176Y2293D01*
X2176Y2289D01*
X2174Y2289D01*
X2174Y2285D01*
X2172Y2285D01*
X2172Y2223D01*
X2170Y2223D01*
X2170Y2213D01*
X2168Y2213D01*
X2168Y2205D01*
X2166Y2205D01*
X2166Y2201D01*
X2164Y2201D01*
X2164Y2197D01*
X2162Y2197D01*
X2162Y2193D01*
X2160Y2193D01*
X2160Y2189D01*
X2158Y2189D01*
X2158Y2187D01*
X2156Y2187D01*
X2156Y2185D01*
X2154Y2185D01*
X2154Y2183D01*
X2152Y2183D01*
X2152Y2179D01*
X2150Y2179D01*
X2150Y2177D01*
X2148Y2177D01*
X2148Y2175D01*
X2146Y2175D01*
X2146Y2173D01*
X2144Y2173D01*
X2144Y2171D01*
X2142Y2171D01*
X2142Y2169D01*
X2140Y2169D01*
X2140Y2167D01*
X2138Y2167D01*
X2138Y2165D01*
X2136Y2165D01*
X2136Y2163D01*
X2134Y2163D01*
X2134Y2161D01*
X2132Y2161D01*
X2132Y2159D01*
X2130Y2159D01*
X2130Y2157D01*
X2128Y2157D01*
X2128Y2155D01*
X2290Y2155D01*
X2290Y2157D01*
X2276Y2157D01*
X2276Y2159D01*
X2270Y2159D01*
X2270Y2161D01*
X2264Y2161D01*
X2264Y2163D01*
X2258Y2163D01*
X2258Y2165D01*
X2254Y2165D01*
X2254Y2167D01*
X2250Y2167D01*
X2250Y2169D01*
X2248Y2169D01*
X2248Y2171D01*
X2244Y2171D01*
X2244Y2173D01*
X2242Y2173D01*
X2242Y2175D01*
X2238Y2175D01*
X2238Y2177D01*
X2236Y2177D01*
X2236Y2179D01*
X2234Y2179D01*
X2234Y2181D01*
X2232Y2181D01*
X2232Y2183D01*
X2230Y2183D01*
X2230Y2185D01*
X2228Y2185D01*
X2228Y2187D01*
X2226Y2187D01*
X2226Y2189D01*
X2224Y2189D01*
X2224Y2191D01*
X2222Y2191D01*
X2222Y2195D01*
X2220Y2195D01*
X2220Y2197D01*
X2218Y2197D01*
X2218Y2201D01*
X2216Y2201D01*
X2216Y2203D01*
X2214Y2203D01*
X2214Y2207D01*
X2212Y2207D01*
X2212Y2211D01*
X2210Y2211D01*
X2210Y2215D01*
X2208Y2215D01*
X2208Y2221D01*
X2206Y2221D01*
X2206Y2229D01*
X2204Y2229D01*
X2204Y2239D01*
X2202Y2239D01*
X2202Y2263D01*
X2204Y2263D01*
X2204Y2273D01*
X2206Y2273D01*
X2206Y2281D01*
X2208Y2281D01*
X2208Y2287D01*
X2210Y2287D01*
X2210Y2291D01*
X2212Y2291D01*
X2212Y2295D01*
X2214Y2295D01*
X2214Y2299D01*
X2216Y2299D01*
X2216Y2301D01*
X2218Y2301D01*
X2218Y2305D01*
X2220Y2305D01*
X2220Y2307D01*
X2222Y2307D01*
X2222Y2311D01*
X2224Y2311D01*
X2224Y2313D01*
X2226Y2313D01*
X2226Y2315D01*
X2228Y2315D01*
X2228Y2317D01*
X2230Y2317D01*
X2230Y2319D01*
X2232Y2319D01*
X2232Y2321D01*
X2234Y2321D01*
X2234Y2323D01*
X2236Y2323D01*
X2236Y2325D01*
X2238Y2325D01*
X2238Y2327D01*
X2242Y2327D01*
X2242Y2329D01*
X2244Y2329D01*
X2244Y2331D01*
X2248Y2331D01*
X2248Y2333D01*
X2250Y2333D01*
X2250Y2335D01*
X2254Y2335D01*
X2254Y2337D01*
X2258Y2337D01*
X2258Y2357D01*
X2186Y2357D01*
G37*
D02*
G36*
X2338Y2357D02*
X2338Y2337D01*
X2342Y2337D01*
X2342Y2335D01*
X2346Y2335D01*
X2346Y2333D01*
X2348Y2333D01*
X2348Y2331D01*
X2352Y2331D01*
X2352Y2329D01*
X2354Y2329D01*
X2354Y2327D01*
X2356Y2327D01*
X2356Y2325D01*
X2360Y2325D01*
X2360Y2323D01*
X2362Y2323D01*
X2362Y2321D01*
X2364Y2321D01*
X2364Y2319D01*
X2366Y2319D01*
X2366Y2317D01*
X2368Y2317D01*
X2368Y2315D01*
X2370Y2315D01*
X2370Y2313D01*
X2372Y2313D01*
X2372Y2309D01*
X2374Y2309D01*
X2374Y2307D01*
X2376Y2307D01*
X2376Y2305D01*
X2378Y2305D01*
X2378Y2301D01*
X2380Y2301D01*
X2380Y2297D01*
X2382Y2297D01*
X2382Y2295D01*
X2384Y2295D01*
X2384Y2291D01*
X2386Y2291D01*
X2386Y2285D01*
X2388Y2285D01*
X2388Y2279D01*
X2390Y2279D01*
X2390Y2273D01*
X2392Y2273D01*
X2392Y2261D01*
X2494Y2261D01*
X2494Y2263D01*
X2482Y2263D01*
X2482Y2265D01*
X2474Y2265D01*
X2474Y2267D01*
X2470Y2267D01*
X2470Y2269D01*
X2466Y2269D01*
X2466Y2271D01*
X2462Y2271D01*
X2462Y2273D01*
X2460Y2273D01*
X2460Y2275D01*
X2456Y2275D01*
X2456Y2277D01*
X2454Y2277D01*
X2454Y2279D01*
X2452Y2279D01*
X2452Y2281D01*
X2450Y2281D01*
X2450Y2283D01*
X2448Y2283D01*
X2448Y2285D01*
X2446Y2285D01*
X2446Y2287D01*
X2444Y2287D01*
X2444Y2289D01*
X2442Y2289D01*
X2442Y2293D01*
X2440Y2293D01*
X2440Y2295D01*
X2438Y2295D01*
X2438Y2299D01*
X2436Y2299D01*
X2436Y2303D01*
X2434Y2303D01*
X2434Y2309D01*
X2432Y2309D01*
X2432Y2315D01*
X2430Y2315D01*
X2430Y2329D01*
X2428Y2329D01*
X2428Y2333D01*
X2430Y2333D01*
X2430Y2357D01*
X2338Y2357D01*
G37*
D02*
G36*
X2568Y2347D02*
X2568Y2319D01*
X2566Y2319D01*
X2566Y2311D01*
X2564Y2311D01*
X2564Y2305D01*
X2562Y2305D01*
X2562Y2301D01*
X2560Y2301D01*
X2560Y2297D01*
X2558Y2297D01*
X2558Y2293D01*
X2556Y2293D01*
X2556Y2291D01*
X2554Y2291D01*
X2554Y2289D01*
X2552Y2289D01*
X2552Y2285D01*
X2550Y2285D01*
X2550Y2283D01*
X2548Y2283D01*
X2548Y2281D01*
X2546Y2281D01*
X2546Y2279D01*
X2542Y2279D01*
X2542Y2277D01*
X2540Y2277D01*
X2540Y2275D01*
X2538Y2275D01*
X2538Y2273D01*
X2534Y2273D01*
X2534Y2271D01*
X2532Y2271D01*
X2532Y2269D01*
X2528Y2269D01*
X2528Y2267D01*
X2522Y2267D01*
X2522Y2265D01*
X2516Y2265D01*
X2516Y2263D01*
X2504Y2263D01*
X2504Y2261D01*
X2682Y2261D01*
X2682Y2273D01*
X2684Y2273D01*
X2684Y2281D01*
X2686Y2281D01*
X2686Y2285D01*
X2688Y2285D01*
X2688Y2291D01*
X2690Y2291D01*
X2690Y2295D01*
X2692Y2295D01*
X2692Y2299D01*
X2694Y2299D01*
X2694Y2301D01*
X2696Y2301D01*
X2696Y2305D01*
X2698Y2305D01*
X2698Y2307D01*
X2700Y2307D01*
X2700Y2311D01*
X2702Y2311D01*
X2702Y2313D01*
X2704Y2313D01*
X2704Y2315D01*
X2706Y2315D01*
X2706Y2317D01*
X2708Y2317D01*
X2708Y2319D01*
X2710Y2319D01*
X2710Y2321D01*
X2712Y2321D01*
X2712Y2323D01*
X2714Y2323D01*
X2714Y2325D01*
X2716Y2325D01*
X2716Y2327D01*
X2720Y2327D01*
X2720Y2329D01*
X2722Y2329D01*
X2722Y2331D01*
X2726Y2331D01*
X2726Y2333D01*
X2728Y2333D01*
X2728Y2335D01*
X2732Y2335D01*
X2732Y2337D01*
X2736Y2337D01*
X2736Y2339D01*
X2742Y2339D01*
X2742Y2341D01*
X2746Y2341D01*
X2746Y2343D01*
X2754Y2343D01*
X2754Y2345D01*
X2766Y2345D01*
X2766Y2347D01*
X2568Y2347D01*
G37*
D02*
G36*
X2392Y2261D02*
X2392Y2259D01*
X2680Y2259D01*
X2680Y2261D01*
X2392Y2261D01*
G37*
D02*
G36*
X2392Y2261D02*
X2392Y2259D01*
X2680Y2259D01*
X2680Y2261D01*
X2392Y2261D01*
G37*
D02*
G36*
X2392Y2259D02*
X2392Y2257D01*
X2394Y2257D01*
X2394Y2245D01*
X2392Y2245D01*
X2392Y2231D01*
X2390Y2231D01*
X2390Y2223D01*
X2388Y2223D01*
X2388Y2217D01*
X2386Y2217D01*
X2386Y2213D01*
X2384Y2213D01*
X2384Y2209D01*
X2382Y2209D01*
X2382Y2205D01*
X2380Y2205D01*
X2380Y2201D01*
X2378Y2201D01*
X2378Y2197D01*
X2376Y2197D01*
X2376Y2195D01*
X2374Y2195D01*
X2374Y2193D01*
X2372Y2193D01*
X2372Y2189D01*
X2370Y2189D01*
X2370Y2187D01*
X2368Y2187D01*
X2368Y2185D01*
X2366Y2185D01*
X2366Y2183D01*
X2364Y2183D01*
X2364Y2181D01*
X2362Y2181D01*
X2362Y2179D01*
X2360Y2179D01*
X2360Y2177D01*
X2356Y2177D01*
X2356Y2175D01*
X2354Y2175D01*
X2354Y2173D01*
X2352Y2173D01*
X2352Y2171D01*
X2348Y2171D01*
X2348Y2169D01*
X2344Y2169D01*
X2344Y2167D01*
X2342Y2167D01*
X2342Y2165D01*
X2338Y2165D01*
X2338Y2163D01*
X2332Y2163D01*
X2332Y2161D01*
X2326Y2161D01*
X2326Y2159D01*
X2320Y2159D01*
X2320Y2157D01*
X2306Y2157D01*
X2306Y2155D01*
X2768Y2155D01*
X2768Y2157D01*
X2754Y2157D01*
X2754Y2159D01*
X2748Y2159D01*
X2748Y2161D01*
X2742Y2161D01*
X2742Y2163D01*
X2736Y2163D01*
X2736Y2165D01*
X2732Y2165D01*
X2732Y2167D01*
X2728Y2167D01*
X2728Y2169D01*
X2726Y2169D01*
X2726Y2171D01*
X2722Y2171D01*
X2722Y2173D01*
X2720Y2173D01*
X2720Y2175D01*
X2718Y2175D01*
X2718Y2177D01*
X2714Y2177D01*
X2714Y2179D01*
X2712Y2179D01*
X2712Y2181D01*
X2710Y2181D01*
X2710Y2183D01*
X2708Y2183D01*
X2708Y2185D01*
X2706Y2185D01*
X2706Y2187D01*
X2704Y2187D01*
X2704Y2189D01*
X2702Y2189D01*
X2702Y2191D01*
X2700Y2191D01*
X2700Y2195D01*
X2698Y2195D01*
X2698Y2197D01*
X2696Y2197D01*
X2696Y2201D01*
X2694Y2201D01*
X2694Y2203D01*
X2692Y2203D01*
X2692Y2207D01*
X2690Y2207D01*
X2690Y2211D01*
X2688Y2211D01*
X2688Y2217D01*
X2686Y2217D01*
X2686Y2221D01*
X2684Y2221D01*
X2684Y2229D01*
X2682Y2229D01*
X2682Y2241D01*
X2680Y2241D01*
X2680Y2259D01*
X2392Y2259D01*
G37*
D02*
G36*
X2126Y2155D02*
X2126Y2153D01*
X2952Y2153D01*
X2952Y2155D01*
X2126Y2155D01*
G37*
D02*
G36*
X2126Y2155D02*
X2126Y2153D01*
X2952Y2153D01*
X2952Y2155D01*
X2126Y2155D01*
G37*
D02*
G36*
X2126Y2155D02*
X2126Y2153D01*
X2952Y2153D01*
X2952Y2155D01*
X2126Y2155D01*
G37*
D02*
G36*
X2124Y2153D02*
X2124Y2151D01*
X2122Y2151D01*
X2122Y2149D01*
X2120Y2149D01*
X2120Y2147D01*
X2118Y2147D01*
X2118Y2145D01*
X2116Y2145D01*
X2116Y2143D01*
X2114Y2143D01*
X2114Y2141D01*
X2112Y2141D01*
X2112Y2139D01*
X2110Y2139D01*
X2110Y2137D01*
X2108Y2137D01*
X2108Y2135D01*
X2106Y2135D01*
X2106Y2133D01*
X2104Y2133D01*
X2104Y2131D01*
X2102Y2131D01*
X2102Y2111D01*
X2614Y2111D01*
X2614Y2109D01*
X2622Y2109D01*
X2622Y2107D01*
X2626Y2107D01*
X2626Y2105D01*
X2632Y2105D01*
X2632Y2103D01*
X2636Y2103D01*
X2636Y2101D01*
X2640Y2101D01*
X2640Y2099D01*
X2642Y2099D01*
X2642Y2097D01*
X2646Y2097D01*
X2646Y2095D01*
X2648Y2095D01*
X2648Y2093D01*
X2650Y2093D01*
X2650Y2091D01*
X2652Y2091D01*
X2652Y2089D01*
X2654Y2089D01*
X2654Y2087D01*
X2656Y2087D01*
X2656Y2085D01*
X2658Y2085D01*
X2658Y2083D01*
X2660Y2083D01*
X2660Y2081D01*
X2662Y2081D01*
X2662Y2079D01*
X2664Y2079D01*
X2664Y2075D01*
X2666Y2075D01*
X2666Y2073D01*
X2668Y2073D01*
X2668Y2069D01*
X2670Y2069D01*
X2670Y2067D01*
X2672Y2067D01*
X2672Y2063D01*
X2674Y2063D01*
X2674Y2057D01*
X2676Y2057D01*
X2676Y2053D01*
X2678Y2053D01*
X2678Y2047D01*
X2680Y2047D01*
X2680Y2039D01*
X2682Y2039D01*
X2682Y2023D01*
X2684Y2023D01*
X2684Y2011D01*
X2682Y2011D01*
X2682Y1997D01*
X2680Y1997D01*
X2680Y1989D01*
X2678Y1989D01*
X2678Y1983D01*
X2676Y1983D01*
X2676Y1977D01*
X2674Y1977D01*
X2674Y1973D01*
X2672Y1973D01*
X2672Y1969D01*
X2670Y1969D01*
X2670Y1965D01*
X2668Y1965D01*
X2668Y1963D01*
X2666Y1963D01*
X2666Y1959D01*
X2664Y1959D01*
X2664Y1957D01*
X2662Y1957D01*
X2662Y1955D01*
X2660Y1955D01*
X2660Y1953D01*
X2658Y1953D01*
X2658Y1949D01*
X2654Y1949D01*
X2654Y1947D01*
X2652Y1947D01*
X2652Y1945D01*
X2650Y1945D01*
X2650Y1943D01*
X2648Y1943D01*
X2648Y1941D01*
X2646Y1941D01*
X2646Y1939D01*
X2642Y1939D01*
X2642Y1937D01*
X2640Y1937D01*
X2640Y1935D01*
X2636Y1935D01*
X2636Y1933D01*
X2632Y1933D01*
X2632Y1931D01*
X2628Y1931D01*
X2628Y1929D01*
X2624Y1929D01*
X2624Y1927D01*
X2616Y1927D01*
X2616Y1925D01*
X2604Y1925D01*
X2604Y1923D01*
X2952Y1923D01*
X2952Y2153D01*
X2124Y2153D01*
G37*
D02*
G36*
X2114Y2111D02*
X2114Y2109D01*
X2122Y2109D01*
X2122Y2107D01*
X2128Y2107D01*
X2128Y2105D01*
X2132Y2105D01*
X2132Y2103D01*
X2136Y2103D01*
X2136Y2101D01*
X2160Y2101D01*
X2160Y2103D01*
X2164Y2103D01*
X2164Y2105D01*
X2168Y2105D01*
X2168Y2107D01*
X2174Y2107D01*
X2174Y2109D01*
X2180Y2109D01*
X2180Y2111D01*
X2114Y2111D01*
G37*
D02*
G36*
X2216Y2111D02*
X2216Y2109D01*
X2222Y2109D01*
X2222Y2107D01*
X2228Y2107D01*
X2228Y2105D01*
X2232Y2105D01*
X2232Y2103D01*
X2236Y2103D01*
X2236Y2101D01*
X2260Y2101D01*
X2260Y2103D01*
X2264Y2103D01*
X2264Y2105D01*
X2268Y2105D01*
X2268Y2107D01*
X2274Y2107D01*
X2274Y2109D01*
X2280Y2109D01*
X2280Y2111D01*
X2216Y2111D01*
G37*
D02*
G36*
X2314Y2111D02*
X2314Y2109D01*
X2322Y2109D01*
X2322Y2107D01*
X2326Y2107D01*
X2326Y2105D01*
X2332Y2105D01*
X2332Y2103D01*
X2336Y2103D01*
X2336Y2101D01*
X2360Y2101D01*
X2360Y2103D01*
X2364Y2103D01*
X2364Y2105D01*
X2368Y2105D01*
X2368Y2107D01*
X2374Y2107D01*
X2374Y2109D01*
X2380Y2109D01*
X2380Y2111D01*
X2314Y2111D01*
G37*
D02*
G36*
X2414Y2111D02*
X2414Y2109D01*
X2422Y2109D01*
X2422Y2107D01*
X2428Y2107D01*
X2428Y2105D01*
X2432Y2105D01*
X2432Y2103D01*
X2436Y2103D01*
X2436Y2101D01*
X2460Y2101D01*
X2460Y2103D01*
X2462Y2103D01*
X2462Y2105D01*
X2468Y2105D01*
X2468Y2107D01*
X2474Y2107D01*
X2474Y2109D01*
X2480Y2109D01*
X2480Y2111D01*
X2414Y2111D01*
G37*
D02*
G36*
X2514Y2111D02*
X2514Y2109D01*
X2522Y2109D01*
X2522Y2107D01*
X2526Y2107D01*
X2526Y2105D01*
X2532Y2105D01*
X2532Y2103D01*
X2536Y2103D01*
X2536Y2101D01*
X2560Y2101D01*
X2560Y2103D01*
X2564Y2103D01*
X2564Y2105D01*
X2568Y2105D01*
X2568Y2107D01*
X2574Y2107D01*
X2574Y2109D01*
X2580Y2109D01*
X2580Y2111D01*
X2514Y2111D01*
G37*
D02*
G36*
X838Y1935D02*
X838Y1933D01*
X834Y1933D01*
X834Y1931D01*
X828Y1931D01*
X828Y1929D01*
X824Y1929D01*
X824Y1927D01*
X818Y1927D01*
X818Y1925D01*
X804Y1925D01*
X804Y1923D01*
X892Y1923D01*
X892Y1925D01*
X880Y1925D01*
X880Y1927D01*
X872Y1927D01*
X872Y1929D01*
X868Y1929D01*
X868Y1931D01*
X864Y1931D01*
X864Y1933D01*
X860Y1933D01*
X860Y1935D01*
X838Y1935D01*
G37*
D02*
G36*
X938Y1935D02*
X938Y1933D01*
X934Y1933D01*
X934Y1931D01*
X930Y1931D01*
X930Y1929D01*
X924Y1929D01*
X924Y1927D01*
X918Y1927D01*
X918Y1925D01*
X906Y1925D01*
X906Y1923D01*
X992Y1923D01*
X992Y1925D01*
X980Y1925D01*
X980Y1927D01*
X972Y1927D01*
X972Y1929D01*
X968Y1929D01*
X968Y1931D01*
X964Y1931D01*
X964Y1933D01*
X960Y1933D01*
X960Y1935D01*
X938Y1935D01*
G37*
D02*
G36*
X1038Y1935D02*
X1038Y1933D01*
X1034Y1933D01*
X1034Y1931D01*
X1030Y1931D01*
X1030Y1929D01*
X1024Y1929D01*
X1024Y1927D01*
X1018Y1927D01*
X1018Y1925D01*
X1006Y1925D01*
X1006Y1923D01*
X1092Y1923D01*
X1092Y1925D01*
X1080Y1925D01*
X1080Y1927D01*
X1072Y1927D01*
X1072Y1929D01*
X1068Y1929D01*
X1068Y1931D01*
X1062Y1931D01*
X1062Y1933D01*
X1060Y1933D01*
X1060Y1935D01*
X1038Y1935D01*
G37*
D02*
G36*
X1138Y1935D02*
X1138Y1933D01*
X1134Y1933D01*
X1134Y1931D01*
X1130Y1931D01*
X1130Y1929D01*
X1124Y1929D01*
X1124Y1927D01*
X1118Y1927D01*
X1118Y1925D01*
X1104Y1925D01*
X1104Y1923D01*
X1192Y1923D01*
X1192Y1925D01*
X1180Y1925D01*
X1180Y1927D01*
X1172Y1927D01*
X1172Y1929D01*
X1168Y1929D01*
X1168Y1931D01*
X1164Y1931D01*
X1164Y1933D01*
X1160Y1933D01*
X1160Y1935D01*
X1138Y1935D01*
G37*
D02*
G36*
X1238Y1935D02*
X1238Y1933D01*
X1234Y1933D01*
X1234Y1931D01*
X1230Y1931D01*
X1230Y1929D01*
X1224Y1929D01*
X1224Y1927D01*
X1218Y1927D01*
X1218Y1925D01*
X1206Y1925D01*
X1206Y1923D01*
X1290Y1923D01*
X1290Y1925D01*
X1278Y1925D01*
X1278Y1927D01*
X1272Y1927D01*
X1272Y1929D01*
X1266Y1929D01*
X1266Y1931D01*
X1262Y1931D01*
X1262Y1933D01*
X1258Y1933D01*
X1258Y1935D01*
X1238Y1935D01*
G37*
D02*
G36*
X1336Y1935D02*
X1336Y1933D01*
X1334Y1933D01*
X1334Y1931D01*
X1328Y1931D01*
X1328Y1929D01*
X1324Y1929D01*
X1324Y1927D01*
X1316Y1927D01*
X1316Y1925D01*
X1304Y1925D01*
X1304Y1923D01*
X1392Y1923D01*
X1392Y1925D01*
X1380Y1925D01*
X1380Y1927D01*
X1372Y1927D01*
X1372Y1929D01*
X1368Y1929D01*
X1368Y1931D01*
X1362Y1931D01*
X1362Y1933D01*
X1360Y1933D01*
X1360Y1935D01*
X1336Y1935D01*
G37*
D02*
G36*
X1438Y1935D02*
X1438Y1933D01*
X1434Y1933D01*
X1434Y1931D01*
X1430Y1931D01*
X1430Y1929D01*
X1424Y1929D01*
X1424Y1927D01*
X1418Y1927D01*
X1418Y1925D01*
X1406Y1925D01*
X1406Y1923D01*
X1490Y1923D01*
X1490Y1925D01*
X1478Y1925D01*
X1478Y1927D01*
X1472Y1927D01*
X1472Y1929D01*
X1466Y1929D01*
X1466Y1931D01*
X1462Y1931D01*
X1462Y1933D01*
X1458Y1933D01*
X1458Y1935D01*
X1438Y1935D01*
G37*
D02*
G36*
X1536Y1935D02*
X1536Y1933D01*
X1532Y1933D01*
X1532Y1931D01*
X1528Y1931D01*
X1528Y1929D01*
X1524Y1929D01*
X1524Y1927D01*
X1516Y1927D01*
X1516Y1925D01*
X1504Y1925D01*
X1504Y1923D01*
X1592Y1923D01*
X1592Y1925D01*
X1578Y1925D01*
X1578Y1927D01*
X1572Y1927D01*
X1572Y1929D01*
X1566Y1929D01*
X1566Y1931D01*
X1562Y1931D01*
X1562Y1933D01*
X1558Y1933D01*
X1558Y1935D01*
X1536Y1935D01*
G37*
D02*
G36*
X1636Y1935D02*
X1636Y1933D01*
X1634Y1933D01*
X1634Y1931D01*
X1628Y1931D01*
X1628Y1929D01*
X1624Y1929D01*
X1624Y1927D01*
X1616Y1927D01*
X1616Y1925D01*
X1604Y1925D01*
X1604Y1923D01*
X1692Y1923D01*
X1692Y1925D01*
X1680Y1925D01*
X1680Y1927D01*
X1672Y1927D01*
X1672Y1929D01*
X1668Y1929D01*
X1668Y1931D01*
X1662Y1931D01*
X1662Y1933D01*
X1660Y1933D01*
X1660Y1935D01*
X1636Y1935D01*
G37*
D02*
G36*
X1738Y1935D02*
X1738Y1933D01*
X1734Y1933D01*
X1734Y1931D01*
X1730Y1931D01*
X1730Y1929D01*
X1724Y1929D01*
X1724Y1927D01*
X1718Y1927D01*
X1718Y1925D01*
X1706Y1925D01*
X1706Y1923D01*
X1790Y1923D01*
X1790Y1925D01*
X1778Y1925D01*
X1778Y1927D01*
X1772Y1927D01*
X1772Y1929D01*
X1766Y1929D01*
X1766Y1931D01*
X1762Y1931D01*
X1762Y1933D01*
X1758Y1933D01*
X1758Y1935D01*
X1738Y1935D01*
G37*
D02*
G36*
X1836Y1935D02*
X1836Y1933D01*
X1832Y1933D01*
X1832Y1931D01*
X1828Y1931D01*
X1828Y1929D01*
X1824Y1929D01*
X1824Y1927D01*
X1816Y1927D01*
X1816Y1925D01*
X1804Y1925D01*
X1804Y1923D01*
X1892Y1923D01*
X1892Y1925D01*
X1878Y1925D01*
X1878Y1927D01*
X1872Y1927D01*
X1872Y1929D01*
X1866Y1929D01*
X1866Y1931D01*
X1862Y1931D01*
X1862Y1933D01*
X1858Y1933D01*
X1858Y1935D01*
X1836Y1935D01*
G37*
D02*
G36*
X1938Y1935D02*
X1938Y1933D01*
X1934Y1933D01*
X1934Y1931D01*
X1928Y1931D01*
X1928Y1929D01*
X1924Y1929D01*
X1924Y1927D01*
X1918Y1927D01*
X1918Y1925D01*
X1904Y1925D01*
X1904Y1923D01*
X1990Y1923D01*
X1990Y1925D01*
X1978Y1925D01*
X1978Y1927D01*
X1972Y1927D01*
X1972Y1929D01*
X1966Y1929D01*
X1966Y1931D01*
X1962Y1931D01*
X1962Y1933D01*
X1958Y1933D01*
X1958Y1935D01*
X1938Y1935D01*
G37*
D02*
G36*
X2036Y1935D02*
X2036Y1933D01*
X2032Y1933D01*
X2032Y1931D01*
X2028Y1931D01*
X2028Y1929D01*
X2024Y1929D01*
X2024Y1927D01*
X2016Y1927D01*
X2016Y1925D01*
X2004Y1925D01*
X2004Y1923D01*
X2090Y1923D01*
X2090Y1925D01*
X2078Y1925D01*
X2078Y1927D01*
X2072Y1927D01*
X2072Y1929D01*
X2066Y1929D01*
X2066Y1931D01*
X2062Y1931D01*
X2062Y1933D01*
X2058Y1933D01*
X2058Y1935D01*
X2036Y1935D01*
G37*
D02*
G36*
X2136Y1935D02*
X2136Y1933D01*
X2134Y1933D01*
X2134Y1931D01*
X2128Y1931D01*
X2128Y1929D01*
X2124Y1929D01*
X2124Y1927D01*
X2116Y1927D01*
X2116Y1925D01*
X2104Y1925D01*
X2104Y1923D01*
X2192Y1923D01*
X2192Y1925D01*
X2178Y1925D01*
X2178Y1927D01*
X2172Y1927D01*
X2172Y1929D01*
X2168Y1929D01*
X2168Y1931D01*
X2162Y1931D01*
X2162Y1933D01*
X2158Y1933D01*
X2158Y1935D01*
X2136Y1935D01*
G37*
D02*
G36*
X2238Y1935D02*
X2238Y1933D01*
X2234Y1933D01*
X2234Y1931D01*
X2228Y1931D01*
X2228Y1929D01*
X2224Y1929D01*
X2224Y1927D01*
X2218Y1927D01*
X2218Y1925D01*
X2204Y1925D01*
X2204Y1923D01*
X2290Y1923D01*
X2290Y1925D01*
X2278Y1925D01*
X2278Y1927D01*
X2272Y1927D01*
X2272Y1929D01*
X2266Y1929D01*
X2266Y1931D01*
X2262Y1931D01*
X2262Y1933D01*
X2258Y1933D01*
X2258Y1935D01*
X2238Y1935D01*
G37*
D02*
G36*
X2336Y1935D02*
X2336Y1933D01*
X2332Y1933D01*
X2332Y1931D01*
X2328Y1931D01*
X2328Y1929D01*
X2324Y1929D01*
X2324Y1927D01*
X2316Y1927D01*
X2316Y1925D01*
X2304Y1925D01*
X2304Y1923D01*
X2390Y1923D01*
X2390Y1925D01*
X2378Y1925D01*
X2378Y1927D01*
X2372Y1927D01*
X2372Y1929D01*
X2366Y1929D01*
X2366Y1931D01*
X2362Y1931D01*
X2362Y1933D01*
X2358Y1933D01*
X2358Y1935D01*
X2336Y1935D01*
G37*
D02*
G36*
X2436Y1935D02*
X2436Y1933D01*
X2434Y1933D01*
X2434Y1931D01*
X2428Y1931D01*
X2428Y1929D01*
X2424Y1929D01*
X2424Y1927D01*
X2416Y1927D01*
X2416Y1925D01*
X2404Y1925D01*
X2404Y1923D01*
X2490Y1923D01*
X2490Y1925D01*
X2478Y1925D01*
X2478Y1927D01*
X2472Y1927D01*
X2472Y1929D01*
X2466Y1929D01*
X2466Y1931D01*
X2462Y1931D01*
X2462Y1933D01*
X2458Y1933D01*
X2458Y1935D01*
X2436Y1935D01*
G37*
D02*
G36*
X2536Y1935D02*
X2536Y1933D01*
X2532Y1933D01*
X2532Y1931D01*
X2528Y1931D01*
X2528Y1929D01*
X2522Y1929D01*
X2522Y1927D01*
X2516Y1927D01*
X2516Y1925D01*
X2504Y1925D01*
X2504Y1923D01*
X2590Y1923D01*
X2590Y1925D01*
X2578Y1925D01*
X2578Y1927D01*
X2572Y1927D01*
X2572Y1929D01*
X2566Y1929D01*
X2566Y1931D01*
X2562Y1931D01*
X2562Y1933D01*
X2558Y1933D01*
X2558Y1935D01*
X2536Y1935D01*
G37*
D02*
G36*
X762Y1925D02*
X762Y1923D01*
X792Y1923D01*
X792Y1925D01*
X762Y1925D01*
G37*
D02*
G36*
X762Y1923D02*
X762Y1921D01*
X2952Y1921D01*
X2952Y1923D01*
X762Y1923D01*
G37*
D02*
G36*
X762Y1923D02*
X762Y1921D01*
X2952Y1921D01*
X2952Y1923D01*
X762Y1923D01*
G37*
D02*
G36*
X762Y1923D02*
X762Y1921D01*
X2952Y1921D01*
X2952Y1923D01*
X762Y1923D01*
G37*
D02*
G36*
X762Y1923D02*
X762Y1921D01*
X2952Y1921D01*
X2952Y1923D01*
X762Y1923D01*
G37*
D02*
G36*
X762Y1923D02*
X762Y1921D01*
X2952Y1921D01*
X2952Y1923D01*
X762Y1923D01*
G37*
D02*
G36*
X762Y1923D02*
X762Y1921D01*
X2952Y1921D01*
X2952Y1923D01*
X762Y1923D01*
G37*
D02*
G36*
X762Y1923D02*
X762Y1921D01*
X2952Y1921D01*
X2952Y1923D01*
X762Y1923D01*
G37*
D02*
G36*
X762Y1923D02*
X762Y1921D01*
X2952Y1921D01*
X2952Y1923D01*
X762Y1923D01*
G37*
D02*
G36*
X762Y1923D02*
X762Y1921D01*
X2952Y1921D01*
X2952Y1923D01*
X762Y1923D01*
G37*
D02*
G36*
X762Y1923D02*
X762Y1921D01*
X2952Y1921D01*
X2952Y1923D01*
X762Y1923D01*
G37*
D02*
G36*
X762Y1923D02*
X762Y1921D01*
X2952Y1921D01*
X2952Y1923D01*
X762Y1923D01*
G37*
D02*
G36*
X762Y1923D02*
X762Y1921D01*
X2952Y1921D01*
X2952Y1923D01*
X762Y1923D01*
G37*
D02*
G36*
X762Y1923D02*
X762Y1921D01*
X2952Y1921D01*
X2952Y1923D01*
X762Y1923D01*
G37*
D02*
G36*
X762Y1923D02*
X762Y1921D01*
X2952Y1921D01*
X2952Y1923D01*
X762Y1923D01*
G37*
D02*
G36*
X762Y1923D02*
X762Y1921D01*
X2952Y1921D01*
X2952Y1923D01*
X762Y1923D01*
G37*
D02*
G36*
X762Y1923D02*
X762Y1921D01*
X2952Y1921D01*
X2952Y1923D01*
X762Y1923D01*
G37*
D02*
G36*
X762Y1923D02*
X762Y1921D01*
X2952Y1921D01*
X2952Y1923D01*
X762Y1923D01*
G37*
D02*
G36*
X762Y1923D02*
X762Y1921D01*
X2952Y1921D01*
X2952Y1923D01*
X762Y1923D01*
G37*
D02*
G36*
X762Y1923D02*
X762Y1921D01*
X2952Y1921D01*
X2952Y1923D01*
X762Y1923D01*
G37*
D02*
G36*
X762Y1923D02*
X762Y1921D01*
X2952Y1921D01*
X2952Y1923D01*
X762Y1923D01*
G37*
D02*
G36*
X762Y1921D02*
X762Y1855D01*
X764Y1855D01*
X764Y1853D01*
X766Y1853D01*
X766Y1851D01*
X768Y1851D01*
X768Y1849D01*
X770Y1849D01*
X770Y1847D01*
X772Y1847D01*
X772Y1845D01*
X774Y1845D01*
X774Y1843D01*
X776Y1843D01*
X776Y1841D01*
X778Y1841D01*
X778Y1839D01*
X780Y1839D01*
X780Y1837D01*
X782Y1837D01*
X782Y1835D01*
X784Y1835D01*
X784Y1833D01*
X786Y1833D01*
X786Y1831D01*
X788Y1831D01*
X788Y1829D01*
X790Y1829D01*
X790Y1827D01*
X792Y1827D01*
X792Y1825D01*
X794Y1825D01*
X794Y1823D01*
X796Y1823D01*
X796Y1821D01*
X798Y1821D01*
X798Y1819D01*
X800Y1819D01*
X800Y1817D01*
X802Y1817D01*
X802Y1815D01*
X804Y1815D01*
X804Y1813D01*
X806Y1813D01*
X806Y1811D01*
X808Y1811D01*
X808Y1809D01*
X810Y1809D01*
X810Y1807D01*
X812Y1807D01*
X812Y1805D01*
X814Y1805D01*
X814Y1803D01*
X816Y1803D01*
X816Y1801D01*
X818Y1801D01*
X818Y1797D01*
X820Y1797D01*
X820Y1795D01*
X1810Y1795D01*
X1810Y1793D01*
X1816Y1793D01*
X1816Y1791D01*
X1822Y1791D01*
X1822Y1789D01*
X1826Y1789D01*
X1826Y1787D01*
X1830Y1787D01*
X1830Y1785D01*
X1832Y1785D01*
X1832Y1783D01*
X1836Y1783D01*
X1836Y1781D01*
X1838Y1781D01*
X1838Y1779D01*
X1840Y1779D01*
X1840Y1777D01*
X1842Y1777D01*
X1842Y1775D01*
X1844Y1775D01*
X1844Y1773D01*
X1846Y1773D01*
X1846Y1771D01*
X1848Y1771D01*
X1848Y1769D01*
X1850Y1769D01*
X1850Y1767D01*
X1852Y1767D01*
X1852Y1765D01*
X1854Y1765D01*
X1854Y1763D01*
X1856Y1763D01*
X1856Y1761D01*
X1858Y1761D01*
X1858Y1759D01*
X1860Y1759D01*
X1860Y1757D01*
X1862Y1757D01*
X1862Y1755D01*
X1864Y1755D01*
X1864Y1753D01*
X1866Y1753D01*
X1866Y1751D01*
X1868Y1751D01*
X1868Y1749D01*
X1870Y1749D01*
X1870Y1747D01*
X1872Y1747D01*
X1872Y1745D01*
X1874Y1745D01*
X1874Y1743D01*
X1876Y1743D01*
X1876Y1741D01*
X1878Y1741D01*
X1878Y1739D01*
X1880Y1739D01*
X1880Y1737D01*
X1882Y1737D01*
X1882Y1735D01*
X1884Y1735D01*
X1884Y1733D01*
X1886Y1733D01*
X1886Y1731D01*
X1888Y1731D01*
X1888Y1729D01*
X1890Y1729D01*
X1890Y1727D01*
X1892Y1727D01*
X1892Y1725D01*
X1894Y1725D01*
X1894Y1723D01*
X1896Y1723D01*
X1896Y1721D01*
X1898Y1721D01*
X1898Y1719D01*
X1900Y1719D01*
X1900Y1717D01*
X1902Y1717D01*
X1902Y1715D01*
X1904Y1715D01*
X1904Y1713D01*
X1906Y1713D01*
X1906Y1711D01*
X1908Y1711D01*
X1908Y1709D01*
X1910Y1709D01*
X1910Y1707D01*
X1912Y1707D01*
X1912Y1705D01*
X1914Y1705D01*
X1914Y1703D01*
X1916Y1703D01*
X1916Y1701D01*
X1918Y1701D01*
X1918Y1699D01*
X1920Y1699D01*
X1920Y1697D01*
X1922Y1697D01*
X1922Y1695D01*
X1924Y1695D01*
X1924Y1693D01*
X1926Y1693D01*
X1926Y1691D01*
X1928Y1691D01*
X1928Y1689D01*
X1930Y1689D01*
X1930Y1687D01*
X1932Y1687D01*
X1932Y1685D01*
X1934Y1685D01*
X1934Y1683D01*
X1936Y1683D01*
X1936Y1681D01*
X1938Y1681D01*
X1938Y1679D01*
X1940Y1679D01*
X1940Y1677D01*
X1942Y1677D01*
X1942Y1675D01*
X1944Y1675D01*
X1944Y1673D01*
X1946Y1673D01*
X1946Y1671D01*
X1948Y1671D01*
X1948Y1667D01*
X1950Y1667D01*
X1950Y1665D01*
X1952Y1665D01*
X1952Y1661D01*
X1954Y1661D01*
X1954Y1657D01*
X1956Y1657D01*
X1956Y1651D01*
X1958Y1651D01*
X1958Y1641D01*
X1960Y1641D01*
X1960Y1127D01*
X2600Y1127D01*
X2600Y1125D01*
X2616Y1125D01*
X2616Y1123D01*
X2622Y1123D01*
X2622Y1121D01*
X2628Y1121D01*
X2628Y1119D01*
X2632Y1119D01*
X2632Y1117D01*
X2636Y1117D01*
X2636Y1115D01*
X2640Y1115D01*
X2640Y1113D01*
X2642Y1113D01*
X2642Y1111D01*
X2646Y1111D01*
X2646Y1109D01*
X2648Y1109D01*
X2648Y1107D01*
X2650Y1107D01*
X2650Y1105D01*
X2652Y1105D01*
X2652Y1103D01*
X2654Y1103D01*
X2654Y1101D01*
X2656Y1101D01*
X2656Y1099D01*
X2658Y1099D01*
X2658Y1097D01*
X2660Y1097D01*
X2660Y1095D01*
X2662Y1095D01*
X2662Y1093D01*
X2664Y1093D01*
X2664Y1089D01*
X2666Y1089D01*
X2666Y1087D01*
X2668Y1087D01*
X2668Y1085D01*
X2670Y1085D01*
X2670Y1081D01*
X2672Y1081D01*
X2672Y1077D01*
X2674Y1077D01*
X2674Y1073D01*
X2676Y1073D01*
X2676Y1067D01*
X2678Y1067D01*
X2678Y1061D01*
X2680Y1061D01*
X2680Y1053D01*
X2682Y1053D01*
X2682Y1039D01*
X2684Y1039D01*
X2684Y1027D01*
X2682Y1027D01*
X2682Y1011D01*
X2680Y1011D01*
X2680Y1003D01*
X2678Y1003D01*
X2678Y997D01*
X2676Y997D01*
X2676Y991D01*
X2674Y991D01*
X2674Y987D01*
X2672Y987D01*
X2672Y983D01*
X2670Y983D01*
X2670Y981D01*
X2668Y981D01*
X2668Y977D01*
X2666Y977D01*
X2666Y975D01*
X2664Y975D01*
X2664Y971D01*
X2662Y971D01*
X2662Y969D01*
X2660Y969D01*
X2660Y967D01*
X2658Y967D01*
X2658Y965D01*
X2656Y965D01*
X2656Y963D01*
X2654Y963D01*
X2654Y961D01*
X2652Y961D01*
X2652Y959D01*
X2650Y959D01*
X2650Y957D01*
X2648Y957D01*
X2648Y955D01*
X2646Y955D01*
X2646Y953D01*
X2642Y953D01*
X2642Y951D01*
X2640Y951D01*
X2640Y949D01*
X2636Y949D01*
X2636Y947D01*
X2632Y947D01*
X2632Y945D01*
X2628Y945D01*
X2628Y943D01*
X2622Y943D01*
X2622Y941D01*
X2616Y941D01*
X2616Y939D01*
X2600Y939D01*
X2600Y937D01*
X2952Y937D01*
X2952Y1921D01*
X762Y1921D01*
G37*
D02*
G36*
X822Y1795D02*
X822Y1793D01*
X1136Y1793D01*
X1136Y1795D01*
X822Y1795D01*
G37*
D02*
G36*
X388Y1269D02*
X388Y1141D01*
X1436Y1141D01*
X1436Y1177D01*
X1438Y1177D01*
X1438Y1205D01*
X1436Y1205D01*
X1436Y1207D01*
X1434Y1207D01*
X1434Y1209D01*
X1432Y1209D01*
X1432Y1211D01*
X1430Y1211D01*
X1430Y1213D01*
X1428Y1213D01*
X1428Y1215D01*
X1426Y1215D01*
X1426Y1217D01*
X1424Y1217D01*
X1424Y1219D01*
X1422Y1219D01*
X1422Y1221D01*
X1420Y1221D01*
X1420Y1223D01*
X1418Y1223D01*
X1418Y1225D01*
X1416Y1225D01*
X1416Y1227D01*
X1414Y1227D01*
X1414Y1229D01*
X1412Y1229D01*
X1412Y1231D01*
X1410Y1231D01*
X1410Y1233D01*
X1408Y1233D01*
X1408Y1235D01*
X1406Y1235D01*
X1406Y1237D01*
X1404Y1237D01*
X1404Y1239D01*
X1402Y1239D01*
X1402Y1241D01*
X1400Y1241D01*
X1400Y1243D01*
X1398Y1243D01*
X1398Y1245D01*
X1396Y1245D01*
X1396Y1247D01*
X1394Y1247D01*
X1394Y1249D01*
X1392Y1249D01*
X1392Y1251D01*
X1390Y1251D01*
X1390Y1253D01*
X1388Y1253D01*
X1388Y1255D01*
X1386Y1255D01*
X1386Y1257D01*
X1384Y1257D01*
X1384Y1259D01*
X1382Y1259D01*
X1382Y1261D01*
X1380Y1261D01*
X1380Y1263D01*
X1378Y1263D01*
X1378Y1265D01*
X1376Y1265D01*
X1376Y1267D01*
X1374Y1267D01*
X1374Y1269D01*
X388Y1269D01*
G37*
D02*
G36*
X40Y1141D02*
X40Y1139D01*
X1436Y1139D01*
X1436Y1141D01*
X40Y1141D01*
G37*
D02*
G36*
X40Y1141D02*
X40Y1139D01*
X1436Y1139D01*
X1436Y1141D01*
X40Y1141D01*
G37*
D02*
G36*
X40Y1139D02*
X40Y1127D01*
X1402Y1127D01*
X1402Y1125D01*
X1416Y1125D01*
X1416Y1123D01*
X1436Y1123D01*
X1436Y1139D01*
X40Y1139D01*
G37*
D02*
G36*
X40Y1127D02*
X40Y1121D01*
X314Y1121D01*
X314Y1119D01*
X322Y1119D01*
X322Y1117D01*
X328Y1117D01*
X328Y1115D01*
X334Y1115D01*
X334Y1113D01*
X338Y1113D01*
X338Y1111D01*
X342Y1111D01*
X342Y1109D01*
X346Y1109D01*
X346Y1107D01*
X348Y1107D01*
X348Y1105D01*
X352Y1105D01*
X352Y1103D01*
X354Y1103D01*
X354Y1101D01*
X356Y1101D01*
X356Y1099D01*
X358Y1099D01*
X358Y1097D01*
X362Y1097D01*
X362Y1095D01*
X364Y1095D01*
X364Y1091D01*
X366Y1091D01*
X366Y1089D01*
X368Y1089D01*
X368Y1087D01*
X370Y1087D01*
X370Y1085D01*
X372Y1085D01*
X372Y1081D01*
X374Y1081D01*
X374Y1079D01*
X376Y1079D01*
X376Y1075D01*
X378Y1075D01*
X378Y1071D01*
X380Y1071D01*
X380Y1067D01*
X382Y1067D01*
X382Y1063D01*
X384Y1063D01*
X384Y1057D01*
X386Y1057D01*
X386Y1047D01*
X388Y1047D01*
X388Y1015D01*
X386Y1015D01*
X386Y1007D01*
X384Y1007D01*
X384Y1001D01*
X382Y1001D01*
X382Y995D01*
X380Y995D01*
X380Y991D01*
X378Y991D01*
X378Y987D01*
X376Y987D01*
X376Y985D01*
X374Y985D01*
X374Y981D01*
X372Y981D01*
X372Y979D01*
X370Y979D01*
X370Y975D01*
X368Y975D01*
X368Y973D01*
X366Y973D01*
X366Y971D01*
X364Y971D01*
X364Y969D01*
X362Y969D01*
X362Y967D01*
X360Y967D01*
X360Y965D01*
X358Y965D01*
X358Y963D01*
X356Y963D01*
X356Y961D01*
X354Y961D01*
X354Y959D01*
X350Y959D01*
X350Y957D01*
X348Y957D01*
X348Y955D01*
X344Y955D01*
X344Y953D01*
X340Y953D01*
X340Y951D01*
X336Y951D01*
X336Y949D01*
X332Y949D01*
X332Y947D01*
X326Y947D01*
X326Y945D01*
X320Y945D01*
X320Y943D01*
X308Y943D01*
X308Y941D01*
X774Y941D01*
X774Y943D01*
X768Y943D01*
X768Y945D01*
X764Y945D01*
X764Y947D01*
X760Y947D01*
X760Y949D01*
X756Y949D01*
X756Y951D01*
X754Y951D01*
X754Y953D01*
X750Y953D01*
X750Y955D01*
X748Y955D01*
X748Y957D01*
X746Y957D01*
X746Y959D01*
X742Y959D01*
X742Y961D01*
X740Y961D01*
X740Y963D01*
X738Y963D01*
X738Y965D01*
X736Y965D01*
X736Y969D01*
X734Y969D01*
X734Y971D01*
X732Y971D01*
X732Y973D01*
X730Y973D01*
X730Y977D01*
X728Y977D01*
X728Y979D01*
X726Y979D01*
X726Y983D01*
X724Y983D01*
X724Y987D01*
X722Y987D01*
X722Y991D01*
X720Y991D01*
X720Y995D01*
X718Y995D01*
X718Y1001D01*
X716Y1001D01*
X716Y1009D01*
X714Y1009D01*
X714Y1019D01*
X712Y1019D01*
X712Y1045D01*
X714Y1045D01*
X714Y1055D01*
X716Y1055D01*
X716Y1063D01*
X718Y1063D01*
X718Y1069D01*
X720Y1069D01*
X720Y1073D01*
X722Y1073D01*
X722Y1077D01*
X724Y1077D01*
X724Y1081D01*
X726Y1081D01*
X726Y1085D01*
X728Y1085D01*
X728Y1087D01*
X730Y1087D01*
X730Y1091D01*
X732Y1091D01*
X732Y1093D01*
X734Y1093D01*
X734Y1095D01*
X736Y1095D01*
X736Y1099D01*
X738Y1099D01*
X738Y1101D01*
X740Y1101D01*
X740Y1103D01*
X742Y1103D01*
X742Y1105D01*
X746Y1105D01*
X746Y1107D01*
X748Y1107D01*
X748Y1109D01*
X750Y1109D01*
X750Y1111D01*
X752Y1111D01*
X752Y1113D01*
X756Y1113D01*
X756Y1115D01*
X760Y1115D01*
X760Y1117D01*
X764Y1117D01*
X764Y1119D01*
X768Y1119D01*
X768Y1121D01*
X772Y1121D01*
X772Y1123D01*
X780Y1123D01*
X780Y1125D01*
X794Y1125D01*
X794Y1127D01*
X40Y1127D01*
G37*
D02*
G36*
X802Y1127D02*
X802Y1125D01*
X816Y1125D01*
X816Y1123D01*
X824Y1123D01*
X824Y1121D01*
X828Y1121D01*
X828Y1119D01*
X832Y1119D01*
X832Y1117D01*
X836Y1117D01*
X836Y1115D01*
X860Y1115D01*
X860Y1117D01*
X864Y1117D01*
X864Y1119D01*
X868Y1119D01*
X868Y1121D01*
X874Y1121D01*
X874Y1123D01*
X880Y1123D01*
X880Y1125D01*
X894Y1125D01*
X894Y1127D01*
X802Y1127D01*
G37*
D02*
G36*
X902Y1127D02*
X902Y1125D01*
X916Y1125D01*
X916Y1123D01*
X924Y1123D01*
X924Y1121D01*
X928Y1121D01*
X928Y1119D01*
X934Y1119D01*
X934Y1117D01*
X938Y1117D01*
X938Y1115D01*
X960Y1115D01*
X960Y1117D01*
X964Y1117D01*
X964Y1119D01*
X968Y1119D01*
X968Y1121D01*
X974Y1121D01*
X974Y1123D01*
X980Y1123D01*
X980Y1125D01*
X996Y1125D01*
X996Y1127D01*
X902Y1127D01*
G37*
D02*
G36*
X1002Y1127D02*
X1002Y1125D01*
X1018Y1125D01*
X1018Y1123D01*
X1024Y1123D01*
X1024Y1121D01*
X1030Y1121D01*
X1030Y1119D01*
X1034Y1119D01*
X1034Y1117D01*
X1038Y1117D01*
X1038Y1115D01*
X1060Y1115D01*
X1060Y1117D01*
X1064Y1117D01*
X1064Y1119D01*
X1068Y1119D01*
X1068Y1121D01*
X1072Y1121D01*
X1072Y1123D01*
X1080Y1123D01*
X1080Y1125D01*
X1094Y1125D01*
X1094Y1127D01*
X1002Y1127D01*
G37*
D02*
G36*
X1102Y1127D02*
X1102Y1125D01*
X1116Y1125D01*
X1116Y1123D01*
X1124Y1123D01*
X1124Y1121D01*
X1128Y1121D01*
X1128Y1119D01*
X1134Y1119D01*
X1134Y1117D01*
X1136Y1117D01*
X1136Y1115D01*
X1160Y1115D01*
X1160Y1117D01*
X1164Y1117D01*
X1164Y1119D01*
X1168Y1119D01*
X1168Y1121D01*
X1174Y1121D01*
X1174Y1123D01*
X1180Y1123D01*
X1180Y1125D01*
X1194Y1125D01*
X1194Y1127D01*
X1102Y1127D01*
G37*
D02*
G36*
X1202Y1127D02*
X1202Y1125D01*
X1216Y1125D01*
X1216Y1123D01*
X1224Y1123D01*
X1224Y1121D01*
X1228Y1121D01*
X1228Y1119D01*
X1234Y1119D01*
X1234Y1117D01*
X1238Y1117D01*
X1238Y1115D01*
X1260Y1115D01*
X1260Y1117D01*
X1262Y1117D01*
X1262Y1119D01*
X1268Y1119D01*
X1268Y1121D01*
X1272Y1121D01*
X1272Y1123D01*
X1280Y1123D01*
X1280Y1125D01*
X1294Y1125D01*
X1294Y1127D01*
X1202Y1127D01*
G37*
D02*
G36*
X1302Y1127D02*
X1302Y1125D01*
X1316Y1125D01*
X1316Y1123D01*
X1322Y1123D01*
X1322Y1121D01*
X1328Y1121D01*
X1328Y1119D01*
X1332Y1119D01*
X1332Y1117D01*
X1336Y1117D01*
X1336Y1115D01*
X1360Y1115D01*
X1360Y1117D01*
X1364Y1117D01*
X1364Y1119D01*
X1368Y1119D01*
X1368Y1121D01*
X1372Y1121D01*
X1372Y1123D01*
X1380Y1123D01*
X1380Y1125D01*
X1394Y1125D01*
X1394Y1127D01*
X1302Y1127D01*
G37*
D02*
G36*
X1960Y1127D02*
X1960Y1125D01*
X1994Y1125D01*
X1994Y1127D01*
X1960Y1127D01*
G37*
D02*
G36*
X2000Y1127D02*
X2000Y1125D01*
X2016Y1125D01*
X2016Y1123D01*
X2022Y1123D01*
X2022Y1121D01*
X2028Y1121D01*
X2028Y1119D01*
X2032Y1119D01*
X2032Y1117D01*
X2036Y1117D01*
X2036Y1115D01*
X2058Y1115D01*
X2058Y1117D01*
X2062Y1117D01*
X2062Y1119D01*
X2068Y1119D01*
X2068Y1121D01*
X2072Y1121D01*
X2072Y1123D01*
X2080Y1123D01*
X2080Y1125D01*
X2094Y1125D01*
X2094Y1127D01*
X2000Y1127D01*
G37*
D02*
G36*
X2102Y1127D02*
X2102Y1125D01*
X2116Y1125D01*
X2116Y1123D01*
X2122Y1123D01*
X2122Y1121D01*
X2128Y1121D01*
X2128Y1119D01*
X2132Y1119D01*
X2132Y1117D01*
X2136Y1117D01*
X2136Y1115D01*
X2160Y1115D01*
X2160Y1117D01*
X2164Y1117D01*
X2164Y1119D01*
X2168Y1119D01*
X2168Y1121D01*
X2172Y1121D01*
X2172Y1123D01*
X2180Y1123D01*
X2180Y1125D01*
X2194Y1125D01*
X2194Y1127D01*
X2102Y1127D01*
G37*
D02*
G36*
X2202Y1127D02*
X2202Y1125D01*
X2216Y1125D01*
X2216Y1123D01*
X2224Y1123D01*
X2224Y1121D01*
X2228Y1121D01*
X2228Y1119D01*
X2232Y1119D01*
X2232Y1117D01*
X2236Y1117D01*
X2236Y1115D01*
X2258Y1115D01*
X2258Y1117D01*
X2262Y1117D01*
X2262Y1119D01*
X2266Y1119D01*
X2266Y1121D01*
X2272Y1121D01*
X2272Y1123D01*
X2280Y1123D01*
X2280Y1125D01*
X2294Y1125D01*
X2294Y1127D01*
X2202Y1127D01*
G37*
D02*
G36*
X2300Y1127D02*
X2300Y1125D01*
X2316Y1125D01*
X2316Y1123D01*
X2322Y1123D01*
X2322Y1121D01*
X2328Y1121D01*
X2328Y1119D01*
X2332Y1119D01*
X2332Y1117D01*
X2336Y1117D01*
X2336Y1115D01*
X2360Y1115D01*
X2360Y1117D01*
X2362Y1117D01*
X2362Y1119D01*
X2368Y1119D01*
X2368Y1121D01*
X2372Y1121D01*
X2372Y1123D01*
X2380Y1123D01*
X2380Y1125D01*
X2394Y1125D01*
X2394Y1127D01*
X2300Y1127D01*
G37*
D02*
G36*
X2402Y1127D02*
X2402Y1125D01*
X2416Y1125D01*
X2416Y1123D01*
X2422Y1123D01*
X2422Y1121D01*
X2428Y1121D01*
X2428Y1119D01*
X2432Y1119D01*
X2432Y1117D01*
X2436Y1117D01*
X2436Y1115D01*
X2458Y1115D01*
X2458Y1117D01*
X2462Y1117D01*
X2462Y1119D01*
X2466Y1119D01*
X2466Y1121D01*
X2472Y1121D01*
X2472Y1123D01*
X2478Y1123D01*
X2478Y1125D01*
X2494Y1125D01*
X2494Y1127D01*
X2402Y1127D01*
G37*
D02*
G36*
X2500Y1127D02*
X2500Y1125D01*
X2516Y1125D01*
X2516Y1123D01*
X2522Y1123D01*
X2522Y1121D01*
X2528Y1121D01*
X2528Y1119D01*
X2532Y1119D01*
X2532Y1117D01*
X2536Y1117D01*
X2536Y1115D01*
X2558Y1115D01*
X2558Y1117D01*
X2562Y1117D01*
X2562Y1119D01*
X2566Y1119D01*
X2566Y1121D01*
X2572Y1121D01*
X2572Y1123D01*
X2580Y1123D01*
X2580Y1125D01*
X2594Y1125D01*
X2594Y1127D01*
X2500Y1127D01*
G37*
D02*
G36*
X40Y1121D02*
X40Y941D01*
X288Y941D01*
X288Y943D01*
X278Y943D01*
X278Y945D01*
X270Y945D01*
X270Y947D01*
X264Y947D01*
X264Y949D01*
X260Y949D01*
X260Y951D01*
X256Y951D01*
X256Y953D01*
X252Y953D01*
X252Y955D01*
X250Y955D01*
X250Y957D01*
X246Y957D01*
X246Y959D01*
X244Y959D01*
X244Y961D01*
X242Y961D01*
X242Y963D01*
X240Y963D01*
X240Y965D01*
X236Y965D01*
X236Y967D01*
X234Y967D01*
X234Y969D01*
X232Y969D01*
X232Y973D01*
X230Y973D01*
X230Y975D01*
X228Y975D01*
X228Y977D01*
X226Y977D01*
X226Y979D01*
X224Y979D01*
X224Y983D01*
X222Y983D01*
X222Y987D01*
X220Y987D01*
X220Y989D01*
X218Y989D01*
X218Y993D01*
X216Y993D01*
X216Y999D01*
X214Y999D01*
X214Y1003D01*
X212Y1003D01*
X212Y1011D01*
X210Y1011D01*
X210Y1025D01*
X208Y1025D01*
X208Y1039D01*
X210Y1039D01*
X210Y1051D01*
X212Y1051D01*
X212Y1059D01*
X214Y1059D01*
X214Y1065D01*
X216Y1065D01*
X216Y1069D01*
X218Y1069D01*
X218Y1073D01*
X220Y1073D01*
X220Y1077D01*
X222Y1077D01*
X222Y1081D01*
X224Y1081D01*
X224Y1083D01*
X226Y1083D01*
X226Y1085D01*
X228Y1085D01*
X228Y1089D01*
X230Y1089D01*
X230Y1091D01*
X232Y1091D01*
X232Y1093D01*
X234Y1093D01*
X234Y1095D01*
X236Y1095D01*
X236Y1097D01*
X238Y1097D01*
X238Y1099D01*
X240Y1099D01*
X240Y1101D01*
X242Y1101D01*
X242Y1103D01*
X246Y1103D01*
X246Y1105D01*
X248Y1105D01*
X248Y1107D01*
X252Y1107D01*
X252Y1109D01*
X254Y1109D01*
X254Y1111D01*
X258Y1111D01*
X258Y1113D01*
X262Y1113D01*
X262Y1115D01*
X268Y1115D01*
X268Y1117D01*
X274Y1117D01*
X274Y1119D01*
X284Y1119D01*
X284Y1121D01*
X40Y1121D01*
G37*
D02*
G36*
X836Y949D02*
X836Y947D01*
X832Y947D01*
X832Y945D01*
X828Y945D01*
X828Y943D01*
X822Y943D01*
X822Y941D01*
X816Y941D01*
X816Y939D01*
X800Y939D01*
X800Y937D01*
X896Y937D01*
X896Y939D01*
X880Y939D01*
X880Y941D01*
X874Y941D01*
X874Y943D01*
X868Y943D01*
X868Y945D01*
X864Y945D01*
X864Y947D01*
X860Y947D01*
X860Y949D01*
X836Y949D01*
G37*
D02*
G36*
X936Y949D02*
X936Y947D01*
X934Y947D01*
X934Y945D01*
X928Y945D01*
X928Y943D01*
X924Y943D01*
X924Y941D01*
X916Y941D01*
X916Y939D01*
X900Y939D01*
X900Y937D01*
X996Y937D01*
X996Y939D01*
X980Y939D01*
X980Y941D01*
X974Y941D01*
X974Y943D01*
X968Y943D01*
X968Y945D01*
X964Y945D01*
X964Y947D01*
X960Y947D01*
X960Y949D01*
X936Y949D01*
G37*
D02*
G36*
X1038Y949D02*
X1038Y947D01*
X1034Y947D01*
X1034Y945D01*
X1028Y945D01*
X1028Y943D01*
X1024Y943D01*
X1024Y941D01*
X1016Y941D01*
X1016Y939D01*
X1000Y939D01*
X1000Y937D01*
X1096Y937D01*
X1096Y939D01*
X1080Y939D01*
X1080Y941D01*
X1074Y941D01*
X1074Y943D01*
X1068Y943D01*
X1068Y945D01*
X1064Y945D01*
X1064Y947D01*
X1060Y947D01*
X1060Y949D01*
X1038Y949D01*
G37*
D02*
G36*
X1136Y949D02*
X1136Y947D01*
X1132Y947D01*
X1132Y945D01*
X1128Y945D01*
X1128Y943D01*
X1122Y943D01*
X1122Y941D01*
X1116Y941D01*
X1116Y939D01*
X1100Y939D01*
X1100Y937D01*
X1196Y937D01*
X1196Y939D01*
X1180Y939D01*
X1180Y941D01*
X1174Y941D01*
X1174Y943D01*
X1168Y943D01*
X1168Y945D01*
X1164Y945D01*
X1164Y947D01*
X1160Y947D01*
X1160Y949D01*
X1136Y949D01*
G37*
D02*
G36*
X1236Y949D02*
X1236Y947D01*
X1234Y947D01*
X1234Y945D01*
X1228Y945D01*
X1228Y943D01*
X1224Y943D01*
X1224Y941D01*
X1216Y941D01*
X1216Y939D01*
X1200Y939D01*
X1200Y937D01*
X1296Y937D01*
X1296Y939D01*
X1280Y939D01*
X1280Y941D01*
X1274Y941D01*
X1274Y943D01*
X1268Y943D01*
X1268Y945D01*
X1264Y945D01*
X1264Y947D01*
X1260Y947D01*
X1260Y949D01*
X1236Y949D01*
G37*
D02*
G36*
X1336Y949D02*
X1336Y947D01*
X1332Y947D01*
X1332Y945D01*
X1328Y945D01*
X1328Y943D01*
X1322Y943D01*
X1322Y941D01*
X1316Y941D01*
X1316Y939D01*
X1300Y939D01*
X1300Y937D01*
X1396Y937D01*
X1396Y939D01*
X1380Y939D01*
X1380Y941D01*
X1374Y941D01*
X1374Y943D01*
X1368Y943D01*
X1368Y945D01*
X1364Y945D01*
X1364Y947D01*
X1360Y947D01*
X1360Y949D01*
X1336Y949D01*
G37*
D02*
G36*
X1436Y949D02*
X1436Y947D01*
X1432Y947D01*
X1432Y945D01*
X1428Y945D01*
X1428Y943D01*
X1422Y943D01*
X1422Y941D01*
X1416Y941D01*
X1416Y939D01*
X1400Y939D01*
X1400Y937D01*
X1496Y937D01*
X1496Y939D01*
X1480Y939D01*
X1480Y941D01*
X1472Y941D01*
X1472Y943D01*
X1468Y943D01*
X1468Y945D01*
X1462Y945D01*
X1462Y947D01*
X1460Y947D01*
X1460Y949D01*
X1436Y949D01*
G37*
D02*
G36*
X1536Y949D02*
X1536Y947D01*
X1532Y947D01*
X1532Y945D01*
X1528Y945D01*
X1528Y943D01*
X1522Y943D01*
X1522Y941D01*
X1516Y941D01*
X1516Y939D01*
X1500Y939D01*
X1500Y937D01*
X1596Y937D01*
X1596Y939D01*
X1580Y939D01*
X1580Y941D01*
X1574Y941D01*
X1574Y943D01*
X1568Y943D01*
X1568Y945D01*
X1564Y945D01*
X1564Y947D01*
X1560Y947D01*
X1560Y949D01*
X1536Y949D01*
G37*
D02*
G36*
X1636Y949D02*
X1636Y947D01*
X1632Y947D01*
X1632Y945D01*
X1628Y945D01*
X1628Y943D01*
X1622Y943D01*
X1622Y941D01*
X1616Y941D01*
X1616Y939D01*
X1600Y939D01*
X1600Y937D01*
X1696Y937D01*
X1696Y939D01*
X1680Y939D01*
X1680Y941D01*
X1674Y941D01*
X1674Y943D01*
X1668Y943D01*
X1668Y945D01*
X1664Y945D01*
X1664Y947D01*
X1660Y947D01*
X1660Y949D01*
X1636Y949D01*
G37*
D02*
G36*
X1736Y949D02*
X1736Y947D01*
X1732Y947D01*
X1732Y945D01*
X1728Y945D01*
X1728Y943D01*
X1724Y943D01*
X1724Y941D01*
X1716Y941D01*
X1716Y939D01*
X1700Y939D01*
X1700Y937D01*
X1796Y937D01*
X1796Y939D01*
X1780Y939D01*
X1780Y941D01*
X1772Y941D01*
X1772Y943D01*
X1768Y943D01*
X1768Y945D01*
X1762Y945D01*
X1762Y947D01*
X1760Y947D01*
X1760Y949D01*
X1736Y949D01*
G37*
D02*
G36*
X1836Y949D02*
X1836Y947D01*
X1832Y947D01*
X1832Y945D01*
X1828Y945D01*
X1828Y943D01*
X1822Y943D01*
X1822Y941D01*
X1816Y941D01*
X1816Y939D01*
X1800Y939D01*
X1800Y937D01*
X1896Y937D01*
X1896Y939D01*
X1880Y939D01*
X1880Y941D01*
X1874Y941D01*
X1874Y943D01*
X1868Y943D01*
X1868Y945D01*
X1864Y945D01*
X1864Y947D01*
X1860Y947D01*
X1860Y949D01*
X1836Y949D01*
G37*
D02*
G36*
X1936Y949D02*
X1936Y947D01*
X1932Y947D01*
X1932Y945D01*
X1928Y945D01*
X1928Y943D01*
X1922Y943D01*
X1922Y941D01*
X1916Y941D01*
X1916Y939D01*
X1900Y939D01*
X1900Y937D01*
X1996Y937D01*
X1996Y939D01*
X1980Y939D01*
X1980Y941D01*
X1972Y941D01*
X1972Y943D01*
X1968Y943D01*
X1968Y945D01*
X1962Y945D01*
X1962Y947D01*
X1958Y947D01*
X1958Y949D01*
X1936Y949D01*
G37*
D02*
G36*
X2036Y949D02*
X2036Y947D01*
X2032Y947D01*
X2032Y945D01*
X2028Y945D01*
X2028Y943D01*
X2022Y943D01*
X2022Y941D01*
X2016Y941D01*
X2016Y939D01*
X2000Y939D01*
X2000Y937D01*
X2096Y937D01*
X2096Y939D01*
X2080Y939D01*
X2080Y941D01*
X2072Y941D01*
X2072Y943D01*
X2068Y943D01*
X2068Y945D01*
X2062Y945D01*
X2062Y947D01*
X2060Y947D01*
X2060Y949D01*
X2036Y949D01*
G37*
D02*
G36*
X2136Y949D02*
X2136Y947D01*
X2132Y947D01*
X2132Y945D01*
X2128Y945D01*
X2128Y943D01*
X2122Y943D01*
X2122Y941D01*
X2116Y941D01*
X2116Y939D01*
X2100Y939D01*
X2100Y937D01*
X2196Y937D01*
X2196Y939D01*
X2180Y939D01*
X2180Y941D01*
X2174Y941D01*
X2174Y943D01*
X2168Y943D01*
X2168Y945D01*
X2164Y945D01*
X2164Y947D01*
X2160Y947D01*
X2160Y949D01*
X2136Y949D01*
G37*
D02*
G36*
X2236Y949D02*
X2236Y947D01*
X2232Y947D01*
X2232Y945D01*
X2228Y945D01*
X2228Y943D01*
X2222Y943D01*
X2222Y941D01*
X2216Y941D01*
X2216Y939D01*
X2200Y939D01*
X2200Y937D01*
X2296Y937D01*
X2296Y939D01*
X2280Y939D01*
X2280Y941D01*
X2272Y941D01*
X2272Y943D01*
X2268Y943D01*
X2268Y945D01*
X2262Y945D01*
X2262Y947D01*
X2258Y947D01*
X2258Y949D01*
X2236Y949D01*
G37*
D02*
G36*
X2336Y949D02*
X2336Y947D01*
X2332Y947D01*
X2332Y945D01*
X2328Y945D01*
X2328Y943D01*
X2322Y943D01*
X2322Y941D01*
X2316Y941D01*
X2316Y939D01*
X2300Y939D01*
X2300Y937D01*
X2396Y937D01*
X2396Y939D01*
X2380Y939D01*
X2380Y941D01*
X2372Y941D01*
X2372Y943D01*
X2368Y943D01*
X2368Y945D01*
X2362Y945D01*
X2362Y947D01*
X2360Y947D01*
X2360Y949D01*
X2336Y949D01*
G37*
D02*
G36*
X2436Y949D02*
X2436Y947D01*
X2432Y947D01*
X2432Y945D01*
X2428Y945D01*
X2428Y943D01*
X2422Y943D01*
X2422Y941D01*
X2416Y941D01*
X2416Y939D01*
X2400Y939D01*
X2400Y937D01*
X2496Y937D01*
X2496Y939D01*
X2480Y939D01*
X2480Y941D01*
X2472Y941D01*
X2472Y943D01*
X2466Y943D01*
X2466Y945D01*
X2462Y945D01*
X2462Y947D01*
X2458Y947D01*
X2458Y949D01*
X2436Y949D01*
G37*
D02*
G36*
X2536Y949D02*
X2536Y947D01*
X2532Y947D01*
X2532Y945D01*
X2528Y945D01*
X2528Y943D01*
X2522Y943D01*
X2522Y941D01*
X2516Y941D01*
X2516Y939D01*
X2500Y939D01*
X2500Y937D01*
X2596Y937D01*
X2596Y939D01*
X2580Y939D01*
X2580Y941D01*
X2572Y941D01*
X2572Y943D01*
X2568Y943D01*
X2568Y945D01*
X2562Y945D01*
X2562Y947D01*
X2558Y947D01*
X2558Y949D01*
X2536Y949D01*
G37*
D02*
G36*
X40Y941D02*
X40Y939D01*
X780Y939D01*
X780Y941D01*
X40Y941D01*
G37*
D02*
G36*
X40Y941D02*
X40Y939D01*
X780Y939D01*
X780Y941D01*
X40Y941D01*
G37*
D02*
G36*
X40Y939D02*
X40Y937D01*
X796Y937D01*
X796Y939D01*
X40Y939D01*
G37*
D02*
G36*
X40Y937D02*
X40Y935D01*
X2952Y935D01*
X2952Y937D01*
X40Y937D01*
G37*
D02*
G36*
X40Y937D02*
X40Y935D01*
X2952Y935D01*
X2952Y937D01*
X40Y937D01*
G37*
D02*
G36*
X40Y937D02*
X40Y935D01*
X2952Y935D01*
X2952Y937D01*
X40Y937D01*
G37*
D02*
G36*
X40Y937D02*
X40Y935D01*
X2952Y935D01*
X2952Y937D01*
X40Y937D01*
G37*
D02*
G36*
X40Y937D02*
X40Y935D01*
X2952Y935D01*
X2952Y937D01*
X40Y937D01*
G37*
D02*
G36*
X40Y937D02*
X40Y935D01*
X2952Y935D01*
X2952Y937D01*
X40Y937D01*
G37*
D02*
G36*
X40Y937D02*
X40Y935D01*
X2952Y935D01*
X2952Y937D01*
X40Y937D01*
G37*
D02*
G36*
X40Y937D02*
X40Y935D01*
X2952Y935D01*
X2952Y937D01*
X40Y937D01*
G37*
D02*
G36*
X40Y937D02*
X40Y935D01*
X2952Y935D01*
X2952Y937D01*
X40Y937D01*
G37*
D02*
G36*
X40Y937D02*
X40Y935D01*
X2952Y935D01*
X2952Y937D01*
X40Y937D01*
G37*
D02*
G36*
X40Y937D02*
X40Y935D01*
X2952Y935D01*
X2952Y937D01*
X40Y937D01*
G37*
D02*
G36*
X40Y937D02*
X40Y935D01*
X2952Y935D01*
X2952Y937D01*
X40Y937D01*
G37*
D02*
G36*
X40Y937D02*
X40Y935D01*
X2952Y935D01*
X2952Y937D01*
X40Y937D01*
G37*
D02*
G36*
X40Y937D02*
X40Y935D01*
X2952Y935D01*
X2952Y937D01*
X40Y937D01*
G37*
D02*
G36*
X40Y937D02*
X40Y935D01*
X2952Y935D01*
X2952Y937D01*
X40Y937D01*
G37*
D02*
G36*
X40Y937D02*
X40Y935D01*
X2952Y935D01*
X2952Y937D01*
X40Y937D01*
G37*
D02*
G36*
X40Y937D02*
X40Y935D01*
X2952Y935D01*
X2952Y937D01*
X40Y937D01*
G37*
D02*
G36*
X40Y937D02*
X40Y935D01*
X2952Y935D01*
X2952Y937D01*
X40Y937D01*
G37*
D02*
G36*
X40Y937D02*
X40Y935D01*
X2952Y935D01*
X2952Y937D01*
X40Y937D01*
G37*
D02*
G36*
X40Y937D02*
X40Y935D01*
X2952Y935D01*
X2952Y937D01*
X40Y937D01*
G37*
D02*
G36*
X40Y935D02*
X40Y841D01*
X1136Y841D01*
X1136Y839D01*
X1150Y839D01*
X1150Y837D01*
X1156Y837D01*
X1156Y835D01*
X1162Y835D01*
X1162Y833D01*
X1166Y833D01*
X1166Y831D01*
X1170Y831D01*
X1170Y829D01*
X1174Y829D01*
X1174Y827D01*
X1178Y827D01*
X1178Y825D01*
X1180Y825D01*
X1180Y823D01*
X1184Y823D01*
X1184Y821D01*
X1186Y821D01*
X1186Y819D01*
X1810Y819D01*
X1810Y817D01*
X1820Y817D01*
X1820Y815D01*
X1828Y815D01*
X1828Y813D01*
X1832Y813D01*
X1832Y811D01*
X1836Y811D01*
X1836Y809D01*
X1840Y809D01*
X1840Y807D01*
X1844Y807D01*
X1844Y805D01*
X1848Y805D01*
X1848Y803D01*
X1850Y803D01*
X1850Y801D01*
X1852Y801D01*
X1852Y799D01*
X1856Y799D01*
X1856Y797D01*
X1858Y797D01*
X1858Y795D01*
X1860Y795D01*
X1860Y793D01*
X1862Y793D01*
X1862Y791D01*
X1864Y791D01*
X1864Y789D01*
X1866Y789D01*
X1866Y785D01*
X1868Y785D01*
X1868Y783D01*
X1870Y783D01*
X1870Y781D01*
X1872Y781D01*
X1872Y777D01*
X1874Y777D01*
X1874Y773D01*
X1876Y773D01*
X1876Y769D01*
X1878Y769D01*
X1878Y765D01*
X1880Y765D01*
X1880Y761D01*
X1882Y761D01*
X1882Y753D01*
X1884Y753D01*
X1884Y745D01*
X1886Y745D01*
X1886Y719D01*
X1884Y719D01*
X1884Y717D01*
X2308Y717D01*
X2308Y715D01*
X2318Y715D01*
X2318Y713D01*
X2326Y713D01*
X2326Y711D01*
X2330Y711D01*
X2330Y709D01*
X2336Y709D01*
X2336Y707D01*
X2340Y707D01*
X2340Y705D01*
X2342Y705D01*
X2342Y703D01*
X2346Y703D01*
X2346Y701D01*
X2348Y701D01*
X2348Y699D01*
X2352Y699D01*
X2352Y697D01*
X2354Y697D01*
X2354Y695D01*
X2356Y695D01*
X2356Y693D01*
X2358Y693D01*
X2358Y691D01*
X2360Y691D01*
X2360Y689D01*
X2362Y689D01*
X2362Y687D01*
X2364Y687D01*
X2364Y683D01*
X2366Y683D01*
X2366Y681D01*
X2368Y681D01*
X2368Y679D01*
X2370Y679D01*
X2370Y675D01*
X2372Y675D01*
X2372Y671D01*
X2374Y671D01*
X2374Y667D01*
X2376Y667D01*
X2376Y663D01*
X2378Y663D01*
X2378Y657D01*
X2380Y657D01*
X2380Y651D01*
X2382Y651D01*
X2382Y637D01*
X2384Y637D01*
X2384Y627D01*
X2382Y627D01*
X2382Y613D01*
X2380Y613D01*
X2380Y605D01*
X2378Y605D01*
X2378Y599D01*
X2376Y599D01*
X2376Y595D01*
X2374Y595D01*
X2374Y591D01*
X2372Y591D01*
X2372Y587D01*
X2370Y587D01*
X2370Y585D01*
X2368Y585D01*
X2368Y581D01*
X2366Y581D01*
X2366Y579D01*
X2364Y579D01*
X2364Y577D01*
X2362Y577D01*
X2362Y575D01*
X2360Y575D01*
X2360Y571D01*
X2358Y571D01*
X2358Y569D01*
X2354Y569D01*
X2354Y567D01*
X2352Y567D01*
X2352Y565D01*
X2350Y565D01*
X2350Y563D01*
X2348Y563D01*
X2348Y561D01*
X2344Y561D01*
X2344Y559D01*
X2342Y559D01*
X2342Y557D01*
X2338Y557D01*
X2338Y555D01*
X2334Y555D01*
X2334Y553D01*
X2328Y553D01*
X2328Y551D01*
X2322Y551D01*
X2322Y549D01*
X2316Y549D01*
X2316Y547D01*
X2952Y547D01*
X2952Y935D01*
X40Y935D01*
G37*
D02*
G36*
X40Y841D02*
X40Y563D01*
X310Y563D01*
X310Y767D01*
X312Y767D01*
X312Y775D01*
X314Y775D01*
X314Y781D01*
X316Y781D01*
X316Y787D01*
X318Y787D01*
X318Y791D01*
X320Y791D01*
X320Y795D01*
X322Y795D01*
X322Y799D01*
X324Y799D01*
X324Y801D01*
X326Y801D01*
X326Y805D01*
X328Y805D01*
X328Y807D01*
X330Y807D01*
X330Y809D01*
X332Y809D01*
X332Y811D01*
X334Y811D01*
X334Y813D01*
X336Y813D01*
X336Y815D01*
X338Y815D01*
X338Y817D01*
X340Y817D01*
X340Y819D01*
X342Y819D01*
X342Y821D01*
X344Y821D01*
X344Y823D01*
X348Y823D01*
X348Y825D01*
X350Y825D01*
X350Y827D01*
X354Y827D01*
X354Y829D01*
X358Y829D01*
X358Y831D01*
X362Y831D01*
X362Y833D01*
X366Y833D01*
X366Y835D01*
X372Y835D01*
X372Y837D01*
X378Y837D01*
X378Y839D01*
X392Y839D01*
X392Y841D01*
X40Y841D01*
G37*
D02*
G36*
X406Y841D02*
X406Y839D01*
X418Y839D01*
X418Y837D01*
X426Y837D01*
X426Y835D01*
X432Y835D01*
X432Y833D01*
X436Y833D01*
X436Y831D01*
X440Y831D01*
X440Y829D01*
X444Y829D01*
X444Y827D01*
X446Y827D01*
X446Y825D01*
X450Y825D01*
X450Y823D01*
X452Y823D01*
X452Y821D01*
X456Y821D01*
X456Y819D01*
X458Y819D01*
X458Y817D01*
X460Y817D01*
X460Y815D01*
X462Y815D01*
X462Y813D01*
X464Y813D01*
X464Y811D01*
X466Y811D01*
X466Y809D01*
X468Y809D01*
X468Y805D01*
X470Y805D01*
X470Y803D01*
X472Y803D01*
X472Y801D01*
X474Y801D01*
X474Y797D01*
X476Y797D01*
X476Y793D01*
X478Y793D01*
X478Y789D01*
X480Y789D01*
X480Y785D01*
X482Y785D01*
X482Y779D01*
X484Y779D01*
X484Y773D01*
X486Y773D01*
X486Y761D01*
X488Y761D01*
X488Y563D01*
X1040Y563D01*
X1040Y763D01*
X1042Y763D01*
X1042Y773D01*
X1044Y773D01*
X1044Y781D01*
X1046Y781D01*
X1046Y785D01*
X1048Y785D01*
X1048Y789D01*
X1050Y789D01*
X1050Y793D01*
X1052Y793D01*
X1052Y797D01*
X1054Y797D01*
X1054Y801D01*
X1056Y801D01*
X1056Y803D01*
X1058Y803D01*
X1058Y805D01*
X1060Y805D01*
X1060Y809D01*
X1062Y809D01*
X1062Y811D01*
X1064Y811D01*
X1064Y813D01*
X1066Y813D01*
X1066Y815D01*
X1068Y815D01*
X1068Y817D01*
X1070Y817D01*
X1070Y819D01*
X1072Y819D01*
X1072Y821D01*
X1076Y821D01*
X1076Y823D01*
X1078Y823D01*
X1078Y825D01*
X1080Y825D01*
X1080Y827D01*
X1084Y827D01*
X1084Y829D01*
X1088Y829D01*
X1088Y831D01*
X1092Y831D01*
X1092Y833D01*
X1096Y833D01*
X1096Y835D01*
X1102Y835D01*
X1102Y837D01*
X1110Y837D01*
X1110Y839D01*
X1122Y839D01*
X1122Y841D01*
X406Y841D01*
G37*
D02*
G36*
X1188Y819D02*
X1188Y817D01*
X1190Y817D01*
X1190Y815D01*
X1192Y815D01*
X1192Y813D01*
X1194Y813D01*
X1194Y811D01*
X1196Y811D01*
X1196Y809D01*
X1198Y809D01*
X1198Y807D01*
X1200Y807D01*
X1200Y803D01*
X1202Y803D01*
X1202Y801D01*
X1204Y801D01*
X1204Y797D01*
X1206Y797D01*
X1206Y795D01*
X1208Y795D01*
X1208Y791D01*
X1210Y791D01*
X1210Y787D01*
X1232Y787D01*
X1232Y789D01*
X1234Y789D01*
X1234Y791D01*
X1236Y791D01*
X1236Y793D01*
X1238Y793D01*
X1238Y795D01*
X1240Y795D01*
X1240Y797D01*
X1242Y797D01*
X1242Y799D01*
X1244Y799D01*
X1244Y801D01*
X1248Y801D01*
X1248Y803D01*
X1250Y803D01*
X1250Y805D01*
X1254Y805D01*
X1254Y807D01*
X1256Y807D01*
X1256Y809D01*
X1260Y809D01*
X1260Y811D01*
X1264Y811D01*
X1264Y813D01*
X1270Y813D01*
X1270Y815D01*
X1276Y815D01*
X1276Y817D01*
X1288Y817D01*
X1288Y819D01*
X1188Y819D01*
G37*
D02*
G36*
X1310Y819D02*
X1310Y817D01*
X1320Y817D01*
X1320Y815D01*
X1328Y815D01*
X1328Y813D01*
X1332Y813D01*
X1332Y811D01*
X1336Y811D01*
X1336Y809D01*
X1340Y809D01*
X1340Y807D01*
X1344Y807D01*
X1344Y805D01*
X1348Y805D01*
X1348Y803D01*
X1350Y803D01*
X1350Y801D01*
X1352Y801D01*
X1352Y799D01*
X1356Y799D01*
X1356Y797D01*
X1358Y797D01*
X1358Y795D01*
X1360Y795D01*
X1360Y793D01*
X1362Y793D01*
X1362Y791D01*
X1364Y791D01*
X1364Y789D01*
X1366Y789D01*
X1366Y785D01*
X1368Y785D01*
X1368Y783D01*
X1370Y783D01*
X1370Y781D01*
X1372Y781D01*
X1372Y777D01*
X1374Y777D01*
X1374Y773D01*
X1376Y773D01*
X1376Y769D01*
X1378Y769D01*
X1378Y765D01*
X1380Y765D01*
X1380Y761D01*
X1382Y761D01*
X1382Y753D01*
X1384Y753D01*
X1384Y745D01*
X1386Y745D01*
X1386Y719D01*
X1384Y719D01*
X1384Y709D01*
X1382Y709D01*
X1382Y703D01*
X1380Y703D01*
X1380Y697D01*
X1378Y697D01*
X1378Y693D01*
X1376Y693D01*
X1376Y689D01*
X1374Y689D01*
X1374Y685D01*
X1372Y685D01*
X1372Y683D01*
X1370Y683D01*
X1370Y679D01*
X1368Y679D01*
X1368Y677D01*
X1366Y677D01*
X1366Y675D01*
X1364Y675D01*
X1364Y673D01*
X1362Y673D01*
X1362Y671D01*
X1360Y671D01*
X1360Y669D01*
X1358Y669D01*
X1358Y667D01*
X1356Y667D01*
X1356Y665D01*
X1354Y665D01*
X1354Y663D01*
X1352Y663D01*
X1352Y661D01*
X1350Y661D01*
X1350Y659D01*
X1346Y659D01*
X1346Y657D01*
X1342Y657D01*
X1342Y655D01*
X1340Y655D01*
X1340Y653D01*
X1336Y653D01*
X1336Y651D01*
X1330Y651D01*
X1330Y649D01*
X1324Y649D01*
X1324Y647D01*
X1318Y647D01*
X1318Y645D01*
X1300Y645D01*
X1300Y643D01*
X1796Y643D01*
X1796Y645D01*
X1780Y645D01*
X1780Y647D01*
X1772Y647D01*
X1772Y649D01*
X1766Y649D01*
X1766Y651D01*
X1762Y651D01*
X1762Y653D01*
X1758Y653D01*
X1758Y655D01*
X1754Y655D01*
X1754Y657D01*
X1752Y657D01*
X1752Y659D01*
X1748Y659D01*
X1748Y661D01*
X1746Y661D01*
X1746Y663D01*
X1742Y663D01*
X1742Y665D01*
X1740Y665D01*
X1740Y667D01*
X1738Y667D01*
X1738Y669D01*
X1736Y669D01*
X1736Y671D01*
X1734Y671D01*
X1734Y673D01*
X1732Y673D01*
X1732Y675D01*
X1730Y675D01*
X1730Y679D01*
X1728Y679D01*
X1728Y681D01*
X1726Y681D01*
X1726Y685D01*
X1724Y685D01*
X1724Y687D01*
X1722Y687D01*
X1722Y691D01*
X1720Y691D01*
X1720Y695D01*
X1718Y695D01*
X1718Y701D01*
X1716Y701D01*
X1716Y705D01*
X1714Y705D01*
X1714Y713D01*
X1712Y713D01*
X1712Y749D01*
X1714Y749D01*
X1714Y757D01*
X1716Y757D01*
X1716Y763D01*
X1718Y763D01*
X1718Y767D01*
X1720Y767D01*
X1720Y771D01*
X1722Y771D01*
X1722Y775D01*
X1724Y775D01*
X1724Y779D01*
X1726Y779D01*
X1726Y781D01*
X1728Y781D01*
X1728Y785D01*
X1730Y785D01*
X1730Y787D01*
X1732Y787D01*
X1732Y789D01*
X1734Y789D01*
X1734Y791D01*
X1736Y791D01*
X1736Y793D01*
X1738Y793D01*
X1738Y795D01*
X1740Y795D01*
X1740Y797D01*
X1742Y797D01*
X1742Y799D01*
X1744Y799D01*
X1744Y801D01*
X1748Y801D01*
X1748Y803D01*
X1750Y803D01*
X1750Y805D01*
X1754Y805D01*
X1754Y807D01*
X1756Y807D01*
X1756Y809D01*
X1760Y809D01*
X1760Y811D01*
X1764Y811D01*
X1764Y813D01*
X1770Y813D01*
X1770Y815D01*
X1776Y815D01*
X1776Y817D01*
X1788Y817D01*
X1788Y819D01*
X1310Y819D01*
G37*
D02*
G36*
X1884Y717D02*
X1884Y709D01*
X1882Y709D01*
X1882Y703D01*
X1880Y703D01*
X1880Y697D01*
X1878Y697D01*
X1878Y693D01*
X1876Y693D01*
X1876Y689D01*
X1874Y689D01*
X1874Y685D01*
X1872Y685D01*
X1872Y683D01*
X1870Y683D01*
X1870Y679D01*
X1868Y679D01*
X1868Y677D01*
X1866Y677D01*
X1866Y675D01*
X1864Y675D01*
X1864Y673D01*
X1862Y673D01*
X1862Y671D01*
X1860Y671D01*
X1860Y669D01*
X1858Y669D01*
X1858Y667D01*
X1856Y667D01*
X1856Y665D01*
X1854Y665D01*
X1854Y663D01*
X1852Y663D01*
X1852Y661D01*
X1850Y661D01*
X1850Y659D01*
X1846Y659D01*
X1846Y657D01*
X1842Y657D01*
X1842Y655D01*
X1840Y655D01*
X1840Y653D01*
X1836Y653D01*
X1836Y651D01*
X1830Y651D01*
X1830Y649D01*
X1824Y649D01*
X1824Y647D01*
X1818Y647D01*
X1818Y645D01*
X1800Y645D01*
X1800Y643D01*
X2014Y643D01*
X2014Y647D01*
X2016Y647D01*
X2016Y655D01*
X2018Y655D01*
X2018Y661D01*
X2020Y661D01*
X2020Y667D01*
X2022Y667D01*
X2022Y671D01*
X2024Y671D01*
X2024Y675D01*
X2026Y675D01*
X2026Y677D01*
X2028Y677D01*
X2028Y681D01*
X2030Y681D01*
X2030Y683D01*
X2032Y683D01*
X2032Y685D01*
X2034Y685D01*
X2034Y687D01*
X2036Y687D01*
X2036Y691D01*
X2038Y691D01*
X2038Y693D01*
X2042Y693D01*
X2042Y695D01*
X2044Y695D01*
X2044Y697D01*
X2046Y697D01*
X2046Y699D01*
X2048Y699D01*
X2048Y701D01*
X2052Y701D01*
X2052Y703D01*
X2054Y703D01*
X2054Y705D01*
X2058Y705D01*
X2058Y707D01*
X2062Y707D01*
X2062Y709D01*
X2066Y709D01*
X2066Y711D01*
X2072Y711D01*
X2072Y713D01*
X2078Y713D01*
X2078Y715D01*
X2090Y715D01*
X2090Y717D01*
X1884Y717D01*
G37*
D02*
G36*
X2108Y717D02*
X2108Y715D01*
X2118Y715D01*
X2118Y713D01*
X2126Y713D01*
X2126Y711D01*
X2132Y711D01*
X2132Y709D01*
X2136Y709D01*
X2136Y707D01*
X2162Y707D01*
X2162Y709D01*
X2166Y709D01*
X2166Y711D01*
X2172Y711D01*
X2172Y713D01*
X2178Y713D01*
X2178Y715D01*
X2190Y715D01*
X2190Y717D01*
X2108Y717D01*
G37*
D02*
G36*
X2208Y717D02*
X2208Y715D01*
X2218Y715D01*
X2218Y713D01*
X2226Y713D01*
X2226Y711D01*
X2232Y711D01*
X2232Y709D01*
X2236Y709D01*
X2236Y707D01*
X2262Y707D01*
X2262Y709D01*
X2266Y709D01*
X2266Y711D01*
X2272Y711D01*
X2272Y713D01*
X2278Y713D01*
X2278Y715D01*
X2290Y715D01*
X2290Y717D01*
X2208Y717D01*
G37*
D02*
G36*
X1218Y669D02*
X1218Y643D01*
X1296Y643D01*
X1296Y645D01*
X1280Y645D01*
X1280Y647D01*
X1272Y647D01*
X1272Y649D01*
X1266Y649D01*
X1266Y651D01*
X1262Y651D01*
X1262Y653D01*
X1258Y653D01*
X1258Y655D01*
X1254Y655D01*
X1254Y657D01*
X1252Y657D01*
X1252Y659D01*
X1248Y659D01*
X1248Y661D01*
X1246Y661D01*
X1246Y663D01*
X1242Y663D01*
X1242Y665D01*
X1240Y665D01*
X1240Y667D01*
X1238Y667D01*
X1238Y669D01*
X1218Y669D01*
G37*
D02*
G36*
X1218Y643D02*
X1218Y641D01*
X2014Y641D01*
X2014Y643D01*
X1218Y643D01*
G37*
D02*
G36*
X1218Y643D02*
X1218Y641D01*
X2014Y641D01*
X2014Y643D01*
X1218Y643D01*
G37*
D02*
G36*
X1218Y643D02*
X1218Y641D01*
X2014Y641D01*
X2014Y643D01*
X1218Y643D01*
G37*
D02*
G36*
X1218Y641D02*
X1218Y619D01*
X1666Y619D01*
X1666Y617D01*
X1676Y617D01*
X1676Y615D01*
X1682Y615D01*
X1682Y613D01*
X1688Y613D01*
X1688Y611D01*
X1692Y611D01*
X1692Y609D01*
X1696Y609D01*
X1696Y607D01*
X1700Y607D01*
X1700Y605D01*
X1704Y605D01*
X1704Y603D01*
X1706Y603D01*
X1706Y601D01*
X1708Y601D01*
X1708Y599D01*
X1712Y599D01*
X1712Y597D01*
X1714Y597D01*
X1714Y595D01*
X1716Y595D01*
X1716Y593D01*
X1718Y593D01*
X1718Y591D01*
X1720Y591D01*
X1720Y589D01*
X1722Y589D01*
X1722Y585D01*
X1724Y585D01*
X1724Y583D01*
X1726Y583D01*
X1726Y581D01*
X1728Y581D01*
X1728Y577D01*
X1730Y577D01*
X1730Y573D01*
X1732Y573D01*
X1732Y569D01*
X1734Y569D01*
X1734Y565D01*
X1736Y565D01*
X1736Y561D01*
X1738Y561D01*
X1738Y553D01*
X1740Y553D01*
X1740Y547D01*
X2082Y547D01*
X2082Y549D01*
X2074Y549D01*
X2074Y551D01*
X2068Y551D01*
X2068Y553D01*
X2064Y553D01*
X2064Y555D01*
X2060Y555D01*
X2060Y557D01*
X2056Y557D01*
X2056Y559D01*
X2052Y559D01*
X2052Y561D01*
X2050Y561D01*
X2050Y563D01*
X2046Y563D01*
X2046Y565D01*
X2044Y565D01*
X2044Y567D01*
X2042Y567D01*
X2042Y569D01*
X2040Y569D01*
X2040Y571D01*
X2038Y571D01*
X2038Y573D01*
X2036Y573D01*
X2036Y575D01*
X2034Y575D01*
X2034Y577D01*
X2032Y577D01*
X2032Y579D01*
X2030Y579D01*
X2030Y583D01*
X2028Y583D01*
X2028Y585D01*
X2026Y585D01*
X2026Y589D01*
X2024Y589D01*
X2024Y593D01*
X2022Y593D01*
X2022Y597D01*
X2020Y597D01*
X2020Y601D01*
X2018Y601D01*
X2018Y607D01*
X2016Y607D01*
X2016Y615D01*
X2014Y615D01*
X2014Y641D01*
X1218Y641D01*
G37*
D02*
G36*
X1218Y619D02*
X1218Y563D01*
X1318Y563D01*
X1318Y567D01*
X1320Y567D01*
X1320Y571D01*
X1322Y571D01*
X1322Y575D01*
X1324Y575D01*
X1324Y579D01*
X1326Y579D01*
X1326Y581D01*
X1328Y581D01*
X1328Y585D01*
X1330Y585D01*
X1330Y587D01*
X1332Y587D01*
X1332Y589D01*
X1334Y589D01*
X1334Y591D01*
X1336Y591D01*
X1336Y593D01*
X1338Y593D01*
X1338Y595D01*
X1340Y595D01*
X1340Y597D01*
X1342Y597D01*
X1342Y599D01*
X1344Y599D01*
X1344Y601D01*
X1348Y601D01*
X1348Y603D01*
X1350Y603D01*
X1350Y605D01*
X1354Y605D01*
X1354Y607D01*
X1356Y607D01*
X1356Y609D01*
X1360Y609D01*
X1360Y611D01*
X1364Y611D01*
X1364Y613D01*
X1370Y613D01*
X1370Y615D01*
X1376Y615D01*
X1376Y617D01*
X1388Y617D01*
X1388Y619D01*
X1218Y619D01*
G37*
D02*
G36*
X1410Y619D02*
X1410Y617D01*
X1420Y617D01*
X1420Y615D01*
X1428Y615D01*
X1428Y613D01*
X1432Y613D01*
X1432Y611D01*
X1436Y611D01*
X1436Y609D01*
X1440Y609D01*
X1440Y607D01*
X1444Y607D01*
X1444Y605D01*
X1448Y605D01*
X1448Y603D01*
X1450Y603D01*
X1450Y601D01*
X1452Y601D01*
X1452Y599D01*
X1456Y599D01*
X1456Y597D01*
X1458Y597D01*
X1458Y595D01*
X1460Y595D01*
X1460Y593D01*
X1462Y593D01*
X1462Y591D01*
X1464Y591D01*
X1464Y589D01*
X1466Y589D01*
X1466Y585D01*
X1468Y585D01*
X1468Y583D01*
X1470Y583D01*
X1470Y581D01*
X1472Y581D01*
X1472Y577D01*
X1474Y577D01*
X1474Y573D01*
X1476Y573D01*
X1476Y569D01*
X1478Y569D01*
X1478Y565D01*
X1480Y565D01*
X1480Y561D01*
X1482Y561D01*
X1482Y553D01*
X1484Y553D01*
X1484Y545D01*
X1486Y545D01*
X1486Y519D01*
X1484Y519D01*
X1484Y509D01*
X1482Y509D01*
X1482Y503D01*
X1480Y503D01*
X1480Y497D01*
X1478Y497D01*
X1478Y493D01*
X1476Y493D01*
X1476Y489D01*
X1474Y489D01*
X1474Y485D01*
X1472Y485D01*
X1472Y483D01*
X1470Y483D01*
X1470Y479D01*
X1468Y479D01*
X1468Y477D01*
X1466Y477D01*
X1466Y475D01*
X1464Y475D01*
X1464Y473D01*
X1462Y473D01*
X1462Y471D01*
X1460Y471D01*
X1460Y469D01*
X1458Y469D01*
X1458Y467D01*
X1456Y467D01*
X1456Y465D01*
X1454Y465D01*
X1454Y463D01*
X1452Y463D01*
X1452Y461D01*
X1450Y461D01*
X1450Y459D01*
X1446Y459D01*
X1446Y457D01*
X1442Y457D01*
X1442Y455D01*
X1440Y455D01*
X1440Y453D01*
X1436Y453D01*
X1436Y433D01*
X1438Y433D01*
X1438Y431D01*
X1442Y431D01*
X1442Y429D01*
X1446Y429D01*
X1446Y427D01*
X1448Y427D01*
X1448Y425D01*
X1452Y425D01*
X1452Y423D01*
X1454Y423D01*
X1454Y421D01*
X1456Y421D01*
X1456Y419D01*
X1458Y419D01*
X1458Y417D01*
X1460Y417D01*
X1460Y415D01*
X1462Y415D01*
X1462Y413D01*
X1464Y413D01*
X1464Y411D01*
X1466Y411D01*
X1466Y409D01*
X1468Y409D01*
X1468Y405D01*
X1470Y405D01*
X1470Y403D01*
X1472Y403D01*
X1472Y399D01*
X1474Y399D01*
X1474Y397D01*
X1476Y397D01*
X1476Y393D01*
X1478Y393D01*
X1478Y389D01*
X1480Y389D01*
X1480Y383D01*
X1482Y383D01*
X1482Y377D01*
X1484Y377D01*
X1484Y367D01*
X1486Y367D01*
X1486Y341D01*
X1484Y341D01*
X1484Y331D01*
X1482Y331D01*
X1482Y325D01*
X1480Y325D01*
X1480Y319D01*
X1478Y319D01*
X1478Y315D01*
X1476Y315D01*
X1476Y311D01*
X1474Y311D01*
X1474Y309D01*
X1472Y309D01*
X1472Y305D01*
X1470Y305D01*
X1470Y303D01*
X1468Y303D01*
X1468Y299D01*
X1466Y299D01*
X1466Y297D01*
X1464Y297D01*
X1464Y295D01*
X1462Y295D01*
X1462Y293D01*
X1460Y293D01*
X1460Y291D01*
X1458Y291D01*
X1458Y289D01*
X1456Y289D01*
X1456Y287D01*
X1454Y287D01*
X1454Y285D01*
X1450Y285D01*
X1450Y283D01*
X1448Y283D01*
X1448Y281D01*
X1444Y281D01*
X1444Y279D01*
X1442Y279D01*
X1442Y277D01*
X1438Y277D01*
X1438Y275D01*
X1434Y275D01*
X1434Y273D01*
X1428Y273D01*
X1428Y271D01*
X1422Y271D01*
X1422Y269D01*
X1412Y269D01*
X1412Y267D01*
X1640Y267D01*
X1640Y269D01*
X1632Y269D01*
X1632Y271D01*
X1624Y271D01*
X1624Y273D01*
X1620Y273D01*
X1620Y275D01*
X1616Y275D01*
X1616Y277D01*
X1612Y277D01*
X1612Y279D01*
X1608Y279D01*
X1608Y281D01*
X1606Y281D01*
X1606Y283D01*
X1602Y283D01*
X1602Y285D01*
X1600Y285D01*
X1600Y287D01*
X1598Y287D01*
X1598Y289D01*
X1596Y289D01*
X1596Y291D01*
X1594Y291D01*
X1594Y293D01*
X1592Y293D01*
X1592Y295D01*
X1590Y295D01*
X1590Y297D01*
X1588Y297D01*
X1588Y299D01*
X1586Y299D01*
X1586Y301D01*
X1584Y301D01*
X1584Y303D01*
X1582Y303D01*
X1582Y307D01*
X1580Y307D01*
X1580Y311D01*
X1578Y311D01*
X1578Y313D01*
X1576Y313D01*
X1576Y317D01*
X1574Y317D01*
X1574Y323D01*
X1572Y323D01*
X1572Y329D01*
X1570Y329D01*
X1570Y335D01*
X1568Y335D01*
X1568Y373D01*
X1570Y373D01*
X1570Y381D01*
X1572Y381D01*
X1572Y385D01*
X1574Y385D01*
X1574Y391D01*
X1576Y391D01*
X1576Y395D01*
X1578Y395D01*
X1578Y399D01*
X1580Y399D01*
X1580Y401D01*
X1582Y401D01*
X1582Y405D01*
X1584Y405D01*
X1584Y407D01*
X1586Y407D01*
X1586Y409D01*
X1588Y409D01*
X1588Y413D01*
X1590Y413D01*
X1590Y415D01*
X1592Y415D01*
X1592Y417D01*
X1594Y417D01*
X1594Y419D01*
X1596Y419D01*
X1596Y421D01*
X1600Y421D01*
X1600Y423D01*
X1602Y423D01*
X1602Y425D01*
X1604Y425D01*
X1604Y427D01*
X1608Y427D01*
X1608Y429D01*
X1610Y429D01*
X1610Y431D01*
X1614Y431D01*
X1614Y433D01*
X1618Y433D01*
X1618Y453D01*
X1614Y453D01*
X1614Y455D01*
X1610Y455D01*
X1610Y457D01*
X1606Y457D01*
X1606Y459D01*
X1604Y459D01*
X1604Y461D01*
X1602Y461D01*
X1602Y463D01*
X1598Y463D01*
X1598Y465D01*
X1596Y465D01*
X1596Y467D01*
X1594Y467D01*
X1594Y469D01*
X1592Y469D01*
X1592Y471D01*
X1590Y471D01*
X1590Y473D01*
X1588Y473D01*
X1588Y475D01*
X1586Y475D01*
X1586Y479D01*
X1584Y479D01*
X1584Y481D01*
X1582Y481D01*
X1582Y485D01*
X1580Y485D01*
X1580Y487D01*
X1578Y487D01*
X1578Y491D01*
X1576Y491D01*
X1576Y495D01*
X1574Y495D01*
X1574Y499D01*
X1572Y499D01*
X1572Y505D01*
X1570Y505D01*
X1570Y513D01*
X1568Y513D01*
X1568Y549D01*
X1570Y549D01*
X1570Y557D01*
X1572Y557D01*
X1572Y563D01*
X1574Y563D01*
X1574Y567D01*
X1576Y567D01*
X1576Y571D01*
X1578Y571D01*
X1578Y575D01*
X1580Y575D01*
X1580Y579D01*
X1582Y579D01*
X1582Y581D01*
X1584Y581D01*
X1584Y585D01*
X1586Y585D01*
X1586Y587D01*
X1588Y587D01*
X1588Y589D01*
X1590Y589D01*
X1590Y591D01*
X1592Y591D01*
X1592Y593D01*
X1594Y593D01*
X1594Y595D01*
X1596Y595D01*
X1596Y597D01*
X1598Y597D01*
X1598Y599D01*
X1600Y599D01*
X1600Y601D01*
X1602Y601D01*
X1602Y603D01*
X1606Y603D01*
X1606Y605D01*
X1608Y605D01*
X1608Y607D01*
X1612Y607D01*
X1612Y609D01*
X1616Y609D01*
X1616Y611D01*
X1620Y611D01*
X1620Y613D01*
X1626Y613D01*
X1626Y615D01*
X1632Y615D01*
X1632Y617D01*
X1642Y617D01*
X1642Y619D01*
X1410Y619D01*
G37*
D02*
G36*
X40Y563D02*
X40Y561D01*
X1316Y561D01*
X1316Y563D01*
X40Y563D01*
G37*
D02*
G36*
X40Y563D02*
X40Y561D01*
X1316Y561D01*
X1316Y563D01*
X40Y563D01*
G37*
D02*
G36*
X40Y563D02*
X40Y561D01*
X1316Y561D01*
X1316Y563D01*
X40Y563D01*
G37*
D02*
G36*
X40Y561D02*
X40Y421D01*
X1136Y421D01*
X1136Y419D01*
X1148Y419D01*
X1148Y417D01*
X1156Y417D01*
X1156Y415D01*
X1162Y415D01*
X1162Y413D01*
X1166Y413D01*
X1166Y411D01*
X1170Y411D01*
X1170Y409D01*
X1174Y409D01*
X1174Y407D01*
X1176Y407D01*
X1176Y405D01*
X1180Y405D01*
X1180Y403D01*
X1182Y403D01*
X1182Y401D01*
X1186Y401D01*
X1186Y399D01*
X1188Y399D01*
X1188Y397D01*
X1190Y397D01*
X1190Y395D01*
X1192Y395D01*
X1192Y393D01*
X1194Y393D01*
X1194Y391D01*
X1196Y391D01*
X1196Y389D01*
X1198Y389D01*
X1198Y385D01*
X1200Y385D01*
X1200Y383D01*
X1202Y383D01*
X1202Y381D01*
X1204Y381D01*
X1204Y377D01*
X1206Y377D01*
X1206Y373D01*
X1208Y373D01*
X1208Y369D01*
X1210Y369D01*
X1210Y365D01*
X1212Y365D01*
X1212Y359D01*
X1214Y359D01*
X1214Y353D01*
X1216Y353D01*
X1216Y341D01*
X1218Y341D01*
X1218Y267D01*
X1384Y267D01*
X1384Y269D01*
X1376Y269D01*
X1376Y271D01*
X1370Y271D01*
X1370Y273D01*
X1364Y273D01*
X1364Y275D01*
X1360Y275D01*
X1360Y277D01*
X1356Y277D01*
X1356Y279D01*
X1352Y279D01*
X1352Y281D01*
X1350Y281D01*
X1350Y283D01*
X1346Y283D01*
X1346Y285D01*
X1344Y285D01*
X1344Y287D01*
X1342Y287D01*
X1342Y289D01*
X1340Y289D01*
X1340Y291D01*
X1338Y291D01*
X1338Y293D01*
X1336Y293D01*
X1336Y295D01*
X1334Y295D01*
X1334Y297D01*
X1332Y297D01*
X1332Y299D01*
X1330Y299D01*
X1330Y301D01*
X1328Y301D01*
X1328Y305D01*
X1326Y305D01*
X1326Y307D01*
X1324Y307D01*
X1324Y311D01*
X1322Y311D01*
X1322Y313D01*
X1320Y313D01*
X1320Y319D01*
X1318Y319D01*
X1318Y323D01*
X1316Y323D01*
X1316Y329D01*
X1314Y329D01*
X1314Y337D01*
X1312Y337D01*
X1312Y373D01*
X1314Y373D01*
X1314Y379D01*
X1316Y379D01*
X1316Y385D01*
X1318Y385D01*
X1318Y391D01*
X1320Y391D01*
X1320Y395D01*
X1322Y395D01*
X1322Y399D01*
X1324Y399D01*
X1324Y401D01*
X1326Y401D01*
X1326Y405D01*
X1328Y405D01*
X1328Y407D01*
X1330Y407D01*
X1330Y409D01*
X1332Y409D01*
X1332Y411D01*
X1334Y411D01*
X1334Y415D01*
X1336Y415D01*
X1336Y417D01*
X1338Y417D01*
X1338Y419D01*
X1342Y419D01*
X1342Y421D01*
X1344Y421D01*
X1344Y423D01*
X1346Y423D01*
X1346Y425D01*
X1348Y425D01*
X1348Y427D01*
X1352Y427D01*
X1352Y429D01*
X1356Y429D01*
X1356Y431D01*
X1358Y431D01*
X1358Y433D01*
X1362Y433D01*
X1362Y453D01*
X1358Y453D01*
X1358Y455D01*
X1354Y455D01*
X1354Y457D01*
X1352Y457D01*
X1352Y459D01*
X1348Y459D01*
X1348Y461D01*
X1346Y461D01*
X1346Y463D01*
X1342Y463D01*
X1342Y465D01*
X1340Y465D01*
X1340Y467D01*
X1338Y467D01*
X1338Y469D01*
X1336Y469D01*
X1336Y471D01*
X1334Y471D01*
X1334Y473D01*
X1332Y473D01*
X1332Y475D01*
X1330Y475D01*
X1330Y479D01*
X1328Y479D01*
X1328Y481D01*
X1326Y481D01*
X1326Y485D01*
X1324Y485D01*
X1324Y487D01*
X1322Y487D01*
X1322Y491D01*
X1320Y491D01*
X1320Y495D01*
X1318Y495D01*
X1318Y501D01*
X1316Y501D01*
X1316Y505D01*
X1314Y505D01*
X1314Y513D01*
X1312Y513D01*
X1312Y549D01*
X1314Y549D01*
X1314Y557D01*
X1316Y557D01*
X1316Y561D01*
X40Y561D01*
G37*
D02*
G36*
X2138Y557D02*
X2138Y555D01*
X2134Y555D01*
X2134Y553D01*
X2128Y553D01*
X2128Y551D01*
X2124Y551D01*
X2124Y549D01*
X2116Y549D01*
X2116Y547D01*
X2182Y547D01*
X2182Y549D01*
X2174Y549D01*
X2174Y551D01*
X2168Y551D01*
X2168Y553D01*
X2164Y553D01*
X2164Y555D01*
X2160Y555D01*
X2160Y557D01*
X2138Y557D01*
G37*
D02*
G36*
X2238Y557D02*
X2238Y555D01*
X2234Y555D01*
X2234Y553D01*
X2228Y553D01*
X2228Y551D01*
X2224Y551D01*
X2224Y549D01*
X2216Y549D01*
X2216Y547D01*
X2282Y547D01*
X2282Y549D01*
X2274Y549D01*
X2274Y551D01*
X2268Y551D01*
X2268Y553D01*
X2262Y553D01*
X2262Y555D01*
X2258Y555D01*
X2258Y557D01*
X2238Y557D01*
G37*
D02*
G36*
X1740Y547D02*
X1740Y545D01*
X2952Y545D01*
X2952Y547D01*
X1740Y547D01*
G37*
D02*
G36*
X1740Y547D02*
X1740Y545D01*
X2952Y545D01*
X2952Y547D01*
X1740Y547D01*
G37*
D02*
G36*
X1740Y547D02*
X1740Y545D01*
X2952Y545D01*
X2952Y547D01*
X1740Y547D01*
G37*
D02*
G36*
X1740Y547D02*
X1740Y545D01*
X2952Y545D01*
X2952Y547D01*
X1740Y547D01*
G37*
D02*
G36*
X1740Y545D02*
X1740Y543D01*
X1742Y543D01*
X1742Y519D01*
X1740Y519D01*
X1740Y509D01*
X1738Y509D01*
X1738Y503D01*
X1736Y503D01*
X1736Y497D01*
X1734Y497D01*
X1734Y493D01*
X1732Y493D01*
X1732Y489D01*
X1730Y489D01*
X1730Y485D01*
X1728Y485D01*
X1728Y483D01*
X1726Y483D01*
X1726Y479D01*
X1724Y479D01*
X1724Y477D01*
X1722Y477D01*
X1722Y475D01*
X1720Y475D01*
X1720Y473D01*
X1718Y473D01*
X1718Y471D01*
X1716Y471D01*
X1716Y469D01*
X1714Y469D01*
X1714Y467D01*
X1712Y467D01*
X1712Y465D01*
X1710Y465D01*
X1710Y463D01*
X1708Y463D01*
X1708Y461D01*
X1704Y461D01*
X1704Y459D01*
X1702Y459D01*
X1702Y457D01*
X1698Y457D01*
X1698Y455D01*
X1696Y455D01*
X1696Y453D01*
X1690Y453D01*
X1690Y433D01*
X1694Y433D01*
X1694Y431D01*
X1698Y431D01*
X1698Y429D01*
X1702Y429D01*
X1702Y427D01*
X1704Y427D01*
X1704Y425D01*
X1708Y425D01*
X1708Y423D01*
X1710Y423D01*
X1710Y421D01*
X1712Y421D01*
X1712Y419D01*
X2308Y419D01*
X2308Y417D01*
X2318Y417D01*
X2318Y415D01*
X2326Y415D01*
X2326Y413D01*
X2332Y413D01*
X2332Y411D01*
X2336Y411D01*
X2336Y409D01*
X2340Y409D01*
X2340Y407D01*
X2342Y407D01*
X2342Y405D01*
X2346Y405D01*
X2346Y403D01*
X2348Y403D01*
X2348Y401D01*
X2352Y401D01*
X2352Y399D01*
X2354Y399D01*
X2354Y397D01*
X2356Y397D01*
X2356Y395D01*
X2358Y395D01*
X2358Y393D01*
X2360Y393D01*
X2360Y391D01*
X2362Y391D01*
X2362Y389D01*
X2364Y389D01*
X2364Y387D01*
X2366Y387D01*
X2366Y383D01*
X2368Y383D01*
X2368Y381D01*
X2370Y381D01*
X2370Y377D01*
X2372Y377D01*
X2372Y373D01*
X2374Y373D01*
X2374Y369D01*
X2376Y369D01*
X2376Y365D01*
X2378Y365D01*
X2378Y359D01*
X2380Y359D01*
X2380Y353D01*
X2382Y353D01*
X2382Y345D01*
X2806Y345D01*
X2806Y343D01*
X2822Y343D01*
X2822Y341D01*
X2830Y341D01*
X2830Y339D01*
X2836Y339D01*
X2836Y337D01*
X2842Y337D01*
X2842Y335D01*
X2846Y335D01*
X2846Y333D01*
X2850Y333D01*
X2850Y331D01*
X2854Y331D01*
X2854Y329D01*
X2856Y329D01*
X2856Y327D01*
X2860Y327D01*
X2860Y325D01*
X2864Y325D01*
X2864Y323D01*
X2866Y323D01*
X2866Y321D01*
X2868Y321D01*
X2868Y319D01*
X2872Y319D01*
X2872Y317D01*
X2874Y317D01*
X2874Y315D01*
X2876Y315D01*
X2876Y313D01*
X2878Y313D01*
X2878Y311D01*
X2880Y311D01*
X2880Y309D01*
X2882Y309D01*
X2882Y307D01*
X2884Y307D01*
X2884Y305D01*
X2886Y305D01*
X2886Y301D01*
X2888Y301D01*
X2888Y299D01*
X2890Y299D01*
X2890Y297D01*
X2892Y297D01*
X2892Y293D01*
X2894Y293D01*
X2894Y291D01*
X2896Y291D01*
X2896Y287D01*
X2898Y287D01*
X2898Y283D01*
X2900Y283D01*
X2900Y279D01*
X2902Y279D01*
X2902Y275D01*
X2904Y275D01*
X2904Y269D01*
X2906Y269D01*
X2906Y263D01*
X2908Y263D01*
X2908Y255D01*
X2910Y255D01*
X2910Y241D01*
X2912Y241D01*
X2912Y221D01*
X2910Y221D01*
X2910Y207D01*
X2908Y207D01*
X2908Y201D01*
X2906Y201D01*
X2906Y193D01*
X2904Y193D01*
X2904Y189D01*
X2902Y189D01*
X2902Y183D01*
X2900Y183D01*
X2900Y179D01*
X2898Y179D01*
X2898Y177D01*
X2896Y177D01*
X2896Y173D01*
X2894Y173D01*
X2894Y169D01*
X2892Y169D01*
X2892Y167D01*
X2890Y167D01*
X2890Y163D01*
X2888Y163D01*
X2888Y161D01*
X2886Y161D01*
X2886Y159D01*
X2884Y159D01*
X2884Y157D01*
X2882Y157D01*
X2882Y155D01*
X2880Y155D01*
X2880Y153D01*
X2878Y153D01*
X2878Y151D01*
X2876Y151D01*
X2876Y149D01*
X2874Y149D01*
X2874Y147D01*
X2872Y147D01*
X2872Y145D01*
X2870Y145D01*
X2870Y143D01*
X2868Y143D01*
X2868Y141D01*
X2864Y141D01*
X2864Y139D01*
X2862Y139D01*
X2862Y137D01*
X2858Y137D01*
X2858Y135D01*
X2856Y135D01*
X2856Y133D01*
X2852Y133D01*
X2852Y131D01*
X2848Y131D01*
X2848Y129D01*
X2844Y129D01*
X2844Y127D01*
X2838Y127D01*
X2838Y125D01*
X2834Y125D01*
X2834Y123D01*
X2826Y123D01*
X2826Y121D01*
X2816Y121D01*
X2816Y119D01*
X2952Y119D01*
X2952Y545D01*
X1740Y545D01*
G37*
D02*
G36*
X40Y421D02*
X40Y345D01*
X206Y345D01*
X206Y343D01*
X222Y343D01*
X222Y341D01*
X230Y341D01*
X230Y339D01*
X236Y339D01*
X236Y337D01*
X242Y337D01*
X242Y335D01*
X246Y335D01*
X246Y333D01*
X250Y333D01*
X250Y331D01*
X254Y331D01*
X254Y329D01*
X256Y329D01*
X256Y327D01*
X260Y327D01*
X260Y325D01*
X264Y325D01*
X264Y323D01*
X266Y323D01*
X266Y321D01*
X268Y321D01*
X268Y319D01*
X272Y319D01*
X272Y317D01*
X274Y317D01*
X274Y315D01*
X276Y315D01*
X276Y313D01*
X278Y313D01*
X278Y311D01*
X280Y311D01*
X280Y309D01*
X282Y309D01*
X282Y307D01*
X284Y307D01*
X284Y305D01*
X286Y305D01*
X286Y301D01*
X288Y301D01*
X288Y299D01*
X290Y299D01*
X290Y297D01*
X310Y297D01*
X310Y347D01*
X312Y347D01*
X312Y355D01*
X314Y355D01*
X314Y361D01*
X316Y361D01*
X316Y367D01*
X318Y367D01*
X318Y371D01*
X320Y371D01*
X320Y375D01*
X322Y375D01*
X322Y379D01*
X324Y379D01*
X324Y381D01*
X326Y381D01*
X326Y385D01*
X328Y385D01*
X328Y387D01*
X330Y387D01*
X330Y389D01*
X332Y389D01*
X332Y391D01*
X334Y391D01*
X334Y393D01*
X336Y393D01*
X336Y395D01*
X338Y395D01*
X338Y397D01*
X340Y397D01*
X340Y399D01*
X342Y399D01*
X342Y401D01*
X344Y401D01*
X344Y403D01*
X348Y403D01*
X348Y405D01*
X350Y405D01*
X350Y407D01*
X354Y407D01*
X354Y409D01*
X358Y409D01*
X358Y411D01*
X362Y411D01*
X362Y413D01*
X366Y413D01*
X366Y415D01*
X372Y415D01*
X372Y417D01*
X378Y417D01*
X378Y419D01*
X392Y419D01*
X392Y421D01*
X40Y421D01*
G37*
D02*
G36*
X406Y421D02*
X406Y419D01*
X418Y419D01*
X418Y417D01*
X426Y417D01*
X426Y415D01*
X432Y415D01*
X432Y413D01*
X436Y413D01*
X436Y411D01*
X440Y411D01*
X440Y409D01*
X444Y409D01*
X444Y407D01*
X446Y407D01*
X446Y405D01*
X450Y405D01*
X450Y403D01*
X452Y403D01*
X452Y401D01*
X456Y401D01*
X456Y399D01*
X458Y399D01*
X458Y397D01*
X460Y397D01*
X460Y395D01*
X462Y395D01*
X462Y393D01*
X464Y393D01*
X464Y391D01*
X466Y391D01*
X466Y389D01*
X468Y389D01*
X468Y385D01*
X470Y385D01*
X470Y383D01*
X472Y383D01*
X472Y381D01*
X474Y381D01*
X474Y377D01*
X476Y377D01*
X476Y373D01*
X478Y373D01*
X478Y369D01*
X480Y369D01*
X480Y365D01*
X482Y365D01*
X482Y359D01*
X484Y359D01*
X484Y353D01*
X486Y353D01*
X486Y341D01*
X488Y341D01*
X488Y143D01*
X1040Y143D01*
X1040Y347D01*
X1042Y347D01*
X1042Y355D01*
X1044Y355D01*
X1044Y361D01*
X1046Y361D01*
X1046Y367D01*
X1048Y367D01*
X1048Y371D01*
X1050Y371D01*
X1050Y375D01*
X1052Y375D01*
X1052Y379D01*
X1054Y379D01*
X1054Y381D01*
X1056Y381D01*
X1056Y385D01*
X1058Y385D01*
X1058Y387D01*
X1060Y387D01*
X1060Y389D01*
X1062Y389D01*
X1062Y391D01*
X1064Y391D01*
X1064Y393D01*
X1066Y393D01*
X1066Y395D01*
X1068Y395D01*
X1068Y397D01*
X1070Y397D01*
X1070Y399D01*
X1072Y399D01*
X1072Y401D01*
X1074Y401D01*
X1074Y403D01*
X1078Y403D01*
X1078Y405D01*
X1080Y405D01*
X1080Y407D01*
X1084Y407D01*
X1084Y409D01*
X1086Y409D01*
X1086Y411D01*
X1092Y411D01*
X1092Y413D01*
X1096Y413D01*
X1096Y415D01*
X1102Y415D01*
X1102Y417D01*
X1108Y417D01*
X1108Y419D01*
X1122Y419D01*
X1122Y421D01*
X406Y421D01*
G37*
D02*
G36*
X1714Y419D02*
X1714Y417D01*
X1716Y417D01*
X1716Y415D01*
X1718Y415D01*
X1718Y413D01*
X1720Y413D01*
X1720Y411D01*
X1722Y411D01*
X1722Y409D01*
X1724Y409D01*
X1724Y405D01*
X1726Y405D01*
X1726Y403D01*
X1728Y403D01*
X1728Y399D01*
X1730Y399D01*
X1730Y397D01*
X1732Y397D01*
X1732Y393D01*
X1734Y393D01*
X1734Y389D01*
X1736Y389D01*
X1736Y383D01*
X1738Y383D01*
X1738Y377D01*
X1740Y377D01*
X1740Y367D01*
X1742Y367D01*
X1742Y343D01*
X1740Y343D01*
X1740Y333D01*
X1738Y333D01*
X1738Y325D01*
X1736Y325D01*
X1736Y321D01*
X1734Y321D01*
X1734Y315D01*
X1732Y315D01*
X1732Y311D01*
X1730Y311D01*
X1730Y309D01*
X1728Y309D01*
X1728Y305D01*
X1726Y305D01*
X1726Y303D01*
X1724Y303D01*
X1724Y299D01*
X1722Y299D01*
X1722Y297D01*
X1720Y297D01*
X1720Y295D01*
X1718Y295D01*
X1718Y293D01*
X1716Y293D01*
X1716Y291D01*
X1714Y291D01*
X1714Y289D01*
X1712Y289D01*
X1712Y287D01*
X1710Y287D01*
X1710Y285D01*
X1706Y285D01*
X1706Y283D01*
X1704Y283D01*
X1704Y281D01*
X1700Y281D01*
X1700Y279D01*
X1698Y279D01*
X1698Y277D01*
X1694Y277D01*
X1694Y275D01*
X1690Y275D01*
X1690Y273D01*
X1684Y273D01*
X1684Y271D01*
X1678Y271D01*
X1678Y269D01*
X1668Y269D01*
X1668Y267D01*
X2044Y267D01*
X2044Y269D01*
X2042Y269D01*
X2042Y271D01*
X2040Y271D01*
X2040Y273D01*
X2038Y273D01*
X2038Y275D01*
X2036Y275D01*
X2036Y277D01*
X2034Y277D01*
X2034Y279D01*
X2032Y279D01*
X2032Y281D01*
X2030Y281D01*
X2030Y285D01*
X2028Y285D01*
X2028Y287D01*
X2026Y287D01*
X2026Y291D01*
X2024Y291D01*
X2024Y295D01*
X2022Y295D01*
X2022Y299D01*
X2020Y299D01*
X2020Y303D01*
X2018Y303D01*
X2018Y309D01*
X2016Y309D01*
X2016Y317D01*
X2014Y317D01*
X2014Y349D01*
X2016Y349D01*
X2016Y357D01*
X2018Y357D01*
X2018Y363D01*
X2020Y363D01*
X2020Y369D01*
X2022Y369D01*
X2022Y373D01*
X2024Y373D01*
X2024Y377D01*
X2026Y377D01*
X2026Y379D01*
X2028Y379D01*
X2028Y383D01*
X2030Y383D01*
X2030Y385D01*
X2032Y385D01*
X2032Y387D01*
X2034Y387D01*
X2034Y389D01*
X2036Y389D01*
X2036Y393D01*
X2038Y393D01*
X2038Y395D01*
X2040Y395D01*
X2040Y397D01*
X2044Y397D01*
X2044Y399D01*
X2046Y399D01*
X2046Y401D01*
X2048Y401D01*
X2048Y403D01*
X2050Y403D01*
X2050Y405D01*
X2054Y405D01*
X2054Y407D01*
X2058Y407D01*
X2058Y409D01*
X2062Y409D01*
X2062Y411D01*
X2066Y411D01*
X2066Y413D01*
X2072Y413D01*
X2072Y415D01*
X2078Y415D01*
X2078Y417D01*
X2088Y417D01*
X2088Y419D01*
X1714Y419D01*
G37*
D02*
G36*
X2108Y419D02*
X2108Y417D01*
X2120Y417D01*
X2120Y415D01*
X2126Y415D01*
X2126Y413D01*
X2132Y413D01*
X2132Y411D01*
X2136Y411D01*
X2136Y409D01*
X2162Y409D01*
X2162Y411D01*
X2166Y411D01*
X2166Y413D01*
X2172Y413D01*
X2172Y415D01*
X2178Y415D01*
X2178Y417D01*
X2188Y417D01*
X2188Y419D01*
X2108Y419D01*
G37*
D02*
G36*
X2208Y419D02*
X2208Y417D01*
X2218Y417D01*
X2218Y415D01*
X2226Y415D01*
X2226Y413D01*
X2232Y413D01*
X2232Y411D01*
X2236Y411D01*
X2236Y409D01*
X2262Y409D01*
X2262Y411D01*
X2266Y411D01*
X2266Y413D01*
X2270Y413D01*
X2270Y415D01*
X2278Y415D01*
X2278Y417D01*
X2288Y417D01*
X2288Y419D01*
X2208Y419D01*
G37*
D02*
G36*
X40Y345D02*
X40Y119D01*
X180Y119D01*
X180Y121D01*
X170Y121D01*
X170Y123D01*
X164Y123D01*
X164Y125D01*
X158Y125D01*
X158Y127D01*
X154Y127D01*
X154Y129D01*
X150Y129D01*
X150Y131D01*
X144Y131D01*
X144Y133D01*
X142Y133D01*
X142Y135D01*
X138Y135D01*
X138Y137D01*
X136Y137D01*
X136Y139D01*
X132Y139D01*
X132Y141D01*
X130Y141D01*
X130Y143D01*
X128Y143D01*
X128Y145D01*
X124Y145D01*
X124Y147D01*
X122Y147D01*
X122Y149D01*
X120Y149D01*
X120Y151D01*
X118Y151D01*
X118Y153D01*
X116Y153D01*
X116Y155D01*
X114Y155D01*
X114Y157D01*
X112Y157D01*
X112Y161D01*
X110Y161D01*
X110Y163D01*
X108Y163D01*
X108Y165D01*
X106Y165D01*
X106Y169D01*
X104Y169D01*
X104Y171D01*
X102Y171D01*
X102Y175D01*
X100Y175D01*
X100Y179D01*
X98Y179D01*
X98Y183D01*
X96Y183D01*
X96Y187D01*
X94Y187D01*
X94Y191D01*
X92Y191D01*
X92Y197D01*
X90Y197D01*
X90Y205D01*
X88Y205D01*
X88Y215D01*
X86Y215D01*
X86Y249D01*
X88Y249D01*
X88Y259D01*
X90Y259D01*
X90Y265D01*
X92Y265D01*
X92Y271D01*
X94Y271D01*
X94Y277D01*
X96Y277D01*
X96Y281D01*
X98Y281D01*
X98Y285D01*
X100Y285D01*
X100Y289D01*
X102Y289D01*
X102Y291D01*
X104Y291D01*
X104Y295D01*
X106Y295D01*
X106Y297D01*
X108Y297D01*
X108Y301D01*
X110Y301D01*
X110Y303D01*
X112Y303D01*
X112Y305D01*
X114Y305D01*
X114Y307D01*
X116Y307D01*
X116Y309D01*
X118Y309D01*
X118Y311D01*
X120Y311D01*
X120Y313D01*
X122Y313D01*
X122Y315D01*
X124Y315D01*
X124Y317D01*
X126Y317D01*
X126Y319D01*
X128Y319D01*
X128Y321D01*
X132Y321D01*
X132Y323D01*
X134Y323D01*
X134Y325D01*
X136Y325D01*
X136Y327D01*
X140Y327D01*
X140Y329D01*
X144Y329D01*
X144Y331D01*
X148Y331D01*
X148Y333D01*
X152Y333D01*
X152Y335D01*
X156Y335D01*
X156Y337D01*
X162Y337D01*
X162Y339D01*
X168Y339D01*
X168Y341D01*
X176Y341D01*
X176Y343D01*
X192Y343D01*
X192Y345D01*
X40Y345D01*
G37*
D02*
G36*
X2382Y345D02*
X2382Y339D01*
X2384Y339D01*
X2384Y329D01*
X2382Y329D01*
X2382Y315D01*
X2380Y315D01*
X2380Y307D01*
X2378Y307D01*
X2378Y301D01*
X2376Y301D01*
X2376Y297D01*
X2374Y297D01*
X2374Y293D01*
X2372Y293D01*
X2372Y289D01*
X2370Y289D01*
X2370Y287D01*
X2368Y287D01*
X2368Y283D01*
X2366Y283D01*
X2366Y281D01*
X2364Y281D01*
X2364Y279D01*
X2362Y279D01*
X2362Y277D01*
X2360Y277D01*
X2360Y275D01*
X2358Y275D01*
X2358Y273D01*
X2356Y273D01*
X2356Y271D01*
X2354Y271D01*
X2354Y269D01*
X2352Y269D01*
X2352Y267D01*
X2350Y267D01*
X2350Y265D01*
X2348Y265D01*
X2348Y263D01*
X2344Y263D01*
X2344Y261D01*
X2340Y261D01*
X2340Y259D01*
X2338Y259D01*
X2338Y257D01*
X2334Y257D01*
X2334Y255D01*
X2328Y255D01*
X2328Y253D01*
X2322Y253D01*
X2322Y251D01*
X2314Y251D01*
X2314Y249D01*
X2688Y249D01*
X2688Y259D01*
X2690Y259D01*
X2690Y265D01*
X2692Y265D01*
X2692Y271D01*
X2694Y271D01*
X2694Y277D01*
X2696Y277D01*
X2696Y281D01*
X2698Y281D01*
X2698Y285D01*
X2700Y285D01*
X2700Y289D01*
X2702Y289D01*
X2702Y291D01*
X2704Y291D01*
X2704Y295D01*
X2706Y295D01*
X2706Y297D01*
X2708Y297D01*
X2708Y301D01*
X2710Y301D01*
X2710Y303D01*
X2712Y303D01*
X2712Y305D01*
X2714Y305D01*
X2714Y307D01*
X2716Y307D01*
X2716Y309D01*
X2718Y309D01*
X2718Y311D01*
X2720Y311D01*
X2720Y313D01*
X2722Y313D01*
X2722Y315D01*
X2724Y315D01*
X2724Y317D01*
X2726Y317D01*
X2726Y319D01*
X2728Y319D01*
X2728Y321D01*
X2732Y321D01*
X2732Y323D01*
X2734Y323D01*
X2734Y325D01*
X2736Y325D01*
X2736Y327D01*
X2740Y327D01*
X2740Y329D01*
X2744Y329D01*
X2744Y331D01*
X2748Y331D01*
X2748Y333D01*
X2752Y333D01*
X2752Y335D01*
X2756Y335D01*
X2756Y337D01*
X2762Y337D01*
X2762Y339D01*
X2768Y339D01*
X2768Y341D01*
X2776Y341D01*
X2776Y343D01*
X2792Y343D01*
X2792Y345D01*
X2382Y345D01*
G37*
D02*
G36*
X1218Y267D02*
X1218Y265D01*
X2046Y265D01*
X2046Y267D01*
X1218Y267D01*
G37*
D02*
G36*
X1218Y267D02*
X1218Y265D01*
X2046Y265D01*
X2046Y267D01*
X1218Y267D01*
G37*
D02*
G36*
X1218Y267D02*
X1218Y265D01*
X2046Y265D01*
X2046Y267D01*
X1218Y267D01*
G37*
D02*
G36*
X1218Y265D02*
X1218Y249D01*
X2082Y249D01*
X2082Y251D01*
X2074Y251D01*
X2074Y253D01*
X2068Y253D01*
X2068Y255D01*
X2064Y255D01*
X2064Y257D01*
X2060Y257D01*
X2060Y259D01*
X2056Y259D01*
X2056Y261D01*
X2052Y261D01*
X2052Y263D01*
X2050Y263D01*
X2050Y265D01*
X1218Y265D01*
G37*
D02*
G36*
X2138Y259D02*
X2138Y257D01*
X2134Y257D01*
X2134Y255D01*
X2128Y255D01*
X2128Y253D01*
X2122Y253D01*
X2122Y251D01*
X2116Y251D01*
X2116Y249D01*
X2182Y249D01*
X2182Y251D01*
X2174Y251D01*
X2174Y253D01*
X2168Y253D01*
X2168Y255D01*
X2164Y255D01*
X2164Y257D01*
X2160Y257D01*
X2160Y259D01*
X2138Y259D01*
G37*
D02*
G36*
X2238Y259D02*
X2238Y257D01*
X2234Y257D01*
X2234Y255D01*
X2228Y255D01*
X2228Y253D01*
X2222Y253D01*
X2222Y251D01*
X2216Y251D01*
X2216Y249D01*
X2282Y249D01*
X2282Y251D01*
X2274Y251D01*
X2274Y253D01*
X2268Y253D01*
X2268Y255D01*
X2264Y255D01*
X2264Y257D01*
X2260Y257D01*
X2260Y259D01*
X2238Y259D01*
G37*
D02*
G36*
X1218Y249D02*
X1218Y247D01*
X2686Y247D01*
X2686Y249D01*
X1218Y249D01*
G37*
D02*
G36*
X1218Y249D02*
X1218Y247D01*
X2686Y247D01*
X2686Y249D01*
X1218Y249D01*
G37*
D02*
G36*
X1218Y249D02*
X1218Y247D01*
X2686Y247D01*
X2686Y249D01*
X1218Y249D01*
G37*
D02*
G36*
X1218Y249D02*
X1218Y247D01*
X2686Y247D01*
X2686Y249D01*
X1218Y249D01*
G37*
D02*
G36*
X1218Y247D02*
X1218Y143D01*
X2728Y143D01*
X2728Y145D01*
X2724Y145D01*
X2724Y147D01*
X2722Y147D01*
X2722Y149D01*
X2720Y149D01*
X2720Y151D01*
X2718Y151D01*
X2718Y153D01*
X2716Y153D01*
X2716Y155D01*
X2714Y155D01*
X2714Y157D01*
X2712Y157D01*
X2712Y161D01*
X2710Y161D01*
X2710Y163D01*
X2708Y163D01*
X2708Y165D01*
X2706Y165D01*
X2706Y169D01*
X2704Y169D01*
X2704Y171D01*
X2702Y171D01*
X2702Y175D01*
X2700Y175D01*
X2700Y179D01*
X2698Y179D01*
X2698Y183D01*
X2696Y183D01*
X2696Y187D01*
X2694Y187D01*
X2694Y191D01*
X2692Y191D01*
X2692Y197D01*
X2690Y197D01*
X2690Y205D01*
X2688Y205D01*
X2688Y215D01*
X2686Y215D01*
X2686Y247D01*
X1218Y247D01*
G37*
D02*
G36*
X290Y167D02*
X290Y163D01*
X288Y163D01*
X288Y161D01*
X286Y161D01*
X286Y159D01*
X284Y159D01*
X284Y157D01*
X282Y157D01*
X282Y155D01*
X280Y155D01*
X280Y153D01*
X278Y153D01*
X278Y151D01*
X276Y151D01*
X276Y149D01*
X274Y149D01*
X274Y147D01*
X272Y147D01*
X272Y145D01*
X270Y145D01*
X270Y143D01*
X310Y143D01*
X310Y167D01*
X290Y167D01*
G37*
D02*
G36*
X268Y143D02*
X268Y141D01*
X2730Y141D01*
X2730Y143D01*
X268Y143D01*
G37*
D02*
G36*
X268Y143D02*
X268Y141D01*
X2730Y141D01*
X2730Y143D01*
X268Y143D01*
G37*
D02*
G36*
X268Y143D02*
X268Y141D01*
X2730Y141D01*
X2730Y143D01*
X268Y143D01*
G37*
D02*
G36*
X264Y141D02*
X264Y139D01*
X262Y139D01*
X262Y137D01*
X258Y137D01*
X258Y135D01*
X256Y135D01*
X256Y133D01*
X252Y133D01*
X252Y131D01*
X248Y131D01*
X248Y129D01*
X244Y129D01*
X244Y127D01*
X238Y127D01*
X238Y125D01*
X234Y125D01*
X234Y123D01*
X226Y123D01*
X226Y121D01*
X216Y121D01*
X216Y119D01*
X2780Y119D01*
X2780Y121D01*
X2770Y121D01*
X2770Y123D01*
X2764Y123D01*
X2764Y125D01*
X2758Y125D01*
X2758Y127D01*
X2754Y127D01*
X2754Y129D01*
X2750Y129D01*
X2750Y131D01*
X2744Y131D01*
X2744Y133D01*
X2742Y133D01*
X2742Y135D01*
X2738Y135D01*
X2738Y137D01*
X2736Y137D01*
X2736Y139D01*
X2732Y139D01*
X2732Y141D01*
X264Y141D01*
G37*
D02*
G36*
X40Y119D02*
X40Y117D01*
X2952Y117D01*
X2952Y119D01*
X40Y119D01*
G37*
D02*
G36*
X40Y119D02*
X40Y117D01*
X2952Y117D01*
X2952Y119D01*
X40Y119D01*
G37*
D02*
G36*
X40Y119D02*
X40Y117D01*
X2952Y117D01*
X2952Y119D01*
X40Y119D01*
G37*
D02*
G36*
X40Y117D02*
X40Y41D01*
X2952Y41D01*
X2952Y117D01*
X40Y117D01*
G37*
D02*
G36*
X375Y635D02*
X420Y635D01*
X420Y563D01*
X375Y563D01*
X375Y635D01*
G37*
D02*
G36*
X306Y676D02*
X378Y676D01*
X378Y631D01*
X306Y631D01*
X306Y676D01*
G37*
D02*
G36*
X416Y676D02*
X488Y676D01*
X488Y631D01*
X416Y631D01*
X416Y676D01*
G37*
D02*
G36*
X375Y845D02*
X420Y845D01*
X420Y773D01*
X375Y773D01*
X375Y845D01*
G37*
D02*
G36*
X306Y776D02*
X378Y776D01*
X378Y731D01*
X306Y731D01*
X306Y776D01*
G37*
D02*
G36*
X416Y776D02*
X488Y776D01*
X488Y731D01*
X416Y731D01*
X416Y776D01*
G37*
D02*
G36*
X1105Y635D02*
X1150Y635D01*
X1150Y563D01*
X1105Y563D01*
X1105Y635D01*
G37*
D02*
G36*
X1036Y676D02*
X1108Y676D01*
X1108Y631D01*
X1036Y631D01*
X1036Y676D01*
G37*
D02*
G36*
X1146Y676D02*
X1218Y676D01*
X1218Y631D01*
X1146Y631D01*
X1146Y676D01*
G37*
D02*
G36*
X1105Y845D02*
X1150Y845D01*
X1150Y773D01*
X1105Y773D01*
X1105Y845D01*
G37*
D02*
G36*
X1036Y776D02*
X1108Y776D01*
X1108Y731D01*
X1036Y731D01*
X1036Y776D01*
G37*
D02*
G36*
X275Y1325D02*
X320Y1325D01*
X320Y1253D01*
X275Y1253D01*
X275Y1325D01*
G37*
D02*
G36*
X275Y1215D02*
X320Y1215D01*
X320Y1141D01*
X275Y1141D01*
X275Y1215D01*
G37*
D02*
G36*
X204Y1256D02*
X278Y1256D01*
X278Y1211D01*
X204Y1211D01*
X204Y1256D01*
G37*
D02*
G36*
X316Y1256D02*
X388Y1256D01*
X388Y1211D01*
X316Y1211D01*
X316Y1256D01*
G37*
D02*
G36*
X1276Y823D02*
X1319Y823D01*
X1319Y751D01*
X1276Y751D01*
X1276Y823D01*
G37*
D02*
G36*
X1276Y717D02*
X1319Y717D01*
X1319Y643D01*
X1276Y643D01*
X1276Y717D01*
G37*
D02*
G36*
X1314Y755D02*
X1386Y755D01*
X1386Y712D01*
X1314Y712D01*
X1314Y755D01*
G37*
D02*
G36*
X2272Y2831D02*
X2323Y2831D01*
X2323Y2759D01*
X2272Y2759D01*
X2272Y2831D01*
G37*
D02*
G36*
X2272Y2709D02*
X2323Y2709D01*
X2323Y2635D01*
X2272Y2635D01*
X2272Y2709D01*
G37*
D02*
G36*
X2198Y2759D02*
X2272Y2759D01*
X2272Y2708D01*
X2198Y2708D01*
X2198Y2759D01*
G37*
D02*
G36*
X2322Y2759D02*
X2394Y2759D01*
X2394Y2708D01*
X2322Y2708D01*
X2322Y2759D01*
G37*
D02*
G36*
X2375Y3225D02*
X2420Y3225D01*
X2420Y3153D01*
X2375Y3153D01*
X2375Y3225D01*
G37*
D02*
G36*
X2375Y3115D02*
X2420Y3115D01*
X2420Y3041D01*
X2375Y3041D01*
X2375Y3115D01*
G37*
D02*
G36*
X2304Y3156D02*
X2378Y3156D01*
X2378Y3111D01*
X2304Y3111D01*
X2304Y3156D01*
G37*
D02*
G36*
X2416Y3156D02*
X2488Y3156D01*
X2488Y3111D01*
X2416Y3111D01*
X2416Y3156D01*
G37*
D02*
G36*
X2575Y1131D02*
X2616Y1131D01*
X2616Y1053D01*
X2575Y1053D01*
X2575Y1131D01*
G37*
D02*
G36*
X2575Y1015D02*
X2616Y1015D01*
X2616Y937D01*
X2575Y937D01*
X2575Y1015D01*
G37*
D02*
G36*
X2614Y1056D02*
X2684Y1056D01*
X2684Y1011D01*
X2614Y1011D01*
X2614Y1056D01*
G37*
D02*
G36*
X2277Y423D02*
X2318Y423D01*
X2318Y357D01*
X2277Y357D01*
X2277Y423D01*
G37*
D02*
G36*
X2277Y315D02*
X2318Y315D01*
X2318Y249D01*
X2277Y249D01*
X2277Y315D01*
G37*
D02*
G36*
X2318Y356D02*
X2384Y356D01*
X2384Y315D01*
X2318Y315D01*
X2318Y356D01*
G37*
D02*
G36*
X2076Y2617D02*
X2119Y2617D01*
X2119Y2543D01*
X2076Y2543D01*
X2076Y2617D01*
G37*
D02*
G36*
X2114Y2655D02*
X2186Y2655D01*
X2186Y2612D01*
X2114Y2612D01*
X2114Y2655D01*
G37*
D02*
G36*
X2175Y3225D02*
X2220Y3225D01*
X2220Y3153D01*
X2175Y3153D01*
X2175Y3225D01*
G37*
D02*
G36*
X2175Y3115D02*
X2220Y3115D01*
X2220Y3041D01*
X2175Y3041D01*
X2175Y3115D01*
G37*
D02*
G36*
X2104Y3156D02*
X2178Y3156D01*
X2178Y3111D01*
X2104Y3111D01*
X2104Y3156D01*
G37*
D02*
G36*
X2216Y3156D02*
X2288Y3156D01*
X2288Y3111D01*
X2216Y3111D01*
X2216Y3156D01*
G37*
D02*
G36*
X1975Y1131D02*
X2016Y1131D01*
X2016Y1053D01*
X1975Y1053D01*
X1975Y1131D01*
G37*
D02*
G36*
X1975Y1015D02*
X2016Y1015D01*
X2016Y937D01*
X1975Y937D01*
X1975Y1015D01*
G37*
D02*
G36*
X1275Y2115D02*
X1316Y2115D01*
X1316Y2039D01*
X1275Y2039D01*
X1275Y2115D01*
G37*
D02*
G36*
X1275Y2001D02*
X1316Y2001D01*
X1316Y1923D01*
X1275Y1923D01*
X1275Y2001D01*
G37*
D02*
G36*
X2277Y721D02*
X2318Y721D01*
X2318Y655D01*
X2277Y655D01*
X2277Y721D01*
G37*
D02*
G36*
X2277Y613D02*
X2318Y613D01*
X2318Y547D01*
X2277Y547D01*
X2277Y613D01*
G37*
D02*
G36*
X2318Y654D02*
X2384Y654D01*
X2384Y613D01*
X2318Y613D01*
X2318Y654D01*
G37*
D02*
G36*
X1076Y2723D02*
X1119Y2723D01*
X1119Y2651D01*
X1076Y2651D01*
X1076Y2723D01*
G37*
D02*
G36*
X1076Y2617D02*
X1119Y2617D01*
X1119Y2543D01*
X1076Y2543D01*
X1076Y2617D01*
G37*
D02*
G36*
X1114Y2655D02*
X1186Y2655D01*
X1186Y2612D01*
X1114Y2612D01*
X1114Y2655D01*
G37*
D02*
G36*
X1175Y3225D02*
X1220Y3225D01*
X1220Y3153D01*
X1175Y3153D01*
X1175Y3225D01*
G37*
D02*
G36*
X1175Y3115D02*
X1220Y3115D01*
X1220Y3041D01*
X1175Y3041D01*
X1175Y3115D01*
G37*
D02*
G36*
X1104Y3156D02*
X1178Y3156D01*
X1178Y3111D01*
X1104Y3111D01*
X1104Y3156D01*
G37*
D02*
G36*
X1216Y3156D02*
X1288Y3156D01*
X1288Y3111D01*
X1216Y3111D01*
X1216Y3156D01*
G37*
D02*
G04 End of Copper1*
M02*