G04 MADE WITH FRITZING*
G04 WWW.FRITZING.ORG*
G04 DOUBLE SIDED*
G04 HOLES PLATED*
G04 CONTOUR ON CENTER OF CONTOUR VECTOR*
%ASAXBY*%
%FSLAX23Y23*%
%MOIN*%
%OFA0B0*%
%SFA1.0B1.0*%
%ADD10C,0.075000*%
%ADD11C,0.091180*%
%ADD12C,0.039370*%
%ADD13C,0.071828*%
%ADD14C,0.080000*%
%ADD15C,0.079370*%
%ADD16C,0.078000*%
%ADD17C,0.070277*%
%ADD18R,0.091000X0.091000*%
%ADD19R,0.075000X0.075000*%
%ADD20R,0.080000X0.080000*%
%ADD21R,0.079370X0.079370*%
%ADD22R,0.078000X0.078000*%
%ADD23C,0.024000*%
%ADD24C,0.048000*%
%LNCOPPER0*%
G90*
G70*
G54D10*
X123Y3344D03*
G54D11*
X2299Y2731D03*
X2298Y2251D03*
X2776Y2251D03*
X2771Y2731D03*
X2535Y2810D03*
G54D12*
X2499Y2331D03*
G54D13*
X2597Y2017D03*
X2497Y2017D03*
X2398Y2017D03*
X2297Y2017D03*
X2198Y2017D03*
X2098Y2017D03*
X1997Y2017D03*
X1898Y2017D03*
X1798Y2017D03*
X1698Y2017D03*
X1598Y2017D03*
X1498Y2017D03*
X1398Y2017D03*
X1298Y2017D03*
X1198Y2017D03*
X1098Y2017D03*
X999Y2017D03*
X898Y2017D03*
X798Y2017D03*
X798Y1032D03*
X898Y1032D03*
X999Y1032D03*
X1098Y1032D03*
X1198Y1032D03*
X1298Y1032D03*
X1398Y1032D03*
X1498Y1032D03*
X1598Y1032D03*
X1698Y1032D03*
X1798Y1032D03*
X1898Y1032D03*
X1997Y1032D03*
X2098Y1032D03*
X2198Y1032D03*
X2297Y1032D03*
X2398Y1032D03*
X2497Y1032D03*
X2597Y1032D03*
G54D10*
X299Y2331D03*
X299Y2631D03*
X399Y2331D03*
X399Y2631D03*
X499Y2331D03*
X499Y2631D03*
X599Y2331D03*
X599Y2631D03*
X699Y2331D03*
X699Y2631D03*
X799Y2331D03*
X799Y2631D03*
X899Y2331D03*
X899Y2631D03*
X999Y2331D03*
X999Y2631D03*
X1099Y2331D03*
X1099Y2631D03*
X1299Y2331D03*
X1299Y2631D03*
X1399Y2331D03*
X1399Y2631D03*
X1499Y2331D03*
X1499Y2631D03*
X1599Y2331D03*
X1599Y2631D03*
X1699Y2331D03*
X1699Y2631D03*
X1799Y2331D03*
X1799Y2631D03*
X1899Y2331D03*
X1899Y2631D03*
X1999Y2331D03*
X1999Y2631D03*
X2099Y2331D03*
X2099Y2631D03*
G54D14*
X199Y3131D03*
X399Y3131D03*
X1399Y3131D03*
X1599Y3131D03*
G54D15*
X599Y3131D03*
X799Y3131D03*
X1799Y3131D03*
X1999Y3131D03*
G54D14*
X2599Y3131D03*
X2799Y3131D03*
X999Y3131D03*
X1199Y3131D03*
X2199Y3131D03*
X2399Y3131D03*
G54D16*
X1199Y2131D03*
G54D17*
X2099Y333D03*
X2099Y631D03*
X2198Y333D03*
X2198Y631D03*
X2298Y333D03*
X2298Y631D03*
G54D16*
X399Y751D03*
X399Y331D03*
X1129Y751D03*
X1129Y651D03*
X1129Y331D03*
X399Y651D03*
X399Y231D03*
X1129Y231D03*
G54D14*
X299Y1231D03*
X299Y1031D03*
G54D10*
X1654Y354D03*
X1399Y354D03*
X1654Y531D03*
X1399Y531D03*
X1299Y731D03*
X1799Y731D03*
G54D18*
X2298Y2731D03*
G54D19*
X299Y2331D03*
X1299Y2331D03*
G54D20*
X199Y3131D03*
X1399Y3131D03*
G54D21*
X599Y3131D03*
X1799Y3131D03*
G54D20*
X2599Y3131D03*
X999Y3131D03*
X2199Y3131D03*
G54D22*
X1130Y651D03*
X399Y651D03*
X399Y231D03*
X1130Y231D03*
G54D20*
X299Y1231D03*
G54D23*
X1199Y2048D02*
X1199Y2101D01*
D02*
X1718Y2310D02*
X1976Y2039D01*
D02*
X1618Y2310D02*
X1877Y2039D01*
D02*
X1518Y2310D02*
X1777Y2039D01*
D02*
X1418Y2310D02*
X1677Y2039D01*
D02*
X1318Y2310D02*
X1577Y2039D01*
D02*
X1299Y2231D02*
X1199Y2231D01*
D02*
X1199Y2231D02*
X1198Y2531D01*
D02*
X1198Y2531D02*
X1119Y2611D01*
D02*
X1298Y2048D02*
X1299Y2231D01*
G54D24*
D02*
X298Y2531D02*
X199Y2432D01*
D02*
X199Y1132D02*
X277Y1053D01*
D02*
X199Y2432D02*
X199Y1132D01*
D02*
X999Y2531D02*
X298Y2531D01*
D02*
X1098Y2432D02*
X999Y2531D01*
D02*
X1098Y2360D02*
X1098Y2432D01*
D02*
X1197Y2531D02*
X1126Y2603D01*
D02*
X1799Y2430D02*
X1699Y2532D01*
D02*
X1699Y2532D02*
X1197Y2531D01*
D02*
X1998Y2430D02*
X1799Y2430D01*
D02*
X2098Y2532D02*
X1998Y2430D01*
D02*
X2098Y2591D02*
X2098Y2532D01*
D02*
X2798Y3030D02*
X2563Y2834D01*
D02*
X2798Y3100D02*
X2798Y3030D01*
D02*
X2397Y2329D02*
X2327Y2273D01*
D02*
X2397Y2931D02*
X2397Y2329D01*
D02*
X2577Y3109D02*
X2397Y2931D01*
D02*
X1600Y2730D02*
X1599Y2660D01*
D02*
X1977Y3109D02*
X1600Y2730D01*
D02*
X1498Y2832D02*
X1498Y2660D01*
D02*
X1777Y3109D02*
X1498Y2832D01*
D02*
X1399Y2931D02*
X1399Y2660D01*
D02*
X1577Y3109D02*
X1399Y2931D01*
D02*
X1300Y3030D02*
X1299Y2660D01*
D02*
X1377Y3109D02*
X1300Y3030D01*
D02*
X399Y2660D02*
X399Y3100D01*
D02*
X299Y3030D02*
X299Y2660D01*
D02*
X221Y3109D02*
X299Y3030D01*
D02*
X500Y3030D02*
X499Y2660D01*
D02*
X577Y3109D02*
X500Y3030D01*
D02*
X599Y2931D02*
X599Y2660D01*
D02*
X777Y3109D02*
X599Y2931D01*
D02*
X698Y2832D02*
X977Y3109D01*
D02*
X698Y2660D02*
X698Y2832D01*
D02*
X1099Y3030D02*
X1099Y2660D01*
D02*
X1177Y3109D02*
X1099Y3030D01*
G54D23*
D02*
X2298Y3030D02*
X2299Y2768D01*
D02*
X2377Y3109D02*
X2298Y3030D01*
G54D24*
D02*
X2199Y2631D02*
X2127Y2631D01*
D02*
X2273Y2705D02*
X2199Y2631D01*
G54D23*
D02*
X2298Y3030D02*
X2220Y3109D01*
D02*
X2298Y2768D02*
X2298Y3030D01*
G54D24*
D02*
X2698Y2331D02*
X2750Y2277D01*
D02*
X2518Y2331D02*
X2698Y2331D01*
D02*
X599Y1829D02*
X776Y1996D01*
D02*
X899Y231D02*
X597Y931D01*
D02*
X597Y931D02*
X599Y1829D01*
D02*
X1098Y231D02*
X899Y231D01*
G54D23*
D02*
X2499Y631D02*
X2398Y631D01*
D02*
X2599Y931D02*
X2499Y631D01*
D02*
X2398Y631D02*
X2329Y631D01*
D02*
X2598Y1001D02*
X2599Y931D01*
D02*
X2499Y631D02*
X2599Y931D01*
D02*
X2599Y931D02*
X2598Y1001D01*
D02*
X2398Y631D02*
X2499Y631D01*
D02*
X2308Y363D02*
X2398Y631D01*
D02*
X2198Y129D02*
X2198Y302D01*
D02*
X2799Y631D02*
X2400Y130D01*
D02*
X2799Y1830D02*
X2799Y631D01*
D02*
X2400Y130D02*
X2198Y129D01*
D02*
X2620Y1997D02*
X2799Y1830D01*
D02*
X2198Y129D02*
X2198Y302D01*
D02*
X1800Y130D02*
X2198Y129D01*
D02*
X1670Y330D02*
X1800Y130D01*
D02*
X2098Y931D02*
X2098Y1001D01*
D02*
X1998Y731D02*
X2098Y931D01*
D02*
X1998Y430D02*
X1998Y731D01*
D02*
X2076Y355D02*
X1998Y430D01*
D02*
X1270Y734D02*
X1159Y747D01*
D02*
X1598Y732D02*
X1327Y731D01*
D02*
X1599Y831D02*
X1598Y732D01*
D02*
X1998Y931D02*
X1599Y831D01*
D02*
X1997Y1001D02*
X1998Y931D01*
D02*
X1800Y631D02*
X1678Y547D01*
D02*
X1799Y702D02*
X1800Y631D01*
D02*
X1299Y1930D02*
X1298Y1987D01*
D02*
X1399Y1829D02*
X1299Y1930D01*
D02*
X1898Y1829D02*
X1399Y1829D01*
D02*
X1998Y1733D02*
X1898Y1829D01*
D02*
X1997Y1062D02*
X1998Y1733D01*
D02*
X2497Y1532D02*
X2498Y1232D01*
D02*
X2300Y1733D02*
X2497Y1532D01*
D02*
X1998Y1733D02*
X2300Y1733D01*
D02*
X2599Y1131D02*
X2598Y1062D01*
D02*
X2498Y1232D02*
X2599Y1131D01*
D02*
X1997Y1062D02*
X1998Y1733D01*
D02*
X998Y531D02*
X1370Y531D01*
D02*
X998Y831D02*
X998Y531D01*
D02*
X1399Y931D02*
X998Y831D01*
D02*
X1398Y1001D02*
X1399Y931D01*
D02*
X398Y1130D02*
X399Y781D01*
D02*
X320Y1209D02*
X398Y1130D01*
G54D24*
D02*
X299Y230D02*
X299Y989D01*
D02*
X357Y231D02*
X299Y230D01*
G54D23*
D02*
X799Y130D02*
X499Y732D01*
D02*
X499Y732D02*
X428Y745D01*
D02*
X1399Y130D02*
X799Y130D01*
D02*
X1497Y231D02*
X1399Y130D01*
D02*
X1598Y732D02*
X1497Y231D01*
D02*
X1598Y830D02*
X1598Y732D01*
D02*
X1999Y931D02*
X1598Y830D01*
D02*
X1998Y1001D02*
X1999Y931D01*
D02*
X2500Y931D02*
X2498Y1001D01*
D02*
X2198Y731D02*
X2500Y931D01*
D02*
X2198Y662D02*
X2198Y731D01*
D02*
X2099Y731D02*
X2099Y662D01*
D02*
X2398Y931D02*
X2099Y731D01*
D02*
X2398Y1001D02*
X2398Y931D01*
G36*
X2612Y3041D02*
X2612Y3039D01*
X2610Y3039D01*
X2610Y3037D01*
X2608Y3037D01*
X2608Y3035D01*
X2606Y3035D01*
X2606Y3033D01*
X2604Y3033D01*
X2604Y3031D01*
X2602Y3031D01*
X2602Y3029D01*
X2600Y3029D01*
X2600Y3027D01*
X2598Y3027D01*
X2598Y3025D01*
X2596Y3025D01*
X2596Y3023D01*
X2594Y3023D01*
X2594Y3021D01*
X2592Y3021D01*
X2592Y3019D01*
X2590Y3019D01*
X2590Y3017D01*
X2588Y3017D01*
X2588Y3015D01*
X2586Y3015D01*
X2586Y3013D01*
X2584Y3013D01*
X2584Y3011D01*
X2582Y3011D01*
X2582Y3009D01*
X2580Y3009D01*
X2580Y3007D01*
X2578Y3007D01*
X2578Y3005D01*
X2576Y3005D01*
X2576Y3003D01*
X2574Y3003D01*
X2574Y3001D01*
X2572Y3001D01*
X2572Y2999D01*
X2570Y2999D01*
X2570Y2997D01*
X2568Y2997D01*
X2568Y2995D01*
X2566Y2995D01*
X2566Y2993D01*
X2564Y2993D01*
X2564Y2991D01*
X2562Y2991D01*
X2562Y2989D01*
X2560Y2989D01*
X2560Y2987D01*
X2558Y2987D01*
X2558Y2985D01*
X2556Y2985D01*
X2556Y2983D01*
X2554Y2983D01*
X2554Y2981D01*
X2552Y2981D01*
X2552Y2979D01*
X2550Y2979D01*
X2550Y2977D01*
X2548Y2977D01*
X2548Y2975D01*
X2546Y2975D01*
X2546Y2973D01*
X2544Y2973D01*
X2544Y2971D01*
X2542Y2971D01*
X2542Y2969D01*
X2540Y2969D01*
X2540Y2967D01*
X2538Y2967D01*
X2538Y2965D01*
X2536Y2965D01*
X2536Y2963D01*
X2534Y2963D01*
X2534Y2961D01*
X2532Y2961D01*
X2532Y2959D01*
X2530Y2959D01*
X2530Y2957D01*
X2528Y2957D01*
X2528Y2955D01*
X2526Y2955D01*
X2526Y2953D01*
X2524Y2953D01*
X2524Y2951D01*
X2520Y2951D01*
X2520Y2949D01*
X2518Y2949D01*
X2518Y2947D01*
X2516Y2947D01*
X2516Y2945D01*
X2514Y2945D01*
X2514Y2943D01*
X2512Y2943D01*
X2512Y2941D01*
X2510Y2941D01*
X2510Y2939D01*
X2508Y2939D01*
X2508Y2937D01*
X2506Y2937D01*
X2506Y2935D01*
X2504Y2935D01*
X2504Y2933D01*
X2502Y2933D01*
X2502Y2931D01*
X2500Y2931D01*
X2500Y2929D01*
X2498Y2929D01*
X2498Y2927D01*
X2496Y2927D01*
X2496Y2925D01*
X2494Y2925D01*
X2494Y2923D01*
X2492Y2923D01*
X2492Y2921D01*
X2490Y2921D01*
X2490Y2919D01*
X2488Y2919D01*
X2488Y2917D01*
X2486Y2917D01*
X2486Y2915D01*
X2484Y2915D01*
X2484Y2913D01*
X2482Y2913D01*
X2482Y2911D01*
X2480Y2911D01*
X2480Y2909D01*
X2478Y2909D01*
X2478Y2907D01*
X2476Y2907D01*
X2476Y2905D01*
X2474Y2905D01*
X2474Y2903D01*
X2472Y2903D01*
X2472Y2895D01*
X2492Y2895D01*
X2492Y2897D01*
X2496Y2897D01*
X2496Y2899D01*
X2502Y2899D01*
X2502Y2901D01*
X2506Y2901D01*
X2506Y2903D01*
X2514Y2903D01*
X2514Y2905D01*
X2530Y2905D01*
X2530Y2907D01*
X2536Y2907D01*
X2536Y2909D01*
X2538Y2909D01*
X2538Y2911D01*
X2540Y2911D01*
X2540Y2913D01*
X2542Y2913D01*
X2542Y2915D01*
X2546Y2915D01*
X2546Y2917D01*
X2548Y2917D01*
X2548Y2919D01*
X2550Y2919D01*
X2550Y2921D01*
X2552Y2921D01*
X2552Y2923D01*
X2554Y2923D01*
X2554Y2925D01*
X2558Y2925D01*
X2558Y2927D01*
X2560Y2927D01*
X2560Y2929D01*
X2562Y2929D01*
X2562Y2931D01*
X2564Y2931D01*
X2564Y2933D01*
X2566Y2933D01*
X2566Y2935D01*
X2570Y2935D01*
X2570Y2937D01*
X2572Y2937D01*
X2572Y2939D01*
X2574Y2939D01*
X2574Y2941D01*
X2576Y2941D01*
X2576Y2943D01*
X2578Y2943D01*
X2578Y2945D01*
X2582Y2945D01*
X2582Y2947D01*
X2584Y2947D01*
X2584Y2949D01*
X2586Y2949D01*
X2586Y2951D01*
X2588Y2951D01*
X2588Y2953D01*
X2590Y2953D01*
X2590Y2955D01*
X2594Y2955D01*
X2594Y2957D01*
X2596Y2957D01*
X2596Y2959D01*
X2598Y2959D01*
X2598Y2961D01*
X2600Y2961D01*
X2600Y2963D01*
X2602Y2963D01*
X2602Y2965D01*
X2604Y2965D01*
X2604Y2967D01*
X2608Y2967D01*
X2608Y2969D01*
X2610Y2969D01*
X2610Y2971D01*
X2612Y2971D01*
X2612Y2973D01*
X2614Y2973D01*
X2614Y2975D01*
X2616Y2975D01*
X2616Y2977D01*
X2620Y2977D01*
X2620Y2979D01*
X2622Y2979D01*
X2622Y2981D01*
X2624Y2981D01*
X2624Y2983D01*
X2626Y2983D01*
X2626Y2985D01*
X2628Y2985D01*
X2628Y2987D01*
X2632Y2987D01*
X2632Y2989D01*
X2634Y2989D01*
X2634Y2991D01*
X2636Y2991D01*
X2636Y2993D01*
X2638Y2993D01*
X2638Y2995D01*
X2640Y2995D01*
X2640Y2997D01*
X2644Y2997D01*
X2644Y2999D01*
X2646Y2999D01*
X2646Y3001D01*
X2648Y3001D01*
X2648Y3003D01*
X2650Y3003D01*
X2650Y3005D01*
X2652Y3005D01*
X2652Y3007D01*
X2656Y3007D01*
X2656Y3009D01*
X2658Y3009D01*
X2658Y3011D01*
X2660Y3011D01*
X2660Y3013D01*
X2662Y3013D01*
X2662Y3015D01*
X2664Y3015D01*
X2664Y3017D01*
X2668Y3017D01*
X2668Y3019D01*
X2670Y3019D01*
X2670Y3021D01*
X2672Y3021D01*
X2672Y3041D01*
X2612Y3041D01*
G37*
D02*
G36*
X2182Y2757D02*
X2182Y2755D01*
X2180Y2755D01*
X2180Y2753D01*
X2178Y2753D01*
X2178Y2751D01*
X2176Y2751D01*
X2176Y2749D01*
X2174Y2749D01*
X2174Y2747D01*
X2172Y2747D01*
X2172Y2745D01*
X2170Y2745D01*
X2170Y2743D01*
X2168Y2743D01*
X2168Y2741D01*
X2164Y2741D01*
X2164Y2739D01*
X2162Y2739D01*
X2162Y2737D01*
X2158Y2737D01*
X2158Y2735D01*
X2156Y2735D01*
X2156Y2733D01*
X2152Y2733D01*
X2152Y2731D01*
X2148Y2731D01*
X2148Y2729D01*
X2144Y2729D01*
X2144Y2727D01*
X2140Y2727D01*
X2140Y2707D01*
X2144Y2707D01*
X2144Y2705D01*
X2148Y2705D01*
X2148Y2703D01*
X2150Y2703D01*
X2150Y2701D01*
X2152Y2701D01*
X2152Y2699D01*
X2156Y2699D01*
X2156Y2697D01*
X2158Y2697D01*
X2158Y2695D01*
X2160Y2695D01*
X2160Y2693D01*
X2162Y2693D01*
X2162Y2691D01*
X2164Y2691D01*
X2164Y2689D01*
X2166Y2689D01*
X2166Y2685D01*
X2168Y2685D01*
X2168Y2683D01*
X2170Y2683D01*
X2170Y2681D01*
X2172Y2681D01*
X2172Y2677D01*
X2174Y2677D01*
X2174Y2673D01*
X2176Y2673D01*
X2176Y2669D01*
X2178Y2669D01*
X2178Y2665D01*
X2180Y2665D01*
X2180Y2661D01*
X2182Y2661D01*
X2182Y2653D01*
X2202Y2653D01*
X2202Y2757D01*
X2182Y2757D01*
G37*
D02*
G36*
X326Y2457D02*
X326Y2455D01*
X324Y2455D01*
X324Y2453D01*
X322Y2453D01*
X322Y2451D01*
X320Y2451D01*
X320Y2449D01*
X318Y2449D01*
X318Y2447D01*
X316Y2447D01*
X316Y2445D01*
X314Y2445D01*
X314Y2443D01*
X312Y2443D01*
X312Y2441D01*
X310Y2441D01*
X310Y2439D01*
X308Y2439D01*
X308Y2419D01*
X910Y2419D01*
X910Y2417D01*
X920Y2417D01*
X920Y2415D01*
X928Y2415D01*
X928Y2413D01*
X932Y2413D01*
X932Y2411D01*
X936Y2411D01*
X936Y2409D01*
X960Y2409D01*
X960Y2411D01*
X964Y2411D01*
X964Y2413D01*
X970Y2413D01*
X970Y2415D01*
X976Y2415D01*
X976Y2417D01*
X988Y2417D01*
X988Y2439D01*
X986Y2439D01*
X986Y2441D01*
X984Y2441D01*
X984Y2443D01*
X982Y2443D01*
X982Y2445D01*
X980Y2445D01*
X980Y2447D01*
X978Y2447D01*
X978Y2449D01*
X976Y2449D01*
X976Y2451D01*
X974Y2451D01*
X974Y2453D01*
X972Y2453D01*
X972Y2455D01*
X970Y2455D01*
X970Y2457D01*
X326Y2457D01*
G37*
D02*
G36*
X410Y2419D02*
X410Y2417D01*
X420Y2417D01*
X420Y2415D01*
X428Y2415D01*
X428Y2413D01*
X432Y2413D01*
X432Y2411D01*
X436Y2411D01*
X436Y2409D01*
X460Y2409D01*
X460Y2411D01*
X464Y2411D01*
X464Y2413D01*
X470Y2413D01*
X470Y2415D01*
X476Y2415D01*
X476Y2417D01*
X488Y2417D01*
X488Y2419D01*
X410Y2419D01*
G37*
D02*
G36*
X510Y2419D02*
X510Y2417D01*
X520Y2417D01*
X520Y2415D01*
X528Y2415D01*
X528Y2413D01*
X532Y2413D01*
X532Y2411D01*
X536Y2411D01*
X536Y2409D01*
X560Y2409D01*
X560Y2411D01*
X564Y2411D01*
X564Y2413D01*
X570Y2413D01*
X570Y2415D01*
X576Y2415D01*
X576Y2417D01*
X588Y2417D01*
X588Y2419D01*
X510Y2419D01*
G37*
D02*
G36*
X610Y2419D02*
X610Y2417D01*
X620Y2417D01*
X620Y2415D01*
X628Y2415D01*
X628Y2413D01*
X632Y2413D01*
X632Y2411D01*
X636Y2411D01*
X636Y2409D01*
X660Y2409D01*
X660Y2411D01*
X664Y2411D01*
X664Y2413D01*
X670Y2413D01*
X670Y2415D01*
X676Y2415D01*
X676Y2417D01*
X688Y2417D01*
X688Y2419D01*
X610Y2419D01*
G37*
D02*
G36*
X710Y2419D02*
X710Y2417D01*
X720Y2417D01*
X720Y2415D01*
X728Y2415D01*
X728Y2413D01*
X732Y2413D01*
X732Y2411D01*
X736Y2411D01*
X736Y2409D01*
X760Y2409D01*
X760Y2411D01*
X764Y2411D01*
X764Y2413D01*
X770Y2413D01*
X770Y2415D01*
X776Y2415D01*
X776Y2417D01*
X788Y2417D01*
X788Y2419D01*
X710Y2419D01*
G37*
D02*
G36*
X810Y2419D02*
X810Y2417D01*
X820Y2417D01*
X820Y2415D01*
X828Y2415D01*
X828Y2413D01*
X832Y2413D01*
X832Y2411D01*
X836Y2411D01*
X836Y2409D01*
X860Y2409D01*
X860Y2411D01*
X864Y2411D01*
X864Y2413D01*
X870Y2413D01*
X870Y2415D01*
X876Y2415D01*
X876Y2417D01*
X888Y2417D01*
X888Y2419D01*
X810Y2419D01*
G37*
D02*
G36*
X2236Y949D02*
X2236Y947D01*
X2232Y947D01*
X2232Y945D01*
X2228Y945D01*
X2228Y943D01*
X2222Y943D01*
X2222Y941D01*
X2216Y941D01*
X2216Y939D01*
X2200Y939D01*
X2200Y937D01*
X2272Y937D01*
X2272Y943D01*
X2268Y943D01*
X2268Y945D01*
X2262Y945D01*
X2262Y947D01*
X2258Y947D01*
X2258Y949D01*
X2236Y949D01*
G37*
D02*
G36*
X2160Y941D02*
X2160Y937D01*
X2196Y937D01*
X2196Y939D01*
X2180Y939D01*
X2180Y941D01*
X2160Y941D01*
G37*
D02*
G36*
X2160Y937D02*
X2160Y935D01*
X2272Y935D01*
X2272Y937D01*
X2160Y937D01*
G37*
D02*
G36*
X2160Y937D02*
X2160Y935D01*
X2272Y935D01*
X2272Y937D01*
X2160Y937D01*
G37*
D02*
G36*
X2160Y935D02*
X2160Y921D01*
X2158Y921D01*
X2158Y913D01*
X2156Y913D01*
X2156Y907D01*
X2154Y907D01*
X2154Y903D01*
X2152Y903D01*
X2152Y899D01*
X2150Y899D01*
X2150Y895D01*
X2148Y895D01*
X2148Y891D01*
X2146Y891D01*
X2146Y887D01*
X2144Y887D01*
X2144Y883D01*
X2142Y883D01*
X2142Y879D01*
X2140Y879D01*
X2140Y875D01*
X2138Y875D01*
X2138Y871D01*
X2136Y871D01*
X2136Y867D01*
X2134Y867D01*
X2134Y863D01*
X2132Y863D01*
X2132Y859D01*
X2130Y859D01*
X2130Y855D01*
X2128Y855D01*
X2128Y851D01*
X2126Y851D01*
X2126Y847D01*
X2124Y847D01*
X2124Y843D01*
X2122Y843D01*
X2122Y833D01*
X2142Y833D01*
X2142Y835D01*
X2144Y835D01*
X2144Y837D01*
X2148Y837D01*
X2148Y839D01*
X2150Y839D01*
X2150Y841D01*
X2152Y841D01*
X2152Y843D01*
X2156Y843D01*
X2156Y845D01*
X2158Y845D01*
X2158Y847D01*
X2162Y847D01*
X2162Y849D01*
X2164Y849D01*
X2164Y851D01*
X2168Y851D01*
X2168Y853D01*
X2170Y853D01*
X2170Y855D01*
X2174Y855D01*
X2174Y857D01*
X2176Y857D01*
X2176Y859D01*
X2180Y859D01*
X2180Y861D01*
X2182Y861D01*
X2182Y863D01*
X2186Y863D01*
X2186Y865D01*
X2188Y865D01*
X2188Y867D01*
X2192Y867D01*
X2192Y869D01*
X2194Y869D01*
X2194Y871D01*
X2198Y871D01*
X2198Y873D01*
X2200Y873D01*
X2200Y875D01*
X2204Y875D01*
X2204Y877D01*
X2206Y877D01*
X2206Y879D01*
X2210Y879D01*
X2210Y881D01*
X2212Y881D01*
X2212Y883D01*
X2216Y883D01*
X2216Y885D01*
X2218Y885D01*
X2218Y887D01*
X2222Y887D01*
X2222Y889D01*
X2224Y889D01*
X2224Y891D01*
X2228Y891D01*
X2228Y893D01*
X2230Y893D01*
X2230Y895D01*
X2234Y895D01*
X2234Y897D01*
X2236Y897D01*
X2236Y899D01*
X2240Y899D01*
X2240Y901D01*
X2242Y901D01*
X2242Y903D01*
X2246Y903D01*
X2246Y905D01*
X2248Y905D01*
X2248Y907D01*
X2252Y907D01*
X2252Y909D01*
X2254Y909D01*
X2254Y911D01*
X2258Y911D01*
X2258Y913D01*
X2260Y913D01*
X2260Y915D01*
X2264Y915D01*
X2264Y917D01*
X2266Y917D01*
X2266Y919D01*
X2270Y919D01*
X2270Y921D01*
X2272Y921D01*
X2272Y935D01*
X2160Y935D01*
G37*
D02*
G36*
X40Y3425D02*
X40Y3221D01*
X2814Y3221D01*
X2814Y3219D01*
X2822Y3219D01*
X2822Y3217D01*
X2828Y3217D01*
X2828Y3215D01*
X2834Y3215D01*
X2834Y3213D01*
X2838Y3213D01*
X2838Y3211D01*
X2842Y3211D01*
X2842Y3209D01*
X2846Y3209D01*
X2846Y3207D01*
X2848Y3207D01*
X2848Y3205D01*
X2852Y3205D01*
X2852Y3203D01*
X2854Y3203D01*
X2854Y3201D01*
X2856Y3201D01*
X2856Y3199D01*
X2858Y3199D01*
X2858Y3197D01*
X2862Y3197D01*
X2862Y3195D01*
X2864Y3195D01*
X2864Y3191D01*
X2866Y3191D01*
X2866Y3189D01*
X2868Y3189D01*
X2868Y3187D01*
X2870Y3187D01*
X2870Y3185D01*
X2872Y3185D01*
X2872Y3181D01*
X2874Y3181D01*
X2874Y3179D01*
X2876Y3179D01*
X2876Y3175D01*
X2878Y3175D01*
X2878Y3171D01*
X2880Y3171D01*
X2880Y3167D01*
X2882Y3167D01*
X2882Y3163D01*
X2884Y3163D01*
X2884Y3157D01*
X2886Y3157D01*
X2886Y3147D01*
X2888Y3147D01*
X2888Y3115D01*
X2886Y3115D01*
X2886Y3107D01*
X2884Y3107D01*
X2884Y3101D01*
X2882Y3101D01*
X2882Y3095D01*
X2880Y3095D01*
X2880Y3091D01*
X2878Y3091D01*
X2878Y3087D01*
X2876Y3087D01*
X2876Y3085D01*
X2874Y3085D01*
X2874Y3081D01*
X2872Y3081D01*
X2872Y3021D01*
X2870Y3021D01*
X2870Y3011D01*
X2868Y3011D01*
X2868Y3005D01*
X2866Y3005D01*
X2866Y3001D01*
X2864Y3001D01*
X2864Y2997D01*
X2862Y2997D01*
X2862Y2993D01*
X2860Y2993D01*
X2860Y2989D01*
X2858Y2989D01*
X2858Y2987D01*
X2856Y2987D01*
X2856Y2985D01*
X2854Y2985D01*
X2854Y2981D01*
X2852Y2981D01*
X2852Y2979D01*
X2850Y2979D01*
X2850Y2977D01*
X2848Y2977D01*
X2848Y2975D01*
X2846Y2975D01*
X2846Y2973D01*
X2842Y2973D01*
X2842Y2971D01*
X2840Y2971D01*
X2840Y2969D01*
X2838Y2969D01*
X2838Y2967D01*
X2836Y2967D01*
X2836Y2965D01*
X2834Y2965D01*
X2834Y2963D01*
X2830Y2963D01*
X2830Y2961D01*
X2828Y2961D01*
X2828Y2959D01*
X2826Y2959D01*
X2826Y2957D01*
X2824Y2957D01*
X2824Y2955D01*
X2822Y2955D01*
X2822Y2953D01*
X2818Y2953D01*
X2818Y2951D01*
X2816Y2951D01*
X2816Y2949D01*
X2814Y2949D01*
X2814Y2947D01*
X2812Y2947D01*
X2812Y2945D01*
X2810Y2945D01*
X2810Y2943D01*
X2806Y2943D01*
X2806Y2941D01*
X2804Y2941D01*
X2804Y2939D01*
X2802Y2939D01*
X2802Y2937D01*
X2800Y2937D01*
X2800Y2935D01*
X2798Y2935D01*
X2798Y2933D01*
X2794Y2933D01*
X2794Y2931D01*
X2792Y2931D01*
X2792Y2929D01*
X2790Y2929D01*
X2790Y2927D01*
X2788Y2927D01*
X2788Y2925D01*
X2786Y2925D01*
X2786Y2923D01*
X2782Y2923D01*
X2782Y2921D01*
X2780Y2921D01*
X2780Y2919D01*
X2778Y2919D01*
X2778Y2917D01*
X2776Y2917D01*
X2776Y2915D01*
X2774Y2915D01*
X2774Y2913D01*
X2772Y2913D01*
X2772Y2911D01*
X2768Y2911D01*
X2768Y2909D01*
X2766Y2909D01*
X2766Y2907D01*
X2764Y2907D01*
X2764Y2905D01*
X2762Y2905D01*
X2762Y2903D01*
X2760Y2903D01*
X2760Y2901D01*
X2756Y2901D01*
X2756Y2899D01*
X2754Y2899D01*
X2754Y2897D01*
X2752Y2897D01*
X2752Y2895D01*
X2750Y2895D01*
X2750Y2893D01*
X2748Y2893D01*
X2748Y2891D01*
X2744Y2891D01*
X2744Y2889D01*
X2742Y2889D01*
X2742Y2887D01*
X2740Y2887D01*
X2740Y2885D01*
X2738Y2885D01*
X2738Y2883D01*
X2736Y2883D01*
X2736Y2881D01*
X2732Y2881D01*
X2732Y2879D01*
X2730Y2879D01*
X2730Y2877D01*
X2728Y2877D01*
X2728Y2875D01*
X2726Y2875D01*
X2726Y2873D01*
X2724Y2873D01*
X2724Y2871D01*
X2720Y2871D01*
X2720Y2869D01*
X2718Y2869D01*
X2718Y2867D01*
X2716Y2867D01*
X2716Y2865D01*
X2714Y2865D01*
X2714Y2863D01*
X2712Y2863D01*
X2712Y2861D01*
X2708Y2861D01*
X2708Y2859D01*
X2706Y2859D01*
X2706Y2857D01*
X2704Y2857D01*
X2704Y2855D01*
X2702Y2855D01*
X2702Y2853D01*
X2700Y2853D01*
X2700Y2851D01*
X2696Y2851D01*
X2696Y2849D01*
X2694Y2849D01*
X2694Y2847D01*
X2692Y2847D01*
X2692Y2845D01*
X2690Y2845D01*
X2690Y2843D01*
X2688Y2843D01*
X2688Y2841D01*
X2686Y2841D01*
X2686Y2839D01*
X2682Y2839D01*
X2682Y2837D01*
X2680Y2837D01*
X2680Y2835D01*
X2678Y2835D01*
X2678Y2833D01*
X2676Y2833D01*
X2676Y2831D01*
X2674Y2831D01*
X2674Y2829D01*
X2670Y2829D01*
X2670Y2827D01*
X2784Y2827D01*
X2784Y2825D01*
X2794Y2825D01*
X2794Y2823D01*
X2802Y2823D01*
X2802Y2821D01*
X2806Y2821D01*
X2806Y2819D01*
X2812Y2819D01*
X2812Y2817D01*
X2816Y2817D01*
X2816Y2815D01*
X2818Y2815D01*
X2818Y2813D01*
X2822Y2813D01*
X2822Y2811D01*
X2826Y2811D01*
X2826Y2809D01*
X2828Y2809D01*
X2828Y2807D01*
X2830Y2807D01*
X2830Y2805D01*
X2834Y2805D01*
X2834Y2803D01*
X2836Y2803D01*
X2836Y2801D01*
X2838Y2801D01*
X2838Y2799D01*
X2840Y2799D01*
X2840Y2797D01*
X2842Y2797D01*
X2842Y2795D01*
X2844Y2795D01*
X2844Y2791D01*
X2846Y2791D01*
X2846Y2789D01*
X2848Y2789D01*
X2848Y2787D01*
X2850Y2787D01*
X2850Y2783D01*
X2852Y2783D01*
X2852Y2781D01*
X2854Y2781D01*
X2854Y2777D01*
X2856Y2777D01*
X2856Y2773D01*
X2858Y2773D01*
X2858Y2769D01*
X2860Y2769D01*
X2860Y2763D01*
X2862Y2763D01*
X2862Y2757D01*
X2864Y2757D01*
X2864Y2749D01*
X2866Y2749D01*
X2866Y2715D01*
X2864Y2715D01*
X2864Y2705D01*
X2862Y2705D01*
X2862Y2699D01*
X2860Y2699D01*
X2860Y2695D01*
X2858Y2695D01*
X2858Y2689D01*
X2856Y2689D01*
X2856Y2685D01*
X2854Y2685D01*
X2854Y2683D01*
X2852Y2683D01*
X2852Y2679D01*
X2850Y2679D01*
X2850Y2677D01*
X2848Y2677D01*
X2848Y2673D01*
X2846Y2673D01*
X2846Y2671D01*
X2844Y2671D01*
X2844Y2669D01*
X2842Y2669D01*
X2842Y2667D01*
X2840Y2667D01*
X2840Y2665D01*
X2838Y2665D01*
X2838Y2663D01*
X2836Y2663D01*
X2836Y2661D01*
X2834Y2661D01*
X2834Y2659D01*
X2832Y2659D01*
X2832Y2657D01*
X2830Y2657D01*
X2830Y2655D01*
X2826Y2655D01*
X2826Y2653D01*
X2824Y2653D01*
X2824Y2651D01*
X2820Y2651D01*
X2820Y2649D01*
X2818Y2649D01*
X2818Y2647D01*
X2814Y2647D01*
X2814Y2645D01*
X2810Y2645D01*
X2810Y2643D01*
X2804Y2643D01*
X2804Y2641D01*
X2798Y2641D01*
X2798Y2639D01*
X2792Y2639D01*
X2792Y2637D01*
X2774Y2637D01*
X2774Y2635D01*
X2952Y2635D01*
X2952Y3425D01*
X40Y3425D01*
G37*
D02*
G36*
X40Y3221D02*
X40Y345D01*
X206Y345D01*
X206Y343D01*
X226Y343D01*
X226Y631D01*
X224Y631D01*
X224Y983D01*
X222Y983D01*
X222Y987D01*
X220Y987D01*
X220Y989D01*
X218Y989D01*
X218Y993D01*
X216Y993D01*
X216Y999D01*
X214Y999D01*
X214Y1003D01*
X212Y1003D01*
X212Y1011D01*
X210Y1011D01*
X210Y1017D01*
X208Y1017D01*
X208Y1019D01*
X206Y1019D01*
X206Y1021D01*
X204Y1021D01*
X204Y1023D01*
X202Y1023D01*
X202Y1025D01*
X200Y1025D01*
X200Y1027D01*
X198Y1027D01*
X198Y1029D01*
X196Y1029D01*
X196Y1031D01*
X194Y1031D01*
X194Y1033D01*
X192Y1033D01*
X192Y1035D01*
X190Y1035D01*
X190Y1037D01*
X188Y1037D01*
X188Y1039D01*
X186Y1039D01*
X186Y1041D01*
X184Y1041D01*
X184Y1043D01*
X182Y1043D01*
X182Y1045D01*
X180Y1045D01*
X180Y1047D01*
X178Y1047D01*
X178Y1049D01*
X176Y1049D01*
X176Y1051D01*
X174Y1051D01*
X174Y1053D01*
X172Y1053D01*
X172Y1055D01*
X170Y1055D01*
X170Y1057D01*
X168Y1057D01*
X168Y1059D01*
X166Y1059D01*
X166Y1061D01*
X164Y1061D01*
X164Y1063D01*
X162Y1063D01*
X162Y1065D01*
X160Y1065D01*
X160Y1067D01*
X158Y1067D01*
X158Y1069D01*
X156Y1069D01*
X156Y1071D01*
X154Y1071D01*
X154Y1073D01*
X152Y1073D01*
X152Y1075D01*
X150Y1075D01*
X150Y1077D01*
X148Y1077D01*
X148Y1079D01*
X146Y1079D01*
X146Y1083D01*
X144Y1083D01*
X144Y1085D01*
X142Y1085D01*
X142Y1087D01*
X140Y1087D01*
X140Y1089D01*
X138Y1089D01*
X138Y1093D01*
X136Y1093D01*
X136Y1095D01*
X134Y1095D01*
X134Y1099D01*
X132Y1099D01*
X132Y1103D01*
X130Y1103D01*
X130Y1109D01*
X128Y1109D01*
X128Y1115D01*
X126Y1115D01*
X126Y1127D01*
X124Y1127D01*
X124Y2439D01*
X126Y2439D01*
X126Y2451D01*
X128Y2451D01*
X128Y2457D01*
X130Y2457D01*
X130Y2463D01*
X132Y2463D01*
X132Y2467D01*
X134Y2467D01*
X134Y2469D01*
X136Y2469D01*
X136Y2473D01*
X138Y2473D01*
X138Y2477D01*
X140Y2477D01*
X140Y2479D01*
X142Y2479D01*
X142Y2481D01*
X144Y2481D01*
X144Y2483D01*
X146Y2483D01*
X146Y2485D01*
X148Y2485D01*
X148Y2487D01*
X150Y2487D01*
X150Y2489D01*
X152Y2489D01*
X152Y2491D01*
X154Y2491D01*
X154Y2493D01*
X156Y2493D01*
X156Y2495D01*
X158Y2495D01*
X158Y2497D01*
X160Y2497D01*
X160Y2499D01*
X162Y2499D01*
X162Y2501D01*
X164Y2501D01*
X164Y2503D01*
X166Y2503D01*
X166Y2505D01*
X168Y2505D01*
X168Y2507D01*
X170Y2507D01*
X170Y2509D01*
X172Y2509D01*
X172Y2511D01*
X174Y2511D01*
X174Y2513D01*
X176Y2513D01*
X176Y2515D01*
X178Y2515D01*
X178Y2517D01*
X180Y2517D01*
X180Y2519D01*
X182Y2519D01*
X182Y2521D01*
X184Y2521D01*
X184Y2523D01*
X186Y2523D01*
X186Y2525D01*
X188Y2525D01*
X188Y2527D01*
X190Y2527D01*
X190Y2529D01*
X192Y2529D01*
X192Y2531D01*
X194Y2531D01*
X194Y2533D01*
X196Y2533D01*
X196Y2535D01*
X198Y2535D01*
X198Y2537D01*
X200Y2537D01*
X200Y2539D01*
X202Y2539D01*
X202Y2541D01*
X204Y2541D01*
X204Y2543D01*
X206Y2543D01*
X206Y2545D01*
X208Y2545D01*
X208Y2547D01*
X210Y2547D01*
X210Y2549D01*
X212Y2549D01*
X212Y2551D01*
X214Y2551D01*
X214Y2553D01*
X216Y2553D01*
X216Y2555D01*
X218Y2555D01*
X218Y2557D01*
X220Y2557D01*
X220Y2559D01*
X222Y2559D01*
X222Y2561D01*
X224Y2561D01*
X224Y2563D01*
X226Y2563D01*
X226Y2585D01*
X224Y2585D01*
X224Y2587D01*
X222Y2587D01*
X222Y2591D01*
X220Y2591D01*
X220Y2595D01*
X218Y2595D01*
X218Y2601D01*
X216Y2601D01*
X216Y2605D01*
X214Y2605D01*
X214Y2613D01*
X212Y2613D01*
X212Y2649D01*
X214Y2649D01*
X214Y2657D01*
X216Y2657D01*
X216Y2663D01*
X218Y2663D01*
X218Y2667D01*
X220Y2667D01*
X220Y2671D01*
X222Y2671D01*
X222Y2675D01*
X224Y2675D01*
X224Y2719D01*
X180Y2719D01*
X180Y2721D01*
X170Y2721D01*
X170Y2723D01*
X164Y2723D01*
X164Y2725D01*
X158Y2725D01*
X158Y2727D01*
X154Y2727D01*
X154Y2729D01*
X150Y2729D01*
X150Y2731D01*
X144Y2731D01*
X144Y2733D01*
X142Y2733D01*
X142Y2735D01*
X138Y2735D01*
X138Y2737D01*
X136Y2737D01*
X136Y2739D01*
X132Y2739D01*
X132Y2741D01*
X130Y2741D01*
X130Y2743D01*
X128Y2743D01*
X128Y2745D01*
X124Y2745D01*
X124Y2747D01*
X122Y2747D01*
X122Y2749D01*
X120Y2749D01*
X120Y2751D01*
X118Y2751D01*
X118Y2753D01*
X116Y2753D01*
X116Y2755D01*
X114Y2755D01*
X114Y2757D01*
X112Y2757D01*
X112Y2761D01*
X110Y2761D01*
X110Y2763D01*
X108Y2763D01*
X108Y2765D01*
X106Y2765D01*
X106Y2769D01*
X104Y2769D01*
X104Y2771D01*
X102Y2771D01*
X102Y2775D01*
X100Y2775D01*
X100Y2779D01*
X98Y2779D01*
X98Y2783D01*
X96Y2783D01*
X96Y2787D01*
X94Y2787D01*
X94Y2791D01*
X92Y2791D01*
X92Y2797D01*
X90Y2797D01*
X90Y2805D01*
X88Y2805D01*
X88Y2815D01*
X86Y2815D01*
X86Y2849D01*
X88Y2849D01*
X88Y2859D01*
X90Y2859D01*
X90Y2865D01*
X92Y2865D01*
X92Y2871D01*
X94Y2871D01*
X94Y2877D01*
X96Y2877D01*
X96Y2881D01*
X98Y2881D01*
X98Y2885D01*
X100Y2885D01*
X100Y2889D01*
X102Y2889D01*
X102Y2891D01*
X104Y2891D01*
X104Y2895D01*
X106Y2895D01*
X106Y2897D01*
X108Y2897D01*
X108Y2901D01*
X110Y2901D01*
X110Y2903D01*
X112Y2903D01*
X112Y2905D01*
X114Y2905D01*
X114Y2907D01*
X116Y2907D01*
X116Y2909D01*
X118Y2909D01*
X118Y2911D01*
X120Y2911D01*
X120Y2913D01*
X122Y2913D01*
X122Y2915D01*
X124Y2915D01*
X124Y2917D01*
X126Y2917D01*
X126Y2919D01*
X128Y2919D01*
X128Y2921D01*
X132Y2921D01*
X132Y2923D01*
X134Y2923D01*
X134Y2925D01*
X136Y2925D01*
X136Y2927D01*
X140Y2927D01*
X140Y2929D01*
X144Y2929D01*
X144Y2931D01*
X148Y2931D01*
X148Y2933D01*
X152Y2933D01*
X152Y2935D01*
X156Y2935D01*
X156Y2937D01*
X162Y2937D01*
X162Y2939D01*
X168Y2939D01*
X168Y2941D01*
X176Y2941D01*
X176Y2943D01*
X192Y2943D01*
X192Y2945D01*
X224Y2945D01*
X224Y3003D01*
X222Y3003D01*
X222Y3005D01*
X220Y3005D01*
X220Y3007D01*
X218Y3007D01*
X218Y3009D01*
X216Y3009D01*
X216Y3011D01*
X214Y3011D01*
X214Y3013D01*
X212Y3013D01*
X212Y3015D01*
X210Y3015D01*
X210Y3017D01*
X208Y3017D01*
X208Y3019D01*
X206Y3019D01*
X206Y3021D01*
X204Y3021D01*
X204Y3023D01*
X202Y3023D01*
X202Y3025D01*
X200Y3025D01*
X200Y3027D01*
X198Y3027D01*
X198Y3029D01*
X196Y3029D01*
X196Y3031D01*
X194Y3031D01*
X194Y3033D01*
X192Y3033D01*
X192Y3035D01*
X190Y3035D01*
X190Y3037D01*
X188Y3037D01*
X188Y3039D01*
X186Y3039D01*
X186Y3041D01*
X108Y3041D01*
X108Y3221D01*
X40Y3221D01*
G37*
D02*
G36*
X288Y3221D02*
X288Y3145D01*
X290Y3145D01*
X290Y3143D01*
X310Y3143D01*
X310Y3151D01*
X312Y3151D01*
X312Y3159D01*
X314Y3159D01*
X314Y3165D01*
X316Y3165D01*
X316Y3169D01*
X318Y3169D01*
X318Y3173D01*
X320Y3173D01*
X320Y3177D01*
X322Y3177D01*
X322Y3181D01*
X324Y3181D01*
X324Y3183D01*
X326Y3183D01*
X326Y3185D01*
X328Y3185D01*
X328Y3189D01*
X330Y3189D01*
X330Y3191D01*
X332Y3191D01*
X332Y3193D01*
X334Y3193D01*
X334Y3195D01*
X336Y3195D01*
X336Y3197D01*
X338Y3197D01*
X338Y3199D01*
X340Y3199D01*
X340Y3201D01*
X342Y3201D01*
X342Y3203D01*
X346Y3203D01*
X346Y3205D01*
X348Y3205D01*
X348Y3207D01*
X352Y3207D01*
X352Y3209D01*
X354Y3209D01*
X354Y3211D01*
X358Y3211D01*
X358Y3213D01*
X362Y3213D01*
X362Y3215D01*
X368Y3215D01*
X368Y3217D01*
X374Y3217D01*
X374Y3219D01*
X384Y3219D01*
X384Y3221D01*
X288Y3221D01*
G37*
D02*
G36*
X414Y3221D02*
X414Y3219D01*
X422Y3219D01*
X422Y3217D01*
X428Y3217D01*
X428Y3215D01*
X434Y3215D01*
X434Y3213D01*
X438Y3213D01*
X438Y3211D01*
X442Y3211D01*
X442Y3209D01*
X446Y3209D01*
X446Y3207D01*
X448Y3207D01*
X448Y3205D01*
X452Y3205D01*
X452Y3203D01*
X454Y3203D01*
X454Y3201D01*
X456Y3201D01*
X456Y3199D01*
X458Y3199D01*
X458Y3197D01*
X462Y3197D01*
X462Y3195D01*
X464Y3195D01*
X464Y3191D01*
X466Y3191D01*
X466Y3189D01*
X468Y3189D01*
X468Y3187D01*
X470Y3187D01*
X470Y3185D01*
X472Y3185D01*
X472Y3181D01*
X474Y3181D01*
X474Y3179D01*
X476Y3179D01*
X476Y3175D01*
X478Y3175D01*
X478Y3171D01*
X480Y3171D01*
X480Y3167D01*
X482Y3167D01*
X482Y3163D01*
X484Y3163D01*
X484Y3157D01*
X486Y3157D01*
X486Y3147D01*
X488Y3147D01*
X488Y3143D01*
X508Y3143D01*
X508Y3221D01*
X414Y3221D01*
G37*
D02*
G36*
X688Y3221D02*
X688Y3145D01*
X708Y3145D01*
X708Y3147D01*
X710Y3147D01*
X710Y3151D01*
X712Y3151D01*
X712Y3157D01*
X714Y3157D01*
X714Y3163D01*
X716Y3163D01*
X716Y3169D01*
X718Y3169D01*
X718Y3173D01*
X720Y3173D01*
X720Y3177D01*
X722Y3177D01*
X722Y3179D01*
X724Y3179D01*
X724Y3183D01*
X726Y3183D01*
X726Y3185D01*
X728Y3185D01*
X728Y3187D01*
X730Y3187D01*
X730Y3191D01*
X732Y3191D01*
X732Y3193D01*
X734Y3193D01*
X734Y3195D01*
X736Y3195D01*
X736Y3197D01*
X738Y3197D01*
X738Y3199D01*
X740Y3199D01*
X740Y3201D01*
X744Y3201D01*
X744Y3203D01*
X746Y3203D01*
X746Y3205D01*
X748Y3205D01*
X748Y3207D01*
X752Y3207D01*
X752Y3209D01*
X756Y3209D01*
X756Y3211D01*
X760Y3211D01*
X760Y3213D01*
X764Y3213D01*
X764Y3215D01*
X770Y3215D01*
X770Y3217D01*
X776Y3217D01*
X776Y3219D01*
X786Y3219D01*
X786Y3221D01*
X688Y3221D01*
G37*
D02*
G36*
X812Y3221D02*
X812Y3219D01*
X822Y3219D01*
X822Y3217D01*
X828Y3217D01*
X828Y3215D01*
X834Y3215D01*
X834Y3213D01*
X838Y3213D01*
X838Y3211D01*
X842Y3211D01*
X842Y3209D01*
X844Y3209D01*
X844Y3207D01*
X848Y3207D01*
X848Y3205D01*
X852Y3205D01*
X852Y3203D01*
X854Y3203D01*
X854Y3201D01*
X856Y3201D01*
X856Y3199D01*
X858Y3199D01*
X858Y3197D01*
X860Y3197D01*
X860Y3195D01*
X862Y3195D01*
X862Y3193D01*
X864Y3193D01*
X864Y3191D01*
X866Y3191D01*
X866Y3189D01*
X868Y3189D01*
X868Y3187D01*
X870Y3187D01*
X870Y3185D01*
X872Y3185D01*
X872Y3181D01*
X874Y3181D01*
X874Y3179D01*
X876Y3179D01*
X876Y3175D01*
X878Y3175D01*
X878Y3171D01*
X880Y3171D01*
X880Y3167D01*
X882Y3167D01*
X882Y3161D01*
X884Y3161D01*
X884Y3155D01*
X886Y3155D01*
X886Y3145D01*
X908Y3145D01*
X908Y3221D01*
X812Y3221D01*
G37*
D02*
G36*
X1088Y3221D02*
X1088Y3041D01*
X1012Y3041D01*
X1012Y3039D01*
X1010Y3039D01*
X1010Y3037D01*
X1008Y3037D01*
X1008Y3035D01*
X1006Y3035D01*
X1006Y3033D01*
X1004Y3033D01*
X1004Y3031D01*
X1002Y3031D01*
X1002Y3029D01*
X1000Y3029D01*
X1000Y3027D01*
X998Y3027D01*
X998Y3025D01*
X996Y3025D01*
X996Y3023D01*
X994Y3023D01*
X994Y3021D01*
X992Y3021D01*
X992Y3019D01*
X990Y3019D01*
X990Y3017D01*
X988Y3017D01*
X988Y3015D01*
X986Y3015D01*
X986Y3013D01*
X984Y3013D01*
X984Y3011D01*
X982Y3011D01*
X982Y3009D01*
X980Y3009D01*
X980Y3007D01*
X978Y3007D01*
X978Y3005D01*
X976Y3005D01*
X976Y3003D01*
X974Y3003D01*
X974Y3001D01*
X972Y3001D01*
X972Y2999D01*
X970Y2999D01*
X970Y2997D01*
X968Y2997D01*
X968Y2995D01*
X966Y2995D01*
X966Y2993D01*
X964Y2993D01*
X964Y2991D01*
X962Y2991D01*
X962Y2989D01*
X960Y2989D01*
X960Y2987D01*
X958Y2987D01*
X958Y2985D01*
X956Y2985D01*
X956Y2983D01*
X954Y2983D01*
X954Y2981D01*
X952Y2981D01*
X952Y2979D01*
X950Y2979D01*
X950Y2977D01*
X948Y2977D01*
X948Y2975D01*
X946Y2975D01*
X946Y2973D01*
X944Y2973D01*
X944Y2971D01*
X942Y2971D01*
X942Y2969D01*
X940Y2969D01*
X940Y2967D01*
X938Y2967D01*
X938Y2965D01*
X936Y2965D01*
X936Y2963D01*
X934Y2963D01*
X934Y2961D01*
X932Y2961D01*
X932Y2959D01*
X930Y2959D01*
X930Y2957D01*
X928Y2957D01*
X928Y2955D01*
X926Y2955D01*
X926Y2953D01*
X924Y2953D01*
X924Y2951D01*
X922Y2951D01*
X922Y2949D01*
X920Y2949D01*
X920Y2947D01*
X916Y2947D01*
X916Y2945D01*
X914Y2945D01*
X914Y2943D01*
X912Y2943D01*
X912Y2941D01*
X910Y2941D01*
X910Y2939D01*
X908Y2939D01*
X908Y2937D01*
X906Y2937D01*
X906Y2935D01*
X904Y2935D01*
X904Y2933D01*
X902Y2933D01*
X902Y2931D01*
X900Y2931D01*
X900Y2929D01*
X898Y2929D01*
X898Y2927D01*
X896Y2927D01*
X896Y2925D01*
X894Y2925D01*
X894Y2923D01*
X892Y2923D01*
X892Y2921D01*
X890Y2921D01*
X890Y2919D01*
X888Y2919D01*
X888Y2917D01*
X886Y2917D01*
X886Y2915D01*
X884Y2915D01*
X884Y2913D01*
X882Y2913D01*
X882Y2911D01*
X880Y2911D01*
X880Y2909D01*
X878Y2909D01*
X878Y2907D01*
X876Y2907D01*
X876Y2905D01*
X874Y2905D01*
X874Y2903D01*
X872Y2903D01*
X872Y2901D01*
X870Y2901D01*
X870Y2899D01*
X868Y2899D01*
X868Y2897D01*
X866Y2897D01*
X866Y2895D01*
X864Y2895D01*
X864Y2893D01*
X862Y2893D01*
X862Y2891D01*
X860Y2891D01*
X860Y2889D01*
X858Y2889D01*
X858Y2887D01*
X856Y2887D01*
X856Y2885D01*
X854Y2885D01*
X854Y2883D01*
X852Y2883D01*
X852Y2881D01*
X850Y2881D01*
X850Y2879D01*
X848Y2879D01*
X848Y2877D01*
X846Y2877D01*
X846Y2875D01*
X844Y2875D01*
X844Y2873D01*
X842Y2873D01*
X842Y2871D01*
X840Y2871D01*
X840Y2869D01*
X838Y2869D01*
X838Y2867D01*
X836Y2867D01*
X836Y2865D01*
X834Y2865D01*
X834Y2863D01*
X832Y2863D01*
X832Y2861D01*
X830Y2861D01*
X830Y2859D01*
X828Y2859D01*
X828Y2857D01*
X826Y2857D01*
X826Y2855D01*
X824Y2855D01*
X824Y2853D01*
X822Y2853D01*
X822Y2851D01*
X820Y2851D01*
X820Y2849D01*
X818Y2849D01*
X818Y2847D01*
X816Y2847D01*
X816Y2845D01*
X814Y2845D01*
X814Y2843D01*
X812Y2843D01*
X812Y2841D01*
X810Y2841D01*
X810Y2839D01*
X808Y2839D01*
X808Y2837D01*
X806Y2837D01*
X806Y2835D01*
X804Y2835D01*
X804Y2833D01*
X802Y2833D01*
X802Y2831D01*
X800Y2831D01*
X800Y2829D01*
X798Y2829D01*
X798Y2827D01*
X796Y2827D01*
X796Y2825D01*
X794Y2825D01*
X794Y2823D01*
X792Y2823D01*
X792Y2821D01*
X790Y2821D01*
X790Y2819D01*
X788Y2819D01*
X788Y2817D01*
X786Y2817D01*
X786Y2815D01*
X784Y2815D01*
X784Y2813D01*
X782Y2813D01*
X782Y2811D01*
X780Y2811D01*
X780Y2809D01*
X778Y2809D01*
X778Y2807D01*
X776Y2807D01*
X776Y2805D01*
X774Y2805D01*
X774Y2803D01*
X772Y2803D01*
X772Y2719D01*
X1110Y2719D01*
X1110Y2717D01*
X1120Y2717D01*
X1120Y2715D01*
X1128Y2715D01*
X1128Y2713D01*
X1132Y2713D01*
X1132Y2711D01*
X1136Y2711D01*
X1136Y2709D01*
X1140Y2709D01*
X1140Y2707D01*
X1144Y2707D01*
X1144Y2705D01*
X1148Y2705D01*
X1148Y2703D01*
X1150Y2703D01*
X1150Y2701D01*
X1152Y2701D01*
X1152Y2699D01*
X1156Y2699D01*
X1156Y2697D01*
X1158Y2697D01*
X1158Y2695D01*
X1160Y2695D01*
X1160Y2693D01*
X1162Y2693D01*
X1162Y2691D01*
X1164Y2691D01*
X1164Y2689D01*
X1166Y2689D01*
X1166Y2685D01*
X1168Y2685D01*
X1168Y2683D01*
X1170Y2683D01*
X1170Y2681D01*
X1172Y2681D01*
X1172Y2677D01*
X1174Y2677D01*
X1174Y2673D01*
X1176Y2673D01*
X1176Y2669D01*
X1178Y2669D01*
X1178Y2665D01*
X1180Y2665D01*
X1180Y2661D01*
X1182Y2661D01*
X1182Y2653D01*
X1184Y2653D01*
X1184Y2645D01*
X1186Y2645D01*
X1186Y2619D01*
X1184Y2619D01*
X1184Y2609D01*
X1182Y2609D01*
X1182Y2603D01*
X1180Y2603D01*
X1180Y2597D01*
X1178Y2597D01*
X1178Y2593D01*
X1176Y2593D01*
X1176Y2589D01*
X1174Y2589D01*
X1174Y2585D01*
X1172Y2585D01*
X1172Y2583D01*
X1170Y2583D01*
X1170Y2579D01*
X1168Y2579D01*
X1168Y2577D01*
X1166Y2577D01*
X1166Y2575D01*
X1164Y2575D01*
X1164Y2573D01*
X1162Y2573D01*
X1162Y2571D01*
X1160Y2571D01*
X1160Y2569D01*
X1158Y2569D01*
X1158Y2567D01*
X1156Y2567D01*
X1156Y2565D01*
X1154Y2565D01*
X1154Y2563D01*
X1152Y2563D01*
X1152Y2561D01*
X1150Y2561D01*
X1150Y2559D01*
X1146Y2559D01*
X1146Y2557D01*
X1142Y2557D01*
X1142Y2555D01*
X1140Y2555D01*
X1140Y2553D01*
X1136Y2553D01*
X1136Y2551D01*
X1130Y2551D01*
X1130Y2549D01*
X1124Y2549D01*
X1124Y2547D01*
X1118Y2547D01*
X1118Y2545D01*
X1110Y2545D01*
X1110Y2543D01*
X1296Y2543D01*
X1296Y2545D01*
X1280Y2545D01*
X1280Y2547D01*
X1272Y2547D01*
X1272Y2549D01*
X1266Y2549D01*
X1266Y2551D01*
X1262Y2551D01*
X1262Y2553D01*
X1258Y2553D01*
X1258Y2555D01*
X1254Y2555D01*
X1254Y2557D01*
X1252Y2557D01*
X1252Y2559D01*
X1248Y2559D01*
X1248Y2561D01*
X1246Y2561D01*
X1246Y2563D01*
X1242Y2563D01*
X1242Y2565D01*
X1240Y2565D01*
X1240Y2567D01*
X1238Y2567D01*
X1238Y2569D01*
X1236Y2569D01*
X1236Y2571D01*
X1234Y2571D01*
X1234Y2573D01*
X1232Y2573D01*
X1232Y2575D01*
X1230Y2575D01*
X1230Y2579D01*
X1228Y2579D01*
X1228Y2581D01*
X1226Y2581D01*
X1226Y2585D01*
X1224Y2585D01*
X1224Y2587D01*
X1222Y2587D01*
X1222Y2591D01*
X1220Y2591D01*
X1220Y2595D01*
X1218Y2595D01*
X1218Y2601D01*
X1216Y2601D01*
X1216Y2605D01*
X1214Y2605D01*
X1214Y2613D01*
X1212Y2613D01*
X1212Y2649D01*
X1214Y2649D01*
X1214Y2657D01*
X1216Y2657D01*
X1216Y2663D01*
X1218Y2663D01*
X1218Y2667D01*
X1220Y2667D01*
X1220Y2671D01*
X1222Y2671D01*
X1222Y2675D01*
X1224Y2675D01*
X1224Y2771D01*
X1226Y2771D01*
X1226Y3041D01*
X1188Y3041D01*
X1188Y3043D01*
X1178Y3043D01*
X1178Y3045D01*
X1170Y3045D01*
X1170Y3047D01*
X1164Y3047D01*
X1164Y3049D01*
X1160Y3049D01*
X1160Y3051D01*
X1156Y3051D01*
X1156Y3053D01*
X1152Y3053D01*
X1152Y3055D01*
X1150Y3055D01*
X1150Y3057D01*
X1146Y3057D01*
X1146Y3059D01*
X1144Y3059D01*
X1144Y3061D01*
X1142Y3061D01*
X1142Y3063D01*
X1140Y3063D01*
X1140Y3065D01*
X1136Y3065D01*
X1136Y3067D01*
X1134Y3067D01*
X1134Y3069D01*
X1132Y3069D01*
X1132Y3073D01*
X1130Y3073D01*
X1130Y3075D01*
X1128Y3075D01*
X1128Y3077D01*
X1126Y3077D01*
X1126Y3079D01*
X1124Y3079D01*
X1124Y3083D01*
X1122Y3083D01*
X1122Y3087D01*
X1120Y3087D01*
X1120Y3089D01*
X1118Y3089D01*
X1118Y3093D01*
X1116Y3093D01*
X1116Y3099D01*
X1114Y3099D01*
X1114Y3103D01*
X1112Y3103D01*
X1112Y3111D01*
X1110Y3111D01*
X1110Y3125D01*
X1108Y3125D01*
X1108Y3139D01*
X1110Y3139D01*
X1110Y3151D01*
X1112Y3151D01*
X1112Y3159D01*
X1114Y3159D01*
X1114Y3165D01*
X1116Y3165D01*
X1116Y3169D01*
X1118Y3169D01*
X1118Y3173D01*
X1120Y3173D01*
X1120Y3177D01*
X1122Y3177D01*
X1122Y3181D01*
X1124Y3181D01*
X1124Y3183D01*
X1126Y3183D01*
X1126Y3185D01*
X1128Y3185D01*
X1128Y3189D01*
X1130Y3189D01*
X1130Y3191D01*
X1132Y3191D01*
X1132Y3193D01*
X1134Y3193D01*
X1134Y3195D01*
X1136Y3195D01*
X1136Y3197D01*
X1138Y3197D01*
X1138Y3199D01*
X1140Y3199D01*
X1140Y3201D01*
X1142Y3201D01*
X1142Y3203D01*
X1146Y3203D01*
X1146Y3205D01*
X1148Y3205D01*
X1148Y3207D01*
X1152Y3207D01*
X1152Y3209D01*
X1154Y3209D01*
X1154Y3211D01*
X1158Y3211D01*
X1158Y3213D01*
X1162Y3213D01*
X1162Y3215D01*
X1168Y3215D01*
X1168Y3217D01*
X1174Y3217D01*
X1174Y3219D01*
X1184Y3219D01*
X1184Y3221D01*
X1088Y3221D01*
G37*
D02*
G36*
X1214Y3221D02*
X1214Y3219D01*
X1222Y3219D01*
X1222Y3217D01*
X1228Y3217D01*
X1228Y3215D01*
X1234Y3215D01*
X1234Y3213D01*
X1238Y3213D01*
X1238Y3211D01*
X1242Y3211D01*
X1242Y3209D01*
X1246Y3209D01*
X1246Y3207D01*
X1248Y3207D01*
X1248Y3205D01*
X1252Y3205D01*
X1252Y3203D01*
X1254Y3203D01*
X1254Y3201D01*
X1256Y3201D01*
X1256Y3199D01*
X1258Y3199D01*
X1258Y3197D01*
X1262Y3197D01*
X1262Y3195D01*
X1264Y3195D01*
X1264Y3191D01*
X1266Y3191D01*
X1266Y3189D01*
X1268Y3189D01*
X1268Y3187D01*
X1270Y3187D01*
X1270Y3185D01*
X1272Y3185D01*
X1272Y3181D01*
X1274Y3181D01*
X1274Y3179D01*
X1276Y3179D01*
X1276Y3175D01*
X1278Y3175D01*
X1278Y3171D01*
X1280Y3171D01*
X1280Y3167D01*
X1282Y3167D01*
X1282Y3163D01*
X1284Y3163D01*
X1284Y3157D01*
X1286Y3157D01*
X1286Y3147D01*
X1288Y3147D01*
X1288Y3143D01*
X1308Y3143D01*
X1308Y3221D01*
X1214Y3221D01*
G37*
D02*
G36*
X1488Y3221D02*
X1488Y3145D01*
X1508Y3145D01*
X1508Y3147D01*
X1510Y3147D01*
X1510Y3151D01*
X1512Y3151D01*
X1512Y3159D01*
X1514Y3159D01*
X1514Y3165D01*
X1516Y3165D01*
X1516Y3169D01*
X1518Y3169D01*
X1518Y3173D01*
X1520Y3173D01*
X1520Y3177D01*
X1522Y3177D01*
X1522Y3181D01*
X1524Y3181D01*
X1524Y3183D01*
X1526Y3183D01*
X1526Y3185D01*
X1528Y3185D01*
X1528Y3189D01*
X1530Y3189D01*
X1530Y3191D01*
X1532Y3191D01*
X1532Y3193D01*
X1534Y3193D01*
X1534Y3195D01*
X1536Y3195D01*
X1536Y3197D01*
X1538Y3197D01*
X1538Y3199D01*
X1540Y3199D01*
X1540Y3201D01*
X1542Y3201D01*
X1542Y3203D01*
X1546Y3203D01*
X1546Y3205D01*
X1548Y3205D01*
X1548Y3207D01*
X1552Y3207D01*
X1552Y3209D01*
X1554Y3209D01*
X1554Y3211D01*
X1558Y3211D01*
X1558Y3213D01*
X1562Y3213D01*
X1562Y3215D01*
X1568Y3215D01*
X1568Y3217D01*
X1574Y3217D01*
X1574Y3219D01*
X1584Y3219D01*
X1584Y3221D01*
X1488Y3221D01*
G37*
D02*
G36*
X1614Y3221D02*
X1614Y3219D01*
X1622Y3219D01*
X1622Y3217D01*
X1628Y3217D01*
X1628Y3215D01*
X1634Y3215D01*
X1634Y3213D01*
X1638Y3213D01*
X1638Y3211D01*
X1642Y3211D01*
X1642Y3209D01*
X1646Y3209D01*
X1646Y3207D01*
X1648Y3207D01*
X1648Y3205D01*
X1652Y3205D01*
X1652Y3203D01*
X1654Y3203D01*
X1654Y3201D01*
X1656Y3201D01*
X1656Y3199D01*
X1658Y3199D01*
X1658Y3197D01*
X1662Y3197D01*
X1662Y3195D01*
X1664Y3195D01*
X1664Y3191D01*
X1666Y3191D01*
X1666Y3189D01*
X1668Y3189D01*
X1668Y3187D01*
X1670Y3187D01*
X1670Y3185D01*
X1672Y3185D01*
X1672Y3181D01*
X1674Y3181D01*
X1674Y3179D01*
X1676Y3179D01*
X1676Y3175D01*
X1678Y3175D01*
X1678Y3171D01*
X1680Y3171D01*
X1680Y3167D01*
X1682Y3167D01*
X1682Y3163D01*
X1684Y3163D01*
X1684Y3157D01*
X1686Y3157D01*
X1686Y3147D01*
X1688Y3147D01*
X1688Y3145D01*
X1708Y3145D01*
X1708Y3221D01*
X1614Y3221D01*
G37*
D02*
G36*
X1888Y3221D02*
X1888Y3145D01*
X1908Y3145D01*
X1908Y3147D01*
X1910Y3147D01*
X1910Y3151D01*
X1912Y3151D01*
X1912Y3157D01*
X1914Y3157D01*
X1914Y3163D01*
X1916Y3163D01*
X1916Y3169D01*
X1918Y3169D01*
X1918Y3173D01*
X1920Y3173D01*
X1920Y3177D01*
X1922Y3177D01*
X1922Y3179D01*
X1924Y3179D01*
X1924Y3183D01*
X1926Y3183D01*
X1926Y3185D01*
X1928Y3185D01*
X1928Y3187D01*
X1930Y3187D01*
X1930Y3191D01*
X1932Y3191D01*
X1932Y3193D01*
X1934Y3193D01*
X1934Y3195D01*
X1936Y3195D01*
X1936Y3197D01*
X1938Y3197D01*
X1938Y3199D01*
X1940Y3199D01*
X1940Y3201D01*
X1944Y3201D01*
X1944Y3203D01*
X1946Y3203D01*
X1946Y3205D01*
X1948Y3205D01*
X1948Y3207D01*
X1952Y3207D01*
X1952Y3209D01*
X1956Y3209D01*
X1956Y3211D01*
X1960Y3211D01*
X1960Y3213D01*
X1964Y3213D01*
X1964Y3215D01*
X1970Y3215D01*
X1970Y3217D01*
X1976Y3217D01*
X1976Y3219D01*
X1986Y3219D01*
X1986Y3221D01*
X1888Y3221D01*
G37*
D02*
G36*
X2012Y3221D02*
X2012Y3219D01*
X2022Y3219D01*
X2022Y3217D01*
X2028Y3217D01*
X2028Y3215D01*
X2034Y3215D01*
X2034Y3213D01*
X2038Y3213D01*
X2038Y3211D01*
X2042Y3211D01*
X2042Y3209D01*
X2044Y3209D01*
X2044Y3207D01*
X2048Y3207D01*
X2048Y3205D01*
X2052Y3205D01*
X2052Y3203D01*
X2054Y3203D01*
X2054Y3201D01*
X2056Y3201D01*
X2056Y3199D01*
X2058Y3199D01*
X2058Y3197D01*
X2060Y3197D01*
X2060Y3195D01*
X2062Y3195D01*
X2062Y3193D01*
X2064Y3193D01*
X2064Y3191D01*
X2066Y3191D01*
X2066Y3189D01*
X2068Y3189D01*
X2068Y3187D01*
X2070Y3187D01*
X2070Y3185D01*
X2072Y3185D01*
X2072Y3181D01*
X2074Y3181D01*
X2074Y3179D01*
X2076Y3179D01*
X2076Y3175D01*
X2078Y3175D01*
X2078Y3171D01*
X2080Y3171D01*
X2080Y3167D01*
X2082Y3167D01*
X2082Y3161D01*
X2084Y3161D01*
X2084Y3155D01*
X2086Y3155D01*
X2086Y3145D01*
X2088Y3145D01*
X2088Y3117D01*
X2086Y3117D01*
X2086Y3107D01*
X2084Y3107D01*
X2084Y3101D01*
X2082Y3101D01*
X2082Y3097D01*
X2080Y3097D01*
X2080Y3093D01*
X2078Y3093D01*
X2078Y3089D01*
X2076Y3089D01*
X2076Y3085D01*
X2074Y3085D01*
X2074Y3081D01*
X2072Y3081D01*
X2072Y3079D01*
X2070Y3079D01*
X2070Y3077D01*
X2068Y3077D01*
X2068Y3073D01*
X2066Y3073D01*
X2066Y3071D01*
X2064Y3071D01*
X2064Y3069D01*
X2062Y3069D01*
X2062Y3067D01*
X2060Y3067D01*
X2060Y3065D01*
X2058Y3065D01*
X2058Y3063D01*
X2056Y3063D01*
X2056Y3061D01*
X2052Y3061D01*
X2052Y3059D01*
X2050Y3059D01*
X2050Y3057D01*
X2046Y3057D01*
X2046Y3055D01*
X2044Y3055D01*
X2044Y3053D01*
X2040Y3053D01*
X2040Y3051D01*
X2036Y3051D01*
X2036Y3049D01*
X2032Y3049D01*
X2032Y3047D01*
X2026Y3047D01*
X2026Y3045D01*
X2018Y3045D01*
X2018Y3043D01*
X2014Y3043D01*
X2014Y3041D01*
X2108Y3041D01*
X2108Y3221D01*
X2012Y3221D01*
G37*
D02*
G36*
X2288Y3221D02*
X2288Y3041D01*
X2386Y3041D01*
X2386Y3043D01*
X2378Y3043D01*
X2378Y3045D01*
X2370Y3045D01*
X2370Y3047D01*
X2364Y3047D01*
X2364Y3049D01*
X2360Y3049D01*
X2360Y3051D01*
X2356Y3051D01*
X2356Y3053D01*
X2352Y3053D01*
X2352Y3055D01*
X2350Y3055D01*
X2350Y3057D01*
X2346Y3057D01*
X2346Y3059D01*
X2344Y3059D01*
X2344Y3061D01*
X2342Y3061D01*
X2342Y3063D01*
X2340Y3063D01*
X2340Y3065D01*
X2336Y3065D01*
X2336Y3067D01*
X2334Y3067D01*
X2334Y3069D01*
X2332Y3069D01*
X2332Y3073D01*
X2330Y3073D01*
X2330Y3075D01*
X2328Y3075D01*
X2328Y3077D01*
X2326Y3077D01*
X2326Y3079D01*
X2324Y3079D01*
X2324Y3083D01*
X2322Y3083D01*
X2322Y3087D01*
X2320Y3087D01*
X2320Y3089D01*
X2318Y3089D01*
X2318Y3093D01*
X2316Y3093D01*
X2316Y3099D01*
X2314Y3099D01*
X2314Y3103D01*
X2312Y3103D01*
X2312Y3111D01*
X2310Y3111D01*
X2310Y3125D01*
X2308Y3125D01*
X2308Y3139D01*
X2310Y3139D01*
X2310Y3151D01*
X2312Y3151D01*
X2312Y3159D01*
X2314Y3159D01*
X2314Y3165D01*
X2316Y3165D01*
X2316Y3169D01*
X2318Y3169D01*
X2318Y3173D01*
X2320Y3173D01*
X2320Y3177D01*
X2322Y3177D01*
X2322Y3181D01*
X2324Y3181D01*
X2324Y3183D01*
X2326Y3183D01*
X2326Y3185D01*
X2328Y3185D01*
X2328Y3189D01*
X2330Y3189D01*
X2330Y3191D01*
X2332Y3191D01*
X2332Y3193D01*
X2334Y3193D01*
X2334Y3195D01*
X2336Y3195D01*
X2336Y3197D01*
X2338Y3197D01*
X2338Y3199D01*
X2340Y3199D01*
X2340Y3201D01*
X2342Y3201D01*
X2342Y3203D01*
X2346Y3203D01*
X2346Y3205D01*
X2348Y3205D01*
X2348Y3207D01*
X2352Y3207D01*
X2352Y3209D01*
X2354Y3209D01*
X2354Y3211D01*
X2358Y3211D01*
X2358Y3213D01*
X2362Y3213D01*
X2362Y3215D01*
X2368Y3215D01*
X2368Y3217D01*
X2374Y3217D01*
X2374Y3219D01*
X2384Y3219D01*
X2384Y3221D01*
X2288Y3221D01*
G37*
D02*
G36*
X2414Y3221D02*
X2414Y3219D01*
X2422Y3219D01*
X2422Y3217D01*
X2428Y3217D01*
X2428Y3215D01*
X2434Y3215D01*
X2434Y3213D01*
X2438Y3213D01*
X2438Y3211D01*
X2442Y3211D01*
X2442Y3209D01*
X2446Y3209D01*
X2446Y3207D01*
X2448Y3207D01*
X2448Y3205D01*
X2452Y3205D01*
X2452Y3203D01*
X2454Y3203D01*
X2454Y3201D01*
X2456Y3201D01*
X2456Y3199D01*
X2458Y3199D01*
X2458Y3197D01*
X2462Y3197D01*
X2462Y3195D01*
X2464Y3195D01*
X2464Y3191D01*
X2466Y3191D01*
X2466Y3189D01*
X2468Y3189D01*
X2468Y3187D01*
X2470Y3187D01*
X2470Y3185D01*
X2472Y3185D01*
X2472Y3181D01*
X2474Y3181D01*
X2474Y3179D01*
X2476Y3179D01*
X2476Y3175D01*
X2478Y3175D01*
X2478Y3171D01*
X2480Y3171D01*
X2480Y3167D01*
X2482Y3167D01*
X2482Y3163D01*
X2484Y3163D01*
X2484Y3157D01*
X2486Y3157D01*
X2486Y3147D01*
X2488Y3147D01*
X2488Y3145D01*
X2508Y3145D01*
X2508Y3221D01*
X2414Y3221D01*
G37*
D02*
G36*
X2688Y3221D02*
X2688Y3051D01*
X2708Y3051D01*
X2708Y3053D01*
X2710Y3053D01*
X2710Y3055D01*
X2712Y3055D01*
X2712Y3057D01*
X2714Y3057D01*
X2714Y3059D01*
X2718Y3059D01*
X2718Y3061D01*
X2720Y3061D01*
X2720Y3063D01*
X2722Y3063D01*
X2722Y3087D01*
X2720Y3087D01*
X2720Y3089D01*
X2718Y3089D01*
X2718Y3093D01*
X2716Y3093D01*
X2716Y3099D01*
X2714Y3099D01*
X2714Y3103D01*
X2712Y3103D01*
X2712Y3111D01*
X2710Y3111D01*
X2710Y3125D01*
X2708Y3125D01*
X2708Y3139D01*
X2710Y3139D01*
X2710Y3151D01*
X2712Y3151D01*
X2712Y3159D01*
X2714Y3159D01*
X2714Y3165D01*
X2716Y3165D01*
X2716Y3169D01*
X2718Y3169D01*
X2718Y3173D01*
X2720Y3173D01*
X2720Y3177D01*
X2722Y3177D01*
X2722Y3181D01*
X2724Y3181D01*
X2724Y3183D01*
X2726Y3183D01*
X2726Y3185D01*
X2728Y3185D01*
X2728Y3189D01*
X2730Y3189D01*
X2730Y3191D01*
X2732Y3191D01*
X2732Y3193D01*
X2734Y3193D01*
X2734Y3195D01*
X2736Y3195D01*
X2736Y3197D01*
X2738Y3197D01*
X2738Y3199D01*
X2740Y3199D01*
X2740Y3201D01*
X2742Y3201D01*
X2742Y3203D01*
X2746Y3203D01*
X2746Y3205D01*
X2748Y3205D01*
X2748Y3207D01*
X2752Y3207D01*
X2752Y3209D01*
X2754Y3209D01*
X2754Y3211D01*
X2758Y3211D01*
X2758Y3213D01*
X2762Y3213D01*
X2762Y3215D01*
X2768Y3215D01*
X2768Y3217D01*
X2774Y3217D01*
X2774Y3219D01*
X2784Y3219D01*
X2784Y3221D01*
X2688Y3221D01*
G37*
D02*
G36*
X2012Y3041D02*
X2012Y3039D01*
X2386Y3039D01*
X2386Y3041D01*
X2012Y3041D01*
G37*
D02*
G36*
X2012Y3041D02*
X2012Y3039D01*
X2386Y3039D01*
X2386Y3041D01*
X2012Y3041D01*
G37*
D02*
G36*
X2010Y3039D02*
X2010Y3037D01*
X2008Y3037D01*
X2008Y3035D01*
X2006Y3035D01*
X2006Y3033D01*
X2004Y3033D01*
X2004Y3031D01*
X2002Y3031D01*
X2002Y3029D01*
X2000Y3029D01*
X2000Y3027D01*
X1998Y3027D01*
X1998Y3025D01*
X1996Y3025D01*
X1996Y3023D01*
X1994Y3023D01*
X1994Y3021D01*
X1992Y3021D01*
X1992Y3019D01*
X1990Y3019D01*
X1990Y3017D01*
X1988Y3017D01*
X1988Y3015D01*
X1986Y3015D01*
X1986Y3013D01*
X1984Y3013D01*
X1984Y3011D01*
X1982Y3011D01*
X1982Y3009D01*
X1980Y3009D01*
X1980Y3007D01*
X1978Y3007D01*
X1978Y3005D01*
X1976Y3005D01*
X1976Y3003D01*
X1974Y3003D01*
X1974Y3001D01*
X1972Y3001D01*
X1972Y2999D01*
X1970Y2999D01*
X1970Y2997D01*
X1968Y2997D01*
X1968Y2995D01*
X1966Y2995D01*
X1966Y2993D01*
X1964Y2993D01*
X1964Y2991D01*
X1962Y2991D01*
X1962Y2989D01*
X1960Y2989D01*
X1960Y2987D01*
X1958Y2987D01*
X1958Y2985D01*
X1956Y2985D01*
X1956Y2983D01*
X1954Y2983D01*
X1954Y2981D01*
X1952Y2981D01*
X1952Y2979D01*
X1950Y2979D01*
X1950Y2977D01*
X1948Y2977D01*
X1948Y2975D01*
X1946Y2975D01*
X1946Y2973D01*
X1944Y2973D01*
X1944Y2971D01*
X1942Y2971D01*
X1942Y2969D01*
X1940Y2969D01*
X1940Y2967D01*
X1938Y2967D01*
X1938Y2965D01*
X1936Y2965D01*
X1936Y2963D01*
X1934Y2963D01*
X1934Y2961D01*
X1932Y2961D01*
X1932Y2959D01*
X1930Y2959D01*
X1930Y2957D01*
X1928Y2957D01*
X1928Y2955D01*
X1926Y2955D01*
X1926Y2953D01*
X1924Y2953D01*
X1924Y2951D01*
X1922Y2951D01*
X1922Y2949D01*
X1920Y2949D01*
X1920Y2947D01*
X1918Y2947D01*
X1918Y2945D01*
X2106Y2945D01*
X2106Y2943D01*
X2122Y2943D01*
X2122Y2941D01*
X2130Y2941D01*
X2130Y2939D01*
X2136Y2939D01*
X2136Y2937D01*
X2142Y2937D01*
X2142Y2935D01*
X2146Y2935D01*
X2146Y2933D01*
X2150Y2933D01*
X2150Y2931D01*
X2154Y2931D01*
X2154Y2929D01*
X2156Y2929D01*
X2156Y2927D01*
X2160Y2927D01*
X2160Y2925D01*
X2164Y2925D01*
X2164Y2923D01*
X2166Y2923D01*
X2166Y2921D01*
X2168Y2921D01*
X2168Y2919D01*
X2172Y2919D01*
X2172Y2917D01*
X2174Y2917D01*
X2174Y2915D01*
X2176Y2915D01*
X2176Y2913D01*
X2178Y2913D01*
X2178Y2911D01*
X2180Y2911D01*
X2180Y2909D01*
X2182Y2909D01*
X2182Y2907D01*
X2184Y2907D01*
X2184Y2905D01*
X2186Y2905D01*
X2186Y2901D01*
X2188Y2901D01*
X2188Y2899D01*
X2190Y2899D01*
X2190Y2897D01*
X2192Y2897D01*
X2192Y2893D01*
X2194Y2893D01*
X2194Y2891D01*
X2196Y2891D01*
X2196Y2887D01*
X2198Y2887D01*
X2198Y2883D01*
X2200Y2883D01*
X2200Y2879D01*
X2202Y2879D01*
X2202Y2875D01*
X2204Y2875D01*
X2204Y2869D01*
X2206Y2869D01*
X2206Y2863D01*
X2208Y2863D01*
X2208Y2855D01*
X2210Y2855D01*
X2210Y2841D01*
X2212Y2841D01*
X2212Y2827D01*
X2324Y2827D01*
X2324Y2947D01*
X2326Y2947D01*
X2326Y2955D01*
X2328Y2955D01*
X2328Y2959D01*
X2330Y2959D01*
X2330Y2965D01*
X2332Y2965D01*
X2332Y2967D01*
X2334Y2967D01*
X2334Y2971D01*
X2336Y2971D01*
X2336Y2975D01*
X2338Y2975D01*
X2338Y2977D01*
X2340Y2977D01*
X2340Y2979D01*
X2342Y2979D01*
X2342Y2981D01*
X2344Y2981D01*
X2344Y2983D01*
X2346Y2983D01*
X2346Y2985D01*
X2348Y2985D01*
X2348Y2987D01*
X2350Y2987D01*
X2350Y2989D01*
X2352Y2989D01*
X2352Y2991D01*
X2354Y2991D01*
X2354Y2993D01*
X2356Y2993D01*
X2356Y2995D01*
X2358Y2995D01*
X2358Y2997D01*
X2360Y2997D01*
X2360Y2999D01*
X2362Y2999D01*
X2362Y3001D01*
X2364Y3001D01*
X2364Y3003D01*
X2366Y3003D01*
X2366Y3005D01*
X2368Y3005D01*
X2368Y3007D01*
X2370Y3007D01*
X2370Y3009D01*
X2372Y3009D01*
X2372Y3011D01*
X2374Y3011D01*
X2374Y3013D01*
X2376Y3013D01*
X2376Y3015D01*
X2378Y3015D01*
X2378Y3017D01*
X2380Y3017D01*
X2380Y3019D01*
X2382Y3019D01*
X2382Y3021D01*
X2384Y3021D01*
X2384Y3023D01*
X2386Y3023D01*
X2386Y3039D01*
X2010Y3039D01*
G37*
D02*
G36*
X1916Y2945D02*
X1916Y2943D01*
X1914Y2943D01*
X1914Y2941D01*
X1912Y2941D01*
X1912Y2939D01*
X1910Y2939D01*
X1910Y2937D01*
X1908Y2937D01*
X1908Y2935D01*
X1906Y2935D01*
X1906Y2933D01*
X1904Y2933D01*
X1904Y2931D01*
X1902Y2931D01*
X1902Y2929D01*
X1900Y2929D01*
X1900Y2927D01*
X1898Y2927D01*
X1898Y2925D01*
X1896Y2925D01*
X1896Y2923D01*
X1894Y2923D01*
X1894Y2921D01*
X1892Y2921D01*
X1892Y2919D01*
X1890Y2919D01*
X1890Y2917D01*
X1888Y2917D01*
X1888Y2915D01*
X1886Y2915D01*
X1886Y2913D01*
X1884Y2913D01*
X1884Y2911D01*
X1882Y2911D01*
X1882Y2909D01*
X1880Y2909D01*
X1880Y2907D01*
X1878Y2907D01*
X1878Y2905D01*
X1876Y2905D01*
X1876Y2903D01*
X1874Y2903D01*
X1874Y2901D01*
X1872Y2901D01*
X1872Y2899D01*
X1870Y2899D01*
X1870Y2897D01*
X1868Y2897D01*
X1868Y2895D01*
X1866Y2895D01*
X1866Y2893D01*
X1864Y2893D01*
X1864Y2891D01*
X1862Y2891D01*
X1862Y2889D01*
X1860Y2889D01*
X1860Y2887D01*
X1858Y2887D01*
X1858Y2885D01*
X1856Y2885D01*
X1856Y2883D01*
X1854Y2883D01*
X1854Y2881D01*
X1852Y2881D01*
X1852Y2879D01*
X1850Y2879D01*
X1850Y2877D01*
X1848Y2877D01*
X1848Y2875D01*
X1846Y2875D01*
X1846Y2873D01*
X1844Y2873D01*
X1844Y2871D01*
X1842Y2871D01*
X1842Y2869D01*
X1840Y2869D01*
X1840Y2867D01*
X1838Y2867D01*
X1838Y2865D01*
X1836Y2865D01*
X1836Y2863D01*
X1834Y2863D01*
X1834Y2861D01*
X1832Y2861D01*
X1832Y2859D01*
X1830Y2859D01*
X1830Y2857D01*
X1828Y2857D01*
X1828Y2855D01*
X1826Y2855D01*
X1826Y2853D01*
X1824Y2853D01*
X1824Y2851D01*
X1822Y2851D01*
X1822Y2849D01*
X1820Y2849D01*
X1820Y2847D01*
X1818Y2847D01*
X1818Y2845D01*
X1816Y2845D01*
X1816Y2843D01*
X1814Y2843D01*
X1814Y2841D01*
X1812Y2841D01*
X1812Y2839D01*
X1810Y2839D01*
X1810Y2837D01*
X1808Y2837D01*
X1808Y2835D01*
X1806Y2835D01*
X1806Y2833D01*
X1804Y2833D01*
X1804Y2831D01*
X1802Y2831D01*
X1802Y2829D01*
X1800Y2829D01*
X1800Y2827D01*
X1798Y2827D01*
X1798Y2825D01*
X1796Y2825D01*
X1796Y2823D01*
X1794Y2823D01*
X1794Y2821D01*
X1792Y2821D01*
X1792Y2819D01*
X1790Y2819D01*
X1790Y2817D01*
X1788Y2817D01*
X1788Y2815D01*
X1786Y2815D01*
X1786Y2813D01*
X1784Y2813D01*
X1784Y2811D01*
X1782Y2811D01*
X1782Y2809D01*
X1780Y2809D01*
X1780Y2807D01*
X1778Y2807D01*
X1778Y2805D01*
X1776Y2805D01*
X1776Y2803D01*
X1774Y2803D01*
X1774Y2801D01*
X1772Y2801D01*
X1772Y2799D01*
X1770Y2799D01*
X1770Y2797D01*
X1768Y2797D01*
X1768Y2795D01*
X1766Y2795D01*
X1766Y2793D01*
X1764Y2793D01*
X1764Y2791D01*
X1762Y2791D01*
X1762Y2789D01*
X1760Y2789D01*
X1760Y2787D01*
X1758Y2787D01*
X1758Y2785D01*
X1756Y2785D01*
X1756Y2783D01*
X1754Y2783D01*
X1754Y2781D01*
X1752Y2781D01*
X1752Y2779D01*
X1750Y2779D01*
X1750Y2777D01*
X1748Y2777D01*
X1748Y2775D01*
X1746Y2775D01*
X1746Y2773D01*
X1744Y2773D01*
X1744Y2769D01*
X1742Y2769D01*
X1742Y2767D01*
X1740Y2767D01*
X1740Y2765D01*
X1738Y2765D01*
X1738Y2763D01*
X1736Y2763D01*
X1736Y2761D01*
X1734Y2761D01*
X1734Y2759D01*
X1732Y2759D01*
X1732Y2757D01*
X1730Y2757D01*
X1730Y2755D01*
X1728Y2755D01*
X1728Y2753D01*
X1726Y2753D01*
X1726Y2751D01*
X1724Y2751D01*
X1724Y2749D01*
X1722Y2749D01*
X1722Y2747D01*
X1720Y2747D01*
X1720Y2745D01*
X1718Y2745D01*
X1718Y2743D01*
X1716Y2743D01*
X1716Y2741D01*
X1714Y2741D01*
X1714Y2739D01*
X1712Y2739D01*
X1712Y2737D01*
X1710Y2737D01*
X1710Y2719D01*
X2010Y2719D01*
X2010Y2717D01*
X2020Y2717D01*
X2020Y2715D01*
X2028Y2715D01*
X2028Y2713D01*
X2032Y2713D01*
X2032Y2711D01*
X2036Y2711D01*
X2036Y2709D01*
X2056Y2709D01*
X2056Y2727D01*
X2054Y2727D01*
X2054Y2729D01*
X2050Y2729D01*
X2050Y2731D01*
X2044Y2731D01*
X2044Y2733D01*
X2042Y2733D01*
X2042Y2735D01*
X2038Y2735D01*
X2038Y2737D01*
X2036Y2737D01*
X2036Y2739D01*
X2032Y2739D01*
X2032Y2741D01*
X2030Y2741D01*
X2030Y2743D01*
X2028Y2743D01*
X2028Y2745D01*
X2024Y2745D01*
X2024Y2747D01*
X2022Y2747D01*
X2022Y2749D01*
X2020Y2749D01*
X2020Y2751D01*
X2018Y2751D01*
X2018Y2753D01*
X2016Y2753D01*
X2016Y2755D01*
X2014Y2755D01*
X2014Y2757D01*
X2012Y2757D01*
X2012Y2761D01*
X2010Y2761D01*
X2010Y2763D01*
X2008Y2763D01*
X2008Y2765D01*
X2006Y2765D01*
X2006Y2769D01*
X2004Y2769D01*
X2004Y2771D01*
X2002Y2771D01*
X2002Y2775D01*
X2000Y2775D01*
X2000Y2779D01*
X1998Y2779D01*
X1998Y2783D01*
X1996Y2783D01*
X1996Y2787D01*
X1994Y2787D01*
X1994Y2791D01*
X1992Y2791D01*
X1992Y2797D01*
X1990Y2797D01*
X1990Y2805D01*
X1988Y2805D01*
X1988Y2815D01*
X1986Y2815D01*
X1986Y2849D01*
X1988Y2849D01*
X1988Y2859D01*
X1990Y2859D01*
X1990Y2865D01*
X1992Y2865D01*
X1992Y2871D01*
X1994Y2871D01*
X1994Y2877D01*
X1996Y2877D01*
X1996Y2881D01*
X1998Y2881D01*
X1998Y2885D01*
X2000Y2885D01*
X2000Y2889D01*
X2002Y2889D01*
X2002Y2891D01*
X2004Y2891D01*
X2004Y2895D01*
X2006Y2895D01*
X2006Y2897D01*
X2008Y2897D01*
X2008Y2901D01*
X2010Y2901D01*
X2010Y2903D01*
X2012Y2903D01*
X2012Y2905D01*
X2014Y2905D01*
X2014Y2907D01*
X2016Y2907D01*
X2016Y2909D01*
X2018Y2909D01*
X2018Y2911D01*
X2020Y2911D01*
X2020Y2913D01*
X2022Y2913D01*
X2022Y2915D01*
X2024Y2915D01*
X2024Y2917D01*
X2026Y2917D01*
X2026Y2919D01*
X2028Y2919D01*
X2028Y2921D01*
X2032Y2921D01*
X2032Y2923D01*
X2034Y2923D01*
X2034Y2925D01*
X2036Y2925D01*
X2036Y2927D01*
X2040Y2927D01*
X2040Y2929D01*
X2044Y2929D01*
X2044Y2931D01*
X2048Y2931D01*
X2048Y2933D01*
X2052Y2933D01*
X2052Y2935D01*
X2056Y2935D01*
X2056Y2937D01*
X2062Y2937D01*
X2062Y2939D01*
X2068Y2939D01*
X2068Y2941D01*
X2076Y2941D01*
X2076Y2943D01*
X2092Y2943D01*
X2092Y2945D01*
X1916Y2945D01*
G37*
D02*
G36*
X2668Y2827D02*
X2668Y2825D01*
X2666Y2825D01*
X2666Y2823D01*
X2664Y2823D01*
X2664Y2821D01*
X2662Y2821D01*
X2662Y2819D01*
X2658Y2819D01*
X2658Y2817D01*
X2656Y2817D01*
X2656Y2815D01*
X2654Y2815D01*
X2654Y2813D01*
X2652Y2813D01*
X2652Y2811D01*
X2650Y2811D01*
X2650Y2809D01*
X2646Y2809D01*
X2646Y2807D01*
X2644Y2807D01*
X2644Y2805D01*
X2642Y2805D01*
X2642Y2803D01*
X2640Y2803D01*
X2640Y2801D01*
X2638Y2801D01*
X2638Y2799D01*
X2634Y2799D01*
X2634Y2797D01*
X2632Y2797D01*
X2632Y2795D01*
X2630Y2795D01*
X2630Y2793D01*
X2628Y2793D01*
X2628Y2787D01*
X2626Y2787D01*
X2626Y2779D01*
X2624Y2779D01*
X2624Y2775D01*
X2622Y2775D01*
X2622Y2769D01*
X2620Y2769D01*
X2620Y2765D01*
X2618Y2765D01*
X2618Y2763D01*
X2616Y2763D01*
X2616Y2759D01*
X2614Y2759D01*
X2614Y2755D01*
X2612Y2755D01*
X2612Y2753D01*
X2610Y2753D01*
X2610Y2751D01*
X2608Y2751D01*
X2608Y2749D01*
X2606Y2749D01*
X2606Y2747D01*
X2604Y2747D01*
X2604Y2743D01*
X2602Y2743D01*
X2602Y2741D01*
X2598Y2741D01*
X2598Y2739D01*
X2596Y2739D01*
X2596Y2737D01*
X2594Y2737D01*
X2594Y2735D01*
X2592Y2735D01*
X2592Y2733D01*
X2588Y2733D01*
X2588Y2731D01*
X2586Y2731D01*
X2586Y2729D01*
X2582Y2729D01*
X2582Y2727D01*
X2578Y2727D01*
X2578Y2725D01*
X2574Y2725D01*
X2574Y2723D01*
X2570Y2723D01*
X2570Y2721D01*
X2564Y2721D01*
X2564Y2719D01*
X2558Y2719D01*
X2558Y2717D01*
X2546Y2717D01*
X2546Y2715D01*
X2676Y2715D01*
X2676Y2749D01*
X2678Y2749D01*
X2678Y2757D01*
X2680Y2757D01*
X2680Y2763D01*
X2682Y2763D01*
X2682Y2769D01*
X2684Y2769D01*
X2684Y2773D01*
X2686Y2773D01*
X2686Y2777D01*
X2688Y2777D01*
X2688Y2781D01*
X2690Y2781D01*
X2690Y2783D01*
X2692Y2783D01*
X2692Y2787D01*
X2694Y2787D01*
X2694Y2789D01*
X2696Y2789D01*
X2696Y2791D01*
X2698Y2791D01*
X2698Y2795D01*
X2700Y2795D01*
X2700Y2797D01*
X2702Y2797D01*
X2702Y2799D01*
X2704Y2799D01*
X2704Y2801D01*
X2706Y2801D01*
X2706Y2803D01*
X2708Y2803D01*
X2708Y2805D01*
X2712Y2805D01*
X2712Y2807D01*
X2714Y2807D01*
X2714Y2809D01*
X2716Y2809D01*
X2716Y2811D01*
X2720Y2811D01*
X2720Y2813D01*
X2724Y2813D01*
X2724Y2815D01*
X2726Y2815D01*
X2726Y2817D01*
X2730Y2817D01*
X2730Y2819D01*
X2736Y2819D01*
X2736Y2821D01*
X2740Y2821D01*
X2740Y2823D01*
X2748Y2823D01*
X2748Y2825D01*
X2758Y2825D01*
X2758Y2827D01*
X2668Y2827D01*
G37*
D02*
G36*
X2472Y2725D02*
X2472Y2715D01*
X2522Y2715D01*
X2522Y2717D01*
X2512Y2717D01*
X2512Y2719D01*
X2504Y2719D01*
X2504Y2721D01*
X2500Y2721D01*
X2500Y2723D01*
X2494Y2723D01*
X2494Y2725D01*
X2472Y2725D01*
G37*
D02*
G36*
X810Y2719D02*
X810Y2717D01*
X820Y2717D01*
X820Y2715D01*
X828Y2715D01*
X828Y2713D01*
X832Y2713D01*
X832Y2711D01*
X836Y2711D01*
X836Y2709D01*
X860Y2709D01*
X860Y2711D01*
X864Y2711D01*
X864Y2713D01*
X870Y2713D01*
X870Y2715D01*
X876Y2715D01*
X876Y2717D01*
X888Y2717D01*
X888Y2719D01*
X810Y2719D01*
G37*
D02*
G36*
X910Y2719D02*
X910Y2717D01*
X920Y2717D01*
X920Y2715D01*
X928Y2715D01*
X928Y2713D01*
X932Y2713D01*
X932Y2711D01*
X936Y2711D01*
X936Y2709D01*
X960Y2709D01*
X960Y2711D01*
X964Y2711D01*
X964Y2713D01*
X970Y2713D01*
X970Y2715D01*
X976Y2715D01*
X976Y2717D01*
X988Y2717D01*
X988Y2719D01*
X910Y2719D01*
G37*
D02*
G36*
X1010Y2719D02*
X1010Y2717D01*
X1020Y2717D01*
X1020Y2715D01*
X1028Y2715D01*
X1028Y2713D01*
X1032Y2713D01*
X1032Y2711D01*
X1036Y2711D01*
X1036Y2709D01*
X1060Y2709D01*
X1060Y2711D01*
X1064Y2711D01*
X1064Y2713D01*
X1070Y2713D01*
X1070Y2715D01*
X1076Y2715D01*
X1076Y2717D01*
X1088Y2717D01*
X1088Y2719D01*
X1010Y2719D01*
G37*
D02*
G36*
X1710Y2719D02*
X1710Y2717D01*
X1720Y2717D01*
X1720Y2715D01*
X1728Y2715D01*
X1728Y2713D01*
X1732Y2713D01*
X1732Y2711D01*
X1736Y2711D01*
X1736Y2709D01*
X1760Y2709D01*
X1760Y2711D01*
X1764Y2711D01*
X1764Y2713D01*
X1770Y2713D01*
X1770Y2715D01*
X1776Y2715D01*
X1776Y2717D01*
X1788Y2717D01*
X1788Y2719D01*
X1710Y2719D01*
G37*
D02*
G36*
X1810Y2719D02*
X1810Y2717D01*
X1820Y2717D01*
X1820Y2715D01*
X1828Y2715D01*
X1828Y2713D01*
X1832Y2713D01*
X1832Y2711D01*
X1836Y2711D01*
X1836Y2709D01*
X1860Y2709D01*
X1860Y2711D01*
X1864Y2711D01*
X1864Y2713D01*
X1870Y2713D01*
X1870Y2715D01*
X1876Y2715D01*
X1876Y2717D01*
X1888Y2717D01*
X1888Y2719D01*
X1810Y2719D01*
G37*
D02*
G36*
X1910Y2719D02*
X1910Y2717D01*
X1920Y2717D01*
X1920Y2715D01*
X1928Y2715D01*
X1928Y2713D01*
X1932Y2713D01*
X1932Y2711D01*
X1936Y2711D01*
X1936Y2709D01*
X1960Y2709D01*
X1960Y2711D01*
X1964Y2711D01*
X1964Y2713D01*
X1970Y2713D01*
X1970Y2715D01*
X1976Y2715D01*
X1976Y2717D01*
X1988Y2717D01*
X1988Y2719D01*
X1910Y2719D01*
G37*
D02*
G36*
X2472Y2715D02*
X2472Y2713D01*
X2678Y2713D01*
X2678Y2715D01*
X2472Y2715D01*
G37*
D02*
G36*
X2472Y2715D02*
X2472Y2713D01*
X2678Y2713D01*
X2678Y2715D01*
X2472Y2715D01*
G37*
D02*
G36*
X2472Y2713D02*
X2472Y2635D01*
X2768Y2635D01*
X2768Y2637D01*
X2750Y2637D01*
X2750Y2639D01*
X2744Y2639D01*
X2744Y2641D01*
X2738Y2641D01*
X2738Y2643D01*
X2732Y2643D01*
X2732Y2645D01*
X2728Y2645D01*
X2728Y2647D01*
X2724Y2647D01*
X2724Y2649D01*
X2722Y2649D01*
X2722Y2651D01*
X2718Y2651D01*
X2718Y2653D01*
X2716Y2653D01*
X2716Y2655D01*
X2712Y2655D01*
X2712Y2657D01*
X2710Y2657D01*
X2710Y2659D01*
X2708Y2659D01*
X2708Y2661D01*
X2706Y2661D01*
X2706Y2663D01*
X2704Y2663D01*
X2704Y2665D01*
X2702Y2665D01*
X2702Y2667D01*
X2700Y2667D01*
X2700Y2669D01*
X2698Y2669D01*
X2698Y2671D01*
X2696Y2671D01*
X2696Y2673D01*
X2694Y2673D01*
X2694Y2677D01*
X2692Y2677D01*
X2692Y2679D01*
X2690Y2679D01*
X2690Y2683D01*
X2688Y2683D01*
X2688Y2685D01*
X2686Y2685D01*
X2686Y2691D01*
X2684Y2691D01*
X2684Y2695D01*
X2682Y2695D01*
X2682Y2699D01*
X2680Y2699D01*
X2680Y2707D01*
X2678Y2707D01*
X2678Y2713D01*
X2472Y2713D01*
G37*
D02*
G36*
X2186Y2635D02*
X2186Y2619D01*
X2184Y2619D01*
X2184Y2609D01*
X2182Y2609D01*
X2182Y2603D01*
X2180Y2603D01*
X2180Y2597D01*
X2178Y2597D01*
X2178Y2593D01*
X2176Y2593D01*
X2176Y2589D01*
X2174Y2589D01*
X2174Y2585D01*
X2172Y2585D01*
X2172Y2583D01*
X2170Y2583D01*
X2170Y2579D01*
X2168Y2579D01*
X2168Y2577D01*
X2166Y2577D01*
X2166Y2575D01*
X2164Y2575D01*
X2164Y2573D01*
X2162Y2573D01*
X2162Y2571D01*
X2160Y2571D01*
X2160Y2569D01*
X2158Y2569D01*
X2158Y2567D01*
X2156Y2567D01*
X2156Y2565D01*
X2154Y2565D01*
X2154Y2563D01*
X2152Y2563D01*
X2152Y2561D01*
X2150Y2561D01*
X2150Y2559D01*
X2146Y2559D01*
X2146Y2557D01*
X2142Y2557D01*
X2142Y2555D01*
X2140Y2555D01*
X2140Y2553D01*
X2136Y2553D01*
X2136Y2551D01*
X2130Y2551D01*
X2130Y2549D01*
X2124Y2549D01*
X2124Y2547D01*
X2118Y2547D01*
X2118Y2545D01*
X2100Y2545D01*
X2100Y2543D01*
X2324Y2543D01*
X2324Y2635D01*
X2186Y2635D01*
G37*
D02*
G36*
X2472Y2635D02*
X2472Y2633D01*
X2952Y2633D01*
X2952Y2635D01*
X2472Y2635D01*
G37*
D02*
G36*
X2472Y2635D02*
X2472Y2633D01*
X2952Y2633D01*
X2952Y2635D01*
X2472Y2635D01*
G37*
D02*
G36*
X2472Y2633D02*
X2472Y2405D01*
X2712Y2405D01*
X2712Y2403D01*
X2720Y2403D01*
X2720Y2401D01*
X2726Y2401D01*
X2726Y2399D01*
X2730Y2399D01*
X2730Y2397D01*
X2734Y2397D01*
X2734Y2395D01*
X2738Y2395D01*
X2738Y2393D01*
X2740Y2393D01*
X2740Y2391D01*
X2742Y2391D01*
X2742Y2389D01*
X2746Y2389D01*
X2746Y2387D01*
X2748Y2387D01*
X2748Y2385D01*
X2750Y2385D01*
X2750Y2383D01*
X2752Y2383D01*
X2752Y2381D01*
X2754Y2381D01*
X2754Y2379D01*
X2756Y2379D01*
X2756Y2377D01*
X2758Y2377D01*
X2758Y2375D01*
X2760Y2375D01*
X2760Y2373D01*
X2762Y2373D01*
X2762Y2371D01*
X2764Y2371D01*
X2764Y2369D01*
X2766Y2369D01*
X2766Y2367D01*
X2768Y2367D01*
X2768Y2365D01*
X2770Y2365D01*
X2770Y2363D01*
X2772Y2363D01*
X2772Y2361D01*
X2774Y2361D01*
X2774Y2359D01*
X2776Y2359D01*
X2776Y2357D01*
X2778Y2357D01*
X2778Y2353D01*
X2780Y2353D01*
X2780Y2351D01*
X2782Y2351D01*
X2782Y2349D01*
X2784Y2349D01*
X2784Y2347D01*
X2786Y2347D01*
X2786Y2345D01*
X2798Y2345D01*
X2798Y2343D01*
X2806Y2343D01*
X2806Y2341D01*
X2810Y2341D01*
X2810Y2339D01*
X2816Y2339D01*
X2816Y2337D01*
X2820Y2337D01*
X2820Y2335D01*
X2824Y2335D01*
X2824Y2333D01*
X2826Y2333D01*
X2826Y2331D01*
X2830Y2331D01*
X2830Y2329D01*
X2832Y2329D01*
X2832Y2327D01*
X2836Y2327D01*
X2836Y2325D01*
X2838Y2325D01*
X2838Y2323D01*
X2840Y2323D01*
X2840Y2321D01*
X2842Y2321D01*
X2842Y2319D01*
X2844Y2319D01*
X2844Y2317D01*
X2846Y2317D01*
X2846Y2315D01*
X2848Y2315D01*
X2848Y2313D01*
X2850Y2313D01*
X2850Y2311D01*
X2852Y2311D01*
X2852Y2307D01*
X2854Y2307D01*
X2854Y2305D01*
X2856Y2305D01*
X2856Y2301D01*
X2858Y2301D01*
X2858Y2299D01*
X2860Y2299D01*
X2860Y2295D01*
X2862Y2295D01*
X2862Y2291D01*
X2864Y2291D01*
X2864Y2285D01*
X2866Y2285D01*
X2866Y2279D01*
X2868Y2279D01*
X2868Y2273D01*
X2870Y2273D01*
X2870Y2261D01*
X2872Y2261D01*
X2872Y2241D01*
X2870Y2241D01*
X2870Y2229D01*
X2868Y2229D01*
X2868Y2223D01*
X2866Y2223D01*
X2866Y2217D01*
X2864Y2217D01*
X2864Y2211D01*
X2862Y2211D01*
X2862Y2207D01*
X2860Y2207D01*
X2860Y2203D01*
X2858Y2203D01*
X2858Y2201D01*
X2856Y2201D01*
X2856Y2197D01*
X2854Y2197D01*
X2854Y2195D01*
X2852Y2195D01*
X2852Y2193D01*
X2850Y2193D01*
X2850Y2189D01*
X2848Y2189D01*
X2848Y2187D01*
X2846Y2187D01*
X2846Y2185D01*
X2844Y2185D01*
X2844Y2183D01*
X2842Y2183D01*
X2842Y2181D01*
X2840Y2181D01*
X2840Y2179D01*
X2838Y2179D01*
X2838Y2177D01*
X2834Y2177D01*
X2834Y2175D01*
X2832Y2175D01*
X2832Y2173D01*
X2830Y2173D01*
X2830Y2171D01*
X2826Y2171D01*
X2826Y2169D01*
X2824Y2169D01*
X2824Y2167D01*
X2820Y2167D01*
X2820Y2165D01*
X2816Y2165D01*
X2816Y2163D01*
X2810Y2163D01*
X2810Y2161D01*
X2804Y2161D01*
X2804Y2159D01*
X2798Y2159D01*
X2798Y2157D01*
X2784Y2157D01*
X2784Y2155D01*
X2952Y2155D01*
X2952Y2633D01*
X2472Y2633D01*
G37*
D02*
G36*
X1336Y2553D02*
X1336Y2551D01*
X1330Y2551D01*
X1330Y2549D01*
X1324Y2549D01*
X1324Y2547D01*
X1318Y2547D01*
X1318Y2545D01*
X1300Y2545D01*
X1300Y2543D01*
X1396Y2543D01*
X1396Y2545D01*
X1380Y2545D01*
X1380Y2547D01*
X1372Y2547D01*
X1372Y2549D01*
X1366Y2549D01*
X1366Y2551D01*
X1362Y2551D01*
X1362Y2553D01*
X1336Y2553D01*
G37*
D02*
G36*
X1436Y2553D02*
X1436Y2551D01*
X1430Y2551D01*
X1430Y2549D01*
X1424Y2549D01*
X1424Y2547D01*
X1418Y2547D01*
X1418Y2545D01*
X1400Y2545D01*
X1400Y2543D01*
X1496Y2543D01*
X1496Y2545D01*
X1480Y2545D01*
X1480Y2547D01*
X1472Y2547D01*
X1472Y2549D01*
X1466Y2549D01*
X1466Y2551D01*
X1462Y2551D01*
X1462Y2553D01*
X1436Y2553D01*
G37*
D02*
G36*
X1536Y2553D02*
X1536Y2551D01*
X1530Y2551D01*
X1530Y2549D01*
X1524Y2549D01*
X1524Y2547D01*
X1518Y2547D01*
X1518Y2545D01*
X1500Y2545D01*
X1500Y2543D01*
X1596Y2543D01*
X1596Y2545D01*
X1580Y2545D01*
X1580Y2547D01*
X1572Y2547D01*
X1572Y2549D01*
X1566Y2549D01*
X1566Y2551D01*
X1562Y2551D01*
X1562Y2553D01*
X1536Y2553D01*
G37*
D02*
G36*
X1636Y2553D02*
X1636Y2551D01*
X1630Y2551D01*
X1630Y2549D01*
X1624Y2549D01*
X1624Y2547D01*
X1618Y2547D01*
X1618Y2545D01*
X1600Y2545D01*
X1600Y2543D01*
X1696Y2543D01*
X1696Y2545D01*
X1680Y2545D01*
X1680Y2547D01*
X1672Y2547D01*
X1672Y2549D01*
X1666Y2549D01*
X1666Y2551D01*
X1662Y2551D01*
X1662Y2553D01*
X1636Y2553D01*
G37*
D02*
G36*
X1736Y2553D02*
X1736Y2551D01*
X1730Y2551D01*
X1730Y2549D01*
X1724Y2549D01*
X1724Y2547D01*
X1718Y2547D01*
X1718Y2545D01*
X1700Y2545D01*
X1700Y2543D01*
X1796Y2543D01*
X1796Y2545D01*
X1780Y2545D01*
X1780Y2547D01*
X1772Y2547D01*
X1772Y2549D01*
X1766Y2549D01*
X1766Y2551D01*
X1762Y2551D01*
X1762Y2553D01*
X1736Y2553D01*
G37*
D02*
G36*
X1836Y2553D02*
X1836Y2551D01*
X1830Y2551D01*
X1830Y2549D01*
X1824Y2549D01*
X1824Y2547D01*
X1818Y2547D01*
X1818Y2545D01*
X1800Y2545D01*
X1800Y2543D01*
X1896Y2543D01*
X1896Y2545D01*
X1880Y2545D01*
X1880Y2547D01*
X1872Y2547D01*
X1872Y2549D01*
X1866Y2549D01*
X1866Y2551D01*
X1862Y2551D01*
X1862Y2553D01*
X1836Y2553D01*
G37*
D02*
G36*
X1936Y2553D02*
X1936Y2551D01*
X1930Y2551D01*
X1930Y2549D01*
X1924Y2549D01*
X1924Y2547D01*
X1918Y2547D01*
X1918Y2545D01*
X1900Y2545D01*
X1900Y2543D01*
X1996Y2543D01*
X1996Y2545D01*
X1980Y2545D01*
X1980Y2547D01*
X1972Y2547D01*
X1972Y2549D01*
X1966Y2549D01*
X1966Y2551D01*
X1962Y2551D01*
X1962Y2553D01*
X1936Y2553D01*
G37*
D02*
G36*
X2036Y2553D02*
X2036Y2551D01*
X2030Y2551D01*
X2030Y2549D01*
X2024Y2549D01*
X2024Y2547D01*
X2018Y2547D01*
X2018Y2545D01*
X2000Y2545D01*
X2000Y2543D01*
X2096Y2543D01*
X2096Y2545D01*
X2080Y2545D01*
X2080Y2547D01*
X2072Y2547D01*
X2072Y2549D01*
X2066Y2549D01*
X2066Y2551D01*
X2062Y2551D01*
X2062Y2553D01*
X2036Y2553D01*
G37*
D02*
G36*
X1110Y2543D02*
X1110Y2541D01*
X2324Y2541D01*
X2324Y2543D01*
X1110Y2543D01*
G37*
D02*
G36*
X1110Y2543D02*
X1110Y2541D01*
X2324Y2541D01*
X2324Y2543D01*
X1110Y2543D01*
G37*
D02*
G36*
X1110Y2543D02*
X1110Y2541D01*
X2324Y2541D01*
X2324Y2543D01*
X1110Y2543D01*
G37*
D02*
G36*
X1110Y2543D02*
X1110Y2541D01*
X2324Y2541D01*
X2324Y2543D01*
X1110Y2543D01*
G37*
D02*
G36*
X1110Y2543D02*
X1110Y2541D01*
X2324Y2541D01*
X2324Y2543D01*
X1110Y2543D01*
G37*
D02*
G36*
X1110Y2543D02*
X1110Y2541D01*
X2324Y2541D01*
X2324Y2543D01*
X1110Y2543D01*
G37*
D02*
G36*
X1110Y2543D02*
X1110Y2541D01*
X2324Y2541D01*
X2324Y2543D01*
X1110Y2543D01*
G37*
D02*
G36*
X1110Y2543D02*
X1110Y2541D01*
X2324Y2541D01*
X2324Y2543D01*
X1110Y2543D01*
G37*
D02*
G36*
X1110Y2543D02*
X1110Y2541D01*
X2324Y2541D01*
X2324Y2543D01*
X1110Y2543D01*
G37*
D02*
G36*
X1110Y2543D02*
X1110Y2541D01*
X2324Y2541D01*
X2324Y2543D01*
X1110Y2543D01*
G37*
D02*
G36*
X1110Y2541D02*
X1110Y2525D01*
X1112Y2525D01*
X1112Y2523D01*
X1114Y2523D01*
X1114Y2521D01*
X1116Y2521D01*
X1116Y2519D01*
X1118Y2519D01*
X1118Y2517D01*
X1120Y2517D01*
X1120Y2515D01*
X1122Y2515D01*
X1122Y2513D01*
X1124Y2513D01*
X1124Y2511D01*
X1126Y2511D01*
X1126Y2509D01*
X1128Y2509D01*
X1128Y2507D01*
X1130Y2507D01*
X1130Y2505D01*
X1132Y2505D01*
X1132Y2503D01*
X1134Y2503D01*
X1134Y2501D01*
X1136Y2501D01*
X1136Y2499D01*
X1138Y2499D01*
X1138Y2497D01*
X1140Y2497D01*
X1140Y2495D01*
X1142Y2495D01*
X1142Y2493D01*
X1144Y2493D01*
X1144Y2491D01*
X1146Y2491D01*
X1146Y2489D01*
X1148Y2489D01*
X1148Y2487D01*
X1150Y2487D01*
X1150Y2483D01*
X1152Y2483D01*
X1152Y2481D01*
X1154Y2481D01*
X1154Y2479D01*
X1156Y2479D01*
X1156Y2477D01*
X1158Y2477D01*
X1158Y2475D01*
X1160Y2475D01*
X1160Y2471D01*
X1162Y2471D01*
X1162Y2467D01*
X1164Y2467D01*
X1164Y2463D01*
X1166Y2463D01*
X1166Y2459D01*
X1168Y2459D01*
X1168Y2453D01*
X1170Y2453D01*
X1170Y2445D01*
X1172Y2445D01*
X1172Y2419D01*
X2110Y2419D01*
X2110Y2417D01*
X2120Y2417D01*
X2120Y2415D01*
X2128Y2415D01*
X2128Y2413D01*
X2132Y2413D01*
X2132Y2411D01*
X2136Y2411D01*
X2136Y2409D01*
X2140Y2409D01*
X2140Y2407D01*
X2144Y2407D01*
X2144Y2405D01*
X2148Y2405D01*
X2148Y2403D01*
X2150Y2403D01*
X2150Y2401D01*
X2152Y2401D01*
X2152Y2399D01*
X2156Y2399D01*
X2156Y2397D01*
X2158Y2397D01*
X2158Y2395D01*
X2160Y2395D01*
X2160Y2393D01*
X2162Y2393D01*
X2162Y2391D01*
X2164Y2391D01*
X2164Y2389D01*
X2166Y2389D01*
X2166Y2385D01*
X2168Y2385D01*
X2168Y2383D01*
X2170Y2383D01*
X2170Y2381D01*
X2172Y2381D01*
X2172Y2377D01*
X2174Y2377D01*
X2174Y2373D01*
X2176Y2373D01*
X2176Y2369D01*
X2178Y2369D01*
X2178Y2365D01*
X2180Y2365D01*
X2180Y2361D01*
X2182Y2361D01*
X2182Y2353D01*
X2184Y2353D01*
X2184Y2345D01*
X2186Y2345D01*
X2186Y2319D01*
X2184Y2319D01*
X2184Y2309D01*
X2182Y2309D01*
X2182Y2303D01*
X2180Y2303D01*
X2180Y2297D01*
X2178Y2297D01*
X2178Y2293D01*
X2176Y2293D01*
X2176Y2289D01*
X2174Y2289D01*
X2174Y2285D01*
X2172Y2285D01*
X2172Y2283D01*
X2170Y2283D01*
X2170Y2279D01*
X2168Y2279D01*
X2168Y2277D01*
X2166Y2277D01*
X2166Y2275D01*
X2164Y2275D01*
X2164Y2273D01*
X2162Y2273D01*
X2162Y2271D01*
X2160Y2271D01*
X2160Y2269D01*
X2158Y2269D01*
X2158Y2267D01*
X2156Y2267D01*
X2156Y2265D01*
X2154Y2265D01*
X2154Y2263D01*
X2152Y2263D01*
X2152Y2261D01*
X2150Y2261D01*
X2150Y2259D01*
X2146Y2259D01*
X2146Y2257D01*
X2142Y2257D01*
X2142Y2255D01*
X2140Y2255D01*
X2140Y2253D01*
X2136Y2253D01*
X2136Y2251D01*
X2130Y2251D01*
X2130Y2249D01*
X2124Y2249D01*
X2124Y2247D01*
X2118Y2247D01*
X2118Y2245D01*
X2100Y2245D01*
X2100Y2243D01*
X2202Y2243D01*
X2202Y2263D01*
X2204Y2263D01*
X2204Y2273D01*
X2206Y2273D01*
X2206Y2281D01*
X2208Y2281D01*
X2208Y2287D01*
X2210Y2287D01*
X2210Y2291D01*
X2212Y2291D01*
X2212Y2295D01*
X2214Y2295D01*
X2214Y2299D01*
X2216Y2299D01*
X2216Y2301D01*
X2218Y2301D01*
X2218Y2305D01*
X2220Y2305D01*
X2220Y2307D01*
X2222Y2307D01*
X2222Y2311D01*
X2224Y2311D01*
X2224Y2313D01*
X2226Y2313D01*
X2226Y2315D01*
X2228Y2315D01*
X2228Y2317D01*
X2230Y2317D01*
X2230Y2319D01*
X2232Y2319D01*
X2232Y2321D01*
X2234Y2321D01*
X2234Y2323D01*
X2236Y2323D01*
X2236Y2325D01*
X2238Y2325D01*
X2238Y2327D01*
X2242Y2327D01*
X2242Y2329D01*
X2244Y2329D01*
X2244Y2331D01*
X2248Y2331D01*
X2248Y2333D01*
X2250Y2333D01*
X2250Y2335D01*
X2254Y2335D01*
X2254Y2337D01*
X2258Y2337D01*
X2258Y2339D01*
X2264Y2339D01*
X2264Y2341D01*
X2268Y2341D01*
X2268Y2343D01*
X2276Y2343D01*
X2276Y2345D01*
X2288Y2345D01*
X2288Y2347D01*
X2302Y2347D01*
X2302Y2349D01*
X2304Y2349D01*
X2304Y2351D01*
X2306Y2351D01*
X2306Y2353D01*
X2308Y2353D01*
X2308Y2355D01*
X2312Y2355D01*
X2312Y2357D01*
X2314Y2357D01*
X2314Y2359D01*
X2316Y2359D01*
X2316Y2361D01*
X2318Y2361D01*
X2318Y2363D01*
X2322Y2363D01*
X2322Y2365D01*
X2324Y2365D01*
X2324Y2541D01*
X1110Y2541D01*
G37*
D02*
G36*
X1172Y2419D02*
X1172Y2377D01*
X1174Y2377D01*
X1174Y2373D01*
X1176Y2373D01*
X1176Y2369D01*
X1178Y2369D01*
X1178Y2365D01*
X1180Y2365D01*
X1180Y2361D01*
X1182Y2361D01*
X1182Y2353D01*
X1184Y2353D01*
X1184Y2345D01*
X1186Y2345D01*
X1186Y2319D01*
X1184Y2319D01*
X1184Y2309D01*
X1182Y2309D01*
X1182Y2303D01*
X1180Y2303D01*
X1180Y2297D01*
X1178Y2297D01*
X1178Y2293D01*
X1176Y2293D01*
X1176Y2289D01*
X1174Y2289D01*
X1174Y2285D01*
X1172Y2285D01*
X1172Y2283D01*
X1170Y2283D01*
X1170Y2279D01*
X1168Y2279D01*
X1168Y2277D01*
X1166Y2277D01*
X1166Y2275D01*
X1164Y2275D01*
X1164Y2273D01*
X1162Y2273D01*
X1162Y2271D01*
X1160Y2271D01*
X1160Y2269D01*
X1158Y2269D01*
X1158Y2267D01*
X1156Y2267D01*
X1156Y2265D01*
X1154Y2265D01*
X1154Y2263D01*
X1152Y2263D01*
X1152Y2261D01*
X1150Y2261D01*
X1150Y2259D01*
X1146Y2259D01*
X1146Y2257D01*
X1142Y2257D01*
X1142Y2255D01*
X1140Y2255D01*
X1140Y2253D01*
X1136Y2253D01*
X1136Y2251D01*
X1130Y2251D01*
X1130Y2249D01*
X1124Y2249D01*
X1124Y2247D01*
X1118Y2247D01*
X1118Y2245D01*
X1100Y2245D01*
X1100Y2243D01*
X1212Y2243D01*
X1212Y2419D01*
X1172Y2419D01*
G37*
D02*
G36*
X1410Y2419D02*
X1410Y2417D01*
X1420Y2417D01*
X1420Y2415D01*
X1428Y2415D01*
X1428Y2413D01*
X1432Y2413D01*
X1432Y2411D01*
X1436Y2411D01*
X1436Y2409D01*
X1460Y2409D01*
X1460Y2411D01*
X1464Y2411D01*
X1464Y2413D01*
X1470Y2413D01*
X1470Y2415D01*
X1476Y2415D01*
X1476Y2417D01*
X1488Y2417D01*
X1488Y2419D01*
X1410Y2419D01*
G37*
D02*
G36*
X1510Y2419D02*
X1510Y2417D01*
X1520Y2417D01*
X1520Y2415D01*
X1528Y2415D01*
X1528Y2413D01*
X1532Y2413D01*
X1532Y2411D01*
X1536Y2411D01*
X1536Y2409D01*
X1560Y2409D01*
X1560Y2411D01*
X1564Y2411D01*
X1564Y2413D01*
X1570Y2413D01*
X1570Y2415D01*
X1576Y2415D01*
X1576Y2417D01*
X1588Y2417D01*
X1588Y2419D01*
X1510Y2419D01*
G37*
D02*
G36*
X1610Y2419D02*
X1610Y2417D01*
X1620Y2417D01*
X1620Y2415D01*
X1628Y2415D01*
X1628Y2413D01*
X1632Y2413D01*
X1632Y2411D01*
X1636Y2411D01*
X1636Y2409D01*
X1660Y2409D01*
X1660Y2411D01*
X1664Y2411D01*
X1664Y2413D01*
X1670Y2413D01*
X1670Y2415D01*
X1676Y2415D01*
X1676Y2417D01*
X1688Y2417D01*
X1688Y2419D01*
X1610Y2419D01*
G37*
D02*
G36*
X1710Y2419D02*
X1710Y2417D01*
X1720Y2417D01*
X1720Y2415D01*
X1728Y2415D01*
X1728Y2413D01*
X1732Y2413D01*
X1732Y2411D01*
X1736Y2411D01*
X1736Y2409D01*
X1760Y2409D01*
X1760Y2411D01*
X1764Y2411D01*
X1764Y2413D01*
X1770Y2413D01*
X1770Y2415D01*
X1776Y2415D01*
X1776Y2417D01*
X1788Y2417D01*
X1788Y2419D01*
X1710Y2419D01*
G37*
D02*
G36*
X1810Y2419D02*
X1810Y2417D01*
X1820Y2417D01*
X1820Y2415D01*
X1828Y2415D01*
X1828Y2413D01*
X1832Y2413D01*
X1832Y2411D01*
X1836Y2411D01*
X1836Y2409D01*
X1860Y2409D01*
X1860Y2411D01*
X1864Y2411D01*
X1864Y2413D01*
X1870Y2413D01*
X1870Y2415D01*
X1876Y2415D01*
X1876Y2417D01*
X1888Y2417D01*
X1888Y2419D01*
X1810Y2419D01*
G37*
D02*
G36*
X1910Y2419D02*
X1910Y2417D01*
X1920Y2417D01*
X1920Y2415D01*
X1928Y2415D01*
X1928Y2413D01*
X1932Y2413D01*
X1932Y2411D01*
X1936Y2411D01*
X1936Y2409D01*
X1960Y2409D01*
X1960Y2411D01*
X1964Y2411D01*
X1964Y2413D01*
X1970Y2413D01*
X1970Y2415D01*
X1976Y2415D01*
X1976Y2417D01*
X1988Y2417D01*
X1988Y2419D01*
X1910Y2419D01*
G37*
D02*
G36*
X2010Y2419D02*
X2010Y2417D01*
X2020Y2417D01*
X2020Y2415D01*
X2028Y2415D01*
X2028Y2413D01*
X2032Y2413D01*
X2032Y2411D01*
X2036Y2411D01*
X2036Y2409D01*
X2060Y2409D01*
X2060Y2411D01*
X2064Y2411D01*
X2064Y2413D01*
X2070Y2413D01*
X2070Y2415D01*
X2076Y2415D01*
X2076Y2417D01*
X2088Y2417D01*
X2088Y2419D01*
X2010Y2419D01*
G37*
D02*
G36*
X2472Y2405D02*
X2472Y2401D01*
X2496Y2401D01*
X2496Y2403D01*
X2504Y2403D01*
X2504Y2405D01*
X2472Y2405D01*
G37*
D02*
G36*
X2442Y2271D02*
X2442Y2269D01*
X2438Y2269D01*
X2438Y2267D01*
X2436Y2267D01*
X2436Y2265D01*
X2434Y2265D01*
X2434Y2263D01*
X2432Y2263D01*
X2432Y2261D01*
X2428Y2261D01*
X2428Y2259D01*
X2426Y2259D01*
X2426Y2257D01*
X2424Y2257D01*
X2424Y2255D01*
X2420Y2255D01*
X2420Y2253D01*
X2418Y2253D01*
X2418Y2251D01*
X2416Y2251D01*
X2416Y2249D01*
X2414Y2249D01*
X2414Y2247D01*
X2410Y2247D01*
X2410Y2245D01*
X2408Y2245D01*
X2408Y2243D01*
X2406Y2243D01*
X2406Y2241D01*
X2404Y2241D01*
X2404Y2239D01*
X2400Y2239D01*
X2400Y2237D01*
X2398Y2237D01*
X2398Y2235D01*
X2396Y2235D01*
X2396Y2233D01*
X2394Y2233D01*
X2394Y2231D01*
X2390Y2231D01*
X2390Y2223D01*
X2388Y2223D01*
X2388Y2217D01*
X2386Y2217D01*
X2386Y2213D01*
X2384Y2213D01*
X2384Y2209D01*
X2382Y2209D01*
X2382Y2205D01*
X2380Y2205D01*
X2380Y2201D01*
X2378Y2201D01*
X2378Y2197D01*
X2376Y2197D01*
X2376Y2195D01*
X2374Y2195D01*
X2374Y2193D01*
X2372Y2193D01*
X2372Y2189D01*
X2370Y2189D01*
X2370Y2187D01*
X2368Y2187D01*
X2368Y2185D01*
X2366Y2185D01*
X2366Y2183D01*
X2364Y2183D01*
X2364Y2181D01*
X2362Y2181D01*
X2362Y2179D01*
X2360Y2179D01*
X2360Y2177D01*
X2356Y2177D01*
X2356Y2175D01*
X2354Y2175D01*
X2354Y2173D01*
X2352Y2173D01*
X2352Y2171D01*
X2348Y2171D01*
X2348Y2169D01*
X2344Y2169D01*
X2344Y2167D01*
X2342Y2167D01*
X2342Y2165D01*
X2338Y2165D01*
X2338Y2163D01*
X2332Y2163D01*
X2332Y2161D01*
X2326Y2161D01*
X2326Y2159D01*
X2320Y2159D01*
X2320Y2157D01*
X2306Y2157D01*
X2306Y2155D01*
X2768Y2155D01*
X2768Y2157D01*
X2754Y2157D01*
X2754Y2159D01*
X2748Y2159D01*
X2748Y2161D01*
X2742Y2161D01*
X2742Y2163D01*
X2736Y2163D01*
X2736Y2165D01*
X2732Y2165D01*
X2732Y2167D01*
X2728Y2167D01*
X2728Y2169D01*
X2726Y2169D01*
X2726Y2171D01*
X2722Y2171D01*
X2722Y2173D01*
X2720Y2173D01*
X2720Y2175D01*
X2718Y2175D01*
X2718Y2177D01*
X2714Y2177D01*
X2714Y2179D01*
X2712Y2179D01*
X2712Y2181D01*
X2710Y2181D01*
X2710Y2183D01*
X2708Y2183D01*
X2708Y2185D01*
X2706Y2185D01*
X2706Y2187D01*
X2704Y2187D01*
X2704Y2189D01*
X2702Y2189D01*
X2702Y2191D01*
X2700Y2191D01*
X2700Y2195D01*
X2698Y2195D01*
X2698Y2197D01*
X2696Y2197D01*
X2696Y2201D01*
X2694Y2201D01*
X2694Y2203D01*
X2692Y2203D01*
X2692Y2207D01*
X2690Y2207D01*
X2690Y2211D01*
X2688Y2211D01*
X2688Y2217D01*
X2686Y2217D01*
X2686Y2221D01*
X2684Y2221D01*
X2684Y2229D01*
X2682Y2229D01*
X2682Y2241D01*
X2680Y2241D01*
X2680Y2245D01*
X2678Y2245D01*
X2678Y2247D01*
X2676Y2247D01*
X2676Y2249D01*
X2674Y2249D01*
X2674Y2251D01*
X2672Y2251D01*
X2672Y2253D01*
X2670Y2253D01*
X2670Y2255D01*
X2668Y2255D01*
X2668Y2257D01*
X2508Y2257D01*
X2508Y2259D01*
X2498Y2259D01*
X2498Y2261D01*
X2492Y2261D01*
X2492Y2263D01*
X2482Y2263D01*
X2482Y2265D01*
X2474Y2265D01*
X2474Y2267D01*
X2470Y2267D01*
X2470Y2269D01*
X2466Y2269D01*
X2466Y2271D01*
X2442Y2271D01*
G37*
D02*
G36*
X436Y2253D02*
X436Y2251D01*
X430Y2251D01*
X430Y2249D01*
X424Y2249D01*
X424Y2247D01*
X418Y2247D01*
X418Y2245D01*
X400Y2245D01*
X400Y2243D01*
X496Y2243D01*
X496Y2245D01*
X480Y2245D01*
X480Y2247D01*
X472Y2247D01*
X472Y2249D01*
X466Y2249D01*
X466Y2251D01*
X462Y2251D01*
X462Y2253D01*
X436Y2253D01*
G37*
D02*
G36*
X536Y2253D02*
X536Y2251D01*
X530Y2251D01*
X530Y2249D01*
X524Y2249D01*
X524Y2247D01*
X518Y2247D01*
X518Y2245D01*
X500Y2245D01*
X500Y2243D01*
X596Y2243D01*
X596Y2245D01*
X580Y2245D01*
X580Y2247D01*
X572Y2247D01*
X572Y2249D01*
X566Y2249D01*
X566Y2251D01*
X562Y2251D01*
X562Y2253D01*
X536Y2253D01*
G37*
D02*
G36*
X636Y2253D02*
X636Y2251D01*
X630Y2251D01*
X630Y2249D01*
X624Y2249D01*
X624Y2247D01*
X618Y2247D01*
X618Y2245D01*
X600Y2245D01*
X600Y2243D01*
X696Y2243D01*
X696Y2245D01*
X680Y2245D01*
X680Y2247D01*
X672Y2247D01*
X672Y2249D01*
X666Y2249D01*
X666Y2251D01*
X662Y2251D01*
X662Y2253D01*
X636Y2253D01*
G37*
D02*
G36*
X736Y2253D02*
X736Y2251D01*
X730Y2251D01*
X730Y2249D01*
X724Y2249D01*
X724Y2247D01*
X718Y2247D01*
X718Y2245D01*
X700Y2245D01*
X700Y2243D01*
X796Y2243D01*
X796Y2245D01*
X780Y2245D01*
X780Y2247D01*
X772Y2247D01*
X772Y2249D01*
X766Y2249D01*
X766Y2251D01*
X762Y2251D01*
X762Y2253D01*
X736Y2253D01*
G37*
D02*
G36*
X836Y2253D02*
X836Y2251D01*
X830Y2251D01*
X830Y2249D01*
X824Y2249D01*
X824Y2247D01*
X818Y2247D01*
X818Y2245D01*
X800Y2245D01*
X800Y2243D01*
X896Y2243D01*
X896Y2245D01*
X880Y2245D01*
X880Y2247D01*
X872Y2247D01*
X872Y2249D01*
X866Y2249D01*
X866Y2251D01*
X862Y2251D01*
X862Y2253D01*
X836Y2253D01*
G37*
D02*
G36*
X936Y2253D02*
X936Y2251D01*
X930Y2251D01*
X930Y2249D01*
X924Y2249D01*
X924Y2247D01*
X918Y2247D01*
X918Y2245D01*
X900Y2245D01*
X900Y2243D01*
X996Y2243D01*
X996Y2245D01*
X980Y2245D01*
X980Y2247D01*
X972Y2247D01*
X972Y2249D01*
X966Y2249D01*
X966Y2251D01*
X962Y2251D01*
X962Y2253D01*
X936Y2253D01*
G37*
D02*
G36*
X1036Y2253D02*
X1036Y2251D01*
X1030Y2251D01*
X1030Y2249D01*
X1024Y2249D01*
X1024Y2247D01*
X1018Y2247D01*
X1018Y2245D01*
X1000Y2245D01*
X1000Y2243D01*
X1096Y2243D01*
X1096Y2245D01*
X1080Y2245D01*
X1080Y2247D01*
X1072Y2247D01*
X1072Y2249D01*
X1066Y2249D01*
X1066Y2251D01*
X1062Y2251D01*
X1062Y2253D01*
X1036Y2253D01*
G37*
D02*
G36*
X1936Y2253D02*
X1936Y2251D01*
X1930Y2251D01*
X1930Y2249D01*
X1924Y2249D01*
X1924Y2247D01*
X1918Y2247D01*
X1918Y2245D01*
X1900Y2245D01*
X1900Y2243D01*
X1996Y2243D01*
X1996Y2245D01*
X1980Y2245D01*
X1980Y2247D01*
X1972Y2247D01*
X1972Y2249D01*
X1966Y2249D01*
X1966Y2251D01*
X1962Y2251D01*
X1962Y2253D01*
X1936Y2253D01*
G37*
D02*
G36*
X2036Y2253D02*
X2036Y2251D01*
X2030Y2251D01*
X2030Y2249D01*
X2024Y2249D01*
X2024Y2247D01*
X2018Y2247D01*
X2018Y2245D01*
X2000Y2245D01*
X2000Y2243D01*
X2096Y2243D01*
X2096Y2245D01*
X2080Y2245D01*
X2080Y2247D01*
X2072Y2247D01*
X2072Y2249D01*
X2066Y2249D01*
X2066Y2251D01*
X2062Y2251D01*
X2062Y2253D01*
X2036Y2253D01*
G37*
D02*
G36*
X272Y2243D02*
X272Y2241D01*
X1298Y2241D01*
X1298Y2243D01*
X272Y2243D01*
G37*
D02*
G36*
X272Y2243D02*
X272Y2241D01*
X1298Y2241D01*
X1298Y2243D01*
X272Y2243D01*
G37*
D02*
G36*
X272Y2243D02*
X272Y2241D01*
X1298Y2241D01*
X1298Y2243D01*
X272Y2243D01*
G37*
D02*
G36*
X272Y2243D02*
X272Y2241D01*
X1298Y2241D01*
X1298Y2243D01*
X272Y2243D01*
G37*
D02*
G36*
X272Y2243D02*
X272Y2241D01*
X1298Y2241D01*
X1298Y2243D01*
X272Y2243D01*
G37*
D02*
G36*
X272Y2243D02*
X272Y2241D01*
X1298Y2241D01*
X1298Y2243D01*
X272Y2243D01*
G37*
D02*
G36*
X272Y2243D02*
X272Y2241D01*
X1298Y2241D01*
X1298Y2243D01*
X272Y2243D01*
G37*
D02*
G36*
X272Y2243D02*
X272Y2241D01*
X1298Y2241D01*
X1298Y2243D01*
X272Y2243D01*
G37*
D02*
G36*
X1884Y2243D02*
X1884Y2241D01*
X2202Y2241D01*
X2202Y2243D01*
X1884Y2243D01*
G37*
D02*
G36*
X1884Y2243D02*
X1884Y2241D01*
X2202Y2241D01*
X2202Y2243D01*
X1884Y2243D01*
G37*
D02*
G36*
X1884Y2243D02*
X1884Y2241D01*
X2202Y2241D01*
X2202Y2243D01*
X1884Y2243D01*
G37*
D02*
G36*
X272Y2241D02*
X272Y2221D01*
X1206Y2221D01*
X1206Y2219D01*
X1218Y2219D01*
X1218Y2217D01*
X1226Y2217D01*
X1226Y2215D01*
X1232Y2215D01*
X1232Y2213D01*
X1236Y2213D01*
X1236Y2211D01*
X1240Y2211D01*
X1240Y2209D01*
X1244Y2209D01*
X1244Y2207D01*
X1246Y2207D01*
X1246Y2205D01*
X1250Y2205D01*
X1250Y2203D01*
X1252Y2203D01*
X1252Y2201D01*
X1256Y2201D01*
X1256Y2199D01*
X1258Y2199D01*
X1258Y2197D01*
X1260Y2197D01*
X1260Y2195D01*
X1262Y2195D01*
X1262Y2193D01*
X1264Y2193D01*
X1264Y2191D01*
X1266Y2191D01*
X1266Y2189D01*
X1268Y2189D01*
X1268Y2185D01*
X1270Y2185D01*
X1270Y2183D01*
X1272Y2183D01*
X1272Y2181D01*
X1274Y2181D01*
X1274Y2177D01*
X1276Y2177D01*
X1276Y2173D01*
X1278Y2173D01*
X1278Y2169D01*
X1280Y2169D01*
X1280Y2165D01*
X1282Y2165D01*
X1282Y2159D01*
X1284Y2159D01*
X1284Y2153D01*
X1286Y2153D01*
X1286Y2141D01*
X1288Y2141D01*
X1288Y2111D01*
X1314Y2111D01*
X1314Y2109D01*
X1322Y2109D01*
X1322Y2107D01*
X1328Y2107D01*
X1328Y2105D01*
X1332Y2105D01*
X1332Y2103D01*
X1336Y2103D01*
X1336Y2101D01*
X1360Y2101D01*
X1360Y2103D01*
X1364Y2103D01*
X1364Y2105D01*
X1368Y2105D01*
X1368Y2107D01*
X1374Y2107D01*
X1374Y2109D01*
X1382Y2109D01*
X1382Y2111D01*
X1406Y2111D01*
X1406Y2131D01*
X1404Y2131D01*
X1404Y2133D01*
X1402Y2133D01*
X1402Y2135D01*
X1400Y2135D01*
X1400Y2137D01*
X1398Y2137D01*
X1398Y2139D01*
X1396Y2139D01*
X1396Y2141D01*
X1394Y2141D01*
X1394Y2143D01*
X1392Y2143D01*
X1392Y2145D01*
X1390Y2145D01*
X1390Y2147D01*
X1388Y2147D01*
X1388Y2149D01*
X1386Y2149D01*
X1386Y2151D01*
X1384Y2151D01*
X1384Y2153D01*
X1382Y2153D01*
X1382Y2155D01*
X1380Y2155D01*
X1380Y2157D01*
X1378Y2157D01*
X1378Y2159D01*
X1376Y2159D01*
X1376Y2161D01*
X1374Y2161D01*
X1374Y2163D01*
X1372Y2163D01*
X1372Y2165D01*
X1370Y2165D01*
X1370Y2167D01*
X1368Y2167D01*
X1368Y2169D01*
X1366Y2169D01*
X1366Y2171D01*
X1364Y2171D01*
X1364Y2175D01*
X1362Y2175D01*
X1362Y2177D01*
X1360Y2177D01*
X1360Y2179D01*
X1358Y2179D01*
X1358Y2181D01*
X1356Y2181D01*
X1356Y2183D01*
X1354Y2183D01*
X1354Y2185D01*
X1352Y2185D01*
X1352Y2187D01*
X1350Y2187D01*
X1350Y2189D01*
X1348Y2189D01*
X1348Y2191D01*
X1346Y2191D01*
X1346Y2193D01*
X1344Y2193D01*
X1344Y2195D01*
X1342Y2195D01*
X1342Y2197D01*
X1340Y2197D01*
X1340Y2199D01*
X1338Y2199D01*
X1338Y2201D01*
X1336Y2201D01*
X1336Y2203D01*
X1334Y2203D01*
X1334Y2205D01*
X1332Y2205D01*
X1332Y2207D01*
X1330Y2207D01*
X1330Y2209D01*
X1328Y2209D01*
X1328Y2211D01*
X1326Y2211D01*
X1326Y2213D01*
X1324Y2213D01*
X1324Y2215D01*
X1322Y2215D01*
X1322Y2219D01*
X1320Y2219D01*
X1320Y2221D01*
X1318Y2221D01*
X1318Y2223D01*
X1316Y2223D01*
X1316Y2225D01*
X1314Y2225D01*
X1314Y2227D01*
X1312Y2227D01*
X1312Y2229D01*
X1310Y2229D01*
X1310Y2231D01*
X1308Y2231D01*
X1308Y2233D01*
X1306Y2233D01*
X1306Y2235D01*
X1304Y2235D01*
X1304Y2237D01*
X1302Y2237D01*
X1302Y2239D01*
X1300Y2239D01*
X1300Y2241D01*
X272Y2241D01*
G37*
D02*
G36*
X1884Y2241D02*
X1884Y2225D01*
X1886Y2225D01*
X1886Y2223D01*
X1888Y2223D01*
X1888Y2221D01*
X1890Y2221D01*
X1890Y2219D01*
X1892Y2219D01*
X1892Y2217D01*
X1894Y2217D01*
X1894Y2215D01*
X1896Y2215D01*
X1896Y2213D01*
X1898Y2213D01*
X1898Y2211D01*
X1900Y2211D01*
X1900Y2209D01*
X1902Y2209D01*
X1902Y2207D01*
X1904Y2207D01*
X1904Y2205D01*
X1906Y2205D01*
X1906Y2203D01*
X1908Y2203D01*
X1908Y2201D01*
X1910Y2201D01*
X1910Y2199D01*
X1912Y2199D01*
X1912Y2197D01*
X1914Y2197D01*
X1914Y2195D01*
X1916Y2195D01*
X1916Y2191D01*
X1918Y2191D01*
X1918Y2189D01*
X1920Y2189D01*
X1920Y2187D01*
X1922Y2187D01*
X1922Y2185D01*
X1924Y2185D01*
X1924Y2183D01*
X1926Y2183D01*
X1926Y2181D01*
X1928Y2181D01*
X1928Y2179D01*
X1930Y2179D01*
X1930Y2177D01*
X1932Y2177D01*
X1932Y2175D01*
X1934Y2175D01*
X1934Y2173D01*
X1936Y2173D01*
X1936Y2171D01*
X1938Y2171D01*
X1938Y2169D01*
X1940Y2169D01*
X1940Y2167D01*
X1942Y2167D01*
X1942Y2165D01*
X1944Y2165D01*
X1944Y2163D01*
X1946Y2163D01*
X1946Y2161D01*
X1948Y2161D01*
X1948Y2159D01*
X1950Y2159D01*
X1950Y2157D01*
X1952Y2157D01*
X1952Y2155D01*
X2290Y2155D01*
X2290Y2157D01*
X2276Y2157D01*
X2276Y2159D01*
X2270Y2159D01*
X2270Y2161D01*
X2264Y2161D01*
X2264Y2163D01*
X2258Y2163D01*
X2258Y2165D01*
X2254Y2165D01*
X2254Y2167D01*
X2250Y2167D01*
X2250Y2169D01*
X2248Y2169D01*
X2248Y2171D01*
X2244Y2171D01*
X2244Y2173D01*
X2242Y2173D01*
X2242Y2175D01*
X2238Y2175D01*
X2238Y2177D01*
X2236Y2177D01*
X2236Y2179D01*
X2234Y2179D01*
X2234Y2181D01*
X2232Y2181D01*
X2232Y2183D01*
X2230Y2183D01*
X2230Y2185D01*
X2228Y2185D01*
X2228Y2187D01*
X2226Y2187D01*
X2226Y2189D01*
X2224Y2189D01*
X2224Y2191D01*
X2222Y2191D01*
X2222Y2195D01*
X2220Y2195D01*
X2220Y2197D01*
X2218Y2197D01*
X2218Y2201D01*
X2216Y2201D01*
X2216Y2203D01*
X2214Y2203D01*
X2214Y2207D01*
X2212Y2207D01*
X2212Y2211D01*
X2210Y2211D01*
X2210Y2215D01*
X2208Y2215D01*
X2208Y2221D01*
X2206Y2221D01*
X2206Y2229D01*
X2204Y2229D01*
X2204Y2239D01*
X2202Y2239D01*
X2202Y2241D01*
X1884Y2241D01*
G37*
D02*
G36*
X272Y2221D02*
X272Y2111D01*
X1016Y2111D01*
X1016Y2109D01*
X1022Y2109D01*
X1022Y2107D01*
X1028Y2107D01*
X1028Y2105D01*
X1034Y2105D01*
X1034Y2103D01*
X1036Y2103D01*
X1036Y2101D01*
X1060Y2101D01*
X1060Y2103D01*
X1064Y2103D01*
X1064Y2105D01*
X1068Y2105D01*
X1068Y2107D01*
X1074Y2107D01*
X1074Y2109D01*
X1080Y2109D01*
X1080Y2111D01*
X1110Y2111D01*
X1110Y2147D01*
X1112Y2147D01*
X1112Y2155D01*
X1114Y2155D01*
X1114Y2161D01*
X1116Y2161D01*
X1116Y2167D01*
X1118Y2167D01*
X1118Y2171D01*
X1120Y2171D01*
X1120Y2175D01*
X1122Y2175D01*
X1122Y2179D01*
X1124Y2179D01*
X1124Y2181D01*
X1126Y2181D01*
X1126Y2185D01*
X1128Y2185D01*
X1128Y2187D01*
X1130Y2187D01*
X1130Y2189D01*
X1132Y2189D01*
X1132Y2191D01*
X1134Y2191D01*
X1134Y2193D01*
X1136Y2193D01*
X1136Y2195D01*
X1138Y2195D01*
X1138Y2197D01*
X1140Y2197D01*
X1140Y2199D01*
X1142Y2199D01*
X1142Y2201D01*
X1144Y2201D01*
X1144Y2203D01*
X1148Y2203D01*
X1148Y2205D01*
X1150Y2205D01*
X1150Y2207D01*
X1154Y2207D01*
X1154Y2209D01*
X1158Y2209D01*
X1158Y2211D01*
X1162Y2211D01*
X1162Y2213D01*
X1166Y2213D01*
X1166Y2215D01*
X1172Y2215D01*
X1172Y2217D01*
X1178Y2217D01*
X1178Y2219D01*
X1192Y2219D01*
X1192Y2221D01*
X272Y2221D01*
G37*
D02*
G36*
X1954Y2155D02*
X1954Y2153D01*
X2952Y2153D01*
X2952Y2155D01*
X1954Y2155D01*
G37*
D02*
G36*
X1954Y2155D02*
X1954Y2153D01*
X2952Y2153D01*
X2952Y2155D01*
X1954Y2155D01*
G37*
D02*
G36*
X1954Y2155D02*
X1954Y2153D01*
X2952Y2153D01*
X2952Y2155D01*
X1954Y2155D01*
G37*
D02*
G36*
X1956Y2153D02*
X1956Y2149D01*
X1958Y2149D01*
X1958Y2147D01*
X1960Y2147D01*
X1960Y2145D01*
X1962Y2145D01*
X1962Y2143D01*
X1964Y2143D01*
X1964Y2141D01*
X1966Y2141D01*
X1966Y2139D01*
X1968Y2139D01*
X1968Y2137D01*
X1970Y2137D01*
X1970Y2135D01*
X1972Y2135D01*
X1972Y2133D01*
X1974Y2133D01*
X1974Y2131D01*
X1976Y2131D01*
X1976Y2129D01*
X1978Y2129D01*
X1978Y2127D01*
X1980Y2127D01*
X1980Y2125D01*
X1982Y2125D01*
X1982Y2123D01*
X1984Y2123D01*
X1984Y2121D01*
X1986Y2121D01*
X1986Y2119D01*
X1988Y2119D01*
X1988Y2117D01*
X1990Y2117D01*
X1990Y2115D01*
X1992Y2115D01*
X1992Y2113D01*
X1994Y2113D01*
X1994Y2111D01*
X2614Y2111D01*
X2614Y2109D01*
X2622Y2109D01*
X2622Y2107D01*
X2626Y2107D01*
X2626Y2105D01*
X2632Y2105D01*
X2632Y2103D01*
X2636Y2103D01*
X2636Y2101D01*
X2640Y2101D01*
X2640Y2099D01*
X2642Y2099D01*
X2642Y2097D01*
X2646Y2097D01*
X2646Y2095D01*
X2648Y2095D01*
X2648Y2093D01*
X2650Y2093D01*
X2650Y2091D01*
X2652Y2091D01*
X2652Y2089D01*
X2654Y2089D01*
X2654Y2087D01*
X2656Y2087D01*
X2656Y2085D01*
X2658Y2085D01*
X2658Y2083D01*
X2660Y2083D01*
X2660Y2081D01*
X2662Y2081D01*
X2662Y2079D01*
X2664Y2079D01*
X2664Y2075D01*
X2666Y2075D01*
X2666Y2073D01*
X2668Y2073D01*
X2668Y2069D01*
X2670Y2069D01*
X2670Y2067D01*
X2672Y2067D01*
X2672Y2063D01*
X2674Y2063D01*
X2674Y2057D01*
X2676Y2057D01*
X2676Y2053D01*
X2678Y2053D01*
X2678Y2047D01*
X2680Y2047D01*
X2680Y2039D01*
X2682Y2039D01*
X2682Y2023D01*
X2684Y2023D01*
X2684Y2021D01*
X2686Y2021D01*
X2686Y2019D01*
X2688Y2019D01*
X2688Y2017D01*
X2690Y2017D01*
X2690Y2015D01*
X2692Y2015D01*
X2692Y2013D01*
X2694Y2013D01*
X2694Y2011D01*
X2696Y2011D01*
X2696Y2009D01*
X2700Y2009D01*
X2700Y2007D01*
X2702Y2007D01*
X2702Y2005D01*
X2704Y2005D01*
X2704Y2003D01*
X2706Y2003D01*
X2706Y2001D01*
X2708Y2001D01*
X2708Y1999D01*
X2710Y1999D01*
X2710Y1997D01*
X2712Y1997D01*
X2712Y1995D01*
X2714Y1995D01*
X2714Y1993D01*
X2716Y1993D01*
X2716Y1991D01*
X2718Y1991D01*
X2718Y1989D01*
X2720Y1989D01*
X2720Y1987D01*
X2722Y1987D01*
X2722Y1985D01*
X2726Y1985D01*
X2726Y1983D01*
X2728Y1983D01*
X2728Y1981D01*
X2730Y1981D01*
X2730Y1979D01*
X2732Y1979D01*
X2732Y1977D01*
X2734Y1977D01*
X2734Y1975D01*
X2736Y1975D01*
X2736Y1973D01*
X2738Y1973D01*
X2738Y1971D01*
X2740Y1971D01*
X2740Y1969D01*
X2742Y1969D01*
X2742Y1967D01*
X2744Y1967D01*
X2744Y1965D01*
X2746Y1965D01*
X2746Y1963D01*
X2748Y1963D01*
X2748Y1961D01*
X2750Y1961D01*
X2750Y1959D01*
X2754Y1959D01*
X2754Y1957D01*
X2756Y1957D01*
X2756Y1955D01*
X2758Y1955D01*
X2758Y1953D01*
X2760Y1953D01*
X2760Y1951D01*
X2762Y1951D01*
X2762Y1949D01*
X2764Y1949D01*
X2764Y1947D01*
X2766Y1947D01*
X2766Y1945D01*
X2768Y1945D01*
X2768Y1943D01*
X2770Y1943D01*
X2770Y1941D01*
X2772Y1941D01*
X2772Y1939D01*
X2774Y1939D01*
X2774Y1937D01*
X2776Y1937D01*
X2776Y1935D01*
X2778Y1935D01*
X2778Y1933D01*
X2782Y1933D01*
X2782Y1931D01*
X2784Y1931D01*
X2784Y1929D01*
X2786Y1929D01*
X2786Y1927D01*
X2788Y1927D01*
X2788Y1925D01*
X2790Y1925D01*
X2790Y1923D01*
X2792Y1923D01*
X2792Y1921D01*
X2794Y1921D01*
X2794Y1919D01*
X2796Y1919D01*
X2796Y1917D01*
X2798Y1917D01*
X2798Y1915D01*
X2800Y1915D01*
X2800Y1913D01*
X2802Y1913D01*
X2802Y1911D01*
X2804Y1911D01*
X2804Y1909D01*
X2808Y1909D01*
X2808Y1907D01*
X2810Y1907D01*
X2810Y1905D01*
X2812Y1905D01*
X2812Y1903D01*
X2814Y1903D01*
X2814Y1901D01*
X2816Y1901D01*
X2816Y1899D01*
X2818Y1899D01*
X2818Y1897D01*
X2820Y1897D01*
X2820Y1895D01*
X2822Y1895D01*
X2822Y1893D01*
X2824Y1893D01*
X2824Y1891D01*
X2826Y1891D01*
X2826Y1889D01*
X2828Y1889D01*
X2828Y1887D01*
X2830Y1887D01*
X2830Y1885D01*
X2832Y1885D01*
X2832Y1883D01*
X2836Y1883D01*
X2836Y1881D01*
X2838Y1881D01*
X2838Y1879D01*
X2840Y1879D01*
X2840Y1877D01*
X2842Y1877D01*
X2842Y1875D01*
X2844Y1875D01*
X2844Y1873D01*
X2846Y1873D01*
X2846Y1871D01*
X2848Y1871D01*
X2848Y1867D01*
X2850Y1867D01*
X2850Y1865D01*
X2852Y1865D01*
X2852Y1861D01*
X2854Y1861D01*
X2854Y1857D01*
X2856Y1857D01*
X2856Y1853D01*
X2858Y1853D01*
X2858Y1847D01*
X2860Y1847D01*
X2860Y1837D01*
X2862Y1837D01*
X2862Y625D01*
X2860Y625D01*
X2860Y615D01*
X2858Y615D01*
X2858Y609D01*
X2856Y609D01*
X2856Y603D01*
X2854Y603D01*
X2854Y601D01*
X2852Y601D01*
X2852Y597D01*
X2850Y597D01*
X2850Y595D01*
X2848Y595D01*
X2848Y591D01*
X2846Y591D01*
X2846Y589D01*
X2844Y589D01*
X2844Y587D01*
X2842Y587D01*
X2842Y583D01*
X2840Y583D01*
X2840Y581D01*
X2838Y581D01*
X2838Y579D01*
X2836Y579D01*
X2836Y577D01*
X2834Y577D01*
X2834Y573D01*
X2832Y573D01*
X2832Y571D01*
X2830Y571D01*
X2830Y569D01*
X2828Y569D01*
X2828Y567D01*
X2826Y567D01*
X2826Y563D01*
X2824Y563D01*
X2824Y561D01*
X2822Y561D01*
X2822Y559D01*
X2820Y559D01*
X2820Y557D01*
X2818Y557D01*
X2818Y553D01*
X2816Y553D01*
X2816Y551D01*
X2814Y551D01*
X2814Y549D01*
X2812Y549D01*
X2812Y547D01*
X2810Y547D01*
X2810Y543D01*
X2808Y543D01*
X2808Y541D01*
X2806Y541D01*
X2806Y539D01*
X2804Y539D01*
X2804Y537D01*
X2802Y537D01*
X2802Y533D01*
X2800Y533D01*
X2800Y531D01*
X2798Y531D01*
X2798Y529D01*
X2796Y529D01*
X2796Y527D01*
X2794Y527D01*
X2794Y523D01*
X2792Y523D01*
X2792Y521D01*
X2790Y521D01*
X2790Y519D01*
X2788Y519D01*
X2788Y517D01*
X2786Y517D01*
X2786Y513D01*
X2784Y513D01*
X2784Y511D01*
X2782Y511D01*
X2782Y509D01*
X2780Y509D01*
X2780Y507D01*
X2778Y507D01*
X2778Y503D01*
X2776Y503D01*
X2776Y501D01*
X2774Y501D01*
X2774Y499D01*
X2772Y499D01*
X2772Y497D01*
X2770Y497D01*
X2770Y493D01*
X2768Y493D01*
X2768Y491D01*
X2766Y491D01*
X2766Y489D01*
X2764Y489D01*
X2764Y487D01*
X2762Y487D01*
X2762Y483D01*
X2760Y483D01*
X2760Y481D01*
X2758Y481D01*
X2758Y479D01*
X2756Y479D01*
X2756Y477D01*
X2754Y477D01*
X2754Y473D01*
X2752Y473D01*
X2752Y471D01*
X2750Y471D01*
X2750Y469D01*
X2748Y469D01*
X2748Y467D01*
X2746Y467D01*
X2746Y463D01*
X2744Y463D01*
X2744Y461D01*
X2742Y461D01*
X2742Y459D01*
X2740Y459D01*
X2740Y457D01*
X2738Y457D01*
X2738Y453D01*
X2736Y453D01*
X2736Y451D01*
X2734Y451D01*
X2734Y449D01*
X2732Y449D01*
X2732Y447D01*
X2730Y447D01*
X2730Y443D01*
X2728Y443D01*
X2728Y441D01*
X2726Y441D01*
X2726Y439D01*
X2724Y439D01*
X2724Y435D01*
X2722Y435D01*
X2722Y433D01*
X2720Y433D01*
X2720Y431D01*
X2718Y431D01*
X2718Y429D01*
X2716Y429D01*
X2716Y425D01*
X2714Y425D01*
X2714Y423D01*
X2712Y423D01*
X2712Y421D01*
X2710Y421D01*
X2710Y419D01*
X2708Y419D01*
X2708Y415D01*
X2706Y415D01*
X2706Y413D01*
X2704Y413D01*
X2704Y411D01*
X2702Y411D01*
X2702Y409D01*
X2700Y409D01*
X2700Y405D01*
X2698Y405D01*
X2698Y403D01*
X2696Y403D01*
X2696Y401D01*
X2694Y401D01*
X2694Y399D01*
X2692Y399D01*
X2692Y395D01*
X2690Y395D01*
X2690Y393D01*
X2688Y393D01*
X2688Y391D01*
X2686Y391D01*
X2686Y389D01*
X2684Y389D01*
X2684Y385D01*
X2682Y385D01*
X2682Y383D01*
X2680Y383D01*
X2680Y381D01*
X2678Y381D01*
X2678Y379D01*
X2676Y379D01*
X2676Y375D01*
X2674Y375D01*
X2674Y373D01*
X2672Y373D01*
X2672Y371D01*
X2670Y371D01*
X2670Y369D01*
X2668Y369D01*
X2668Y365D01*
X2666Y365D01*
X2666Y363D01*
X2664Y363D01*
X2664Y361D01*
X2662Y361D01*
X2662Y359D01*
X2660Y359D01*
X2660Y355D01*
X2658Y355D01*
X2658Y353D01*
X2656Y353D01*
X2656Y351D01*
X2654Y351D01*
X2654Y349D01*
X2652Y349D01*
X2652Y345D01*
X2806Y345D01*
X2806Y343D01*
X2822Y343D01*
X2822Y341D01*
X2830Y341D01*
X2830Y339D01*
X2836Y339D01*
X2836Y337D01*
X2842Y337D01*
X2842Y335D01*
X2846Y335D01*
X2846Y333D01*
X2850Y333D01*
X2850Y331D01*
X2854Y331D01*
X2854Y329D01*
X2856Y329D01*
X2856Y327D01*
X2860Y327D01*
X2860Y325D01*
X2864Y325D01*
X2864Y323D01*
X2866Y323D01*
X2866Y321D01*
X2868Y321D01*
X2868Y319D01*
X2872Y319D01*
X2872Y317D01*
X2874Y317D01*
X2874Y315D01*
X2876Y315D01*
X2876Y313D01*
X2878Y313D01*
X2878Y311D01*
X2880Y311D01*
X2880Y309D01*
X2882Y309D01*
X2882Y307D01*
X2884Y307D01*
X2884Y305D01*
X2886Y305D01*
X2886Y301D01*
X2888Y301D01*
X2888Y299D01*
X2890Y299D01*
X2890Y297D01*
X2892Y297D01*
X2892Y293D01*
X2894Y293D01*
X2894Y291D01*
X2896Y291D01*
X2896Y287D01*
X2898Y287D01*
X2898Y283D01*
X2900Y283D01*
X2900Y279D01*
X2902Y279D01*
X2902Y275D01*
X2904Y275D01*
X2904Y269D01*
X2906Y269D01*
X2906Y263D01*
X2908Y263D01*
X2908Y255D01*
X2910Y255D01*
X2910Y241D01*
X2912Y241D01*
X2912Y221D01*
X2910Y221D01*
X2910Y207D01*
X2908Y207D01*
X2908Y201D01*
X2906Y201D01*
X2906Y193D01*
X2904Y193D01*
X2904Y189D01*
X2902Y189D01*
X2902Y183D01*
X2900Y183D01*
X2900Y179D01*
X2898Y179D01*
X2898Y177D01*
X2896Y177D01*
X2896Y173D01*
X2894Y173D01*
X2894Y169D01*
X2892Y169D01*
X2892Y167D01*
X2890Y167D01*
X2890Y163D01*
X2888Y163D01*
X2888Y161D01*
X2886Y161D01*
X2886Y159D01*
X2884Y159D01*
X2884Y157D01*
X2882Y157D01*
X2882Y155D01*
X2880Y155D01*
X2880Y153D01*
X2878Y153D01*
X2878Y151D01*
X2876Y151D01*
X2876Y149D01*
X2874Y149D01*
X2874Y147D01*
X2872Y147D01*
X2872Y145D01*
X2870Y145D01*
X2870Y143D01*
X2868Y143D01*
X2868Y141D01*
X2864Y141D01*
X2864Y139D01*
X2862Y139D01*
X2862Y137D01*
X2858Y137D01*
X2858Y135D01*
X2856Y135D01*
X2856Y133D01*
X2852Y133D01*
X2852Y131D01*
X2848Y131D01*
X2848Y129D01*
X2844Y129D01*
X2844Y127D01*
X2838Y127D01*
X2838Y125D01*
X2834Y125D01*
X2834Y123D01*
X2826Y123D01*
X2826Y121D01*
X2816Y121D01*
X2816Y119D01*
X2952Y119D01*
X2952Y2153D01*
X1956Y2153D01*
G37*
D02*
G36*
X272Y2111D02*
X272Y1321D01*
X388Y1321D01*
X388Y1141D01*
X314Y1141D01*
X314Y1121D01*
X316Y1121D01*
X316Y1119D01*
X322Y1119D01*
X322Y1117D01*
X328Y1117D01*
X328Y1115D01*
X334Y1115D01*
X334Y1113D01*
X338Y1113D01*
X338Y1111D01*
X342Y1111D01*
X342Y1109D01*
X346Y1109D01*
X346Y1107D01*
X348Y1107D01*
X348Y1105D01*
X352Y1105D01*
X352Y1103D01*
X354Y1103D01*
X354Y1101D01*
X356Y1101D01*
X356Y1099D01*
X358Y1099D01*
X358Y1097D01*
X362Y1097D01*
X362Y1095D01*
X364Y1095D01*
X364Y1091D01*
X366Y1091D01*
X366Y1089D01*
X368Y1089D01*
X368Y1087D01*
X370Y1087D01*
X370Y1085D01*
X372Y1085D01*
X372Y1081D01*
X374Y1081D01*
X374Y1079D01*
X376Y1079D01*
X376Y1075D01*
X378Y1075D01*
X378Y1071D01*
X380Y1071D01*
X380Y1067D01*
X382Y1067D01*
X382Y1063D01*
X384Y1063D01*
X384Y1057D01*
X386Y1057D01*
X386Y1047D01*
X388Y1047D01*
X388Y1015D01*
X386Y1015D01*
X386Y1007D01*
X384Y1007D01*
X384Y1001D01*
X382Y1001D01*
X382Y995D01*
X380Y995D01*
X380Y991D01*
X378Y991D01*
X378Y987D01*
X376Y987D01*
X376Y985D01*
X374Y985D01*
X374Y981D01*
X372Y981D01*
X372Y841D01*
X406Y841D01*
X406Y839D01*
X418Y839D01*
X418Y837D01*
X426Y837D01*
X426Y835D01*
X432Y835D01*
X432Y833D01*
X436Y833D01*
X436Y831D01*
X440Y831D01*
X440Y829D01*
X444Y829D01*
X444Y827D01*
X446Y827D01*
X446Y825D01*
X450Y825D01*
X450Y823D01*
X452Y823D01*
X452Y821D01*
X456Y821D01*
X456Y819D01*
X458Y819D01*
X458Y817D01*
X460Y817D01*
X460Y815D01*
X462Y815D01*
X462Y813D01*
X464Y813D01*
X464Y811D01*
X466Y811D01*
X466Y809D01*
X468Y809D01*
X468Y805D01*
X470Y805D01*
X470Y803D01*
X472Y803D01*
X472Y801D01*
X474Y801D01*
X474Y797D01*
X476Y797D01*
X476Y793D01*
X478Y793D01*
X478Y789D01*
X480Y789D01*
X480Y785D01*
X482Y785D01*
X482Y779D01*
X484Y779D01*
X484Y773D01*
X486Y773D01*
X486Y761D01*
X488Y761D01*
X488Y563D01*
X374Y563D01*
X374Y421D01*
X406Y421D01*
X406Y419D01*
X418Y419D01*
X418Y417D01*
X426Y417D01*
X426Y415D01*
X432Y415D01*
X432Y413D01*
X436Y413D01*
X436Y411D01*
X440Y411D01*
X440Y409D01*
X444Y409D01*
X444Y407D01*
X446Y407D01*
X446Y405D01*
X450Y405D01*
X450Y403D01*
X452Y403D01*
X452Y401D01*
X456Y401D01*
X456Y399D01*
X458Y399D01*
X458Y397D01*
X460Y397D01*
X460Y395D01*
X462Y395D01*
X462Y393D01*
X464Y393D01*
X464Y391D01*
X466Y391D01*
X466Y389D01*
X468Y389D01*
X468Y385D01*
X470Y385D01*
X470Y383D01*
X472Y383D01*
X472Y381D01*
X474Y381D01*
X474Y377D01*
X476Y377D01*
X476Y373D01*
X478Y373D01*
X478Y369D01*
X480Y369D01*
X480Y365D01*
X482Y365D01*
X482Y359D01*
X484Y359D01*
X484Y353D01*
X486Y353D01*
X486Y341D01*
X488Y341D01*
X488Y143D01*
X1040Y143D01*
X1040Y157D01*
X892Y157D01*
X892Y159D01*
X882Y159D01*
X882Y161D01*
X874Y161D01*
X874Y163D01*
X870Y163D01*
X870Y165D01*
X866Y165D01*
X866Y167D01*
X862Y167D01*
X862Y169D01*
X858Y169D01*
X858Y171D01*
X856Y171D01*
X856Y173D01*
X854Y173D01*
X854Y175D01*
X850Y175D01*
X850Y177D01*
X848Y177D01*
X848Y179D01*
X846Y179D01*
X846Y181D01*
X844Y181D01*
X844Y183D01*
X842Y183D01*
X842Y187D01*
X840Y187D01*
X840Y189D01*
X838Y189D01*
X838Y193D01*
X836Y193D01*
X836Y195D01*
X834Y195D01*
X834Y199D01*
X832Y199D01*
X832Y203D01*
X830Y203D01*
X830Y209D01*
X828Y209D01*
X828Y213D01*
X826Y213D01*
X826Y217D01*
X824Y217D01*
X824Y223D01*
X822Y223D01*
X822Y227D01*
X820Y227D01*
X820Y231D01*
X818Y231D01*
X818Y237D01*
X816Y237D01*
X816Y241D01*
X814Y241D01*
X814Y245D01*
X812Y245D01*
X812Y249D01*
X810Y249D01*
X810Y255D01*
X808Y255D01*
X808Y259D01*
X806Y259D01*
X806Y263D01*
X804Y263D01*
X804Y269D01*
X802Y269D01*
X802Y273D01*
X800Y273D01*
X800Y277D01*
X798Y277D01*
X798Y283D01*
X796Y283D01*
X796Y287D01*
X794Y287D01*
X794Y291D01*
X792Y291D01*
X792Y297D01*
X790Y297D01*
X790Y301D01*
X788Y301D01*
X788Y305D01*
X786Y305D01*
X786Y311D01*
X784Y311D01*
X784Y315D01*
X782Y315D01*
X782Y319D01*
X780Y319D01*
X780Y325D01*
X778Y325D01*
X778Y329D01*
X776Y329D01*
X776Y333D01*
X774Y333D01*
X774Y337D01*
X772Y337D01*
X772Y343D01*
X770Y343D01*
X770Y347D01*
X768Y347D01*
X768Y351D01*
X766Y351D01*
X766Y357D01*
X764Y357D01*
X764Y361D01*
X762Y361D01*
X762Y365D01*
X760Y365D01*
X760Y371D01*
X758Y371D01*
X758Y375D01*
X756Y375D01*
X756Y379D01*
X754Y379D01*
X754Y385D01*
X752Y385D01*
X752Y389D01*
X750Y389D01*
X750Y393D01*
X748Y393D01*
X748Y399D01*
X746Y399D01*
X746Y403D01*
X744Y403D01*
X744Y407D01*
X742Y407D01*
X742Y413D01*
X740Y413D01*
X740Y417D01*
X738Y417D01*
X738Y421D01*
X736Y421D01*
X736Y427D01*
X734Y427D01*
X734Y431D01*
X732Y431D01*
X732Y435D01*
X730Y435D01*
X730Y439D01*
X728Y439D01*
X728Y445D01*
X726Y445D01*
X726Y449D01*
X724Y449D01*
X724Y453D01*
X722Y453D01*
X722Y459D01*
X720Y459D01*
X720Y463D01*
X718Y463D01*
X718Y467D01*
X716Y467D01*
X716Y473D01*
X714Y473D01*
X714Y477D01*
X712Y477D01*
X712Y481D01*
X710Y481D01*
X710Y487D01*
X708Y487D01*
X708Y491D01*
X706Y491D01*
X706Y495D01*
X704Y495D01*
X704Y501D01*
X702Y501D01*
X702Y505D01*
X700Y505D01*
X700Y509D01*
X698Y509D01*
X698Y515D01*
X696Y515D01*
X696Y519D01*
X694Y519D01*
X694Y523D01*
X692Y523D01*
X692Y529D01*
X690Y529D01*
X690Y533D01*
X688Y533D01*
X688Y537D01*
X686Y537D01*
X686Y541D01*
X684Y541D01*
X684Y547D01*
X682Y547D01*
X682Y551D01*
X680Y551D01*
X680Y555D01*
X678Y555D01*
X678Y561D01*
X676Y561D01*
X676Y565D01*
X674Y565D01*
X674Y569D01*
X672Y569D01*
X672Y575D01*
X670Y575D01*
X670Y579D01*
X668Y579D01*
X668Y583D01*
X666Y583D01*
X666Y589D01*
X664Y589D01*
X664Y593D01*
X662Y593D01*
X662Y597D01*
X660Y597D01*
X660Y603D01*
X658Y603D01*
X658Y607D01*
X656Y607D01*
X656Y611D01*
X654Y611D01*
X654Y617D01*
X652Y617D01*
X652Y621D01*
X650Y621D01*
X650Y625D01*
X648Y625D01*
X648Y629D01*
X646Y629D01*
X646Y635D01*
X644Y635D01*
X644Y639D01*
X642Y639D01*
X642Y643D01*
X640Y643D01*
X640Y649D01*
X638Y649D01*
X638Y653D01*
X636Y653D01*
X636Y657D01*
X634Y657D01*
X634Y663D01*
X632Y663D01*
X632Y667D01*
X630Y667D01*
X630Y671D01*
X628Y671D01*
X628Y677D01*
X626Y677D01*
X626Y681D01*
X624Y681D01*
X624Y685D01*
X622Y685D01*
X622Y691D01*
X620Y691D01*
X620Y695D01*
X618Y695D01*
X618Y699D01*
X616Y699D01*
X616Y705D01*
X614Y705D01*
X614Y709D01*
X612Y709D01*
X612Y713D01*
X610Y713D01*
X610Y719D01*
X608Y719D01*
X608Y723D01*
X606Y723D01*
X606Y727D01*
X604Y727D01*
X604Y731D01*
X602Y731D01*
X602Y737D01*
X600Y737D01*
X600Y741D01*
X598Y741D01*
X598Y745D01*
X596Y745D01*
X596Y751D01*
X594Y751D01*
X594Y755D01*
X592Y755D01*
X592Y759D01*
X590Y759D01*
X590Y765D01*
X588Y765D01*
X588Y769D01*
X586Y769D01*
X586Y773D01*
X584Y773D01*
X584Y779D01*
X582Y779D01*
X582Y783D01*
X580Y783D01*
X580Y787D01*
X578Y787D01*
X578Y793D01*
X576Y793D01*
X576Y797D01*
X574Y797D01*
X574Y801D01*
X572Y801D01*
X572Y807D01*
X570Y807D01*
X570Y811D01*
X568Y811D01*
X568Y815D01*
X566Y815D01*
X566Y821D01*
X564Y821D01*
X564Y825D01*
X562Y825D01*
X562Y829D01*
X560Y829D01*
X560Y833D01*
X558Y833D01*
X558Y839D01*
X556Y839D01*
X556Y843D01*
X554Y843D01*
X554Y847D01*
X552Y847D01*
X552Y853D01*
X550Y853D01*
X550Y857D01*
X548Y857D01*
X548Y861D01*
X546Y861D01*
X546Y867D01*
X544Y867D01*
X544Y871D01*
X542Y871D01*
X542Y875D01*
X540Y875D01*
X540Y881D01*
X538Y881D01*
X538Y885D01*
X536Y885D01*
X536Y889D01*
X534Y889D01*
X534Y895D01*
X532Y895D01*
X532Y899D01*
X530Y899D01*
X530Y903D01*
X528Y903D01*
X528Y909D01*
X526Y909D01*
X526Y917D01*
X524Y917D01*
X524Y1835D01*
X526Y1835D01*
X526Y1847D01*
X528Y1847D01*
X528Y1855D01*
X530Y1855D01*
X530Y1859D01*
X532Y1859D01*
X532Y1863D01*
X534Y1863D01*
X534Y1867D01*
X536Y1867D01*
X536Y1871D01*
X538Y1871D01*
X538Y1873D01*
X540Y1873D01*
X540Y1875D01*
X542Y1875D01*
X542Y1879D01*
X544Y1879D01*
X544Y1881D01*
X546Y1881D01*
X546Y1883D01*
X548Y1883D01*
X548Y1885D01*
X550Y1885D01*
X550Y1887D01*
X552Y1887D01*
X552Y1889D01*
X554Y1889D01*
X554Y1891D01*
X556Y1891D01*
X556Y1893D01*
X558Y1893D01*
X558Y1895D01*
X562Y1895D01*
X562Y1897D01*
X564Y1897D01*
X564Y1899D01*
X566Y1899D01*
X566Y1901D01*
X568Y1901D01*
X568Y1903D01*
X570Y1903D01*
X570Y1905D01*
X572Y1905D01*
X572Y1907D01*
X574Y1907D01*
X574Y1909D01*
X576Y1909D01*
X576Y1911D01*
X578Y1911D01*
X578Y1913D01*
X580Y1913D01*
X580Y1915D01*
X582Y1915D01*
X582Y1917D01*
X584Y1917D01*
X584Y1919D01*
X586Y1919D01*
X586Y1921D01*
X588Y1921D01*
X588Y1923D01*
X590Y1923D01*
X590Y1925D01*
X592Y1925D01*
X592Y1927D01*
X596Y1927D01*
X596Y1929D01*
X598Y1929D01*
X598Y1931D01*
X600Y1931D01*
X600Y1933D01*
X602Y1933D01*
X602Y1935D01*
X604Y1935D01*
X604Y1937D01*
X606Y1937D01*
X606Y1939D01*
X608Y1939D01*
X608Y1941D01*
X610Y1941D01*
X610Y1943D01*
X612Y1943D01*
X612Y1945D01*
X614Y1945D01*
X614Y1947D01*
X616Y1947D01*
X616Y1949D01*
X618Y1949D01*
X618Y1951D01*
X620Y1951D01*
X620Y1953D01*
X622Y1953D01*
X622Y1955D01*
X624Y1955D01*
X624Y1957D01*
X626Y1957D01*
X626Y1959D01*
X628Y1959D01*
X628Y1961D01*
X632Y1961D01*
X632Y1963D01*
X634Y1963D01*
X634Y1965D01*
X636Y1965D01*
X636Y1967D01*
X638Y1967D01*
X638Y1969D01*
X640Y1969D01*
X640Y1971D01*
X642Y1971D01*
X642Y1973D01*
X644Y1973D01*
X644Y1975D01*
X646Y1975D01*
X646Y1977D01*
X648Y1977D01*
X648Y1979D01*
X650Y1979D01*
X650Y1981D01*
X652Y1981D01*
X652Y1983D01*
X654Y1983D01*
X654Y1985D01*
X656Y1985D01*
X656Y1987D01*
X658Y1987D01*
X658Y1989D01*
X660Y1989D01*
X660Y1991D01*
X662Y1991D01*
X662Y1993D01*
X666Y1993D01*
X666Y1995D01*
X668Y1995D01*
X668Y1997D01*
X670Y1997D01*
X670Y1999D01*
X672Y1999D01*
X672Y2001D01*
X674Y2001D01*
X674Y2003D01*
X676Y2003D01*
X676Y2005D01*
X678Y2005D01*
X678Y2007D01*
X680Y2007D01*
X680Y2009D01*
X682Y2009D01*
X682Y2011D01*
X684Y2011D01*
X684Y2013D01*
X686Y2013D01*
X686Y2015D01*
X688Y2015D01*
X688Y2017D01*
X690Y2017D01*
X690Y2019D01*
X692Y2019D01*
X692Y2021D01*
X694Y2021D01*
X694Y2023D01*
X696Y2023D01*
X696Y2025D01*
X698Y2025D01*
X698Y2027D01*
X702Y2027D01*
X702Y2029D01*
X704Y2029D01*
X704Y2031D01*
X706Y2031D01*
X706Y2033D01*
X708Y2033D01*
X708Y2035D01*
X710Y2035D01*
X710Y2037D01*
X712Y2037D01*
X712Y2039D01*
X714Y2039D01*
X714Y2041D01*
X716Y2041D01*
X716Y2049D01*
X718Y2049D01*
X718Y2055D01*
X720Y2055D01*
X720Y2059D01*
X722Y2059D01*
X722Y2063D01*
X724Y2063D01*
X724Y2067D01*
X726Y2067D01*
X726Y2071D01*
X728Y2071D01*
X728Y2073D01*
X730Y2073D01*
X730Y2077D01*
X732Y2077D01*
X732Y2079D01*
X734Y2079D01*
X734Y2081D01*
X736Y2081D01*
X736Y2083D01*
X738Y2083D01*
X738Y2087D01*
X742Y2087D01*
X742Y2089D01*
X744Y2089D01*
X744Y2091D01*
X746Y2091D01*
X746Y2093D01*
X748Y2093D01*
X748Y2095D01*
X750Y2095D01*
X750Y2097D01*
X754Y2097D01*
X754Y2099D01*
X756Y2099D01*
X756Y2101D01*
X760Y2101D01*
X760Y2103D01*
X764Y2103D01*
X764Y2105D01*
X768Y2105D01*
X768Y2107D01*
X774Y2107D01*
X774Y2109D01*
X780Y2109D01*
X780Y2111D01*
X272Y2111D01*
G37*
D02*
G36*
X816Y2111D02*
X816Y2109D01*
X822Y2109D01*
X822Y2107D01*
X828Y2107D01*
X828Y2105D01*
X832Y2105D01*
X832Y2103D01*
X836Y2103D01*
X836Y2101D01*
X860Y2101D01*
X860Y2103D01*
X864Y2103D01*
X864Y2105D01*
X868Y2105D01*
X868Y2107D01*
X874Y2107D01*
X874Y2109D01*
X882Y2109D01*
X882Y2111D01*
X816Y2111D01*
G37*
D02*
G36*
X916Y2111D02*
X916Y2109D01*
X922Y2109D01*
X922Y2107D01*
X928Y2107D01*
X928Y2105D01*
X932Y2105D01*
X932Y2103D01*
X936Y2103D01*
X936Y2101D01*
X960Y2101D01*
X960Y2103D01*
X964Y2103D01*
X964Y2105D01*
X970Y2105D01*
X970Y2107D01*
X974Y2107D01*
X974Y2109D01*
X982Y2109D01*
X982Y2111D01*
X916Y2111D01*
G37*
D02*
G36*
X2014Y2111D02*
X2014Y2109D01*
X2022Y2109D01*
X2022Y2107D01*
X2026Y2107D01*
X2026Y2105D01*
X2032Y2105D01*
X2032Y2103D01*
X2036Y2103D01*
X2036Y2101D01*
X2060Y2101D01*
X2060Y2103D01*
X2064Y2103D01*
X2064Y2105D01*
X2068Y2105D01*
X2068Y2107D01*
X2074Y2107D01*
X2074Y2109D01*
X2080Y2109D01*
X2080Y2111D01*
X2014Y2111D01*
G37*
D02*
G36*
X2114Y2111D02*
X2114Y2109D01*
X2122Y2109D01*
X2122Y2107D01*
X2128Y2107D01*
X2128Y2105D01*
X2132Y2105D01*
X2132Y2103D01*
X2136Y2103D01*
X2136Y2101D01*
X2160Y2101D01*
X2160Y2103D01*
X2164Y2103D01*
X2164Y2105D01*
X2168Y2105D01*
X2168Y2107D01*
X2174Y2107D01*
X2174Y2109D01*
X2180Y2109D01*
X2180Y2111D01*
X2114Y2111D01*
G37*
D02*
G36*
X2216Y2111D02*
X2216Y2109D01*
X2222Y2109D01*
X2222Y2107D01*
X2228Y2107D01*
X2228Y2105D01*
X2232Y2105D01*
X2232Y2103D01*
X2236Y2103D01*
X2236Y2101D01*
X2260Y2101D01*
X2260Y2103D01*
X2264Y2103D01*
X2264Y2105D01*
X2268Y2105D01*
X2268Y2107D01*
X2274Y2107D01*
X2274Y2109D01*
X2280Y2109D01*
X2280Y2111D01*
X2216Y2111D01*
G37*
D02*
G36*
X2314Y2111D02*
X2314Y2109D01*
X2322Y2109D01*
X2322Y2107D01*
X2326Y2107D01*
X2326Y2105D01*
X2332Y2105D01*
X2332Y2103D01*
X2336Y2103D01*
X2336Y2101D01*
X2360Y2101D01*
X2360Y2103D01*
X2364Y2103D01*
X2364Y2105D01*
X2368Y2105D01*
X2368Y2107D01*
X2374Y2107D01*
X2374Y2109D01*
X2380Y2109D01*
X2380Y2111D01*
X2314Y2111D01*
G37*
D02*
G36*
X2414Y2111D02*
X2414Y2109D01*
X2422Y2109D01*
X2422Y2107D01*
X2428Y2107D01*
X2428Y2105D01*
X2432Y2105D01*
X2432Y2103D01*
X2436Y2103D01*
X2436Y2101D01*
X2460Y2101D01*
X2460Y2103D01*
X2462Y2103D01*
X2462Y2105D01*
X2468Y2105D01*
X2468Y2107D01*
X2474Y2107D01*
X2474Y2109D01*
X2480Y2109D01*
X2480Y2111D01*
X2414Y2111D01*
G37*
D02*
G36*
X2514Y2111D02*
X2514Y2109D01*
X2522Y2109D01*
X2522Y2107D01*
X2526Y2107D01*
X2526Y2105D01*
X2532Y2105D01*
X2532Y2103D01*
X2536Y2103D01*
X2536Y2101D01*
X2560Y2101D01*
X2560Y2103D01*
X2564Y2103D01*
X2564Y2105D01*
X2568Y2105D01*
X2568Y2107D01*
X2574Y2107D01*
X2574Y2109D01*
X2580Y2109D01*
X2580Y2111D01*
X2514Y2111D01*
G37*
D02*
G36*
X838Y1935D02*
X838Y1933D01*
X834Y1933D01*
X834Y1931D01*
X828Y1931D01*
X828Y1929D01*
X824Y1929D01*
X824Y1927D01*
X818Y1927D01*
X818Y1925D01*
X806Y1925D01*
X806Y1923D01*
X892Y1923D01*
X892Y1925D01*
X880Y1925D01*
X880Y1927D01*
X872Y1927D01*
X872Y1929D01*
X868Y1929D01*
X868Y1931D01*
X864Y1931D01*
X864Y1933D01*
X860Y1933D01*
X860Y1935D01*
X838Y1935D01*
G37*
D02*
G36*
X938Y1935D02*
X938Y1933D01*
X934Y1933D01*
X934Y1931D01*
X930Y1931D01*
X930Y1929D01*
X924Y1929D01*
X924Y1927D01*
X918Y1927D01*
X918Y1925D01*
X906Y1925D01*
X906Y1923D01*
X992Y1923D01*
X992Y1925D01*
X980Y1925D01*
X980Y1927D01*
X972Y1927D01*
X972Y1929D01*
X968Y1929D01*
X968Y1931D01*
X964Y1931D01*
X964Y1933D01*
X960Y1933D01*
X960Y1935D01*
X938Y1935D01*
G37*
D02*
G36*
X1038Y1935D02*
X1038Y1933D01*
X1034Y1933D01*
X1034Y1931D01*
X1030Y1931D01*
X1030Y1929D01*
X1024Y1929D01*
X1024Y1927D01*
X1018Y1927D01*
X1018Y1925D01*
X1006Y1925D01*
X1006Y1923D01*
X1092Y1923D01*
X1092Y1925D01*
X1080Y1925D01*
X1080Y1927D01*
X1072Y1927D01*
X1072Y1929D01*
X1068Y1929D01*
X1068Y1931D01*
X1062Y1931D01*
X1062Y1933D01*
X1060Y1933D01*
X1060Y1935D01*
X1038Y1935D01*
G37*
D02*
G36*
X1138Y1935D02*
X1138Y1933D01*
X1134Y1933D01*
X1134Y1931D01*
X1130Y1931D01*
X1130Y1929D01*
X1124Y1929D01*
X1124Y1927D01*
X1118Y1927D01*
X1118Y1925D01*
X1104Y1925D01*
X1104Y1923D01*
X1192Y1923D01*
X1192Y1925D01*
X1180Y1925D01*
X1180Y1927D01*
X1172Y1927D01*
X1172Y1929D01*
X1168Y1929D01*
X1168Y1931D01*
X1164Y1931D01*
X1164Y1933D01*
X1160Y1933D01*
X1160Y1935D01*
X1138Y1935D01*
G37*
D02*
G36*
X1238Y1935D02*
X1238Y1933D01*
X1234Y1933D01*
X1234Y1931D01*
X1230Y1931D01*
X1230Y1929D01*
X1224Y1929D01*
X1224Y1927D01*
X1218Y1927D01*
X1218Y1925D01*
X1206Y1925D01*
X1206Y1923D01*
X1290Y1923D01*
X1290Y1925D01*
X1278Y1925D01*
X1278Y1927D01*
X1272Y1927D01*
X1272Y1929D01*
X1266Y1929D01*
X1266Y1931D01*
X1262Y1931D01*
X1262Y1933D01*
X1258Y1933D01*
X1258Y1935D01*
X1238Y1935D01*
G37*
D02*
G36*
X1336Y1935D02*
X1336Y1933D01*
X1334Y1933D01*
X1334Y1931D01*
X1328Y1931D01*
X1328Y1929D01*
X1324Y1929D01*
X1324Y1927D01*
X1316Y1927D01*
X1316Y1925D01*
X1304Y1925D01*
X1304Y1923D01*
X1392Y1923D01*
X1392Y1925D01*
X1380Y1925D01*
X1380Y1927D01*
X1372Y1927D01*
X1372Y1929D01*
X1368Y1929D01*
X1368Y1931D01*
X1362Y1931D01*
X1362Y1933D01*
X1360Y1933D01*
X1360Y1935D01*
X1336Y1935D01*
G37*
D02*
G36*
X1438Y1935D02*
X1438Y1933D01*
X1434Y1933D01*
X1434Y1931D01*
X1430Y1931D01*
X1430Y1929D01*
X1424Y1929D01*
X1424Y1927D01*
X1418Y1927D01*
X1418Y1925D01*
X1406Y1925D01*
X1406Y1923D01*
X1490Y1923D01*
X1490Y1925D01*
X1478Y1925D01*
X1478Y1927D01*
X1472Y1927D01*
X1472Y1929D01*
X1466Y1929D01*
X1466Y1931D01*
X1462Y1931D01*
X1462Y1933D01*
X1458Y1933D01*
X1458Y1935D01*
X1438Y1935D01*
G37*
D02*
G36*
X1536Y1935D02*
X1536Y1933D01*
X1532Y1933D01*
X1532Y1931D01*
X1528Y1931D01*
X1528Y1929D01*
X1524Y1929D01*
X1524Y1927D01*
X1516Y1927D01*
X1516Y1925D01*
X1504Y1925D01*
X1504Y1923D01*
X1592Y1923D01*
X1592Y1925D01*
X1578Y1925D01*
X1578Y1927D01*
X1572Y1927D01*
X1572Y1929D01*
X1566Y1929D01*
X1566Y1931D01*
X1562Y1931D01*
X1562Y1933D01*
X1558Y1933D01*
X1558Y1935D01*
X1536Y1935D01*
G37*
D02*
G36*
X1636Y1935D02*
X1636Y1933D01*
X1634Y1933D01*
X1634Y1931D01*
X1628Y1931D01*
X1628Y1929D01*
X1624Y1929D01*
X1624Y1927D01*
X1616Y1927D01*
X1616Y1925D01*
X1604Y1925D01*
X1604Y1923D01*
X1692Y1923D01*
X1692Y1925D01*
X1680Y1925D01*
X1680Y1927D01*
X1672Y1927D01*
X1672Y1929D01*
X1668Y1929D01*
X1668Y1931D01*
X1662Y1931D01*
X1662Y1933D01*
X1660Y1933D01*
X1660Y1935D01*
X1636Y1935D01*
G37*
D02*
G36*
X1738Y1935D02*
X1738Y1933D01*
X1734Y1933D01*
X1734Y1931D01*
X1730Y1931D01*
X1730Y1929D01*
X1724Y1929D01*
X1724Y1927D01*
X1718Y1927D01*
X1718Y1925D01*
X1706Y1925D01*
X1706Y1923D01*
X1790Y1923D01*
X1790Y1925D01*
X1778Y1925D01*
X1778Y1927D01*
X1772Y1927D01*
X1772Y1929D01*
X1766Y1929D01*
X1766Y1931D01*
X1762Y1931D01*
X1762Y1933D01*
X1758Y1933D01*
X1758Y1935D01*
X1738Y1935D01*
G37*
D02*
G36*
X1836Y1935D02*
X1836Y1933D01*
X1832Y1933D01*
X1832Y1931D01*
X1828Y1931D01*
X1828Y1929D01*
X1824Y1929D01*
X1824Y1927D01*
X1816Y1927D01*
X1816Y1925D01*
X1804Y1925D01*
X1804Y1923D01*
X1892Y1923D01*
X1892Y1925D01*
X1878Y1925D01*
X1878Y1927D01*
X1872Y1927D01*
X1872Y1929D01*
X1866Y1929D01*
X1866Y1931D01*
X1862Y1931D01*
X1862Y1933D01*
X1858Y1933D01*
X1858Y1935D01*
X1836Y1935D01*
G37*
D02*
G36*
X1938Y1935D02*
X1938Y1933D01*
X1934Y1933D01*
X1934Y1931D01*
X1928Y1931D01*
X1928Y1929D01*
X1924Y1929D01*
X1924Y1927D01*
X1918Y1927D01*
X1918Y1925D01*
X1904Y1925D01*
X1904Y1923D01*
X1990Y1923D01*
X1990Y1925D01*
X1978Y1925D01*
X1978Y1927D01*
X1972Y1927D01*
X1972Y1929D01*
X1966Y1929D01*
X1966Y1931D01*
X1962Y1931D01*
X1962Y1933D01*
X1958Y1933D01*
X1958Y1935D01*
X1938Y1935D01*
G37*
D02*
G36*
X2036Y1935D02*
X2036Y1933D01*
X2032Y1933D01*
X2032Y1931D01*
X2028Y1931D01*
X2028Y1929D01*
X2024Y1929D01*
X2024Y1927D01*
X2016Y1927D01*
X2016Y1925D01*
X2004Y1925D01*
X2004Y1923D01*
X2090Y1923D01*
X2090Y1925D01*
X2078Y1925D01*
X2078Y1927D01*
X2072Y1927D01*
X2072Y1929D01*
X2066Y1929D01*
X2066Y1931D01*
X2062Y1931D01*
X2062Y1933D01*
X2058Y1933D01*
X2058Y1935D01*
X2036Y1935D01*
G37*
D02*
G36*
X2136Y1935D02*
X2136Y1933D01*
X2134Y1933D01*
X2134Y1931D01*
X2128Y1931D01*
X2128Y1929D01*
X2124Y1929D01*
X2124Y1927D01*
X2116Y1927D01*
X2116Y1925D01*
X2104Y1925D01*
X2104Y1923D01*
X2192Y1923D01*
X2192Y1925D01*
X2178Y1925D01*
X2178Y1927D01*
X2172Y1927D01*
X2172Y1929D01*
X2168Y1929D01*
X2168Y1931D01*
X2162Y1931D01*
X2162Y1933D01*
X2158Y1933D01*
X2158Y1935D01*
X2136Y1935D01*
G37*
D02*
G36*
X2238Y1935D02*
X2238Y1933D01*
X2234Y1933D01*
X2234Y1931D01*
X2228Y1931D01*
X2228Y1929D01*
X2224Y1929D01*
X2224Y1927D01*
X2218Y1927D01*
X2218Y1925D01*
X2204Y1925D01*
X2204Y1923D01*
X2290Y1923D01*
X2290Y1925D01*
X2278Y1925D01*
X2278Y1927D01*
X2272Y1927D01*
X2272Y1929D01*
X2266Y1929D01*
X2266Y1931D01*
X2262Y1931D01*
X2262Y1933D01*
X2258Y1933D01*
X2258Y1935D01*
X2238Y1935D01*
G37*
D02*
G36*
X2336Y1935D02*
X2336Y1933D01*
X2332Y1933D01*
X2332Y1931D01*
X2328Y1931D01*
X2328Y1929D01*
X2324Y1929D01*
X2324Y1927D01*
X2316Y1927D01*
X2316Y1925D01*
X2304Y1925D01*
X2304Y1923D01*
X2390Y1923D01*
X2390Y1925D01*
X2378Y1925D01*
X2378Y1927D01*
X2372Y1927D01*
X2372Y1929D01*
X2366Y1929D01*
X2366Y1931D01*
X2362Y1931D01*
X2362Y1933D01*
X2358Y1933D01*
X2358Y1935D01*
X2336Y1935D01*
G37*
D02*
G36*
X2436Y1935D02*
X2436Y1933D01*
X2434Y1933D01*
X2434Y1931D01*
X2428Y1931D01*
X2428Y1929D01*
X2424Y1929D01*
X2424Y1927D01*
X2416Y1927D01*
X2416Y1925D01*
X2404Y1925D01*
X2404Y1923D01*
X2490Y1923D01*
X2490Y1925D01*
X2478Y1925D01*
X2478Y1927D01*
X2472Y1927D01*
X2472Y1929D01*
X2466Y1929D01*
X2466Y1931D01*
X2462Y1931D01*
X2462Y1933D01*
X2458Y1933D01*
X2458Y1935D01*
X2436Y1935D01*
G37*
D02*
G36*
X2536Y1935D02*
X2536Y1933D01*
X2532Y1933D01*
X2532Y1931D01*
X2528Y1931D01*
X2528Y1929D01*
X2522Y1929D01*
X2522Y1927D01*
X2516Y1927D01*
X2516Y1925D01*
X2504Y1925D01*
X2504Y1923D01*
X2590Y1923D01*
X2590Y1925D01*
X2578Y1925D01*
X2578Y1927D01*
X2572Y1927D01*
X2572Y1929D01*
X2566Y1929D01*
X2566Y1931D01*
X2562Y1931D01*
X2562Y1933D01*
X2558Y1933D01*
X2558Y1935D01*
X2536Y1935D01*
G37*
D02*
G36*
X804Y1923D02*
X804Y1921D01*
X2610Y1921D01*
X2610Y1923D01*
X804Y1923D01*
G37*
D02*
G36*
X804Y1923D02*
X804Y1921D01*
X2610Y1921D01*
X2610Y1923D01*
X804Y1923D01*
G37*
D02*
G36*
X804Y1923D02*
X804Y1921D01*
X2610Y1921D01*
X2610Y1923D01*
X804Y1923D01*
G37*
D02*
G36*
X804Y1923D02*
X804Y1921D01*
X2610Y1921D01*
X2610Y1923D01*
X804Y1923D01*
G37*
D02*
G36*
X804Y1923D02*
X804Y1921D01*
X2610Y1921D01*
X2610Y1923D01*
X804Y1923D01*
G37*
D02*
G36*
X804Y1923D02*
X804Y1921D01*
X2610Y1921D01*
X2610Y1923D01*
X804Y1923D01*
G37*
D02*
G36*
X804Y1923D02*
X804Y1921D01*
X2610Y1921D01*
X2610Y1923D01*
X804Y1923D01*
G37*
D02*
G36*
X804Y1923D02*
X804Y1921D01*
X2610Y1921D01*
X2610Y1923D01*
X804Y1923D01*
G37*
D02*
G36*
X804Y1923D02*
X804Y1921D01*
X2610Y1921D01*
X2610Y1923D01*
X804Y1923D01*
G37*
D02*
G36*
X804Y1923D02*
X804Y1921D01*
X2610Y1921D01*
X2610Y1923D01*
X804Y1923D01*
G37*
D02*
G36*
X804Y1923D02*
X804Y1921D01*
X2610Y1921D01*
X2610Y1923D01*
X804Y1923D01*
G37*
D02*
G36*
X804Y1923D02*
X804Y1921D01*
X2610Y1921D01*
X2610Y1923D01*
X804Y1923D01*
G37*
D02*
G36*
X804Y1923D02*
X804Y1921D01*
X2610Y1921D01*
X2610Y1923D01*
X804Y1923D01*
G37*
D02*
G36*
X804Y1923D02*
X804Y1921D01*
X2610Y1921D01*
X2610Y1923D01*
X804Y1923D01*
G37*
D02*
G36*
X804Y1923D02*
X804Y1921D01*
X2610Y1921D01*
X2610Y1923D01*
X804Y1923D01*
G37*
D02*
G36*
X804Y1923D02*
X804Y1921D01*
X2610Y1921D01*
X2610Y1923D01*
X804Y1923D01*
G37*
D02*
G36*
X804Y1923D02*
X804Y1921D01*
X2610Y1921D01*
X2610Y1923D01*
X804Y1923D01*
G37*
D02*
G36*
X804Y1923D02*
X804Y1921D01*
X2610Y1921D01*
X2610Y1923D01*
X804Y1923D01*
G37*
D02*
G36*
X802Y1921D02*
X802Y1919D01*
X800Y1919D01*
X800Y1917D01*
X798Y1917D01*
X798Y1915D01*
X796Y1915D01*
X796Y1913D01*
X794Y1913D01*
X794Y1911D01*
X792Y1911D01*
X792Y1909D01*
X790Y1909D01*
X790Y1907D01*
X788Y1907D01*
X788Y1905D01*
X786Y1905D01*
X786Y1903D01*
X784Y1903D01*
X784Y1901D01*
X782Y1901D01*
X782Y1899D01*
X778Y1899D01*
X778Y1897D01*
X776Y1897D01*
X776Y1895D01*
X774Y1895D01*
X774Y1893D01*
X772Y1893D01*
X772Y1891D01*
X770Y1891D01*
X770Y1889D01*
X768Y1889D01*
X768Y1887D01*
X766Y1887D01*
X766Y1885D01*
X764Y1885D01*
X764Y1883D01*
X762Y1883D01*
X762Y1881D01*
X760Y1881D01*
X760Y1879D01*
X758Y1879D01*
X758Y1877D01*
X756Y1877D01*
X756Y1875D01*
X754Y1875D01*
X754Y1873D01*
X752Y1873D01*
X752Y1871D01*
X750Y1871D01*
X750Y1869D01*
X748Y1869D01*
X748Y1867D01*
X746Y1867D01*
X746Y1865D01*
X742Y1865D01*
X742Y1863D01*
X740Y1863D01*
X740Y1861D01*
X738Y1861D01*
X738Y1859D01*
X736Y1859D01*
X736Y1857D01*
X734Y1857D01*
X734Y1855D01*
X732Y1855D01*
X732Y1853D01*
X730Y1853D01*
X730Y1851D01*
X728Y1851D01*
X728Y1849D01*
X726Y1849D01*
X726Y1847D01*
X724Y1847D01*
X724Y1845D01*
X722Y1845D01*
X722Y1843D01*
X720Y1843D01*
X720Y1841D01*
X718Y1841D01*
X718Y1839D01*
X716Y1839D01*
X716Y1837D01*
X714Y1837D01*
X714Y1835D01*
X712Y1835D01*
X712Y1833D01*
X708Y1833D01*
X708Y1831D01*
X706Y1831D01*
X706Y1829D01*
X704Y1829D01*
X704Y1827D01*
X702Y1827D01*
X702Y1825D01*
X700Y1825D01*
X700Y1823D01*
X698Y1823D01*
X698Y1821D01*
X696Y1821D01*
X696Y1819D01*
X694Y1819D01*
X694Y1817D01*
X692Y1817D01*
X692Y1815D01*
X690Y1815D01*
X690Y1813D01*
X688Y1813D01*
X688Y1811D01*
X686Y1811D01*
X686Y1809D01*
X684Y1809D01*
X684Y1807D01*
X682Y1807D01*
X682Y1805D01*
X680Y1805D01*
X680Y1803D01*
X678Y1803D01*
X678Y1801D01*
X676Y1801D01*
X676Y1799D01*
X672Y1799D01*
X672Y1127D01*
X2600Y1127D01*
X2600Y1125D01*
X2616Y1125D01*
X2616Y1123D01*
X2622Y1123D01*
X2622Y1121D01*
X2628Y1121D01*
X2628Y1119D01*
X2632Y1119D01*
X2632Y1117D01*
X2636Y1117D01*
X2636Y1115D01*
X2640Y1115D01*
X2640Y1113D01*
X2642Y1113D01*
X2642Y1111D01*
X2646Y1111D01*
X2646Y1109D01*
X2648Y1109D01*
X2648Y1107D01*
X2650Y1107D01*
X2650Y1105D01*
X2652Y1105D01*
X2652Y1103D01*
X2654Y1103D01*
X2654Y1101D01*
X2656Y1101D01*
X2656Y1099D01*
X2658Y1099D01*
X2658Y1097D01*
X2660Y1097D01*
X2660Y1095D01*
X2662Y1095D01*
X2662Y1093D01*
X2664Y1093D01*
X2664Y1089D01*
X2666Y1089D01*
X2666Y1087D01*
X2668Y1087D01*
X2668Y1085D01*
X2670Y1085D01*
X2670Y1081D01*
X2672Y1081D01*
X2672Y1077D01*
X2674Y1077D01*
X2674Y1073D01*
X2676Y1073D01*
X2676Y1067D01*
X2678Y1067D01*
X2678Y1061D01*
X2680Y1061D01*
X2680Y1053D01*
X2682Y1053D01*
X2682Y1039D01*
X2684Y1039D01*
X2684Y1027D01*
X2682Y1027D01*
X2682Y1011D01*
X2680Y1011D01*
X2680Y1003D01*
X2678Y1003D01*
X2678Y997D01*
X2676Y997D01*
X2676Y991D01*
X2674Y991D01*
X2674Y987D01*
X2672Y987D01*
X2672Y983D01*
X2670Y983D01*
X2670Y981D01*
X2668Y981D01*
X2668Y977D01*
X2666Y977D01*
X2666Y975D01*
X2664Y975D01*
X2664Y971D01*
X2662Y971D01*
X2662Y969D01*
X2660Y969D01*
X2660Y967D01*
X2658Y967D01*
X2658Y965D01*
X2656Y965D01*
X2656Y963D01*
X2654Y963D01*
X2654Y961D01*
X2652Y961D01*
X2652Y959D01*
X2650Y959D01*
X2650Y957D01*
X2648Y957D01*
X2648Y955D01*
X2646Y955D01*
X2646Y953D01*
X2642Y953D01*
X2642Y951D01*
X2640Y951D01*
X2640Y949D01*
X2636Y949D01*
X2636Y947D01*
X2632Y947D01*
X2632Y945D01*
X2628Y945D01*
X2628Y943D01*
X2622Y943D01*
X2622Y941D01*
X2616Y941D01*
X2616Y939D01*
X2600Y939D01*
X2600Y937D01*
X2738Y937D01*
X2738Y1803D01*
X2736Y1803D01*
X2736Y1805D01*
X2734Y1805D01*
X2734Y1807D01*
X2732Y1807D01*
X2732Y1809D01*
X2730Y1809D01*
X2730Y1811D01*
X2728Y1811D01*
X2728Y1813D01*
X2726Y1813D01*
X2726Y1815D01*
X2724Y1815D01*
X2724Y1817D01*
X2722Y1817D01*
X2722Y1819D01*
X2720Y1819D01*
X2720Y1821D01*
X2718Y1821D01*
X2718Y1823D01*
X2716Y1823D01*
X2716Y1825D01*
X2714Y1825D01*
X2714Y1827D01*
X2710Y1827D01*
X2710Y1829D01*
X2708Y1829D01*
X2708Y1831D01*
X2706Y1831D01*
X2706Y1833D01*
X2704Y1833D01*
X2704Y1835D01*
X2702Y1835D01*
X2702Y1837D01*
X2700Y1837D01*
X2700Y1839D01*
X2698Y1839D01*
X2698Y1841D01*
X2696Y1841D01*
X2696Y1843D01*
X2694Y1843D01*
X2694Y1845D01*
X2692Y1845D01*
X2692Y1847D01*
X2690Y1847D01*
X2690Y1849D01*
X2688Y1849D01*
X2688Y1851D01*
X2686Y1851D01*
X2686Y1853D01*
X2682Y1853D01*
X2682Y1855D01*
X2680Y1855D01*
X2680Y1857D01*
X2678Y1857D01*
X2678Y1859D01*
X2676Y1859D01*
X2676Y1861D01*
X2674Y1861D01*
X2674Y1863D01*
X2672Y1863D01*
X2672Y1865D01*
X2670Y1865D01*
X2670Y1867D01*
X2668Y1867D01*
X2668Y1869D01*
X2666Y1869D01*
X2666Y1871D01*
X2664Y1871D01*
X2664Y1873D01*
X2662Y1873D01*
X2662Y1875D01*
X2660Y1875D01*
X2660Y1877D01*
X2656Y1877D01*
X2656Y1879D01*
X2654Y1879D01*
X2654Y1881D01*
X2652Y1881D01*
X2652Y1883D01*
X2650Y1883D01*
X2650Y1885D01*
X2648Y1885D01*
X2648Y1887D01*
X2646Y1887D01*
X2646Y1889D01*
X2644Y1889D01*
X2644Y1891D01*
X2642Y1891D01*
X2642Y1893D01*
X2640Y1893D01*
X2640Y1895D01*
X2638Y1895D01*
X2638Y1897D01*
X2636Y1897D01*
X2636Y1899D01*
X2634Y1899D01*
X2634Y1901D01*
X2632Y1901D01*
X2632Y1903D01*
X2628Y1903D01*
X2628Y1905D01*
X2626Y1905D01*
X2626Y1907D01*
X2624Y1907D01*
X2624Y1909D01*
X2622Y1909D01*
X2622Y1911D01*
X2620Y1911D01*
X2620Y1913D01*
X2618Y1913D01*
X2618Y1915D01*
X2616Y1915D01*
X2616Y1917D01*
X2614Y1917D01*
X2614Y1919D01*
X2612Y1919D01*
X2612Y1921D01*
X802Y1921D01*
G37*
D02*
G36*
X672Y1127D02*
X672Y943D01*
X674Y943D01*
X674Y939D01*
X676Y939D01*
X676Y937D01*
X796Y937D01*
X796Y939D01*
X780Y939D01*
X780Y941D01*
X774Y941D01*
X774Y943D01*
X768Y943D01*
X768Y945D01*
X764Y945D01*
X764Y947D01*
X760Y947D01*
X760Y949D01*
X756Y949D01*
X756Y951D01*
X754Y951D01*
X754Y953D01*
X750Y953D01*
X750Y955D01*
X748Y955D01*
X748Y957D01*
X746Y957D01*
X746Y959D01*
X742Y959D01*
X742Y961D01*
X740Y961D01*
X740Y963D01*
X738Y963D01*
X738Y965D01*
X736Y965D01*
X736Y969D01*
X734Y969D01*
X734Y971D01*
X732Y971D01*
X732Y973D01*
X730Y973D01*
X730Y977D01*
X728Y977D01*
X728Y979D01*
X726Y979D01*
X726Y983D01*
X724Y983D01*
X724Y987D01*
X722Y987D01*
X722Y991D01*
X720Y991D01*
X720Y995D01*
X718Y995D01*
X718Y1001D01*
X716Y1001D01*
X716Y1009D01*
X714Y1009D01*
X714Y1019D01*
X712Y1019D01*
X712Y1045D01*
X714Y1045D01*
X714Y1055D01*
X716Y1055D01*
X716Y1063D01*
X718Y1063D01*
X718Y1069D01*
X720Y1069D01*
X720Y1073D01*
X722Y1073D01*
X722Y1077D01*
X724Y1077D01*
X724Y1081D01*
X726Y1081D01*
X726Y1085D01*
X728Y1085D01*
X728Y1087D01*
X730Y1087D01*
X730Y1091D01*
X732Y1091D01*
X732Y1093D01*
X734Y1093D01*
X734Y1095D01*
X736Y1095D01*
X736Y1099D01*
X738Y1099D01*
X738Y1101D01*
X740Y1101D01*
X740Y1103D01*
X742Y1103D01*
X742Y1105D01*
X746Y1105D01*
X746Y1107D01*
X748Y1107D01*
X748Y1109D01*
X750Y1109D01*
X750Y1111D01*
X752Y1111D01*
X752Y1113D01*
X756Y1113D01*
X756Y1115D01*
X760Y1115D01*
X760Y1117D01*
X764Y1117D01*
X764Y1119D01*
X768Y1119D01*
X768Y1121D01*
X772Y1121D01*
X772Y1123D01*
X780Y1123D01*
X780Y1125D01*
X794Y1125D01*
X794Y1127D01*
X672Y1127D01*
G37*
D02*
G36*
X802Y1127D02*
X802Y1125D01*
X816Y1125D01*
X816Y1123D01*
X824Y1123D01*
X824Y1121D01*
X828Y1121D01*
X828Y1119D01*
X832Y1119D01*
X832Y1117D01*
X836Y1117D01*
X836Y1115D01*
X860Y1115D01*
X860Y1117D01*
X864Y1117D01*
X864Y1119D01*
X868Y1119D01*
X868Y1121D01*
X874Y1121D01*
X874Y1123D01*
X880Y1123D01*
X880Y1125D01*
X894Y1125D01*
X894Y1127D01*
X802Y1127D01*
G37*
D02*
G36*
X902Y1127D02*
X902Y1125D01*
X916Y1125D01*
X916Y1123D01*
X924Y1123D01*
X924Y1121D01*
X928Y1121D01*
X928Y1119D01*
X934Y1119D01*
X934Y1117D01*
X938Y1117D01*
X938Y1115D01*
X960Y1115D01*
X960Y1117D01*
X964Y1117D01*
X964Y1119D01*
X968Y1119D01*
X968Y1121D01*
X974Y1121D01*
X974Y1123D01*
X980Y1123D01*
X980Y1125D01*
X996Y1125D01*
X996Y1127D01*
X902Y1127D01*
G37*
D02*
G36*
X1002Y1127D02*
X1002Y1125D01*
X1018Y1125D01*
X1018Y1123D01*
X1024Y1123D01*
X1024Y1121D01*
X1030Y1121D01*
X1030Y1119D01*
X1034Y1119D01*
X1034Y1117D01*
X1038Y1117D01*
X1038Y1115D01*
X1060Y1115D01*
X1060Y1117D01*
X1064Y1117D01*
X1064Y1119D01*
X1068Y1119D01*
X1068Y1121D01*
X1072Y1121D01*
X1072Y1123D01*
X1080Y1123D01*
X1080Y1125D01*
X1094Y1125D01*
X1094Y1127D01*
X1002Y1127D01*
G37*
D02*
G36*
X1102Y1127D02*
X1102Y1125D01*
X1116Y1125D01*
X1116Y1123D01*
X1124Y1123D01*
X1124Y1121D01*
X1128Y1121D01*
X1128Y1119D01*
X1134Y1119D01*
X1134Y1117D01*
X1136Y1117D01*
X1136Y1115D01*
X1160Y1115D01*
X1160Y1117D01*
X1164Y1117D01*
X1164Y1119D01*
X1168Y1119D01*
X1168Y1121D01*
X1174Y1121D01*
X1174Y1123D01*
X1180Y1123D01*
X1180Y1125D01*
X1194Y1125D01*
X1194Y1127D01*
X1102Y1127D01*
G37*
D02*
G36*
X1202Y1127D02*
X1202Y1125D01*
X1216Y1125D01*
X1216Y1123D01*
X1224Y1123D01*
X1224Y1121D01*
X1228Y1121D01*
X1228Y1119D01*
X1234Y1119D01*
X1234Y1117D01*
X1238Y1117D01*
X1238Y1115D01*
X1260Y1115D01*
X1260Y1117D01*
X1262Y1117D01*
X1262Y1119D01*
X1268Y1119D01*
X1268Y1121D01*
X1272Y1121D01*
X1272Y1123D01*
X1280Y1123D01*
X1280Y1125D01*
X1294Y1125D01*
X1294Y1127D01*
X1202Y1127D01*
G37*
D02*
G36*
X1302Y1127D02*
X1302Y1125D01*
X1316Y1125D01*
X1316Y1123D01*
X1322Y1123D01*
X1322Y1121D01*
X1328Y1121D01*
X1328Y1119D01*
X1332Y1119D01*
X1332Y1117D01*
X1336Y1117D01*
X1336Y1115D01*
X1360Y1115D01*
X1360Y1117D01*
X1364Y1117D01*
X1364Y1119D01*
X1368Y1119D01*
X1368Y1121D01*
X1372Y1121D01*
X1372Y1123D01*
X1380Y1123D01*
X1380Y1125D01*
X1394Y1125D01*
X1394Y1127D01*
X1302Y1127D01*
G37*
D02*
G36*
X1402Y1127D02*
X1402Y1125D01*
X1416Y1125D01*
X1416Y1123D01*
X1424Y1123D01*
X1424Y1121D01*
X1428Y1121D01*
X1428Y1119D01*
X1434Y1119D01*
X1434Y1117D01*
X1436Y1117D01*
X1436Y1115D01*
X1458Y1115D01*
X1458Y1117D01*
X1462Y1117D01*
X1462Y1119D01*
X1468Y1119D01*
X1468Y1121D01*
X1472Y1121D01*
X1472Y1123D01*
X1480Y1123D01*
X1480Y1125D01*
X1494Y1125D01*
X1494Y1127D01*
X1402Y1127D01*
G37*
D02*
G36*
X1502Y1127D02*
X1502Y1125D01*
X1516Y1125D01*
X1516Y1123D01*
X1522Y1123D01*
X1522Y1121D01*
X1528Y1121D01*
X1528Y1119D01*
X1532Y1119D01*
X1532Y1117D01*
X1536Y1117D01*
X1536Y1115D01*
X1560Y1115D01*
X1560Y1117D01*
X1562Y1117D01*
X1562Y1119D01*
X1568Y1119D01*
X1568Y1121D01*
X1572Y1121D01*
X1572Y1123D01*
X1580Y1123D01*
X1580Y1125D01*
X1594Y1125D01*
X1594Y1127D01*
X1502Y1127D01*
G37*
D02*
G36*
X1602Y1127D02*
X1602Y1125D01*
X1616Y1125D01*
X1616Y1123D01*
X1624Y1123D01*
X1624Y1121D01*
X1628Y1121D01*
X1628Y1119D01*
X1632Y1119D01*
X1632Y1117D01*
X1636Y1117D01*
X1636Y1115D01*
X1660Y1115D01*
X1660Y1117D01*
X1664Y1117D01*
X1664Y1119D01*
X1668Y1119D01*
X1668Y1121D01*
X1674Y1121D01*
X1674Y1123D01*
X1680Y1123D01*
X1680Y1125D01*
X1694Y1125D01*
X1694Y1127D01*
X1602Y1127D01*
G37*
D02*
G36*
X1702Y1127D02*
X1702Y1125D01*
X1716Y1125D01*
X1716Y1123D01*
X1724Y1123D01*
X1724Y1121D01*
X1728Y1121D01*
X1728Y1119D01*
X1734Y1119D01*
X1734Y1117D01*
X1736Y1117D01*
X1736Y1115D01*
X1758Y1115D01*
X1758Y1117D01*
X1762Y1117D01*
X1762Y1119D01*
X1768Y1119D01*
X1768Y1121D01*
X1772Y1121D01*
X1772Y1123D01*
X1780Y1123D01*
X1780Y1125D01*
X1794Y1125D01*
X1794Y1127D01*
X1702Y1127D01*
G37*
D02*
G36*
X1802Y1127D02*
X1802Y1125D01*
X1816Y1125D01*
X1816Y1123D01*
X1822Y1123D01*
X1822Y1121D01*
X1828Y1121D01*
X1828Y1119D01*
X1832Y1119D01*
X1832Y1117D01*
X1836Y1117D01*
X1836Y1115D01*
X1860Y1115D01*
X1860Y1117D01*
X1862Y1117D01*
X1862Y1119D01*
X1868Y1119D01*
X1868Y1121D01*
X1872Y1121D01*
X1872Y1123D01*
X1880Y1123D01*
X1880Y1125D01*
X1894Y1125D01*
X1894Y1127D01*
X1802Y1127D01*
G37*
D02*
G36*
X1902Y1127D02*
X1902Y1125D01*
X1916Y1125D01*
X1916Y1123D01*
X1924Y1123D01*
X1924Y1121D01*
X1928Y1121D01*
X1928Y1119D01*
X1932Y1119D01*
X1932Y1117D01*
X1936Y1117D01*
X1936Y1115D01*
X1958Y1115D01*
X1958Y1117D01*
X1962Y1117D01*
X1962Y1119D01*
X1966Y1119D01*
X1966Y1121D01*
X1972Y1121D01*
X1972Y1123D01*
X1978Y1123D01*
X1978Y1125D01*
X1994Y1125D01*
X1994Y1127D01*
X1902Y1127D01*
G37*
D02*
G36*
X2000Y1127D02*
X2000Y1125D01*
X2016Y1125D01*
X2016Y1123D01*
X2022Y1123D01*
X2022Y1121D01*
X2028Y1121D01*
X2028Y1119D01*
X2032Y1119D01*
X2032Y1117D01*
X2036Y1117D01*
X2036Y1115D01*
X2058Y1115D01*
X2058Y1117D01*
X2062Y1117D01*
X2062Y1119D01*
X2068Y1119D01*
X2068Y1121D01*
X2072Y1121D01*
X2072Y1123D01*
X2080Y1123D01*
X2080Y1125D01*
X2094Y1125D01*
X2094Y1127D01*
X2000Y1127D01*
G37*
D02*
G36*
X2102Y1127D02*
X2102Y1125D01*
X2116Y1125D01*
X2116Y1123D01*
X2122Y1123D01*
X2122Y1121D01*
X2128Y1121D01*
X2128Y1119D01*
X2132Y1119D01*
X2132Y1117D01*
X2136Y1117D01*
X2136Y1115D01*
X2160Y1115D01*
X2160Y1117D01*
X2164Y1117D01*
X2164Y1119D01*
X2168Y1119D01*
X2168Y1121D01*
X2172Y1121D01*
X2172Y1123D01*
X2180Y1123D01*
X2180Y1125D01*
X2194Y1125D01*
X2194Y1127D01*
X2102Y1127D01*
G37*
D02*
G36*
X2202Y1127D02*
X2202Y1125D01*
X2216Y1125D01*
X2216Y1123D01*
X2224Y1123D01*
X2224Y1121D01*
X2228Y1121D01*
X2228Y1119D01*
X2232Y1119D01*
X2232Y1117D01*
X2236Y1117D01*
X2236Y1115D01*
X2258Y1115D01*
X2258Y1117D01*
X2262Y1117D01*
X2262Y1119D01*
X2266Y1119D01*
X2266Y1121D01*
X2272Y1121D01*
X2272Y1123D01*
X2280Y1123D01*
X2280Y1125D01*
X2294Y1125D01*
X2294Y1127D01*
X2202Y1127D01*
G37*
D02*
G36*
X2300Y1127D02*
X2300Y1125D01*
X2316Y1125D01*
X2316Y1123D01*
X2322Y1123D01*
X2322Y1121D01*
X2328Y1121D01*
X2328Y1119D01*
X2332Y1119D01*
X2332Y1117D01*
X2336Y1117D01*
X2336Y1115D01*
X2360Y1115D01*
X2360Y1117D01*
X2362Y1117D01*
X2362Y1119D01*
X2368Y1119D01*
X2368Y1121D01*
X2372Y1121D01*
X2372Y1123D01*
X2380Y1123D01*
X2380Y1125D01*
X2394Y1125D01*
X2394Y1127D01*
X2300Y1127D01*
G37*
D02*
G36*
X2402Y1127D02*
X2402Y1125D01*
X2416Y1125D01*
X2416Y1123D01*
X2422Y1123D01*
X2422Y1121D01*
X2428Y1121D01*
X2428Y1119D01*
X2432Y1119D01*
X2432Y1117D01*
X2436Y1117D01*
X2436Y1115D01*
X2458Y1115D01*
X2458Y1117D01*
X2462Y1117D01*
X2462Y1119D01*
X2466Y1119D01*
X2466Y1121D01*
X2472Y1121D01*
X2472Y1123D01*
X2478Y1123D01*
X2478Y1125D01*
X2494Y1125D01*
X2494Y1127D01*
X2402Y1127D01*
G37*
D02*
G36*
X2500Y1127D02*
X2500Y1125D01*
X2516Y1125D01*
X2516Y1123D01*
X2522Y1123D01*
X2522Y1121D01*
X2528Y1121D01*
X2528Y1119D01*
X2532Y1119D01*
X2532Y1117D01*
X2536Y1117D01*
X2536Y1115D01*
X2558Y1115D01*
X2558Y1117D01*
X2562Y1117D01*
X2562Y1119D01*
X2566Y1119D01*
X2566Y1121D01*
X2572Y1121D01*
X2572Y1123D01*
X2580Y1123D01*
X2580Y1125D01*
X2594Y1125D01*
X2594Y1127D01*
X2500Y1127D01*
G37*
D02*
G36*
X836Y949D02*
X836Y947D01*
X832Y947D01*
X832Y945D01*
X828Y945D01*
X828Y943D01*
X822Y943D01*
X822Y941D01*
X816Y941D01*
X816Y939D01*
X800Y939D01*
X800Y937D01*
X896Y937D01*
X896Y939D01*
X880Y939D01*
X880Y941D01*
X874Y941D01*
X874Y943D01*
X868Y943D01*
X868Y945D01*
X864Y945D01*
X864Y947D01*
X860Y947D01*
X860Y949D01*
X836Y949D01*
G37*
D02*
G36*
X936Y949D02*
X936Y947D01*
X934Y947D01*
X934Y945D01*
X928Y945D01*
X928Y943D01*
X924Y943D01*
X924Y941D01*
X916Y941D01*
X916Y939D01*
X900Y939D01*
X900Y937D01*
X996Y937D01*
X996Y939D01*
X980Y939D01*
X980Y941D01*
X974Y941D01*
X974Y943D01*
X968Y943D01*
X968Y945D01*
X964Y945D01*
X964Y947D01*
X960Y947D01*
X960Y949D01*
X936Y949D01*
G37*
D02*
G36*
X1038Y949D02*
X1038Y947D01*
X1034Y947D01*
X1034Y945D01*
X1028Y945D01*
X1028Y943D01*
X1024Y943D01*
X1024Y941D01*
X1016Y941D01*
X1016Y939D01*
X1000Y939D01*
X1000Y937D01*
X1096Y937D01*
X1096Y939D01*
X1080Y939D01*
X1080Y941D01*
X1074Y941D01*
X1074Y943D01*
X1068Y943D01*
X1068Y945D01*
X1064Y945D01*
X1064Y947D01*
X1060Y947D01*
X1060Y949D01*
X1038Y949D01*
G37*
D02*
G36*
X1536Y949D02*
X1536Y947D01*
X1532Y947D01*
X1532Y945D01*
X1528Y945D01*
X1528Y943D01*
X1522Y943D01*
X1522Y941D01*
X1516Y941D01*
X1516Y939D01*
X1500Y939D01*
X1500Y937D01*
X1596Y937D01*
X1596Y939D01*
X1580Y939D01*
X1580Y941D01*
X1574Y941D01*
X1574Y943D01*
X1568Y943D01*
X1568Y945D01*
X1564Y945D01*
X1564Y947D01*
X1560Y947D01*
X1560Y949D01*
X1536Y949D01*
G37*
D02*
G36*
X1636Y949D02*
X1636Y947D01*
X1632Y947D01*
X1632Y945D01*
X1628Y945D01*
X1628Y943D01*
X1622Y943D01*
X1622Y941D01*
X1616Y941D01*
X1616Y939D01*
X1600Y939D01*
X1600Y937D01*
X1696Y937D01*
X1696Y939D01*
X1680Y939D01*
X1680Y941D01*
X1674Y941D01*
X1674Y943D01*
X1668Y943D01*
X1668Y945D01*
X1664Y945D01*
X1664Y947D01*
X1660Y947D01*
X1660Y949D01*
X1636Y949D01*
G37*
D02*
G36*
X1736Y949D02*
X1736Y947D01*
X1732Y947D01*
X1732Y945D01*
X1728Y945D01*
X1728Y943D01*
X1724Y943D01*
X1724Y941D01*
X1716Y941D01*
X1716Y939D01*
X1700Y939D01*
X1700Y937D01*
X1796Y937D01*
X1796Y939D01*
X1780Y939D01*
X1780Y941D01*
X1772Y941D01*
X1772Y943D01*
X1768Y943D01*
X1768Y945D01*
X1762Y945D01*
X1762Y947D01*
X1760Y947D01*
X1760Y949D01*
X1736Y949D01*
G37*
D02*
G36*
X1836Y949D02*
X1836Y947D01*
X1832Y947D01*
X1832Y945D01*
X1828Y945D01*
X1828Y943D01*
X1822Y943D01*
X1822Y941D01*
X1816Y941D01*
X1816Y939D01*
X1800Y939D01*
X1800Y937D01*
X1896Y937D01*
X1896Y939D01*
X1880Y939D01*
X1880Y941D01*
X1874Y941D01*
X1874Y943D01*
X1868Y943D01*
X1868Y945D01*
X1864Y945D01*
X1864Y947D01*
X1860Y947D01*
X1860Y949D01*
X1836Y949D01*
G37*
D02*
G36*
X1936Y949D02*
X1936Y947D01*
X1932Y947D01*
X1932Y945D01*
X1928Y945D01*
X1928Y943D01*
X1922Y943D01*
X1922Y941D01*
X1916Y941D01*
X1916Y939D01*
X1900Y939D01*
X1900Y937D01*
X1996Y937D01*
X1996Y939D01*
X1980Y939D01*
X1980Y941D01*
X1972Y941D01*
X1972Y943D01*
X1968Y943D01*
X1968Y945D01*
X1962Y945D01*
X1962Y947D01*
X1958Y947D01*
X1958Y949D01*
X1936Y949D01*
G37*
D02*
G36*
X1462Y939D02*
X1462Y937D01*
X1496Y937D01*
X1496Y939D01*
X1462Y939D01*
G37*
D02*
G36*
X2000Y939D02*
X2000Y937D01*
X2024Y937D01*
X2024Y939D01*
X2000Y939D01*
G37*
D02*
G36*
X2562Y939D02*
X2562Y937D01*
X2596Y937D01*
X2596Y939D01*
X2562Y939D01*
G37*
D02*
G36*
X676Y937D02*
X676Y935D01*
X1096Y935D01*
X1096Y937D01*
X676Y937D01*
G37*
D02*
G36*
X676Y937D02*
X676Y935D01*
X1096Y935D01*
X1096Y937D01*
X676Y937D01*
G37*
D02*
G36*
X676Y937D02*
X676Y935D01*
X1096Y935D01*
X1096Y937D01*
X676Y937D01*
G37*
D02*
G36*
X676Y937D02*
X676Y935D01*
X1096Y935D01*
X1096Y937D01*
X676Y937D01*
G37*
D02*
G36*
X1462Y937D02*
X1462Y935D01*
X2024Y935D01*
X2024Y937D01*
X1462Y937D01*
G37*
D02*
G36*
X1462Y937D02*
X1462Y935D01*
X2024Y935D01*
X2024Y937D01*
X1462Y937D01*
G37*
D02*
G36*
X1462Y937D02*
X1462Y935D01*
X2024Y935D01*
X2024Y937D01*
X1462Y937D01*
G37*
D02*
G36*
X1462Y937D02*
X1462Y935D01*
X2024Y935D01*
X2024Y937D01*
X1462Y937D01*
G37*
D02*
G36*
X1462Y937D02*
X1462Y935D01*
X2024Y935D01*
X2024Y937D01*
X1462Y937D01*
G37*
D02*
G36*
X1462Y937D02*
X1462Y935D01*
X2024Y935D01*
X2024Y937D01*
X1462Y937D01*
G37*
D02*
G36*
X1462Y937D02*
X1462Y935D01*
X2024Y935D01*
X2024Y937D01*
X1462Y937D01*
G37*
D02*
G36*
X2562Y937D02*
X2562Y935D01*
X2738Y935D01*
X2738Y937D01*
X2562Y937D01*
G37*
D02*
G36*
X2562Y937D02*
X2562Y935D01*
X2738Y935D01*
X2738Y937D01*
X2562Y937D01*
G37*
D02*
G36*
X678Y935D02*
X678Y929D01*
X680Y929D01*
X680Y925D01*
X682Y925D01*
X682Y921D01*
X684Y921D01*
X684Y915D01*
X686Y915D01*
X686Y911D01*
X688Y911D01*
X688Y907D01*
X690Y907D01*
X690Y901D01*
X692Y901D01*
X692Y897D01*
X694Y897D01*
X694Y893D01*
X696Y893D01*
X696Y887D01*
X698Y887D01*
X698Y883D01*
X700Y883D01*
X700Y879D01*
X702Y879D01*
X702Y873D01*
X704Y873D01*
X704Y869D01*
X706Y869D01*
X706Y865D01*
X708Y865D01*
X708Y859D01*
X710Y859D01*
X710Y855D01*
X712Y855D01*
X712Y851D01*
X714Y851D01*
X714Y845D01*
X716Y845D01*
X716Y841D01*
X718Y841D01*
X718Y837D01*
X720Y837D01*
X720Y833D01*
X722Y833D01*
X722Y827D01*
X724Y827D01*
X724Y823D01*
X726Y823D01*
X726Y819D01*
X728Y819D01*
X728Y813D01*
X730Y813D01*
X730Y809D01*
X732Y809D01*
X732Y805D01*
X734Y805D01*
X734Y799D01*
X736Y799D01*
X736Y795D01*
X738Y795D01*
X738Y791D01*
X740Y791D01*
X740Y785D01*
X742Y785D01*
X742Y781D01*
X744Y781D01*
X744Y777D01*
X746Y777D01*
X746Y771D01*
X748Y771D01*
X748Y767D01*
X750Y767D01*
X750Y763D01*
X752Y763D01*
X752Y757D01*
X754Y757D01*
X754Y753D01*
X756Y753D01*
X756Y749D01*
X758Y749D01*
X758Y745D01*
X760Y745D01*
X760Y739D01*
X762Y739D01*
X762Y735D01*
X764Y735D01*
X764Y731D01*
X766Y731D01*
X766Y725D01*
X768Y725D01*
X768Y721D01*
X770Y721D01*
X770Y717D01*
X772Y717D01*
X772Y711D01*
X774Y711D01*
X774Y707D01*
X776Y707D01*
X776Y703D01*
X778Y703D01*
X778Y697D01*
X780Y697D01*
X780Y693D01*
X782Y693D01*
X782Y689D01*
X784Y689D01*
X784Y683D01*
X786Y683D01*
X786Y679D01*
X788Y679D01*
X788Y675D01*
X790Y675D01*
X790Y669D01*
X792Y669D01*
X792Y665D01*
X794Y665D01*
X794Y661D01*
X796Y661D01*
X796Y655D01*
X798Y655D01*
X798Y651D01*
X800Y651D01*
X800Y647D01*
X802Y647D01*
X802Y643D01*
X804Y643D01*
X804Y637D01*
X806Y637D01*
X806Y633D01*
X808Y633D01*
X808Y629D01*
X810Y629D01*
X810Y623D01*
X812Y623D01*
X812Y619D01*
X814Y619D01*
X814Y615D01*
X816Y615D01*
X816Y609D01*
X818Y609D01*
X818Y605D01*
X820Y605D01*
X820Y601D01*
X822Y601D01*
X822Y595D01*
X824Y595D01*
X824Y591D01*
X826Y591D01*
X826Y587D01*
X828Y587D01*
X828Y581D01*
X830Y581D01*
X830Y577D01*
X832Y577D01*
X832Y573D01*
X834Y573D01*
X834Y567D01*
X836Y567D01*
X836Y563D01*
X838Y563D01*
X838Y559D01*
X840Y559D01*
X840Y555D01*
X842Y555D01*
X842Y549D01*
X844Y549D01*
X844Y545D01*
X846Y545D01*
X846Y541D01*
X848Y541D01*
X848Y535D01*
X850Y535D01*
X850Y531D01*
X852Y531D01*
X852Y527D01*
X854Y527D01*
X854Y521D01*
X856Y521D01*
X856Y517D01*
X858Y517D01*
X858Y513D01*
X860Y513D01*
X860Y507D01*
X862Y507D01*
X862Y503D01*
X864Y503D01*
X864Y499D01*
X866Y499D01*
X866Y493D01*
X868Y493D01*
X868Y489D01*
X870Y489D01*
X870Y485D01*
X872Y485D01*
X872Y479D01*
X874Y479D01*
X874Y475D01*
X876Y475D01*
X876Y471D01*
X878Y471D01*
X878Y465D01*
X880Y465D01*
X880Y461D01*
X882Y461D01*
X882Y457D01*
X884Y457D01*
X884Y453D01*
X886Y453D01*
X886Y447D01*
X888Y447D01*
X888Y443D01*
X890Y443D01*
X890Y439D01*
X892Y439D01*
X892Y433D01*
X894Y433D01*
X894Y429D01*
X896Y429D01*
X896Y425D01*
X898Y425D01*
X898Y421D01*
X1136Y421D01*
X1136Y419D01*
X1148Y419D01*
X1148Y417D01*
X1156Y417D01*
X1156Y415D01*
X1162Y415D01*
X1162Y413D01*
X1166Y413D01*
X1166Y411D01*
X1170Y411D01*
X1170Y409D01*
X1174Y409D01*
X1174Y407D01*
X1176Y407D01*
X1176Y405D01*
X1180Y405D01*
X1180Y403D01*
X1182Y403D01*
X1182Y401D01*
X1186Y401D01*
X1186Y399D01*
X1188Y399D01*
X1188Y397D01*
X1190Y397D01*
X1190Y395D01*
X1192Y395D01*
X1192Y393D01*
X1194Y393D01*
X1194Y391D01*
X1196Y391D01*
X1196Y389D01*
X1198Y389D01*
X1198Y385D01*
X1200Y385D01*
X1200Y383D01*
X1202Y383D01*
X1202Y381D01*
X1204Y381D01*
X1204Y377D01*
X1206Y377D01*
X1206Y373D01*
X1208Y373D01*
X1208Y369D01*
X1210Y369D01*
X1210Y365D01*
X1212Y365D01*
X1212Y359D01*
X1214Y359D01*
X1214Y353D01*
X1216Y353D01*
X1216Y341D01*
X1218Y341D01*
X1218Y267D01*
X1384Y267D01*
X1384Y269D01*
X1376Y269D01*
X1376Y271D01*
X1370Y271D01*
X1370Y273D01*
X1364Y273D01*
X1364Y275D01*
X1360Y275D01*
X1360Y277D01*
X1356Y277D01*
X1356Y279D01*
X1352Y279D01*
X1352Y281D01*
X1350Y281D01*
X1350Y283D01*
X1346Y283D01*
X1346Y285D01*
X1344Y285D01*
X1344Y287D01*
X1342Y287D01*
X1342Y289D01*
X1340Y289D01*
X1340Y291D01*
X1338Y291D01*
X1338Y293D01*
X1336Y293D01*
X1336Y295D01*
X1334Y295D01*
X1334Y297D01*
X1332Y297D01*
X1332Y299D01*
X1330Y299D01*
X1330Y301D01*
X1328Y301D01*
X1328Y305D01*
X1326Y305D01*
X1326Y307D01*
X1324Y307D01*
X1324Y311D01*
X1322Y311D01*
X1322Y313D01*
X1320Y313D01*
X1320Y319D01*
X1318Y319D01*
X1318Y323D01*
X1316Y323D01*
X1316Y329D01*
X1314Y329D01*
X1314Y337D01*
X1312Y337D01*
X1312Y373D01*
X1314Y373D01*
X1314Y379D01*
X1316Y379D01*
X1316Y385D01*
X1318Y385D01*
X1318Y391D01*
X1320Y391D01*
X1320Y395D01*
X1322Y395D01*
X1322Y399D01*
X1324Y399D01*
X1324Y401D01*
X1326Y401D01*
X1326Y405D01*
X1328Y405D01*
X1328Y407D01*
X1330Y407D01*
X1330Y409D01*
X1332Y409D01*
X1332Y411D01*
X1334Y411D01*
X1334Y415D01*
X1336Y415D01*
X1336Y417D01*
X1338Y417D01*
X1338Y419D01*
X1342Y419D01*
X1342Y421D01*
X1344Y421D01*
X1344Y423D01*
X1346Y423D01*
X1346Y425D01*
X1348Y425D01*
X1348Y427D01*
X1352Y427D01*
X1352Y429D01*
X1356Y429D01*
X1356Y431D01*
X1358Y431D01*
X1358Y433D01*
X1362Y433D01*
X1362Y453D01*
X1358Y453D01*
X1358Y455D01*
X1354Y455D01*
X1354Y457D01*
X1352Y457D01*
X1352Y459D01*
X1348Y459D01*
X1348Y461D01*
X1346Y461D01*
X1346Y463D01*
X1342Y463D01*
X1342Y465D01*
X1340Y465D01*
X1340Y467D01*
X1338Y467D01*
X1338Y469D01*
X988Y469D01*
X988Y471D01*
X980Y471D01*
X980Y473D01*
X974Y473D01*
X974Y475D01*
X970Y475D01*
X970Y477D01*
X966Y477D01*
X966Y479D01*
X962Y479D01*
X962Y481D01*
X960Y481D01*
X960Y483D01*
X958Y483D01*
X958Y485D01*
X956Y485D01*
X956Y487D01*
X954Y487D01*
X954Y489D01*
X952Y489D01*
X952Y491D01*
X950Y491D01*
X950Y493D01*
X948Y493D01*
X948Y497D01*
X946Y497D01*
X946Y499D01*
X944Y499D01*
X944Y503D01*
X942Y503D01*
X942Y507D01*
X940Y507D01*
X940Y513D01*
X938Y513D01*
X938Y521D01*
X936Y521D01*
X936Y841D01*
X938Y841D01*
X938Y849D01*
X940Y849D01*
X940Y855D01*
X942Y855D01*
X942Y859D01*
X944Y859D01*
X944Y863D01*
X946Y863D01*
X946Y867D01*
X948Y867D01*
X948Y869D01*
X950Y869D01*
X950Y871D01*
X952Y871D01*
X952Y873D01*
X954Y873D01*
X954Y875D01*
X956Y875D01*
X956Y877D01*
X958Y877D01*
X958Y879D01*
X960Y879D01*
X960Y881D01*
X962Y881D01*
X962Y883D01*
X966Y883D01*
X966Y885D01*
X968Y885D01*
X968Y887D01*
X972Y887D01*
X972Y889D01*
X978Y889D01*
X978Y891D01*
X984Y891D01*
X984Y893D01*
X992Y893D01*
X992Y895D01*
X1000Y895D01*
X1000Y897D01*
X1008Y897D01*
X1008Y899D01*
X1016Y899D01*
X1016Y901D01*
X1024Y901D01*
X1024Y903D01*
X1032Y903D01*
X1032Y905D01*
X1040Y905D01*
X1040Y907D01*
X1048Y907D01*
X1048Y909D01*
X1056Y909D01*
X1056Y911D01*
X1064Y911D01*
X1064Y913D01*
X1072Y913D01*
X1072Y915D01*
X1080Y915D01*
X1080Y917D01*
X1088Y917D01*
X1088Y919D01*
X1096Y919D01*
X1096Y935D01*
X678Y935D01*
G37*
D02*
G36*
X1462Y935D02*
X1462Y931D01*
X1460Y931D01*
X1460Y915D01*
X1458Y915D01*
X1458Y909D01*
X1456Y909D01*
X1456Y905D01*
X1454Y905D01*
X1454Y901D01*
X1452Y901D01*
X1452Y897D01*
X1450Y897D01*
X1450Y895D01*
X1448Y895D01*
X1448Y893D01*
X1446Y893D01*
X1446Y891D01*
X1444Y891D01*
X1444Y889D01*
X1442Y889D01*
X1442Y887D01*
X1440Y887D01*
X1440Y885D01*
X1438Y885D01*
X1438Y883D01*
X1436Y883D01*
X1436Y881D01*
X1434Y881D01*
X1434Y879D01*
X1430Y879D01*
X1430Y877D01*
X1426Y877D01*
X1426Y875D01*
X1422Y875D01*
X1422Y873D01*
X1416Y873D01*
X1416Y871D01*
X1408Y871D01*
X1408Y869D01*
X1400Y869D01*
X1400Y867D01*
X1392Y867D01*
X1392Y865D01*
X1384Y865D01*
X1384Y863D01*
X1376Y863D01*
X1376Y861D01*
X1368Y861D01*
X1368Y859D01*
X1360Y859D01*
X1360Y857D01*
X1352Y857D01*
X1352Y855D01*
X1344Y855D01*
X1344Y853D01*
X1336Y853D01*
X1336Y851D01*
X1328Y851D01*
X1328Y849D01*
X1320Y849D01*
X1320Y847D01*
X1312Y847D01*
X1312Y845D01*
X1304Y845D01*
X1304Y843D01*
X1296Y843D01*
X1296Y841D01*
X1288Y841D01*
X1288Y839D01*
X1280Y839D01*
X1280Y837D01*
X1272Y837D01*
X1272Y835D01*
X1264Y835D01*
X1264Y833D01*
X1256Y833D01*
X1256Y831D01*
X1248Y831D01*
X1248Y829D01*
X1240Y829D01*
X1240Y827D01*
X1232Y827D01*
X1232Y825D01*
X1224Y825D01*
X1224Y823D01*
X1216Y823D01*
X1216Y821D01*
X1208Y821D01*
X1208Y819D01*
X1810Y819D01*
X1810Y817D01*
X1820Y817D01*
X1820Y815D01*
X1828Y815D01*
X1828Y813D01*
X1832Y813D01*
X1832Y811D01*
X1836Y811D01*
X1836Y809D01*
X1840Y809D01*
X1840Y807D01*
X1844Y807D01*
X1844Y805D01*
X1848Y805D01*
X1848Y803D01*
X1850Y803D01*
X1850Y801D01*
X1852Y801D01*
X1852Y799D01*
X1856Y799D01*
X1856Y797D01*
X1858Y797D01*
X1858Y795D01*
X1860Y795D01*
X1860Y793D01*
X1862Y793D01*
X1862Y791D01*
X1864Y791D01*
X1864Y789D01*
X1866Y789D01*
X1866Y785D01*
X1868Y785D01*
X1868Y783D01*
X1870Y783D01*
X1870Y781D01*
X1872Y781D01*
X1872Y777D01*
X1874Y777D01*
X1874Y773D01*
X1876Y773D01*
X1876Y769D01*
X1878Y769D01*
X1878Y765D01*
X1880Y765D01*
X1880Y761D01*
X1882Y761D01*
X1882Y753D01*
X1884Y753D01*
X1884Y745D01*
X1886Y745D01*
X1886Y719D01*
X1884Y719D01*
X1884Y709D01*
X1882Y709D01*
X1882Y703D01*
X1880Y703D01*
X1880Y697D01*
X1878Y697D01*
X1878Y693D01*
X1876Y693D01*
X1876Y689D01*
X1874Y689D01*
X1874Y685D01*
X1872Y685D01*
X1872Y683D01*
X1870Y683D01*
X1870Y679D01*
X1868Y679D01*
X1868Y677D01*
X1866Y677D01*
X1866Y675D01*
X1864Y675D01*
X1864Y673D01*
X1862Y673D01*
X1862Y623D01*
X1860Y623D01*
X1860Y613D01*
X1858Y613D01*
X1858Y609D01*
X1856Y609D01*
X1856Y603D01*
X1854Y603D01*
X1854Y601D01*
X1852Y601D01*
X1852Y597D01*
X1850Y597D01*
X1850Y595D01*
X1848Y595D01*
X1848Y591D01*
X1846Y591D01*
X1846Y589D01*
X1844Y589D01*
X1844Y587D01*
X1842Y587D01*
X1842Y585D01*
X1840Y585D01*
X1840Y583D01*
X1836Y583D01*
X1836Y581D01*
X1834Y581D01*
X1834Y579D01*
X1830Y579D01*
X1830Y577D01*
X1828Y577D01*
X1828Y575D01*
X1826Y575D01*
X1826Y573D01*
X1822Y573D01*
X1822Y571D01*
X1820Y571D01*
X1820Y569D01*
X1816Y569D01*
X1816Y567D01*
X1814Y567D01*
X1814Y565D01*
X1810Y565D01*
X1810Y563D01*
X1808Y563D01*
X1808Y561D01*
X1804Y561D01*
X1804Y559D01*
X1802Y559D01*
X1802Y557D01*
X1800Y557D01*
X1800Y555D01*
X1796Y555D01*
X1796Y553D01*
X1794Y553D01*
X1794Y551D01*
X1790Y551D01*
X1790Y549D01*
X1788Y549D01*
X1788Y547D01*
X1784Y547D01*
X1784Y545D01*
X1782Y545D01*
X1782Y543D01*
X1778Y543D01*
X1778Y541D01*
X1776Y541D01*
X1776Y539D01*
X1774Y539D01*
X1774Y537D01*
X1770Y537D01*
X1770Y535D01*
X1768Y535D01*
X1768Y533D01*
X1764Y533D01*
X1764Y531D01*
X1762Y531D01*
X1762Y529D01*
X1758Y529D01*
X1758Y527D01*
X1756Y527D01*
X1756Y525D01*
X1752Y525D01*
X1752Y523D01*
X1750Y523D01*
X1750Y521D01*
X1748Y521D01*
X1748Y519D01*
X1744Y519D01*
X1744Y517D01*
X1742Y517D01*
X1742Y515D01*
X1740Y515D01*
X1740Y509D01*
X1738Y509D01*
X1738Y503D01*
X1736Y503D01*
X1736Y497D01*
X1734Y497D01*
X1734Y493D01*
X1732Y493D01*
X1732Y489D01*
X1730Y489D01*
X1730Y485D01*
X1728Y485D01*
X1728Y483D01*
X1726Y483D01*
X1726Y479D01*
X1724Y479D01*
X1724Y477D01*
X1722Y477D01*
X1722Y475D01*
X1720Y475D01*
X1720Y473D01*
X1718Y473D01*
X1718Y471D01*
X1716Y471D01*
X1716Y469D01*
X1714Y469D01*
X1714Y467D01*
X1712Y467D01*
X1712Y465D01*
X1710Y465D01*
X1710Y463D01*
X1708Y463D01*
X1708Y461D01*
X1704Y461D01*
X1704Y459D01*
X1702Y459D01*
X1702Y457D01*
X1698Y457D01*
X1698Y455D01*
X1696Y455D01*
X1696Y453D01*
X1690Y453D01*
X1690Y433D01*
X1694Y433D01*
X1694Y431D01*
X1698Y431D01*
X1698Y429D01*
X1702Y429D01*
X1702Y427D01*
X1704Y427D01*
X1704Y425D01*
X1708Y425D01*
X1708Y423D01*
X1710Y423D01*
X1710Y421D01*
X1712Y421D01*
X1712Y419D01*
X1714Y419D01*
X1714Y417D01*
X1716Y417D01*
X1716Y415D01*
X1718Y415D01*
X1718Y413D01*
X1720Y413D01*
X1720Y411D01*
X1722Y411D01*
X1722Y409D01*
X1724Y409D01*
X1724Y405D01*
X1726Y405D01*
X1726Y403D01*
X1728Y403D01*
X1728Y399D01*
X1730Y399D01*
X1730Y397D01*
X1732Y397D01*
X1732Y393D01*
X1734Y393D01*
X1734Y389D01*
X1736Y389D01*
X1736Y383D01*
X1738Y383D01*
X1738Y377D01*
X1740Y377D01*
X1740Y367D01*
X1742Y367D01*
X1742Y331D01*
X1744Y331D01*
X1744Y329D01*
X1746Y329D01*
X1746Y325D01*
X1748Y325D01*
X1748Y323D01*
X1750Y323D01*
X1750Y319D01*
X1752Y319D01*
X1752Y317D01*
X1754Y317D01*
X1754Y313D01*
X1756Y313D01*
X1756Y311D01*
X1758Y311D01*
X1758Y307D01*
X1760Y307D01*
X1760Y303D01*
X1762Y303D01*
X1762Y301D01*
X1764Y301D01*
X1764Y297D01*
X1766Y297D01*
X1766Y295D01*
X1768Y295D01*
X1768Y291D01*
X1770Y291D01*
X1770Y289D01*
X1772Y289D01*
X1772Y285D01*
X1774Y285D01*
X1774Y283D01*
X1776Y283D01*
X1776Y279D01*
X1778Y279D01*
X1778Y277D01*
X1780Y277D01*
X1780Y273D01*
X1782Y273D01*
X1782Y271D01*
X1784Y271D01*
X1784Y267D01*
X1786Y267D01*
X1786Y263D01*
X1788Y263D01*
X1788Y261D01*
X1790Y261D01*
X1790Y257D01*
X1792Y257D01*
X1792Y255D01*
X1794Y255D01*
X1794Y251D01*
X1796Y251D01*
X1796Y249D01*
X2082Y249D01*
X2082Y251D01*
X2074Y251D01*
X2074Y253D01*
X2068Y253D01*
X2068Y255D01*
X2064Y255D01*
X2064Y257D01*
X2060Y257D01*
X2060Y259D01*
X2056Y259D01*
X2056Y261D01*
X2052Y261D01*
X2052Y263D01*
X2050Y263D01*
X2050Y265D01*
X2046Y265D01*
X2046Y267D01*
X2044Y267D01*
X2044Y269D01*
X2042Y269D01*
X2042Y271D01*
X2040Y271D01*
X2040Y273D01*
X2038Y273D01*
X2038Y275D01*
X2036Y275D01*
X2036Y277D01*
X2034Y277D01*
X2034Y279D01*
X2032Y279D01*
X2032Y281D01*
X2030Y281D01*
X2030Y285D01*
X2028Y285D01*
X2028Y287D01*
X2026Y287D01*
X2026Y291D01*
X2024Y291D01*
X2024Y295D01*
X2022Y295D01*
X2022Y299D01*
X2020Y299D01*
X2020Y303D01*
X2018Y303D01*
X2018Y309D01*
X2016Y309D01*
X2016Y317D01*
X2014Y317D01*
X2014Y329D01*
X2012Y329D01*
X2012Y331D01*
X2010Y331D01*
X2010Y333D01*
X2008Y333D01*
X2008Y335D01*
X2006Y335D01*
X2006Y337D01*
X2004Y337D01*
X2004Y339D01*
X2002Y339D01*
X2002Y341D01*
X2000Y341D01*
X2000Y343D01*
X1998Y343D01*
X1998Y345D01*
X1996Y345D01*
X1996Y347D01*
X1994Y347D01*
X1994Y349D01*
X1992Y349D01*
X1992Y351D01*
X1990Y351D01*
X1990Y353D01*
X1988Y353D01*
X1988Y355D01*
X1986Y355D01*
X1986Y357D01*
X1984Y357D01*
X1984Y359D01*
X1982Y359D01*
X1982Y361D01*
X1980Y361D01*
X1980Y363D01*
X1978Y363D01*
X1978Y365D01*
X1976Y365D01*
X1976Y367D01*
X1974Y367D01*
X1974Y369D01*
X1972Y369D01*
X1972Y371D01*
X1970Y371D01*
X1970Y373D01*
X1968Y373D01*
X1968Y375D01*
X1966Y375D01*
X1966Y377D01*
X1962Y377D01*
X1962Y379D01*
X1960Y379D01*
X1960Y381D01*
X1958Y381D01*
X1958Y383D01*
X1956Y383D01*
X1956Y385D01*
X1954Y385D01*
X1954Y387D01*
X1952Y387D01*
X1952Y389D01*
X1950Y389D01*
X1950Y393D01*
X1948Y393D01*
X1948Y395D01*
X1946Y395D01*
X1946Y399D01*
X1944Y399D01*
X1944Y401D01*
X1942Y401D01*
X1942Y405D01*
X1940Y405D01*
X1940Y411D01*
X1938Y411D01*
X1938Y417D01*
X1936Y417D01*
X1936Y745D01*
X1938Y745D01*
X1938Y751D01*
X1940Y751D01*
X1940Y757D01*
X1942Y757D01*
X1942Y761D01*
X1944Y761D01*
X1944Y765D01*
X1946Y765D01*
X1946Y769D01*
X1948Y769D01*
X1948Y773D01*
X1950Y773D01*
X1950Y777D01*
X1952Y777D01*
X1952Y781D01*
X1954Y781D01*
X1954Y785D01*
X1956Y785D01*
X1956Y789D01*
X1958Y789D01*
X1958Y793D01*
X1960Y793D01*
X1960Y797D01*
X1962Y797D01*
X1962Y801D01*
X1964Y801D01*
X1964Y805D01*
X1966Y805D01*
X1966Y809D01*
X1968Y809D01*
X1968Y813D01*
X1970Y813D01*
X1970Y817D01*
X1972Y817D01*
X1972Y821D01*
X1974Y821D01*
X1974Y825D01*
X1976Y825D01*
X1976Y829D01*
X1978Y829D01*
X1978Y833D01*
X1980Y833D01*
X1980Y837D01*
X1982Y837D01*
X1982Y841D01*
X1984Y841D01*
X1984Y845D01*
X1986Y845D01*
X1986Y849D01*
X1988Y849D01*
X1988Y853D01*
X1990Y853D01*
X1990Y857D01*
X1992Y857D01*
X1992Y861D01*
X1994Y861D01*
X1994Y865D01*
X1996Y865D01*
X1996Y869D01*
X1998Y869D01*
X1998Y873D01*
X2000Y873D01*
X2000Y877D01*
X2002Y877D01*
X2002Y881D01*
X2004Y881D01*
X2004Y885D01*
X2006Y885D01*
X2006Y889D01*
X2008Y889D01*
X2008Y893D01*
X2010Y893D01*
X2010Y897D01*
X2012Y897D01*
X2012Y901D01*
X2014Y901D01*
X2014Y905D01*
X2016Y905D01*
X2016Y909D01*
X2018Y909D01*
X2018Y913D01*
X2020Y913D01*
X2020Y917D01*
X2022Y917D01*
X2022Y921D01*
X2024Y921D01*
X2024Y935D01*
X1462Y935D01*
G37*
D02*
G36*
X2562Y935D02*
X2562Y921D01*
X2560Y921D01*
X2560Y913D01*
X2558Y913D01*
X2558Y907D01*
X2556Y907D01*
X2556Y903D01*
X2554Y903D01*
X2554Y899D01*
X2552Y899D01*
X2552Y897D01*
X2550Y897D01*
X2550Y893D01*
X2548Y893D01*
X2548Y891D01*
X2546Y891D01*
X2546Y889D01*
X2544Y889D01*
X2544Y887D01*
X2542Y887D01*
X2542Y885D01*
X2540Y885D01*
X2540Y883D01*
X2536Y883D01*
X2536Y881D01*
X2534Y881D01*
X2534Y879D01*
X2532Y879D01*
X2532Y877D01*
X2528Y877D01*
X2528Y875D01*
X2526Y875D01*
X2526Y873D01*
X2522Y873D01*
X2522Y871D01*
X2520Y871D01*
X2520Y869D01*
X2516Y869D01*
X2516Y867D01*
X2514Y867D01*
X2514Y865D01*
X2510Y865D01*
X2510Y863D01*
X2508Y863D01*
X2508Y861D01*
X2504Y861D01*
X2504Y859D01*
X2502Y859D01*
X2502Y857D01*
X2498Y857D01*
X2498Y855D01*
X2494Y855D01*
X2494Y853D01*
X2492Y853D01*
X2492Y851D01*
X2488Y851D01*
X2488Y849D01*
X2486Y849D01*
X2486Y847D01*
X2482Y847D01*
X2482Y845D01*
X2480Y845D01*
X2480Y843D01*
X2476Y843D01*
X2476Y841D01*
X2474Y841D01*
X2474Y839D01*
X2470Y839D01*
X2470Y837D01*
X2468Y837D01*
X2468Y835D01*
X2464Y835D01*
X2464Y833D01*
X2462Y833D01*
X2462Y831D01*
X2458Y831D01*
X2458Y829D01*
X2456Y829D01*
X2456Y827D01*
X2452Y827D01*
X2452Y825D01*
X2450Y825D01*
X2450Y823D01*
X2446Y823D01*
X2446Y821D01*
X2444Y821D01*
X2444Y819D01*
X2440Y819D01*
X2440Y817D01*
X2438Y817D01*
X2438Y815D01*
X2434Y815D01*
X2434Y813D01*
X2432Y813D01*
X2432Y811D01*
X2428Y811D01*
X2428Y809D01*
X2426Y809D01*
X2426Y807D01*
X2422Y807D01*
X2422Y805D01*
X2420Y805D01*
X2420Y803D01*
X2416Y803D01*
X2416Y801D01*
X2414Y801D01*
X2414Y799D01*
X2410Y799D01*
X2410Y797D01*
X2408Y797D01*
X2408Y795D01*
X2404Y795D01*
X2404Y793D01*
X2402Y793D01*
X2402Y791D01*
X2398Y791D01*
X2398Y789D01*
X2396Y789D01*
X2396Y787D01*
X2392Y787D01*
X2392Y785D01*
X2390Y785D01*
X2390Y783D01*
X2386Y783D01*
X2386Y781D01*
X2384Y781D01*
X2384Y779D01*
X2380Y779D01*
X2380Y777D01*
X2378Y777D01*
X2378Y775D01*
X2374Y775D01*
X2374Y773D01*
X2372Y773D01*
X2372Y771D01*
X2368Y771D01*
X2368Y769D01*
X2366Y769D01*
X2366Y767D01*
X2362Y767D01*
X2362Y765D01*
X2360Y765D01*
X2360Y763D01*
X2356Y763D01*
X2356Y761D01*
X2354Y761D01*
X2354Y759D01*
X2350Y759D01*
X2350Y757D01*
X2348Y757D01*
X2348Y755D01*
X2344Y755D01*
X2344Y753D01*
X2342Y753D01*
X2342Y751D01*
X2338Y751D01*
X2338Y749D01*
X2336Y749D01*
X2336Y747D01*
X2332Y747D01*
X2332Y745D01*
X2330Y745D01*
X2330Y743D01*
X2326Y743D01*
X2326Y741D01*
X2324Y741D01*
X2324Y739D01*
X2320Y739D01*
X2320Y737D01*
X2318Y737D01*
X2318Y735D01*
X2314Y735D01*
X2314Y715D01*
X2318Y715D01*
X2318Y713D01*
X2326Y713D01*
X2326Y711D01*
X2330Y711D01*
X2330Y709D01*
X2336Y709D01*
X2336Y707D01*
X2340Y707D01*
X2340Y705D01*
X2342Y705D01*
X2342Y703D01*
X2346Y703D01*
X2346Y701D01*
X2348Y701D01*
X2348Y699D01*
X2352Y699D01*
X2352Y697D01*
X2354Y697D01*
X2354Y695D01*
X2356Y695D01*
X2356Y693D01*
X2358Y693D01*
X2358Y691D01*
X2360Y691D01*
X2360Y689D01*
X2362Y689D01*
X2362Y687D01*
X2364Y687D01*
X2364Y683D01*
X2366Y683D01*
X2366Y681D01*
X2368Y681D01*
X2368Y679D01*
X2370Y679D01*
X2370Y675D01*
X2372Y675D01*
X2372Y671D01*
X2374Y671D01*
X2374Y667D01*
X2376Y667D01*
X2376Y663D01*
X2378Y663D01*
X2378Y657D01*
X2380Y657D01*
X2380Y651D01*
X2382Y651D01*
X2382Y637D01*
X2384Y637D01*
X2384Y627D01*
X2382Y627D01*
X2382Y613D01*
X2380Y613D01*
X2380Y605D01*
X2378Y605D01*
X2378Y599D01*
X2376Y599D01*
X2376Y595D01*
X2374Y595D01*
X2374Y591D01*
X2372Y591D01*
X2372Y587D01*
X2370Y587D01*
X2370Y585D01*
X2368Y585D01*
X2368Y581D01*
X2366Y581D01*
X2366Y579D01*
X2364Y579D01*
X2364Y577D01*
X2362Y577D01*
X2362Y575D01*
X2360Y575D01*
X2360Y571D01*
X2358Y571D01*
X2358Y569D01*
X2354Y569D01*
X2354Y567D01*
X2352Y567D01*
X2352Y565D01*
X2350Y565D01*
X2350Y563D01*
X2348Y563D01*
X2348Y561D01*
X2344Y561D01*
X2344Y559D01*
X2342Y559D01*
X2342Y557D01*
X2338Y557D01*
X2338Y555D01*
X2334Y555D01*
X2334Y553D01*
X2328Y553D01*
X2328Y551D01*
X2322Y551D01*
X2322Y549D01*
X2316Y549D01*
X2316Y547D01*
X2654Y547D01*
X2654Y549D01*
X2656Y549D01*
X2656Y553D01*
X2658Y553D01*
X2658Y555D01*
X2660Y555D01*
X2660Y557D01*
X2662Y557D01*
X2662Y559D01*
X2664Y559D01*
X2664Y563D01*
X2666Y563D01*
X2666Y565D01*
X2668Y565D01*
X2668Y567D01*
X2670Y567D01*
X2670Y569D01*
X2672Y569D01*
X2672Y573D01*
X2674Y573D01*
X2674Y575D01*
X2676Y575D01*
X2676Y577D01*
X2678Y577D01*
X2678Y579D01*
X2680Y579D01*
X2680Y583D01*
X2682Y583D01*
X2682Y585D01*
X2684Y585D01*
X2684Y587D01*
X2686Y587D01*
X2686Y589D01*
X2688Y589D01*
X2688Y593D01*
X2690Y593D01*
X2690Y595D01*
X2692Y595D01*
X2692Y597D01*
X2694Y597D01*
X2694Y599D01*
X2696Y599D01*
X2696Y603D01*
X2698Y603D01*
X2698Y605D01*
X2700Y605D01*
X2700Y607D01*
X2702Y607D01*
X2702Y609D01*
X2704Y609D01*
X2704Y613D01*
X2706Y613D01*
X2706Y615D01*
X2708Y615D01*
X2708Y617D01*
X2710Y617D01*
X2710Y619D01*
X2712Y619D01*
X2712Y623D01*
X2714Y623D01*
X2714Y625D01*
X2716Y625D01*
X2716Y627D01*
X2718Y627D01*
X2718Y629D01*
X2720Y629D01*
X2720Y633D01*
X2722Y633D01*
X2722Y635D01*
X2724Y635D01*
X2724Y637D01*
X2726Y637D01*
X2726Y639D01*
X2728Y639D01*
X2728Y643D01*
X2730Y643D01*
X2730Y645D01*
X2732Y645D01*
X2732Y647D01*
X2734Y647D01*
X2734Y649D01*
X2736Y649D01*
X2736Y653D01*
X2738Y653D01*
X2738Y935D01*
X2562Y935D01*
G37*
D02*
G36*
X372Y841D02*
X372Y839D01*
X392Y839D01*
X392Y841D01*
X372Y841D01*
G37*
D02*
G36*
X1204Y819D02*
X1204Y797D01*
X1206Y797D01*
X1206Y795D01*
X1208Y795D01*
X1208Y791D01*
X1210Y791D01*
X1210Y787D01*
X1232Y787D01*
X1232Y789D01*
X1234Y789D01*
X1234Y791D01*
X1236Y791D01*
X1236Y793D01*
X1238Y793D01*
X1238Y795D01*
X1240Y795D01*
X1240Y797D01*
X1242Y797D01*
X1242Y799D01*
X1244Y799D01*
X1244Y801D01*
X1248Y801D01*
X1248Y803D01*
X1250Y803D01*
X1250Y805D01*
X1254Y805D01*
X1254Y807D01*
X1256Y807D01*
X1256Y809D01*
X1260Y809D01*
X1260Y811D01*
X1264Y811D01*
X1264Y813D01*
X1270Y813D01*
X1270Y815D01*
X1276Y815D01*
X1276Y817D01*
X1288Y817D01*
X1288Y819D01*
X1204Y819D01*
G37*
D02*
G36*
X1310Y819D02*
X1310Y817D01*
X1320Y817D01*
X1320Y815D01*
X1328Y815D01*
X1328Y813D01*
X1332Y813D01*
X1332Y811D01*
X1336Y811D01*
X1336Y809D01*
X1340Y809D01*
X1340Y807D01*
X1344Y807D01*
X1344Y805D01*
X1348Y805D01*
X1348Y803D01*
X1350Y803D01*
X1350Y801D01*
X1352Y801D01*
X1352Y799D01*
X1356Y799D01*
X1356Y797D01*
X1358Y797D01*
X1358Y795D01*
X1360Y795D01*
X1360Y793D01*
X1362Y793D01*
X1362Y791D01*
X1364Y791D01*
X1364Y789D01*
X1366Y789D01*
X1366Y785D01*
X1368Y785D01*
X1368Y783D01*
X1370Y783D01*
X1370Y781D01*
X1372Y781D01*
X1372Y777D01*
X1374Y777D01*
X1374Y773D01*
X1376Y773D01*
X1376Y769D01*
X1378Y769D01*
X1378Y765D01*
X1380Y765D01*
X1380Y761D01*
X1382Y761D01*
X1382Y753D01*
X1384Y753D01*
X1384Y745D01*
X1386Y745D01*
X1386Y719D01*
X1384Y719D01*
X1384Y709D01*
X1382Y709D01*
X1382Y703D01*
X1380Y703D01*
X1380Y697D01*
X1378Y697D01*
X1378Y693D01*
X1376Y693D01*
X1376Y689D01*
X1374Y689D01*
X1374Y685D01*
X1372Y685D01*
X1372Y683D01*
X1370Y683D01*
X1370Y679D01*
X1368Y679D01*
X1368Y677D01*
X1366Y677D01*
X1366Y675D01*
X1364Y675D01*
X1364Y673D01*
X1362Y673D01*
X1362Y671D01*
X1360Y671D01*
X1360Y669D01*
X1358Y669D01*
X1358Y667D01*
X1356Y667D01*
X1356Y665D01*
X1354Y665D01*
X1354Y663D01*
X1352Y663D01*
X1352Y661D01*
X1350Y661D01*
X1350Y659D01*
X1346Y659D01*
X1346Y657D01*
X1342Y657D01*
X1342Y655D01*
X1340Y655D01*
X1340Y653D01*
X1336Y653D01*
X1336Y651D01*
X1330Y651D01*
X1330Y649D01*
X1324Y649D01*
X1324Y647D01*
X1318Y647D01*
X1318Y645D01*
X1300Y645D01*
X1300Y643D01*
X1708Y643D01*
X1708Y645D01*
X1712Y645D01*
X1712Y647D01*
X1714Y647D01*
X1714Y649D01*
X1718Y649D01*
X1718Y651D01*
X1720Y651D01*
X1720Y653D01*
X1722Y653D01*
X1722Y655D01*
X1726Y655D01*
X1726Y657D01*
X1728Y657D01*
X1728Y659D01*
X1730Y659D01*
X1730Y679D01*
X1728Y679D01*
X1728Y681D01*
X1726Y681D01*
X1726Y685D01*
X1724Y685D01*
X1724Y687D01*
X1722Y687D01*
X1722Y691D01*
X1720Y691D01*
X1720Y695D01*
X1718Y695D01*
X1718Y701D01*
X1716Y701D01*
X1716Y705D01*
X1714Y705D01*
X1714Y713D01*
X1712Y713D01*
X1712Y749D01*
X1714Y749D01*
X1714Y757D01*
X1716Y757D01*
X1716Y763D01*
X1718Y763D01*
X1718Y767D01*
X1720Y767D01*
X1720Y771D01*
X1722Y771D01*
X1722Y775D01*
X1724Y775D01*
X1724Y779D01*
X1726Y779D01*
X1726Y781D01*
X1728Y781D01*
X1728Y785D01*
X1730Y785D01*
X1730Y787D01*
X1732Y787D01*
X1732Y789D01*
X1734Y789D01*
X1734Y791D01*
X1736Y791D01*
X1736Y793D01*
X1738Y793D01*
X1738Y795D01*
X1740Y795D01*
X1740Y797D01*
X1742Y797D01*
X1742Y799D01*
X1744Y799D01*
X1744Y801D01*
X1748Y801D01*
X1748Y803D01*
X1750Y803D01*
X1750Y805D01*
X1754Y805D01*
X1754Y807D01*
X1756Y807D01*
X1756Y809D01*
X1760Y809D01*
X1760Y811D01*
X1764Y811D01*
X1764Y813D01*
X1770Y813D01*
X1770Y815D01*
X1776Y815D01*
X1776Y817D01*
X1788Y817D01*
X1788Y819D01*
X1310Y819D01*
G37*
D02*
G36*
X1218Y669D02*
X1218Y643D01*
X1296Y643D01*
X1296Y645D01*
X1280Y645D01*
X1280Y647D01*
X1272Y647D01*
X1272Y649D01*
X1266Y649D01*
X1266Y651D01*
X1262Y651D01*
X1262Y653D01*
X1258Y653D01*
X1258Y655D01*
X1254Y655D01*
X1254Y657D01*
X1252Y657D01*
X1252Y659D01*
X1248Y659D01*
X1248Y661D01*
X1246Y661D01*
X1246Y663D01*
X1242Y663D01*
X1242Y665D01*
X1240Y665D01*
X1240Y667D01*
X1238Y667D01*
X1238Y669D01*
X1218Y669D01*
G37*
D02*
G36*
X1218Y643D02*
X1218Y641D01*
X1706Y641D01*
X1706Y643D01*
X1218Y643D01*
G37*
D02*
G36*
X1218Y643D02*
X1218Y641D01*
X1706Y641D01*
X1706Y643D01*
X1218Y643D01*
G37*
D02*
G36*
X1218Y641D02*
X1218Y619D01*
X1410Y619D01*
X1410Y617D01*
X1420Y617D01*
X1420Y615D01*
X1428Y615D01*
X1428Y613D01*
X1432Y613D01*
X1432Y611D01*
X1436Y611D01*
X1436Y609D01*
X1440Y609D01*
X1440Y607D01*
X1444Y607D01*
X1444Y605D01*
X1448Y605D01*
X1448Y603D01*
X1450Y603D01*
X1450Y601D01*
X1452Y601D01*
X1452Y599D01*
X1456Y599D01*
X1456Y597D01*
X1458Y597D01*
X1458Y595D01*
X1460Y595D01*
X1460Y593D01*
X1462Y593D01*
X1462Y591D01*
X1464Y591D01*
X1464Y589D01*
X1466Y589D01*
X1466Y585D01*
X1468Y585D01*
X1468Y583D01*
X1470Y583D01*
X1470Y581D01*
X1472Y581D01*
X1472Y577D01*
X1474Y577D01*
X1474Y573D01*
X1476Y573D01*
X1476Y569D01*
X1478Y569D01*
X1478Y565D01*
X1480Y565D01*
X1480Y561D01*
X1482Y561D01*
X1482Y553D01*
X1484Y553D01*
X1484Y545D01*
X1486Y545D01*
X1486Y519D01*
X1484Y519D01*
X1484Y509D01*
X1482Y509D01*
X1482Y503D01*
X1480Y503D01*
X1480Y497D01*
X1478Y497D01*
X1478Y493D01*
X1476Y493D01*
X1476Y489D01*
X1474Y489D01*
X1474Y485D01*
X1472Y485D01*
X1472Y483D01*
X1470Y483D01*
X1470Y479D01*
X1468Y479D01*
X1468Y477D01*
X1466Y477D01*
X1466Y475D01*
X1464Y475D01*
X1464Y473D01*
X1462Y473D01*
X1462Y471D01*
X1460Y471D01*
X1460Y469D01*
X1458Y469D01*
X1458Y467D01*
X1456Y467D01*
X1456Y465D01*
X1454Y465D01*
X1454Y463D01*
X1452Y463D01*
X1452Y461D01*
X1450Y461D01*
X1450Y459D01*
X1446Y459D01*
X1446Y457D01*
X1442Y457D01*
X1442Y455D01*
X1440Y455D01*
X1440Y453D01*
X1436Y453D01*
X1436Y433D01*
X1438Y433D01*
X1438Y431D01*
X1442Y431D01*
X1442Y429D01*
X1446Y429D01*
X1446Y427D01*
X1448Y427D01*
X1448Y425D01*
X1452Y425D01*
X1452Y423D01*
X1454Y423D01*
X1454Y421D01*
X1456Y421D01*
X1456Y419D01*
X1458Y419D01*
X1458Y417D01*
X1460Y417D01*
X1460Y415D01*
X1462Y415D01*
X1462Y413D01*
X1464Y413D01*
X1464Y411D01*
X1466Y411D01*
X1466Y409D01*
X1468Y409D01*
X1468Y405D01*
X1470Y405D01*
X1470Y403D01*
X1472Y403D01*
X1472Y399D01*
X1474Y399D01*
X1474Y397D01*
X1476Y397D01*
X1476Y393D01*
X1478Y393D01*
X1478Y389D01*
X1480Y389D01*
X1480Y383D01*
X1482Y383D01*
X1482Y377D01*
X1484Y377D01*
X1484Y367D01*
X1486Y367D01*
X1486Y341D01*
X1484Y341D01*
X1484Y331D01*
X1482Y331D01*
X1482Y325D01*
X1480Y325D01*
X1480Y319D01*
X1478Y319D01*
X1478Y315D01*
X1476Y315D01*
X1476Y311D01*
X1474Y311D01*
X1474Y309D01*
X1472Y309D01*
X1472Y305D01*
X1470Y305D01*
X1470Y303D01*
X1468Y303D01*
X1468Y299D01*
X1466Y299D01*
X1466Y297D01*
X1464Y297D01*
X1464Y295D01*
X1462Y295D01*
X1462Y293D01*
X1460Y293D01*
X1460Y291D01*
X1458Y291D01*
X1458Y289D01*
X1456Y289D01*
X1456Y287D01*
X1454Y287D01*
X1454Y285D01*
X1450Y285D01*
X1450Y283D01*
X1448Y283D01*
X1448Y281D01*
X1444Y281D01*
X1444Y279D01*
X1442Y279D01*
X1442Y277D01*
X1438Y277D01*
X1438Y275D01*
X1434Y275D01*
X1434Y273D01*
X1428Y273D01*
X1428Y271D01*
X1422Y271D01*
X1422Y269D01*
X1412Y269D01*
X1412Y267D01*
X1636Y267D01*
X1636Y269D01*
X1632Y269D01*
X1632Y271D01*
X1624Y271D01*
X1624Y273D01*
X1620Y273D01*
X1620Y275D01*
X1616Y275D01*
X1616Y277D01*
X1612Y277D01*
X1612Y279D01*
X1608Y279D01*
X1608Y281D01*
X1606Y281D01*
X1606Y283D01*
X1602Y283D01*
X1602Y285D01*
X1600Y285D01*
X1600Y287D01*
X1598Y287D01*
X1598Y289D01*
X1596Y289D01*
X1596Y291D01*
X1594Y291D01*
X1594Y293D01*
X1592Y293D01*
X1592Y295D01*
X1590Y295D01*
X1590Y297D01*
X1588Y297D01*
X1588Y299D01*
X1586Y299D01*
X1586Y301D01*
X1584Y301D01*
X1584Y303D01*
X1582Y303D01*
X1582Y307D01*
X1580Y307D01*
X1580Y311D01*
X1578Y311D01*
X1578Y313D01*
X1576Y313D01*
X1576Y317D01*
X1574Y317D01*
X1574Y323D01*
X1572Y323D01*
X1572Y329D01*
X1570Y329D01*
X1570Y335D01*
X1568Y335D01*
X1568Y373D01*
X1570Y373D01*
X1570Y381D01*
X1572Y381D01*
X1572Y385D01*
X1574Y385D01*
X1574Y391D01*
X1576Y391D01*
X1576Y395D01*
X1578Y395D01*
X1578Y399D01*
X1580Y399D01*
X1580Y401D01*
X1582Y401D01*
X1582Y405D01*
X1584Y405D01*
X1584Y407D01*
X1586Y407D01*
X1586Y409D01*
X1588Y409D01*
X1588Y413D01*
X1590Y413D01*
X1590Y415D01*
X1592Y415D01*
X1592Y417D01*
X1594Y417D01*
X1594Y419D01*
X1596Y419D01*
X1596Y421D01*
X1600Y421D01*
X1600Y423D01*
X1602Y423D01*
X1602Y425D01*
X1604Y425D01*
X1604Y427D01*
X1608Y427D01*
X1608Y429D01*
X1610Y429D01*
X1610Y431D01*
X1614Y431D01*
X1614Y433D01*
X1618Y433D01*
X1618Y453D01*
X1614Y453D01*
X1614Y455D01*
X1610Y455D01*
X1610Y457D01*
X1606Y457D01*
X1606Y459D01*
X1604Y459D01*
X1604Y461D01*
X1602Y461D01*
X1602Y463D01*
X1598Y463D01*
X1598Y465D01*
X1596Y465D01*
X1596Y467D01*
X1594Y467D01*
X1594Y469D01*
X1592Y469D01*
X1592Y471D01*
X1590Y471D01*
X1590Y473D01*
X1588Y473D01*
X1588Y475D01*
X1586Y475D01*
X1586Y479D01*
X1584Y479D01*
X1584Y481D01*
X1582Y481D01*
X1582Y485D01*
X1580Y485D01*
X1580Y487D01*
X1578Y487D01*
X1578Y491D01*
X1576Y491D01*
X1576Y495D01*
X1574Y495D01*
X1574Y499D01*
X1572Y499D01*
X1572Y505D01*
X1570Y505D01*
X1570Y513D01*
X1568Y513D01*
X1568Y549D01*
X1570Y549D01*
X1570Y557D01*
X1572Y557D01*
X1572Y563D01*
X1574Y563D01*
X1574Y567D01*
X1576Y567D01*
X1576Y571D01*
X1578Y571D01*
X1578Y575D01*
X1580Y575D01*
X1580Y579D01*
X1582Y579D01*
X1582Y581D01*
X1584Y581D01*
X1584Y585D01*
X1586Y585D01*
X1586Y587D01*
X1588Y587D01*
X1588Y589D01*
X1590Y589D01*
X1590Y591D01*
X1592Y591D01*
X1592Y593D01*
X1594Y593D01*
X1594Y595D01*
X1596Y595D01*
X1596Y597D01*
X1598Y597D01*
X1598Y599D01*
X1600Y599D01*
X1600Y601D01*
X1602Y601D01*
X1602Y603D01*
X1606Y603D01*
X1606Y605D01*
X1608Y605D01*
X1608Y607D01*
X1612Y607D01*
X1612Y609D01*
X1616Y609D01*
X1616Y611D01*
X1620Y611D01*
X1620Y613D01*
X1626Y613D01*
X1626Y615D01*
X1632Y615D01*
X1632Y617D01*
X1642Y617D01*
X1642Y619D01*
X1674Y619D01*
X1674Y621D01*
X1676Y621D01*
X1676Y623D01*
X1680Y623D01*
X1680Y625D01*
X1682Y625D01*
X1682Y627D01*
X1686Y627D01*
X1686Y629D01*
X1688Y629D01*
X1688Y631D01*
X1690Y631D01*
X1690Y633D01*
X1694Y633D01*
X1694Y635D01*
X1696Y635D01*
X1696Y637D01*
X1700Y637D01*
X1700Y639D01*
X1702Y639D01*
X1702Y641D01*
X1218Y641D01*
G37*
D02*
G36*
X1218Y619D02*
X1218Y593D01*
X1338Y593D01*
X1338Y595D01*
X1340Y595D01*
X1340Y597D01*
X1342Y597D01*
X1342Y599D01*
X1344Y599D01*
X1344Y601D01*
X1348Y601D01*
X1348Y603D01*
X1350Y603D01*
X1350Y605D01*
X1354Y605D01*
X1354Y607D01*
X1356Y607D01*
X1356Y609D01*
X1360Y609D01*
X1360Y611D01*
X1364Y611D01*
X1364Y613D01*
X1370Y613D01*
X1370Y615D01*
X1376Y615D01*
X1376Y617D01*
X1388Y617D01*
X1388Y619D01*
X1218Y619D01*
G37*
D02*
G36*
X2138Y557D02*
X2138Y555D01*
X2134Y555D01*
X2134Y553D01*
X2128Y553D01*
X2128Y551D01*
X2124Y551D01*
X2124Y549D01*
X2116Y549D01*
X2116Y547D01*
X2182Y547D01*
X2182Y549D01*
X2174Y549D01*
X2174Y551D01*
X2168Y551D01*
X2168Y553D01*
X2164Y553D01*
X2164Y555D01*
X2160Y555D01*
X2160Y557D01*
X2138Y557D01*
G37*
D02*
G36*
X2238Y557D02*
X2238Y555D01*
X2234Y555D01*
X2234Y553D01*
X2228Y553D01*
X2228Y551D01*
X2224Y551D01*
X2224Y549D01*
X2216Y549D01*
X2216Y547D01*
X2282Y547D01*
X2282Y549D01*
X2274Y549D01*
X2274Y551D01*
X2268Y551D01*
X2268Y553D01*
X2262Y553D01*
X2262Y555D01*
X2258Y555D01*
X2258Y557D01*
X2238Y557D01*
G37*
D02*
G36*
X2060Y549D02*
X2060Y547D01*
X2082Y547D01*
X2082Y549D01*
X2060Y549D01*
G37*
D02*
G36*
X2060Y547D02*
X2060Y545D01*
X2652Y545D01*
X2652Y547D01*
X2060Y547D01*
G37*
D02*
G36*
X2060Y547D02*
X2060Y545D01*
X2652Y545D01*
X2652Y547D01*
X2060Y547D01*
G37*
D02*
G36*
X2060Y547D02*
X2060Y545D01*
X2652Y545D01*
X2652Y547D01*
X2060Y547D01*
G37*
D02*
G36*
X2060Y547D02*
X2060Y545D01*
X2652Y545D01*
X2652Y547D01*
X2060Y547D01*
G37*
D02*
G36*
X2060Y545D02*
X2060Y455D01*
X2062Y455D01*
X2062Y453D01*
X2064Y453D01*
X2064Y451D01*
X2068Y451D01*
X2068Y449D01*
X2070Y449D01*
X2070Y447D01*
X2072Y447D01*
X2072Y445D01*
X2074Y445D01*
X2074Y443D01*
X2076Y443D01*
X2076Y441D01*
X2078Y441D01*
X2078Y439D01*
X2080Y439D01*
X2080Y437D01*
X2082Y437D01*
X2082Y435D01*
X2084Y435D01*
X2084Y433D01*
X2086Y433D01*
X2086Y431D01*
X2088Y431D01*
X2088Y429D01*
X2090Y429D01*
X2090Y427D01*
X2092Y427D01*
X2092Y425D01*
X2094Y425D01*
X2094Y423D01*
X2096Y423D01*
X2096Y421D01*
X2098Y421D01*
X2098Y419D01*
X2308Y419D01*
X2308Y417D01*
X2318Y417D01*
X2318Y415D01*
X2326Y415D01*
X2326Y413D01*
X2332Y413D01*
X2332Y411D01*
X2336Y411D01*
X2336Y409D01*
X2340Y409D01*
X2340Y407D01*
X2342Y407D01*
X2342Y405D01*
X2346Y405D01*
X2346Y403D01*
X2348Y403D01*
X2348Y401D01*
X2352Y401D01*
X2352Y399D01*
X2354Y399D01*
X2354Y397D01*
X2356Y397D01*
X2356Y395D01*
X2358Y395D01*
X2358Y393D01*
X2360Y393D01*
X2360Y391D01*
X2362Y391D01*
X2362Y389D01*
X2364Y389D01*
X2364Y387D01*
X2366Y387D01*
X2366Y383D01*
X2368Y383D01*
X2368Y381D01*
X2370Y381D01*
X2370Y377D01*
X2372Y377D01*
X2372Y373D01*
X2374Y373D01*
X2374Y369D01*
X2376Y369D01*
X2376Y365D01*
X2378Y365D01*
X2378Y359D01*
X2380Y359D01*
X2380Y353D01*
X2382Y353D01*
X2382Y339D01*
X2384Y339D01*
X2384Y329D01*
X2382Y329D01*
X2382Y315D01*
X2380Y315D01*
X2380Y307D01*
X2378Y307D01*
X2378Y301D01*
X2376Y301D01*
X2376Y297D01*
X2374Y297D01*
X2374Y293D01*
X2372Y293D01*
X2372Y289D01*
X2370Y289D01*
X2370Y287D01*
X2368Y287D01*
X2368Y283D01*
X2366Y283D01*
X2366Y281D01*
X2364Y281D01*
X2364Y279D01*
X2362Y279D01*
X2362Y277D01*
X2360Y277D01*
X2360Y275D01*
X2358Y275D01*
X2358Y273D01*
X2356Y273D01*
X2356Y271D01*
X2354Y271D01*
X2354Y269D01*
X2352Y269D01*
X2352Y267D01*
X2350Y267D01*
X2350Y265D01*
X2348Y265D01*
X2348Y263D01*
X2344Y263D01*
X2344Y261D01*
X2340Y261D01*
X2340Y259D01*
X2338Y259D01*
X2338Y257D01*
X2334Y257D01*
X2334Y255D01*
X2328Y255D01*
X2328Y253D01*
X2322Y253D01*
X2322Y251D01*
X2314Y251D01*
X2314Y249D01*
X2416Y249D01*
X2416Y251D01*
X2418Y251D01*
X2418Y253D01*
X2420Y253D01*
X2420Y257D01*
X2422Y257D01*
X2422Y259D01*
X2424Y259D01*
X2424Y261D01*
X2426Y261D01*
X2426Y263D01*
X2428Y263D01*
X2428Y267D01*
X2430Y267D01*
X2430Y269D01*
X2432Y269D01*
X2432Y271D01*
X2434Y271D01*
X2434Y273D01*
X2436Y273D01*
X2436Y277D01*
X2438Y277D01*
X2438Y279D01*
X2440Y279D01*
X2440Y281D01*
X2442Y281D01*
X2442Y283D01*
X2444Y283D01*
X2444Y287D01*
X2446Y287D01*
X2446Y289D01*
X2448Y289D01*
X2448Y291D01*
X2450Y291D01*
X2450Y293D01*
X2452Y293D01*
X2452Y297D01*
X2454Y297D01*
X2454Y299D01*
X2456Y299D01*
X2456Y301D01*
X2458Y301D01*
X2458Y303D01*
X2460Y303D01*
X2460Y307D01*
X2462Y307D01*
X2462Y309D01*
X2464Y309D01*
X2464Y311D01*
X2466Y311D01*
X2466Y313D01*
X2468Y313D01*
X2468Y317D01*
X2470Y317D01*
X2470Y319D01*
X2472Y319D01*
X2472Y321D01*
X2474Y321D01*
X2474Y323D01*
X2476Y323D01*
X2476Y327D01*
X2478Y327D01*
X2478Y329D01*
X2480Y329D01*
X2480Y331D01*
X2482Y331D01*
X2482Y333D01*
X2484Y333D01*
X2484Y337D01*
X2486Y337D01*
X2486Y339D01*
X2488Y339D01*
X2488Y341D01*
X2490Y341D01*
X2490Y343D01*
X2492Y343D01*
X2492Y347D01*
X2494Y347D01*
X2494Y349D01*
X2496Y349D01*
X2496Y351D01*
X2498Y351D01*
X2498Y353D01*
X2500Y353D01*
X2500Y357D01*
X2502Y357D01*
X2502Y359D01*
X2504Y359D01*
X2504Y361D01*
X2506Y361D01*
X2506Y365D01*
X2508Y365D01*
X2508Y367D01*
X2510Y367D01*
X2510Y369D01*
X2512Y369D01*
X2512Y371D01*
X2514Y371D01*
X2514Y375D01*
X2516Y375D01*
X2516Y377D01*
X2518Y377D01*
X2518Y379D01*
X2520Y379D01*
X2520Y381D01*
X2522Y381D01*
X2522Y385D01*
X2524Y385D01*
X2524Y387D01*
X2526Y387D01*
X2526Y389D01*
X2528Y389D01*
X2528Y391D01*
X2530Y391D01*
X2530Y395D01*
X2532Y395D01*
X2532Y397D01*
X2534Y397D01*
X2534Y399D01*
X2536Y399D01*
X2536Y401D01*
X2538Y401D01*
X2538Y405D01*
X2540Y405D01*
X2540Y407D01*
X2542Y407D01*
X2542Y409D01*
X2544Y409D01*
X2544Y411D01*
X2546Y411D01*
X2546Y415D01*
X2548Y415D01*
X2548Y417D01*
X2550Y417D01*
X2550Y419D01*
X2552Y419D01*
X2552Y421D01*
X2554Y421D01*
X2554Y425D01*
X2556Y425D01*
X2556Y427D01*
X2558Y427D01*
X2558Y429D01*
X2560Y429D01*
X2560Y431D01*
X2562Y431D01*
X2562Y435D01*
X2564Y435D01*
X2564Y437D01*
X2566Y437D01*
X2566Y439D01*
X2568Y439D01*
X2568Y441D01*
X2570Y441D01*
X2570Y445D01*
X2572Y445D01*
X2572Y447D01*
X2574Y447D01*
X2574Y449D01*
X2576Y449D01*
X2576Y451D01*
X2578Y451D01*
X2578Y455D01*
X2580Y455D01*
X2580Y457D01*
X2582Y457D01*
X2582Y459D01*
X2584Y459D01*
X2584Y461D01*
X2586Y461D01*
X2586Y465D01*
X2588Y465D01*
X2588Y467D01*
X2590Y467D01*
X2590Y469D01*
X2592Y469D01*
X2592Y471D01*
X2594Y471D01*
X2594Y475D01*
X2596Y475D01*
X2596Y477D01*
X2598Y477D01*
X2598Y479D01*
X2600Y479D01*
X2600Y481D01*
X2602Y481D01*
X2602Y485D01*
X2604Y485D01*
X2604Y487D01*
X2606Y487D01*
X2606Y489D01*
X2608Y489D01*
X2608Y491D01*
X2610Y491D01*
X2610Y495D01*
X2612Y495D01*
X2612Y497D01*
X2614Y497D01*
X2614Y499D01*
X2616Y499D01*
X2616Y501D01*
X2618Y501D01*
X2618Y505D01*
X2620Y505D01*
X2620Y507D01*
X2622Y507D01*
X2622Y509D01*
X2624Y509D01*
X2624Y511D01*
X2626Y511D01*
X2626Y515D01*
X2628Y515D01*
X2628Y517D01*
X2630Y517D01*
X2630Y519D01*
X2632Y519D01*
X2632Y521D01*
X2634Y521D01*
X2634Y525D01*
X2636Y525D01*
X2636Y527D01*
X2638Y527D01*
X2638Y529D01*
X2640Y529D01*
X2640Y533D01*
X2642Y533D01*
X2642Y535D01*
X2644Y535D01*
X2644Y537D01*
X2646Y537D01*
X2646Y539D01*
X2648Y539D01*
X2648Y543D01*
X2650Y543D01*
X2650Y545D01*
X2060Y545D01*
G37*
D02*
G36*
X898Y421D02*
X898Y419D01*
X900Y419D01*
X900Y415D01*
X902Y415D01*
X902Y411D01*
X904Y411D01*
X904Y405D01*
X906Y405D01*
X906Y401D01*
X908Y401D01*
X908Y397D01*
X910Y397D01*
X910Y391D01*
X912Y391D01*
X912Y387D01*
X914Y387D01*
X914Y383D01*
X916Y383D01*
X916Y377D01*
X918Y377D01*
X918Y373D01*
X920Y373D01*
X920Y369D01*
X922Y369D01*
X922Y363D01*
X924Y363D01*
X924Y359D01*
X926Y359D01*
X926Y355D01*
X928Y355D01*
X928Y351D01*
X930Y351D01*
X930Y345D01*
X932Y345D01*
X932Y341D01*
X934Y341D01*
X934Y337D01*
X936Y337D01*
X936Y331D01*
X938Y331D01*
X938Y327D01*
X940Y327D01*
X940Y323D01*
X942Y323D01*
X942Y317D01*
X944Y317D01*
X944Y313D01*
X946Y313D01*
X946Y309D01*
X948Y309D01*
X948Y305D01*
X1040Y305D01*
X1040Y347D01*
X1042Y347D01*
X1042Y355D01*
X1044Y355D01*
X1044Y361D01*
X1046Y361D01*
X1046Y367D01*
X1048Y367D01*
X1048Y371D01*
X1050Y371D01*
X1050Y375D01*
X1052Y375D01*
X1052Y379D01*
X1054Y379D01*
X1054Y381D01*
X1056Y381D01*
X1056Y385D01*
X1058Y385D01*
X1058Y387D01*
X1060Y387D01*
X1060Y389D01*
X1062Y389D01*
X1062Y391D01*
X1064Y391D01*
X1064Y393D01*
X1066Y393D01*
X1066Y395D01*
X1068Y395D01*
X1068Y397D01*
X1070Y397D01*
X1070Y399D01*
X1072Y399D01*
X1072Y401D01*
X1074Y401D01*
X1074Y403D01*
X1078Y403D01*
X1078Y405D01*
X1080Y405D01*
X1080Y407D01*
X1084Y407D01*
X1084Y409D01*
X1086Y409D01*
X1086Y411D01*
X1092Y411D01*
X1092Y413D01*
X1096Y413D01*
X1096Y415D01*
X1102Y415D01*
X1102Y417D01*
X1108Y417D01*
X1108Y419D01*
X1122Y419D01*
X1122Y421D01*
X898Y421D01*
G37*
D02*
G36*
X2108Y419D02*
X2108Y417D01*
X2120Y417D01*
X2120Y415D01*
X2126Y415D01*
X2126Y413D01*
X2132Y413D01*
X2132Y411D01*
X2136Y411D01*
X2136Y409D01*
X2162Y409D01*
X2162Y411D01*
X2166Y411D01*
X2166Y413D01*
X2172Y413D01*
X2172Y415D01*
X2178Y415D01*
X2178Y417D01*
X2188Y417D01*
X2188Y419D01*
X2108Y419D01*
G37*
D02*
G36*
X2208Y419D02*
X2208Y417D01*
X2218Y417D01*
X2218Y415D01*
X2226Y415D01*
X2226Y413D01*
X2232Y413D01*
X2232Y411D01*
X2236Y411D01*
X2236Y409D01*
X2262Y409D01*
X2262Y411D01*
X2266Y411D01*
X2266Y413D01*
X2270Y413D01*
X2270Y415D01*
X2278Y415D01*
X2278Y417D01*
X2288Y417D01*
X2288Y419D01*
X2208Y419D01*
G37*
D02*
G36*
X40Y345D02*
X40Y119D01*
X180Y119D01*
X180Y121D01*
X170Y121D01*
X170Y123D01*
X164Y123D01*
X164Y125D01*
X158Y125D01*
X158Y127D01*
X154Y127D01*
X154Y129D01*
X150Y129D01*
X150Y131D01*
X144Y131D01*
X144Y133D01*
X142Y133D01*
X142Y135D01*
X138Y135D01*
X138Y137D01*
X136Y137D01*
X136Y139D01*
X132Y139D01*
X132Y141D01*
X130Y141D01*
X130Y143D01*
X128Y143D01*
X128Y145D01*
X124Y145D01*
X124Y147D01*
X122Y147D01*
X122Y149D01*
X120Y149D01*
X120Y151D01*
X118Y151D01*
X118Y153D01*
X116Y153D01*
X116Y155D01*
X114Y155D01*
X114Y157D01*
X112Y157D01*
X112Y161D01*
X110Y161D01*
X110Y163D01*
X108Y163D01*
X108Y165D01*
X106Y165D01*
X106Y169D01*
X104Y169D01*
X104Y171D01*
X102Y171D01*
X102Y175D01*
X100Y175D01*
X100Y179D01*
X98Y179D01*
X98Y183D01*
X96Y183D01*
X96Y187D01*
X94Y187D01*
X94Y191D01*
X92Y191D01*
X92Y197D01*
X90Y197D01*
X90Y205D01*
X88Y205D01*
X88Y215D01*
X86Y215D01*
X86Y249D01*
X88Y249D01*
X88Y259D01*
X90Y259D01*
X90Y265D01*
X92Y265D01*
X92Y271D01*
X94Y271D01*
X94Y277D01*
X96Y277D01*
X96Y281D01*
X98Y281D01*
X98Y285D01*
X100Y285D01*
X100Y289D01*
X102Y289D01*
X102Y291D01*
X104Y291D01*
X104Y295D01*
X106Y295D01*
X106Y297D01*
X108Y297D01*
X108Y301D01*
X110Y301D01*
X110Y303D01*
X112Y303D01*
X112Y305D01*
X114Y305D01*
X114Y307D01*
X116Y307D01*
X116Y309D01*
X118Y309D01*
X118Y311D01*
X120Y311D01*
X120Y313D01*
X122Y313D01*
X122Y315D01*
X124Y315D01*
X124Y317D01*
X126Y317D01*
X126Y319D01*
X128Y319D01*
X128Y321D01*
X132Y321D01*
X132Y323D01*
X134Y323D01*
X134Y325D01*
X136Y325D01*
X136Y327D01*
X140Y327D01*
X140Y329D01*
X144Y329D01*
X144Y331D01*
X148Y331D01*
X148Y333D01*
X152Y333D01*
X152Y335D01*
X156Y335D01*
X156Y337D01*
X162Y337D01*
X162Y339D01*
X168Y339D01*
X168Y341D01*
X176Y341D01*
X176Y343D01*
X192Y343D01*
X192Y345D01*
X40Y345D01*
G37*
D02*
G36*
X2650Y345D02*
X2650Y343D01*
X2648Y343D01*
X2648Y341D01*
X2646Y341D01*
X2646Y339D01*
X2644Y339D01*
X2644Y335D01*
X2642Y335D01*
X2642Y333D01*
X2640Y333D01*
X2640Y331D01*
X2638Y331D01*
X2638Y329D01*
X2636Y329D01*
X2636Y325D01*
X2634Y325D01*
X2634Y323D01*
X2632Y323D01*
X2632Y321D01*
X2630Y321D01*
X2630Y319D01*
X2628Y319D01*
X2628Y315D01*
X2626Y315D01*
X2626Y313D01*
X2624Y313D01*
X2624Y311D01*
X2622Y311D01*
X2622Y309D01*
X2620Y309D01*
X2620Y305D01*
X2618Y305D01*
X2618Y303D01*
X2616Y303D01*
X2616Y301D01*
X2614Y301D01*
X2614Y299D01*
X2612Y299D01*
X2612Y295D01*
X2610Y295D01*
X2610Y293D01*
X2608Y293D01*
X2608Y291D01*
X2606Y291D01*
X2606Y289D01*
X2604Y289D01*
X2604Y285D01*
X2602Y285D01*
X2602Y283D01*
X2600Y283D01*
X2600Y281D01*
X2598Y281D01*
X2598Y279D01*
X2596Y279D01*
X2596Y275D01*
X2594Y275D01*
X2594Y273D01*
X2592Y273D01*
X2592Y271D01*
X2590Y271D01*
X2590Y267D01*
X2588Y267D01*
X2588Y265D01*
X2586Y265D01*
X2586Y263D01*
X2584Y263D01*
X2584Y261D01*
X2582Y261D01*
X2582Y257D01*
X2580Y257D01*
X2580Y255D01*
X2578Y255D01*
X2578Y253D01*
X2576Y253D01*
X2576Y251D01*
X2574Y251D01*
X2574Y247D01*
X2572Y247D01*
X2572Y245D01*
X2570Y245D01*
X2570Y243D01*
X2568Y243D01*
X2568Y241D01*
X2566Y241D01*
X2566Y237D01*
X2564Y237D01*
X2564Y235D01*
X2562Y235D01*
X2562Y233D01*
X2560Y233D01*
X2560Y231D01*
X2558Y231D01*
X2558Y227D01*
X2556Y227D01*
X2556Y225D01*
X2554Y225D01*
X2554Y223D01*
X2552Y223D01*
X2552Y221D01*
X2550Y221D01*
X2550Y217D01*
X2548Y217D01*
X2548Y215D01*
X2546Y215D01*
X2546Y213D01*
X2544Y213D01*
X2544Y211D01*
X2542Y211D01*
X2542Y207D01*
X2540Y207D01*
X2540Y205D01*
X2538Y205D01*
X2538Y203D01*
X2536Y203D01*
X2536Y201D01*
X2534Y201D01*
X2534Y197D01*
X2532Y197D01*
X2532Y195D01*
X2530Y195D01*
X2530Y193D01*
X2528Y193D01*
X2528Y191D01*
X2526Y191D01*
X2526Y187D01*
X2524Y187D01*
X2524Y185D01*
X2522Y185D01*
X2522Y183D01*
X2520Y183D01*
X2520Y181D01*
X2518Y181D01*
X2518Y177D01*
X2516Y177D01*
X2516Y175D01*
X2514Y175D01*
X2514Y173D01*
X2512Y173D01*
X2512Y171D01*
X2510Y171D01*
X2510Y167D01*
X2508Y167D01*
X2508Y165D01*
X2506Y165D01*
X2506Y163D01*
X2504Y163D01*
X2504Y161D01*
X2502Y161D01*
X2502Y157D01*
X2500Y157D01*
X2500Y155D01*
X2498Y155D01*
X2498Y153D01*
X2496Y153D01*
X2496Y151D01*
X2494Y151D01*
X2494Y147D01*
X2492Y147D01*
X2492Y145D01*
X2490Y145D01*
X2490Y143D01*
X2488Y143D01*
X2488Y141D01*
X2486Y141D01*
X2486Y137D01*
X2484Y137D01*
X2484Y135D01*
X2482Y135D01*
X2482Y133D01*
X2480Y133D01*
X2480Y131D01*
X2478Y131D01*
X2478Y127D01*
X2476Y127D01*
X2476Y125D01*
X2474Y125D01*
X2474Y123D01*
X2472Y123D01*
X2472Y121D01*
X2470Y121D01*
X2470Y119D01*
X2780Y119D01*
X2780Y121D01*
X2770Y121D01*
X2770Y123D01*
X2764Y123D01*
X2764Y125D01*
X2758Y125D01*
X2758Y127D01*
X2754Y127D01*
X2754Y129D01*
X2750Y129D01*
X2750Y131D01*
X2744Y131D01*
X2744Y133D01*
X2742Y133D01*
X2742Y135D01*
X2738Y135D01*
X2738Y137D01*
X2736Y137D01*
X2736Y139D01*
X2732Y139D01*
X2732Y141D01*
X2730Y141D01*
X2730Y143D01*
X2728Y143D01*
X2728Y145D01*
X2724Y145D01*
X2724Y147D01*
X2722Y147D01*
X2722Y149D01*
X2720Y149D01*
X2720Y151D01*
X2718Y151D01*
X2718Y153D01*
X2716Y153D01*
X2716Y155D01*
X2714Y155D01*
X2714Y157D01*
X2712Y157D01*
X2712Y161D01*
X2710Y161D01*
X2710Y163D01*
X2708Y163D01*
X2708Y165D01*
X2706Y165D01*
X2706Y169D01*
X2704Y169D01*
X2704Y171D01*
X2702Y171D01*
X2702Y175D01*
X2700Y175D01*
X2700Y179D01*
X2698Y179D01*
X2698Y183D01*
X2696Y183D01*
X2696Y187D01*
X2694Y187D01*
X2694Y191D01*
X2692Y191D01*
X2692Y197D01*
X2690Y197D01*
X2690Y205D01*
X2688Y205D01*
X2688Y215D01*
X2686Y215D01*
X2686Y249D01*
X2688Y249D01*
X2688Y259D01*
X2690Y259D01*
X2690Y265D01*
X2692Y265D01*
X2692Y271D01*
X2694Y271D01*
X2694Y277D01*
X2696Y277D01*
X2696Y281D01*
X2698Y281D01*
X2698Y285D01*
X2700Y285D01*
X2700Y289D01*
X2702Y289D01*
X2702Y291D01*
X2704Y291D01*
X2704Y295D01*
X2706Y295D01*
X2706Y297D01*
X2708Y297D01*
X2708Y301D01*
X2710Y301D01*
X2710Y303D01*
X2712Y303D01*
X2712Y305D01*
X2714Y305D01*
X2714Y307D01*
X2716Y307D01*
X2716Y309D01*
X2718Y309D01*
X2718Y311D01*
X2720Y311D01*
X2720Y313D01*
X2722Y313D01*
X2722Y315D01*
X2724Y315D01*
X2724Y317D01*
X2726Y317D01*
X2726Y319D01*
X2728Y319D01*
X2728Y321D01*
X2732Y321D01*
X2732Y323D01*
X2734Y323D01*
X2734Y325D01*
X2736Y325D01*
X2736Y327D01*
X2740Y327D01*
X2740Y329D01*
X2744Y329D01*
X2744Y331D01*
X2748Y331D01*
X2748Y333D01*
X2752Y333D01*
X2752Y335D01*
X2756Y335D01*
X2756Y337D01*
X2762Y337D01*
X2762Y339D01*
X2768Y339D01*
X2768Y341D01*
X2776Y341D01*
X2776Y343D01*
X2792Y343D01*
X2792Y345D01*
X2650Y345D01*
G37*
D02*
G36*
X1218Y267D02*
X1218Y265D01*
X1638Y265D01*
X1638Y267D01*
X1218Y267D01*
G37*
D02*
G36*
X1218Y267D02*
X1218Y265D01*
X1638Y265D01*
X1638Y267D01*
X1218Y267D01*
G37*
D02*
G36*
X1218Y265D02*
X1218Y143D01*
X1716Y143D01*
X1716Y147D01*
X1714Y147D01*
X1714Y151D01*
X1712Y151D01*
X1712Y153D01*
X1710Y153D01*
X1710Y157D01*
X1708Y157D01*
X1708Y159D01*
X1706Y159D01*
X1706Y163D01*
X1704Y163D01*
X1704Y165D01*
X1702Y165D01*
X1702Y169D01*
X1700Y169D01*
X1700Y171D01*
X1698Y171D01*
X1698Y175D01*
X1696Y175D01*
X1696Y177D01*
X1694Y177D01*
X1694Y181D01*
X1692Y181D01*
X1692Y185D01*
X1690Y185D01*
X1690Y187D01*
X1688Y187D01*
X1688Y191D01*
X1686Y191D01*
X1686Y193D01*
X1684Y193D01*
X1684Y197D01*
X1682Y197D01*
X1682Y199D01*
X1680Y199D01*
X1680Y203D01*
X1678Y203D01*
X1678Y205D01*
X1676Y205D01*
X1676Y209D01*
X1674Y209D01*
X1674Y211D01*
X1672Y211D01*
X1672Y215D01*
X1670Y215D01*
X1670Y217D01*
X1668Y217D01*
X1668Y221D01*
X1666Y221D01*
X1666Y225D01*
X1664Y225D01*
X1664Y227D01*
X1662Y227D01*
X1662Y231D01*
X1660Y231D01*
X1660Y233D01*
X1658Y233D01*
X1658Y237D01*
X1656Y237D01*
X1656Y239D01*
X1654Y239D01*
X1654Y243D01*
X1652Y243D01*
X1652Y245D01*
X1650Y245D01*
X1650Y249D01*
X1648Y249D01*
X1648Y251D01*
X1646Y251D01*
X1646Y255D01*
X1644Y255D01*
X1644Y259D01*
X1642Y259D01*
X1642Y261D01*
X1640Y261D01*
X1640Y265D01*
X1218Y265D01*
G37*
D02*
G36*
X2116Y251D02*
X2116Y249D01*
X2136Y249D01*
X2136Y251D01*
X2116Y251D01*
G37*
D02*
G36*
X2260Y251D02*
X2260Y249D01*
X2282Y249D01*
X2282Y251D01*
X2260Y251D01*
G37*
D02*
G36*
X1798Y249D02*
X1798Y247D01*
X2136Y247D01*
X2136Y249D01*
X1798Y249D01*
G37*
D02*
G36*
X1798Y249D02*
X1798Y247D01*
X2136Y247D01*
X2136Y249D01*
X1798Y249D01*
G37*
D02*
G36*
X2260Y249D02*
X2260Y247D01*
X2414Y247D01*
X2414Y249D01*
X2260Y249D01*
G37*
D02*
G36*
X2260Y249D02*
X2260Y247D01*
X2414Y247D01*
X2414Y249D01*
X2260Y249D01*
G37*
D02*
G36*
X1798Y247D02*
X1798Y245D01*
X1800Y245D01*
X1800Y243D01*
X1802Y243D01*
X1802Y239D01*
X1804Y239D01*
X1804Y237D01*
X1806Y237D01*
X1806Y233D01*
X1808Y233D01*
X1808Y229D01*
X1810Y229D01*
X1810Y227D01*
X1812Y227D01*
X1812Y223D01*
X1814Y223D01*
X1814Y221D01*
X1816Y221D01*
X1816Y217D01*
X1818Y217D01*
X1818Y215D01*
X1820Y215D01*
X1820Y211D01*
X1822Y211D01*
X1822Y209D01*
X1824Y209D01*
X1824Y205D01*
X1826Y205D01*
X1826Y203D01*
X1828Y203D01*
X1828Y199D01*
X1830Y199D01*
X1830Y197D01*
X1832Y197D01*
X1832Y193D01*
X1944Y193D01*
X1944Y191D01*
X2136Y191D01*
X2136Y247D01*
X1798Y247D01*
G37*
D02*
G36*
X2260Y247D02*
X2260Y191D01*
X2326Y191D01*
X2326Y193D01*
X2372Y193D01*
X2372Y197D01*
X2374Y197D01*
X2374Y199D01*
X2376Y199D01*
X2376Y201D01*
X2378Y201D01*
X2378Y203D01*
X2380Y203D01*
X2380Y207D01*
X2382Y207D01*
X2382Y209D01*
X2384Y209D01*
X2384Y211D01*
X2386Y211D01*
X2386Y213D01*
X2388Y213D01*
X2388Y217D01*
X2390Y217D01*
X2390Y219D01*
X2392Y219D01*
X2392Y221D01*
X2394Y221D01*
X2394Y223D01*
X2396Y223D01*
X2396Y227D01*
X2398Y227D01*
X2398Y229D01*
X2400Y229D01*
X2400Y231D01*
X2402Y231D01*
X2402Y233D01*
X2404Y233D01*
X2404Y237D01*
X2406Y237D01*
X2406Y239D01*
X2408Y239D01*
X2408Y241D01*
X2410Y241D01*
X2410Y243D01*
X2412Y243D01*
X2412Y247D01*
X2260Y247D01*
G37*
D02*
G36*
X282Y157D02*
X282Y155D01*
X280Y155D01*
X280Y153D01*
X278Y153D01*
X278Y151D01*
X276Y151D01*
X276Y149D01*
X274Y149D01*
X274Y147D01*
X272Y147D01*
X272Y145D01*
X270Y145D01*
X270Y143D01*
X310Y143D01*
X310Y157D01*
X282Y157D01*
G37*
D02*
G36*
X268Y143D02*
X268Y141D01*
X1718Y141D01*
X1718Y143D01*
X268Y143D01*
G37*
D02*
G36*
X268Y143D02*
X268Y141D01*
X1718Y141D01*
X1718Y143D01*
X268Y143D01*
G37*
D02*
G36*
X268Y143D02*
X268Y141D01*
X1718Y141D01*
X1718Y143D01*
X268Y143D01*
G37*
D02*
G36*
X264Y141D02*
X264Y139D01*
X262Y139D01*
X262Y137D01*
X258Y137D01*
X258Y135D01*
X256Y135D01*
X256Y133D01*
X252Y133D01*
X252Y131D01*
X248Y131D01*
X248Y129D01*
X244Y129D01*
X244Y127D01*
X238Y127D01*
X238Y125D01*
X234Y125D01*
X234Y123D01*
X226Y123D01*
X226Y121D01*
X216Y121D01*
X216Y119D01*
X1732Y119D01*
X1732Y123D01*
X1730Y123D01*
X1730Y125D01*
X1728Y125D01*
X1728Y129D01*
X1726Y129D01*
X1726Y131D01*
X1724Y131D01*
X1724Y135D01*
X1722Y135D01*
X1722Y137D01*
X1720Y137D01*
X1720Y141D01*
X264Y141D01*
G37*
D02*
G36*
X40Y119D02*
X40Y117D01*
X1734Y117D01*
X1734Y119D01*
X40Y119D01*
G37*
D02*
G36*
X40Y119D02*
X40Y117D01*
X1734Y117D01*
X1734Y119D01*
X40Y119D01*
G37*
D02*
G36*
X2470Y119D02*
X2470Y117D01*
X2952Y117D01*
X2952Y119D01*
X2470Y119D01*
G37*
D02*
G36*
X2470Y119D02*
X2470Y117D01*
X2952Y117D01*
X2952Y119D01*
X2470Y119D01*
G37*
D02*
G36*
X40Y117D02*
X40Y67D01*
X1932Y67D01*
X1932Y69D01*
X1784Y69D01*
X1784Y71D01*
X1778Y71D01*
X1778Y73D01*
X1774Y73D01*
X1774Y75D01*
X1770Y75D01*
X1770Y77D01*
X1766Y77D01*
X1766Y79D01*
X1764Y79D01*
X1764Y81D01*
X1760Y81D01*
X1760Y83D01*
X1758Y83D01*
X1758Y85D01*
X1756Y85D01*
X1756Y87D01*
X1754Y87D01*
X1754Y89D01*
X1752Y89D01*
X1752Y93D01*
X1750Y93D01*
X1750Y95D01*
X1748Y95D01*
X1748Y97D01*
X1746Y97D01*
X1746Y101D01*
X1744Y101D01*
X1744Y103D01*
X1742Y103D01*
X1742Y107D01*
X1740Y107D01*
X1740Y111D01*
X1738Y111D01*
X1738Y113D01*
X1736Y113D01*
X1736Y117D01*
X40Y117D01*
G37*
D02*
G36*
X2468Y117D02*
X2468Y115D01*
X2466Y115D01*
X2466Y113D01*
X2464Y113D01*
X2464Y111D01*
X2462Y111D01*
X2462Y107D01*
X2460Y107D01*
X2460Y105D01*
X2458Y105D01*
X2458Y103D01*
X2456Y103D01*
X2456Y99D01*
X2454Y99D01*
X2454Y97D01*
X2452Y97D01*
X2452Y95D01*
X2450Y95D01*
X2450Y93D01*
X2448Y93D01*
X2448Y91D01*
X2446Y91D01*
X2446Y87D01*
X2444Y87D01*
X2444Y85D01*
X2442Y85D01*
X2442Y83D01*
X2438Y83D01*
X2438Y81D01*
X2436Y81D01*
X2436Y79D01*
X2434Y79D01*
X2434Y77D01*
X2430Y77D01*
X2430Y75D01*
X2426Y75D01*
X2426Y73D01*
X2422Y73D01*
X2422Y71D01*
X2414Y71D01*
X2414Y69D01*
X2334Y69D01*
X2334Y67D01*
X2952Y67D01*
X2952Y117D01*
X2468Y117D01*
G37*
D02*
G36*
X40Y67D02*
X40Y65D01*
X2952Y65D01*
X2952Y67D01*
X40Y67D01*
G37*
D02*
G36*
X40Y67D02*
X40Y65D01*
X2952Y65D01*
X2952Y67D01*
X40Y67D01*
G37*
D02*
G36*
X40Y65D02*
X40Y41D01*
X2952Y41D01*
X2952Y65D01*
X40Y65D01*
G37*
D02*
G36*
X375Y635D02*
X420Y635D01*
X420Y563D01*
X375Y563D01*
X375Y635D01*
G37*
D02*
G36*
X1146Y676D02*
X1218Y676D01*
X1218Y631D01*
X1146Y631D01*
X1146Y676D01*
G37*
D02*
G36*
X275Y1325D02*
X320Y1325D01*
X320Y1253D01*
X275Y1253D01*
X275Y1325D01*
G37*
D02*
G36*
X1276Y823D02*
X1319Y823D01*
X1319Y751D01*
X1276Y751D01*
X1276Y823D01*
G37*
D02*
G36*
X1276Y717D02*
X1319Y717D01*
X1319Y643D01*
X1276Y643D01*
X1276Y717D01*
G37*
D02*
G36*
X2375Y3225D02*
X2420Y3225D01*
X2420Y3153D01*
X2375Y3153D01*
X2375Y3225D01*
G37*
D02*
G36*
X2614Y1056D02*
X2684Y1056D01*
X2684Y1011D01*
X2614Y1011D01*
X2614Y1056D01*
G37*
D02*
G36*
X2277Y315D02*
X2318Y315D01*
X2318Y249D01*
X2277Y249D01*
X2277Y315D01*
G37*
D02*
G36*
X2318Y356D02*
X2384Y356D01*
X2384Y315D01*
X2318Y315D01*
X2318Y356D01*
G37*
D02*
G36*
X2175Y3225D02*
X2220Y3225D01*
X2220Y3153D01*
X2175Y3153D01*
X2175Y3225D01*
G37*
D02*
G36*
X2104Y3156D02*
X2178Y3156D01*
X2178Y3111D01*
X2104Y3111D01*
X2104Y3156D01*
G37*
D02*
G36*
X2277Y721D02*
X2318Y721D01*
X2318Y655D01*
X2277Y655D01*
X2277Y721D01*
G37*
D02*
G36*
X2277Y613D02*
X2318Y613D01*
X2318Y547D01*
X2277Y547D01*
X2277Y613D01*
G37*
D02*
G36*
X1175Y3225D02*
X1220Y3225D01*
X1220Y3153D01*
X1175Y3153D01*
X1175Y3225D01*
G37*
D02*
G04 End of Copper0*
M02*