G04 MADE WITH FRITZING*
G04 WWW.FRITZING.ORG*
G04 DOUBLE SIDED*
G04 HOLES PLATED*
G04 CONTOUR ON CENTER OF CONTOUR VECTOR*
%ASAXBY*%
%FSLAX23Y23*%
%MOIN*%
%OFA0B0*%
%SFA1.0B1.0*%
%ADD10C,0.101180*%
%ADD11C,0.049370*%
%ADD12C,0.081824*%
%ADD13C,0.085000*%
%ADD14C,0.090000*%
%ADD15C,0.089370*%
%ADD16C,0.088000*%
%ADD17C,0.080277*%
%ADD18C,0.135984*%
%ADD19R,0.101000X0.101000*%
%ADD20R,0.085000X0.085000*%
%ADD21R,0.090000X0.090000*%
%ADD22R,0.089370X0.089370*%
%ADD23R,0.088000X0.088000*%
%LNMASK1*%
G90*
G70*
G54D10*
X2299Y2731D03*
X2298Y2251D03*
X2776Y2251D03*
X2771Y2731D03*
X2535Y2810D03*
G54D11*
X2499Y2331D03*
G54D12*
X2597Y2017D03*
X2497Y2017D03*
X2398Y2017D03*
X2297Y2017D03*
X2198Y2017D03*
X2098Y2017D03*
X1997Y2017D03*
X1898Y2017D03*
X1798Y2017D03*
X1698Y2017D03*
X1598Y2017D03*
X1498Y2017D03*
X1398Y2017D03*
X1298Y2017D03*
X1198Y2017D03*
X1098Y2017D03*
X999Y2017D03*
X898Y2017D03*
X798Y2017D03*
X798Y1032D03*
X898Y1032D03*
X999Y1032D03*
X1098Y1032D03*
X1198Y1032D03*
X1298Y1032D03*
X1398Y1032D03*
X1498Y1032D03*
X1598Y1032D03*
X1698Y1032D03*
X1798Y1032D03*
X1898Y1032D03*
X1997Y1032D03*
X2098Y1032D03*
X2198Y1032D03*
X2297Y1032D03*
X2398Y1032D03*
X2497Y1032D03*
X2597Y1032D03*
G54D13*
X299Y2331D03*
X299Y2631D03*
X399Y2331D03*
X399Y2631D03*
X499Y2331D03*
X499Y2631D03*
X599Y2331D03*
X599Y2631D03*
X699Y2331D03*
X699Y2631D03*
X799Y2331D03*
X799Y2631D03*
X899Y2331D03*
X899Y2631D03*
X999Y2331D03*
X999Y2631D03*
X1099Y2331D03*
X1099Y2631D03*
X1299Y2331D03*
X1299Y2631D03*
X1399Y2331D03*
X1399Y2631D03*
X1499Y2331D03*
X1499Y2631D03*
X1599Y2331D03*
X1599Y2631D03*
X1699Y2331D03*
X1699Y2631D03*
X1799Y2331D03*
X1799Y2631D03*
X1899Y2331D03*
X1899Y2631D03*
X1999Y2331D03*
X1999Y2631D03*
X2099Y2331D03*
X2099Y2631D03*
G54D14*
X199Y3131D03*
X399Y3131D03*
X1399Y3131D03*
X1599Y3131D03*
G54D15*
X599Y3131D03*
X799Y3131D03*
X1799Y3131D03*
X1999Y3131D03*
G54D14*
X2599Y3131D03*
X2799Y3131D03*
X999Y3131D03*
X1199Y3131D03*
X2199Y3131D03*
X2399Y3131D03*
G54D16*
X1199Y2131D03*
G54D17*
X2099Y333D03*
X2099Y631D03*
X2198Y333D03*
X2198Y631D03*
X2298Y333D03*
X2298Y631D03*
G54D16*
X399Y751D03*
X399Y331D03*
X1129Y751D03*
X1129Y651D03*
X1129Y331D03*
X399Y651D03*
X399Y231D03*
X1129Y231D03*
G54D14*
X299Y1231D03*
X299Y1031D03*
G54D13*
X1654Y354D03*
X1399Y354D03*
X1654Y531D03*
X1399Y531D03*
X1299Y731D03*
X1799Y731D03*
G54D18*
X199Y231D03*
X2099Y2831D03*
X2799Y231D03*
X199Y2831D03*
G54D19*
X2298Y2731D03*
G54D20*
X299Y2331D03*
X1299Y2331D03*
G54D21*
X199Y3131D03*
X1399Y3131D03*
G54D22*
X599Y3131D03*
X1799Y3131D03*
G54D21*
X2599Y3131D03*
X999Y3131D03*
X2199Y3131D03*
G54D23*
X1130Y651D03*
X399Y651D03*
X399Y231D03*
X1130Y231D03*
G54D21*
X299Y1231D03*
G04 End of Mask1*
M02*